M48
;Layer_Color=9474304
;FILE_FORMAT=4:3
METRIC,TZ
;TYPE=PLATED
T1F00S00C0.300
T2F00S00C0.625
T3F00S00C0.711
T4F00S00C0.900
T5F00S00C0.920
T6F00S00C1.000
T8F00S00C1.100
T10F00S00C1.700
T11F00S00C3.200
T12F00S00C3.300
;TYPE=NON_PLATED
T13F00S00C1.000
T14F00S00C3.200
%
T01
X125011Y64518
X127811
X130611
X133299Y67818
X137211Y67318
X137511Y69318
X137566Y70409
X137611Y71718
Y72818
X139211Y74718
X139811Y76018
X138711Y76218
X138011Y77618
X138711Y78418
X130911Y78118
X131011Y79118
X127611Y78500
X132211Y75618
X123517Y72307
X127011Y68718
X138011Y62718
X139011Y62318
X140311Y62618
X140011Y64118
X139611Y61118
X137211Y61518
X142311Y66718
X144811Y71818
Y73918
X147011
Y71818
X117611Y61118
X116611Y58318
X112811Y62118
X109411Y63918
X108611Y64718
X106611
Y63118
X109411Y66318
X109611Y68118
X105011Y69718
X102611Y67718
Y66418
X101311Y60318
X101411Y58318
X98811Y56418
X96211
X96311Y58318
X96211Y60718
X93611
X91811Y62718
X89459Y63856
X89383Y66167
X90780Y66548
X90811Y68518
X87198Y68351
X88211Y70718
X86811Y74518
X82411Y73618
X81511Y73018
X80411Y70318
X81559Y68123
X82411Y76318
X81211Y77118
Y78118
Y79118
X95611Y75018
Y72618
X93611
X99950Y78379
X108711Y79018
X93711Y56418
X86211Y58318
X76811Y62518
X77211Y65118
X78211
X76011Y66118
X76511Y67118
X77011Y69118
X79211Y67318
X70079Y66319
X69611Y71118
X67611Y73118
X67818Y79223
X75011Y76618
X70028Y60782
X75411Y90018
X78911Y90218
X76556Y94336
X80911Y92218
X81911Y93218
X81111Y88818
Y87718
X87418Y87525
X87411Y85918
Y84918
X85811Y85118
X86411Y83718
X86211Y82218
X85011Y82318
X84887Y79604
X81211Y80118
X87411Y82918
X86611Y86718
X87511Y89100
X90711Y87818
X93011Y87018
X92811Y83318
X90611Y80918
Y79918
X98611Y79918
X100111Y81518
X105308Y83337
X115672Y83617
X115711Y93818
X118111Y92918
X118911Y93918
X119011Y100318
X113211Y101518
X104311Y98018
X104011Y97018
X102811Y97118
X102211Y96318
X100711Y95918
X101411Y94518
X95111Y92918
X94611Y98218
X93811
X92711Y97118
X97511Y102518
X102611Y103718
X119901Y95118
X119911Y94118
X120911Y95118
Y96118
X124011Y96518
X126611Y92818
X125211Y89718
X132611Y88718
X131536Y85918
X130886Y85143
X131011Y84118
Y83118
Y82118
Y81118
Y80118
X132461Y82418
X131939Y83619
X136005Y81118
X136311Y79718
X137911Y80818
X139051Y85768
X144511Y85518
X145921Y84778
X146321Y82358
X147711Y82318
X144611Y82718
X142611
X144211Y88618
X145111Y89236
X146611Y89718
X147601Y87638
X144991Y93348
X143611Y92918
X142611
Y91918
X135311Y91718
X126611Y106518
T02
X130250Y71850
X84250
Y91350
X130250
T03
X91516Y94564
T04
X120396Y57023
Y59563
X122936
X125476
X128016
X130556
X133096
X135636
X138176
Y57023
X135636
X133096
X130556
X128016
X125476
X122936
X117856
Y59563
X115316
X112776
X110236
X107696
X105156
X102616
X100076
X97536
X94996
X92456
X89916
X87376
X84836
X82296
Y57023
X84836
X87376
X89916
X92456
X94996
X97536
X100076
X102616
X105156
X107696
X110236
X112776
X115316
X110961Y76418
X108461
X105961
X103461
X100961
X98461
X97536Y105283
Y107823
X94996
X92456
X89916
X87376
X84836
X82296
Y105283
X84836
X87376
X89916
X92456
X94996
X100076
Y107823
X102616
X105156
X107696
X110236
X112776
X115316
X117856
Y105283
X115316
X112776
X110236
X107696
X105156
X102616
X120396
Y107823
X122936
X125476
X128016
X130556
X133096
X135636
X138176
Y105283
X135636
X133096
X130556
X128016
X125476
X122936
T05
X137490Y86823
X137490Y89323
Y91323
Y93823
T06
X79826Y76703
Y79243
X77286Y77973
Y75433
Y80513
Y83053
X79826Y84323
Y81783
T08
X66036Y73553
X67556Y76093
X66036Y83663
X67556Y86203
T10
X73986Y72003
Y87753
T11
X84400Y64600
X133400Y98600
T12
X143256Y61468
X77216Y58293
Y106553
X143256Y103378
T13
X144211Y70218
Y78198
X67730Y65899
Y61499
T14
X70936Y74163
Y85593
M30
