%FSLAX43Y43*%
%MOMM*%
G71*
G01*
G75*
G04 Layer_Color=16711935*
%ADD10C,0.254*%
%ADD11R,0.813X0.914*%
%ADD12R,1.000X0.900*%
%ADD13R,1.300X1.400*%
%ADD14O,1.200X0.250*%
%ADD15R,0.400X1.600*%
%ADD16O,0.400X1.600*%
%ADD17R,1.890X1.570*%
%ADD18R,0.914X0.813*%
%ADD19R,0.900X1.000*%
%ADD20R,0.800X0.800*%
%ADD21R,2.000X1.450*%
%ADD22R,1.200X0.250*%
%ADD23R,0.900X0.400*%
%ADD24R,4.000X2.050*%
%ADD25R,2.300X0.500*%
%ADD26R,3.500X2.050*%
%ADD27R,1.400X1.300*%
%ADD28R,2.400X3.300*%
%ADD29R,2.400X0.950*%
%ADD30R,1.700X0.600*%
%ADD31R,1.000X1.000*%
%ADD32R,0.600X1.700*%
%ADD33R,1.000X1.000*%
%ADD34C,0.200*%
%ADD35C,0.400*%
%ADD36C,0.500*%
%ADD37C,0.800*%
%ADD38C,1.000*%
%ADD39C,0.508*%
%ADD40R,1.700X2.100*%
%ADD41C,4.500*%
%ADD42R,1.420X1.420*%
%ADD43C,1.420*%
%ADD44C,1.600*%
%ADD45R,1.600X1.600*%
%ADD46O,3.340X1.800*%
%ADD47C,5.500*%
%ADD48C,1.000*%
%ADD49O,2.000X4.500*%
%ADD50R,2.000X5.000*%
%ADD51O,4.000X2.000*%
%ADD52C,1.700*%
%ADD53C,3.200*%
%ADD54C,3.000*%
%ADD55R,1.500X1.500*%
%ADD56C,1.500*%
%ADD57C,1.480*%
%ADD58R,1.480X1.480*%
%ADD59C,1.270*%
%ADD60C,0.800*%
G04:AMPARAMS|DCode=61|XSize=1mm|YSize=1.5mm|CornerRadius=0.25mm|HoleSize=0mm|Usage=FLASHONLY|Rotation=0.000|XOffset=0mm|YOffset=0mm|HoleType=Round|Shape=RoundedRectangle|*
%AMROUNDEDRECTD61*
21,1,1.000,1.000,0,0,0.0*
21,1,0.500,1.500,0,0,0.0*
1,1,0.500,0.250,-0.500*
1,1,0.500,-0.250,-0.500*
1,1,0.500,-0.250,0.500*
1,1,0.500,0.250,0.500*
%
%ADD61ROUNDEDRECTD61*%
%ADD62R,2.600X2.200*%
%ADD63R,0.400X0.650*%
%ADD64R,0.520X0.300*%
%ADD65R,2.200X1.200*%
%ADD66R,1.400X1.600*%
%ADD67R,1.400X1.200*%
%ADD68R,1.600X0.700*%
%ADD69C,0.305*%
%ADD70R,1.700X1.600*%
%ADD71C,0.250*%
%ADD72C,0.100*%
%ADD73C,0.120*%
%ADD74C,0.300*%
%ADD75R,1.016X1.118*%
%ADD76R,1.203X1.103*%
%ADD77R,1.503X1.603*%
%ADD78O,1.300X0.350*%
%ADD79R,0.603X1.803*%
%ADD80O,0.603X1.803*%
%ADD81R,2.093X1.773*%
%ADD82R,1.118X1.016*%
%ADD83R,1.103X1.203*%
%ADD84R,1.003X1.003*%
%ADD85R,2.040X1.490*%
%ADD86R,1.240X0.290*%
%ADD87R,1.000X0.500*%
%ADD88R,4.203X2.253*%
%ADD89R,2.503X0.703*%
%ADD90R,3.703X2.253*%
%ADD91R,1.603X1.503*%
%ADD92R,2.603X3.503*%
%ADD93R,2.603X1.153*%
%ADD94R,1.903X0.803*%
%ADD95R,1.203X1.203*%
%ADD96R,0.803X1.903*%
%ADD97R,1.203X1.203*%
%ADD98C,4.703*%
%ADD99R,1.623X1.623*%
%ADD100C,1.623*%
%ADD101C,1.803*%
%ADD102R,1.803X1.803*%
%ADD103O,3.543X2.003*%
%ADD104R,0.040X0.290*%
%ADD105C,5.600*%
%ADD106C,1.203*%
%ADD107O,2.203X4.703*%
%ADD108R,2.203X5.203*%
%ADD109O,4.203X2.203*%
%ADD110C,1.903*%
%ADD111C,3.403*%
%ADD112C,3.203*%
%ADD113R,1.703X1.703*%
%ADD114C,1.703*%
%ADD115C,1.683*%
%ADD116R,1.683X1.683*%
%ADD117C,1.473*%
%ADD118C,1.003*%
G04:AMPARAMS|DCode=119|XSize=1.203mm|YSize=1.703mm|CornerRadius=0.352mm|HoleSize=0mm|Usage=FLASHONLY|Rotation=0.000|XOffset=0mm|YOffset=0mm|HoleType=Round|Shape=RoundedRectangle|*
%AMROUNDEDRECTD119*
21,1,1.203,1.000,0,0,0.0*
21,1,0.500,1.703,0,0,0.0*
1,1,0.703,0.250,-0.500*
1,1,0.703,-0.250,-0.500*
1,1,0.703,-0.250,0.500*
1,1,0.703,0.250,0.500*
%
%ADD119ROUNDEDRECTD119*%
%ADD120R,2.803X2.403*%
%ADD121R,0.603X0.853*%
%ADD122R,0.620X0.400*%
%ADD123R,2.327X1.327*%
%ADD124R,1.527X1.727*%
%ADD125R,1.527X1.327*%
%ADD126R,1.728X0.828*%
%ADD127R,1.727X0.827*%
D10*
X68961Y109728D02*
G03*
X62611Y103378I0J-6350D01*
G01*
Y61468D02*
G03*
X68961Y55118I6350J0D01*
G01*
X136271D02*
G03*
X148971Y67818I0J12700D01*
G01*
Y97028D02*
G03*
X136271Y109728I-12700J0D01*
G01*
X148971Y95758D02*
Y97028D01*
X62611Y102108D02*
Y103378D01*
Y61468D02*
Y102108D01*
X68961Y55118D02*
X136271D01*
X68961Y109728D02*
X136271D01*
X148971Y67818D02*
Y95758D01*
D72*
X129650Y81600D02*
X134650D01*
X132150Y70100D02*
Y81600D01*
Y93100D01*
X129650Y81600D02*
X134650D01*
X132150Y70100D02*
Y81600D01*
Y93100D01*
X83650Y81600D02*
X88650D01*
X86150Y70100D02*
Y81600D01*
Y93100D01*
X83650Y81600D02*
X88650D01*
X86150Y70100D02*
Y81600D01*
Y93100D01*
M02*
