%FSLAX43Y43*%
%MOMM*%
G71*
G01*
G75*
G04 Layer_Physical_Order=2*
G04 Layer_Color=16711680*
%ADD10C,0.254*%
%ADD11C,0.200*%
%ADD12C,0.200*%
%ADD13R,1.000X0.900*%
%ADD14R,1.890X1.570*%
%ADD15O,0.400X1.600*%
%ADD16R,0.400X1.600*%
%ADD17R,0.800X0.800*%
%ADD18R,0.600X1.700*%
%ADD19R,1.000X1.000*%
%ADD20R,2.400X0.950*%
%ADD21R,2.400X3.300*%
%ADD22R,0.900X1.000*%
%ADD23R,0.914X0.813*%
%ADD24R,1.200X0.250*%
%ADD25R,2.000X1.450*%
%ADD26R,0.813X0.914*%
%ADD27O,1.200X0.250*%
%ADD28R,1.300X1.400*%
%ADD29R,1.650X0.300*%
%ADD30C,1.000*%
%ADD31R,3.000X1.500*%
%ADD32R,2.300X0.500*%
%ADD33C,0.350*%
%ADD34C,0.400*%
%ADD35C,1.000*%
%ADD36C,0.508*%
%ADD37C,0.800*%
%ADD38C,0.500*%
%ADD39C,0.305*%
%ADD40C,0.300*%
%ADD41R,1.700X2.100*%
%ADD42C,1.420*%
%ADD43R,1.420X1.420*%
%ADD44O,2.000X4.500*%
%ADD45R,2.000X5.000*%
%ADD46O,4.000X2.000*%
%ADD47C,1.700*%
%ADD48C,1.500*%
%ADD49R,1.500X1.500*%
%ADD50C,3.200*%
%ADD51C,3.000*%
%ADD52R,1.480X1.480*%
%ADD53C,1.480*%
%ADD54C,5.500*%
%ADD55C,4.500*%
%ADD56O,3.340X1.800*%
%ADD57R,1.600X1.600*%
%ADD58C,1.600*%
%ADD59C,0.800*%
%ADD60C,0.400*%
G04:AMPARAMS|DCode=61|XSize=1mm|YSize=1.5mm|CornerRadius=0.25mm|HoleSize=0mm|Usage=FLASHONLY|Rotation=180.000|XOffset=0mm|YOffset=0mm|HoleType=Round|Shape=RoundedRectangle|*
%AMROUNDEDRECTD61*
21,1,1.000,1.000,0,0,180.0*
21,1,0.500,1.500,0,0,180.0*
1,1,0.500,-0.250,0.500*
1,1,0.500,0.250,0.500*
1,1,0.500,0.250,-0.500*
1,1,0.500,-0.250,-0.500*
%
%ADD61ROUNDEDRECTD61*%
%ADD62R,2.200X1.200*%
%ADD63R,1.600X0.700*%
%ADD64R,1.400X1.200*%
%ADD65R,1.400X1.600*%
%ADD66R,0.400X0.650*%
%ADD67R,2.600X2.200*%
%ADD68R,1.700X1.600*%
G36*
X103714Y98275D02*
X103678Y98188D01*
X103655Y98018D01*
X103678Y97848D01*
X103743Y97690D01*
X103719Y97601D01*
X103683Y97586D01*
X103547Y97482D01*
X103489Y97406D01*
X103390Y97419D01*
X103379Y97446D01*
X103275Y97582D01*
X103139Y97686D01*
X102981Y97751D01*
X102811Y97774D01*
X102641Y97751D01*
X102483Y97686D01*
X102347Y97582D01*
X102243Y97446D01*
X102178Y97288D01*
X102155Y97118D01*
X102175Y96969D01*
X102041Y96951D01*
X101883Y96886D01*
X101747Y96782D01*
X101643Y96646D01*
X101578Y96488D01*
X101555Y96318D01*
X101560Y96282D01*
X101475Y96229D01*
X101448Y96248D01*
X101311Y96275D01*
X100859D01*
X100615Y96518D01*
X100500Y96596D01*
X100363Y96623D01*
X100139D01*
X100057Y96730D01*
X99921Y96834D01*
X99763Y96899D01*
X99593Y96922D01*
X99424Y96899D01*
X99266Y96834D01*
X99130Y96730D01*
X99026Y96594D01*
X98960Y96436D01*
X98938Y96266D01*
X98960Y96096D01*
X99026Y95938D01*
X99130Y95802D01*
X99266Y95698D01*
X99424Y95633D01*
X99593Y95610D01*
X99763Y95633D01*
X99921Y95698D01*
X100057Y95802D01*
X100126Y95892D01*
X100226Y95899D01*
X100459Y95666D01*
X100574Y95588D01*
X100711Y95561D01*
X101163D01*
X101459Y95266D01*
X101459D01*
D01*
X101424Y95172D01*
X101411Y95174D01*
X101241Y95151D01*
X101083Y95086D01*
X100947Y94982D01*
X100843Y94846D01*
X100806Y94755D01*
X100739Y94742D01*
X100666Y94811D01*
X100681Y94920D01*
X100658Y95089D01*
X100593Y95248D01*
X100489Y95383D01*
X100353Y95488D01*
X100195Y95553D01*
X100025Y95575D01*
X99856Y95553D01*
X99697Y95488D01*
X99562Y95383D01*
X99457Y95248D01*
X99392Y95089D01*
X99370Y94920D01*
X99392Y94750D01*
X99457Y94592D01*
X99562Y94456D01*
X99697Y94352D01*
X99856Y94287D01*
X100025Y94264D01*
X100153Y94281D01*
X103566Y90869D01*
X103681Y90791D01*
X103818Y90764D01*
X119696D01*
X119833Y90791D01*
X119948Y90869D01*
X119948Y90869D01*
X119948Y90869D01*
X121355Y92275D01*
X121488Y92258D01*
X121658Y92280D01*
X121816Y92345D01*
X121952Y92450D01*
X122056Y92585D01*
X122121Y92744D01*
X122144Y92913D01*
X122121Y93083D01*
X122056Y93241D01*
X121952Y93377D01*
X121816Y93481D01*
X121658Y93546D01*
X121488Y93569D01*
X121319Y93546D01*
X121160Y93481D01*
X121025Y93377D01*
X120920Y93241D01*
X120855Y93083D01*
X120833Y92913D01*
X120850Y92780D01*
X119548Y91478D01*
X118787D01*
X118731Y91561D01*
X118769Y91651D01*
X118791Y91821D01*
X118788Y91846D01*
X118858Y91917D01*
X118974Y91902D01*
X119143Y91924D01*
X119301Y91990D01*
X119437Y92094D01*
X119541Y92230D01*
X119607Y92388D01*
X119629Y92558D01*
X119607Y92727D01*
X119541Y92885D01*
X119437Y93021D01*
X119301Y93125D01*
X119143Y93191D01*
X118974Y93213D01*
X118840Y93196D01*
X116567Y95469D01*
X116605Y95561D01*
X117963D01*
X119273Y94251D01*
X119255Y94118D01*
X119278Y93948D01*
X119343Y93790D01*
X119447Y93654D01*
X119583Y93550D01*
X119741Y93485D01*
X119911Y93462D01*
X120081Y93485D01*
X120239Y93550D01*
X120375Y93654D01*
X120479Y93790D01*
X120544Y93948D01*
X120567Y94118D01*
X120544Y94288D01*
X120479Y94446D01*
X120388Y94565D01*
X120421Y94633D01*
X120454Y94649D01*
X120583Y94550D01*
X120741Y94485D01*
X120911Y94462D01*
X121081Y94485D01*
X121239Y94550D01*
X121375Y94654D01*
X121479Y94790D01*
X121544Y94948D01*
X121567Y95118D01*
X121544Y95288D01*
X121479Y95446D01*
X121375Y95582D01*
Y95654D01*
X121479Y95790D01*
X121544Y95948D01*
X121567Y96118D01*
X121544Y96288D01*
X121479Y96446D01*
X121375Y96582D01*
X121239Y96686D01*
X121081Y96751D01*
X120968Y96766D01*
X120522Y97212D01*
X120560Y97304D01*
X125294D01*
X125316Y97283D01*
X125482Y97171D01*
X125679Y97132D01*
X128531D01*
X129921Y95742D01*
X129883Y95650D01*
X127475D01*
Y92950D01*
X127808D01*
X127846Y92858D01*
X125344Y90356D01*
X125211Y90374D01*
X125041Y90351D01*
X124883Y90286D01*
X124747Y90182D01*
X124643Y90046D01*
X124578Y89888D01*
X124555Y89718D01*
X124578Y89548D01*
X124643Y89390D01*
X124747Y89254D01*
X124883Y89150D01*
X125041Y89085D01*
X125211Y89062D01*
X125333Y89078D01*
X125377Y88989D01*
X123163Y86775D01*
X122911D01*
Y87468D01*
X121511D01*
Y86208D01*
X121311D01*
Y87468D01*
X120166D01*
X119463Y88170D01*
X119348Y88248D01*
X119211Y88275D01*
X112411D01*
X112274Y88248D01*
X112159Y88170D01*
X110363Y86375D01*
X90559D01*
X88363Y88570D01*
X88248Y88648D01*
X88111Y88675D01*
X87211D01*
X87074Y88648D01*
X86959Y88570D01*
X86359Y87970D01*
X86281Y87855D01*
X86254Y87718D01*
Y87263D01*
X86147Y87182D01*
X86043Y87046D01*
X85978Y86888D01*
X85955Y86718D01*
X85978Y86548D01*
X86043Y86390D01*
X86147Y86254D01*
X86283Y86150D01*
X86441Y86085D01*
X86611Y86062D01*
X86696Y86074D01*
X86767Y86003D01*
X86755Y85918D01*
X86778Y85748D01*
X86843Y85590D01*
X86947Y85454D01*
Y85382D01*
X86843Y85246D01*
X86803Y85148D01*
X86705Y85129D01*
X86463Y85370D01*
X86447Y85382D01*
X86390Y85420D01*
X86379Y85446D01*
X86275Y85582D01*
X86139Y85686D01*
X85981Y85751D01*
X85811Y85774D01*
X85641Y85751D01*
X85551Y85714D01*
X85468Y85769D01*
Y87542D01*
X88463Y90538D01*
X88541Y90653D01*
X88568Y90790D01*
X88568Y90790D01*
X88568Y90790D01*
Y90790D01*
Y93770D01*
X93064Y98266D01*
X93156Y98228D01*
Y98223D01*
X93155Y98218D01*
X93156Y98213D01*
Y97018D01*
X93176Y96920D01*
X93231Y96838D01*
X93313Y96783D01*
X93411Y96763D01*
X95111D01*
X95209Y96783D01*
X95291Y96838D01*
X95346Y96920D01*
X95366Y97018D01*
Y97704D01*
X101811D01*
X102008Y97743D01*
X102174Y97855D01*
X102678Y98358D01*
X103658D01*
X103714Y98275D01*
D02*
G37*
G36*
X91352Y69035D02*
X91262Y68991D01*
X91139Y69086D01*
X90981Y69151D01*
X90811Y69174D01*
X90678Y69156D01*
X90366Y69468D01*
X90250Y69545D01*
X90113Y69573D01*
X86631D01*
Y69966D01*
X85123D01*
Y69573D01*
X84475D01*
Y69625D01*
X82975D01*
Y69445D01*
X78659D01*
X78523Y69418D01*
X78407Y69340D01*
X77929Y68862D01*
X77913Y68839D01*
X77580D01*
Y68260D01*
X77480D01*
Y68160D01*
X77026D01*
Y67681D01*
D01*
Y67681D01*
X76961Y67616D01*
X75844D01*
X75708Y67589D01*
X75592Y67512D01*
X73233Y65152D01*
X72881D01*
Y65295D01*
X72842Y65490D01*
X72732Y65656D01*
X72566Y65766D01*
X72371Y65805D01*
X72239D01*
X72200Y65898D01*
X72374Y66071D01*
X72451Y66187D01*
X72452Y66189D01*
X72566Y66212D01*
X72732Y66323D01*
X72842Y66488D01*
X72881Y66683D01*
Y67683D01*
X72842Y67878D01*
X72732Y68043D01*
X72566Y68154D01*
X72371Y68193D01*
X71871D01*
X71676Y68154D01*
X71511Y68043D01*
X71400Y67878D01*
X71362Y67683D01*
Y66683D01*
X71400Y66488D01*
X71511Y66323D01*
X71520Y66227D01*
X71069Y65776D01*
X70992Y65660D01*
X70965Y65523D01*
Y64068D01*
X70992Y63931D01*
X71069Y63815D01*
X71391Y63493D01*
D01*
X71391D01*
Y63493D01*
D01*
X71391D01*
Y63493D01*
X71391D01*
X71391Y63493D01*
Y63493D01*
X71391Y63493D01*
Y63493D01*
X71507Y63416D01*
X71532Y63411D01*
X71552Y63313D01*
X71486Y63268D01*
X71375Y63103D01*
X71336Y62908D01*
Y62153D01*
X71018Y61835D01*
X70941Y61719D01*
X70914Y61582D01*
Y59292D01*
X70914Y59292D01*
X70914D01*
X70941Y59156D01*
X71018Y59040D01*
X71340Y58718D01*
X71456Y58641D01*
X71593Y58613D01*
X72548D01*
X72685Y58641D01*
X72801Y58718D01*
X75311Y61228D01*
X75760D01*
Y61010D01*
X76679D01*
X76681Y60999D01*
X76758Y60883D01*
X76788Y60854D01*
X76754Y60760D01*
X76726Y60757D01*
X76255Y60614D01*
X75820Y60382D01*
X75440Y60069D01*
X75127Y59689D01*
X74895Y59254D01*
X74752Y58783D01*
X74704Y58293D01*
X74748Y57847D01*
X74674Y57836D01*
X74644Y57826D01*
X74613Y57820D01*
X74598Y57809D01*
X74580Y57803D01*
X74557Y57782D01*
X74531Y57764D01*
X74520Y57749D01*
X74506Y57736D01*
X74495Y57713D01*
X65590D01*
Y58009D01*
X65584Y58042D01*
X65581Y58075D01*
X65574Y58090D01*
X65571Y58107D01*
X65552Y58134D01*
X65537Y58164D01*
X65525Y58175D01*
X65516Y58189D01*
X65492Y58205D01*
X65475Y58304D01*
X65566Y58422D01*
X65632Y58581D01*
X65654Y58750D01*
X65632Y58920D01*
X65566Y59078D01*
X65462Y59214D01*
X65347Y59303D01*
X65379Y59397D01*
X65508D01*
Y60897D01*
X64784D01*
Y62090D01*
X65051D01*
Y63563D01*
Y65063D01*
X64784D01*
Y66458D01*
X65051D01*
Y67958D01*
X65051Y67958D01*
X65051D01*
X65062Y68042D01*
X65075Y68051D01*
X65244Y68074D01*
X65403Y68139D01*
X65538Y68243D01*
X65596Y68319D01*
X65696D01*
X65754Y68243D01*
X65890Y68139D01*
X66048Y68074D01*
X66166Y68058D01*
X66160Y67958D01*
X65251D01*
Y66458D01*
X66651D01*
Y66775D01*
X68862D01*
Y66683D01*
X68900Y66488D01*
X69011Y66323D01*
X69176Y66212D01*
X69371Y66173D01*
X69871D01*
X70066Y66212D01*
X70232Y66323D01*
X70342Y66488D01*
X70381Y66683D01*
Y67683D01*
X70342Y67878D01*
X70232Y68043D01*
X70066Y68154D01*
X69871Y68193D01*
X69371D01*
X69176Y68154D01*
X69011Y68043D01*
X68900Y67878D01*
X68862Y67683D01*
Y67642D01*
X66651D01*
Y67958D01*
X66276D01*
X66269Y68058D01*
X66387Y68074D01*
X66546Y68139D01*
X66681Y68243D01*
X66786Y68379D01*
X66851Y68537D01*
X66873Y68707D01*
X66851Y68877D01*
X66826Y68938D01*
X66903Y69001D01*
X66979Y68950D01*
X67155Y68915D01*
X74893D01*
X75068Y68950D01*
X75217Y69050D01*
X76027Y69859D01*
X79944D01*
X79947Y69854D01*
X80083Y69750D01*
X80241Y69685D01*
X80411Y69662D01*
X80581Y69685D01*
X80739Y69750D01*
X80875Y69854D01*
X80979Y69990D01*
X81044Y70148D01*
X81067Y70318D01*
X81066Y70324D01*
X81351Y70609D01*
X82161D01*
X82337Y70644D01*
X82485Y70744D01*
X82879Y71137D01*
X82971Y71098D01*
Y70625D01*
X84479D01*
Y71229D01*
X84272D01*
X84266Y71236D01*
X84469Y71320D01*
X84469D01*
D01*
D01*
D01*
X84469Y71320D01*
X84656Y71444D01*
X84780Y71631D01*
X84824Y71850D01*
X84787Y72032D01*
X84851Y72109D01*
X91352D01*
Y69035D01*
D02*
G37*
G36*
X148160Y88133D02*
X148065Y88101D01*
X148065Y88102D01*
X147929Y88206D01*
X147771Y88271D01*
X147601Y88294D01*
X147431Y88271D01*
X147273Y88206D01*
X147137Y88102D01*
X147033Y87966D01*
X146968Y87808D01*
X146945Y87638D01*
X146968Y87468D01*
X147033Y87310D01*
X147137Y87174D01*
X147273Y87070D01*
X147431Y87005D01*
X147444Y87003D01*
Y83986D01*
X146454Y82996D01*
X146321Y83014D01*
X146151Y82991D01*
X145993Y82926D01*
X145857Y82822D01*
X145753Y82686D01*
X145688Y82528D01*
X145665Y82358D01*
X145688Y82188D01*
X145753Y82030D01*
X145857Y81894D01*
X145993Y81790D01*
X146151Y81725D01*
X146321Y81702D01*
X146491Y81725D01*
X146649Y81790D01*
X146785Y81894D01*
X146889Y82030D01*
X146954Y82188D01*
X146977Y82358D01*
X146959Y82491D01*
X148053Y83586D01*
X148065Y83604D01*
X148161Y83575D01*
X148162Y80893D01*
X148070Y80854D01*
X147499Y81424D01*
X147351Y81524D01*
X147175Y81559D01*
X145161D01*
Y81868D01*
X142461D01*
Y81648D01*
X142369Y81609D01*
X141387Y82591D01*
X141406Y82689D01*
X141550Y82748D01*
X141790Y82933D01*
X141975Y83173D01*
X142090Y83453D01*
X142130Y83753D01*
X142090Y84053D01*
X141975Y84333D01*
X141790Y84573D01*
X141550Y84758D01*
X141270Y84873D01*
X140970Y84913D01*
X139430D01*
X139130Y84873D01*
X138850Y84758D01*
X138610Y84573D01*
X138425Y84333D01*
X138310Y84053D01*
X138270Y83753D01*
X138278Y83689D01*
X138189Y83645D01*
X136168Y85666D01*
Y90112D01*
X136141Y90249D01*
X136063Y90364D01*
X134359Y92069D01*
X134363Y92079D01*
X134418Y92161D01*
X136697D01*
X136741Y92071D01*
X136573Y91853D01*
X136467Y91597D01*
X136431Y91323D01*
X136467Y91049D01*
X136573Y90793D01*
X136741Y90574D01*
X136960Y90406D01*
X137040Y90373D01*
Y90273D01*
X136960Y90240D01*
X136741Y90072D01*
X136573Y89853D01*
X136467Y89597D01*
X136431Y89323D01*
X136467Y89049D01*
X136573Y88793D01*
X136741Y88574D01*
X136960Y88406D01*
X137216Y88300D01*
X137490Y88264D01*
X137764Y88300D01*
X138020Y88406D01*
X138239Y88574D01*
X138407Y88793D01*
X138513Y89049D01*
X138549Y89323D01*
X138513Y89597D01*
X138407Y89853D01*
X138239Y90072D01*
X138020Y90240D01*
X137940Y90273D01*
Y90373D01*
X138020Y90406D01*
X138239Y90574D01*
X138407Y90793D01*
X138513Y91049D01*
X138549Y91323D01*
X138513Y91597D01*
X138407Y91853D01*
X138239Y92071D01*
X138283Y92161D01*
X138411D01*
X138548Y92188D01*
X138663Y92266D01*
X140829Y94431D01*
X144713D01*
X145053Y94091D01*
X145009Y94001D01*
X144991Y94004D01*
X144821Y93981D01*
X144663Y93916D01*
X144527Y93812D01*
X144423Y93676D01*
X144358Y93518D01*
X144335Y93348D01*
X144358Y93178D01*
X144423Y93020D01*
X144527Y92884D01*
X144634Y92803D01*
Y91856D01*
X139184Y86406D01*
X139051Y86424D01*
X138881Y86401D01*
X138723Y86336D01*
X138587Y86232D01*
X138483Y86096D01*
X138418Y85938D01*
X138395Y85768D01*
X138418Y85598D01*
X138483Y85440D01*
X138587Y85304D01*
X138723Y85200D01*
X138881Y85135D01*
X139051Y85112D01*
X139221Y85135D01*
X139379Y85200D01*
X139515Y85304D01*
X139619Y85440D01*
X139684Y85598D01*
X139707Y85768D01*
X139689Y85901D01*
X145243Y91456D01*
X145321Y91571D01*
X145348Y91708D01*
X145348Y91708D01*
X145348Y91708D01*
Y91708D01*
Y92803D01*
X145455Y92884D01*
X145559Y93020D01*
X145624Y93178D01*
X145647Y93348D01*
X145644Y93366D01*
X145734Y93410D01*
X146254Y92890D01*
Y90263D01*
X146147Y90182D01*
X146043Y90046D01*
X145978Y89888D01*
X145955Y89718D01*
X145978Y89548D01*
X146043Y89390D01*
X146147Y89254D01*
X146283Y89150D01*
X146372Y89114D01*
X146391Y89016D01*
X144387Y87011D01*
X144287Y86862D01*
X144252Y86687D01*
Y86114D01*
X144183Y86086D01*
X144047Y85982D01*
X143943Y85846D01*
X143878Y85688D01*
X143855Y85518D01*
X143878Y85348D01*
X143943Y85190D01*
X144047Y85054D01*
X144183Y84950D01*
X144341Y84885D01*
X144511Y84862D01*
X144681Y84885D01*
X144839Y84950D01*
X144959Y85043D01*
X145035Y85094D01*
X145135Y85242D01*
X145170Y85418D01*
Y86497D01*
X147735Y89062D01*
X147835Y89211D01*
X147870Y89387D01*
Y92945D01*
X147835Y93121D01*
X147735Y93270D01*
X145393Y95612D01*
X145244Y95712D01*
X145068Y95747D01*
X141464D01*
X141445Y95845D01*
X141550Y95888D01*
X141790Y96073D01*
X141975Y96313D01*
X142025Y96434D01*
X148157D01*
X148160Y88133D01*
D02*
G37*
G36*
X81415Y66587D02*
X79982Y65154D01*
X77573D01*
X77437Y65127D01*
X77321Y65050D01*
X76608Y64337D01*
X76531Y64221D01*
X76504Y64084D01*
Y64064D01*
X76310D01*
Y63485D01*
Y62906D01*
X76595D01*
X76609Y62873D01*
X76553Y62790D01*
X74484D01*
X74347Y62763D01*
X74231Y62686D01*
X72528Y60983D01*
X72516Y60991D01*
X72321Y61030D01*
X71821D01*
X71705Y61007D01*
X71627Y61070D01*
Y61363D01*
X71705Y61426D01*
X71846Y61398D01*
X72346D01*
X72541Y61437D01*
X72706Y61547D01*
X72817Y61713D01*
X72856Y61908D01*
Y62908D01*
X72817Y63103D01*
X72706Y63268D01*
X72670Y63293D01*
X72699Y63389D01*
X73398D01*
X73482Y63372D01*
X73619Y63399D01*
X73735Y63476D01*
X76261Y66003D01*
X77030D01*
Y65785D01*
X78326D01*
Y65781D01*
X78680D01*
Y66360D01*
X78780D01*
Y66460D01*
X79234D01*
Y66679D01*
X81376D01*
X81415Y66587D01*
D02*
G37*
G36*
X87171Y108764D02*
X87125Y108758D01*
X86892Y108662D01*
X86691Y108508D01*
X86537Y108307D01*
X86441Y108074D01*
X86408Y107823D01*
X86441Y107572D01*
X86537Y107339D01*
X86691Y107138D01*
X86720Y107116D01*
Y105990D01*
X86691Y105968D01*
X86537Y105767D01*
X86441Y105534D01*
X86408Y105283D01*
X86441Y105032D01*
X86537Y104799D01*
X86620Y104692D01*
Y102752D01*
X85031Y101163D01*
X84938Y101201D01*
Y101729D01*
X84034D01*
Y101829D01*
X83934D01*
Y102783D01*
X83130D01*
X83073Y102871D01*
X84560Y104358D01*
X84585Y104348D01*
X84836Y104315D01*
X85087Y104348D01*
X85320Y104444D01*
X85521Y104598D01*
X85675Y104799D01*
X85771Y105032D01*
X85804Y105283D01*
X85771Y105534D01*
X85675Y105767D01*
X85521Y105968D01*
X85320Y106122D01*
X85295Y106132D01*
Y106974D01*
X85320Y106984D01*
X85521Y107138D01*
X85675Y107339D01*
X85771Y107572D01*
X85804Y107823D01*
X85771Y108074D01*
X85675Y108307D01*
X85521Y108508D01*
X85320Y108662D01*
X85087Y108758D01*
X85044Y108764D01*
X85050Y108864D01*
X87165Y108864D01*
X87171Y108764D01*
D02*
G37*
G36*
X81289Y108863D02*
X81288D01*
X81289D01*
X81332Y108820D01*
X81332Y108787D01*
X81332D01*
Y107923D01*
X83260D01*
Y108787D01*
X83260D01*
Y108863D01*
X84621Y108864D01*
X84628Y108764D01*
X84585Y108758D01*
X84352Y108662D01*
X84151Y108508D01*
X83997Y108307D01*
X83901Y108074D01*
X83868Y107823D01*
X83901Y107572D01*
X83997Y107339D01*
X84151Y107138D01*
X84352Y106984D01*
X84377Y106974D01*
Y106132D01*
X84352Y106122D01*
X84151Y105968D01*
X83997Y105767D01*
X83901Y105534D01*
X83868Y105283D01*
X83901Y105032D01*
X83911Y105007D01*
X81780Y102876D01*
X72748D01*
X72573Y102841D01*
X72424Y102742D01*
X70465Y100783D01*
X70366Y100634D01*
X70331Y100459D01*
X70331Y100459D01*
X70331D01*
X70331Y100459D01*
X70331D01*
Y95567D01*
X63787Y89023D01*
X63687Y88874D01*
X63652Y88698D01*
X63652Y88698D01*
X63652D01*
X63652Y88698D01*
X63652D01*
Y72418D01*
X63652Y72418D01*
X63652D01*
X63687Y72242D01*
X63787Y72094D01*
X63866Y72014D01*
Y67958D01*
X63651D01*
Y66458D01*
X63918D01*
Y65063D01*
X63651D01*
Y63563D01*
Y62090D01*
X63918D01*
Y60604D01*
X63951Y60439D01*
X64045Y60298D01*
X64108Y60234D01*
Y59488D01*
X64013Y59459D01*
X64006Y59468D01*
X63769Y59949D01*
X63597Y60457D01*
X63492Y60983D01*
X63459Y61492D01*
X63466Y61527D01*
X63466Y61527D01*
X63466Y61527D01*
X63455Y103688D01*
X63497Y104333D01*
X63622Y104959D01*
X63827Y105563D01*
X64109Y106135D01*
X64463Y106666D01*
X64891Y107154D01*
X65078Y107317D01*
X65153Y107251D01*
X65152Y107250D01*
X65113Y107053D01*
Y106653D01*
X65777D01*
Y107567D01*
X65627D01*
X65503Y107542D01*
X65480Y107569D01*
X65493Y107668D01*
X66035Y108030D01*
X66687Y108352D01*
X67376Y108586D01*
X68089Y108727D01*
X68780Y108773D01*
X68828Y108763D01*
X68828Y108763D01*
X68828Y108763D01*
X72394Y108773D01*
X72414Y108675D01*
X72342Y108645D01*
X72206Y108541D01*
X72102Y108405D01*
X72036Y108247D01*
X72014Y108077D01*
X72036Y107907D01*
X72102Y107749D01*
X72206Y107613D01*
X72222Y107601D01*
X72190Y107506D01*
X72033D01*
Y106006D01*
X73433D01*
Y107506D01*
X73149D01*
X73117Y107601D01*
X73133Y107613D01*
X73237Y107749D01*
X73303Y107907D01*
X73325Y108077D01*
X73303Y108247D01*
X73237Y108405D01*
X73133Y108541D01*
X72997Y108645D01*
X72922Y108676D01*
X72941Y108774D01*
X73229Y108775D01*
X73535Y108735D01*
X73805Y108623D01*
X74018Y108459D01*
X74051Y108410D01*
X74057Y108381D01*
X74056Y108378D01*
X74044Y106219D01*
X74047Y106206D01*
X74046Y106193D01*
X74092Y105720D01*
X74100Y105696D01*
X74102Y105671D01*
X74240Y105216D01*
X74252Y105194D01*
X74259Y105170D01*
X74483Y104750D01*
X74499Y104731D01*
X74511Y104709D01*
X74805Y104350D01*
X74810Y104346D01*
X74814Y104341D01*
X74849Y104315D01*
X74873Y104295D01*
X75222Y103935D01*
X75234Y103926D01*
X75243Y103915D01*
X75503Y103702D01*
X75526Y103690D01*
X75545Y103674D01*
X75841Y103516D01*
X75866Y103508D01*
X75888Y103496D01*
X76209Y103399D01*
X76234Y103396D01*
X76258Y103389D01*
X76585Y103357D01*
X76591Y103357D01*
X76597Y103356D01*
X76640Y103362D01*
X76646Y103363D01*
X77709Y103354D01*
X77722Y103356D01*
X77736Y103355D01*
X78115Y103392D01*
X78139Y103400D01*
X78164Y103402D01*
X78528Y103512D01*
X78550Y103524D01*
X78574Y103532D01*
X78909Y103711D01*
X78929Y103727D01*
X78951Y103739D01*
X79238Y103974D01*
X79242Y103979D01*
X79247Y103982D01*
X79273Y104017D01*
X79280Y104025D01*
X79594Y104327D01*
X79603Y104340D01*
X79615Y104349D01*
X79871Y104661D01*
X79883Y104683D01*
X79899Y104703D01*
X80089Y105059D01*
X80096Y105083D01*
X80108Y105105D01*
X80225Y105491D01*
X80228Y105516D01*
X80235Y105540D01*
X80274Y105932D01*
X80273Y105938D01*
X80275Y105944D01*
X80268Y105987D01*
X80266Y106012D01*
X80257Y107978D01*
X80286Y108195D01*
X80363Y108382D01*
X80493Y108551D01*
X80716Y108723D01*
X80987Y108835D01*
X81255Y108870D01*
X81289Y108863D01*
D02*
G37*
G36*
X139430Y82593D02*
X140087D01*
X141905Y80776D01*
X142053Y80676D01*
X142229Y80641D01*
X142461D01*
Y80168D01*
X145161D01*
Y80641D01*
X146985D01*
X148090Y79536D01*
X148162Y79488D01*
X148166Y67406D01*
X148127Y66806D01*
X148011Y66224D01*
X147831Y65694D01*
X145232Y65682D01*
X145161Y65753D01*
Y66368D01*
X143310D01*
X142221Y67457D01*
X142072Y67556D01*
X141897Y67591D01*
X141615D01*
X141611Y67596D01*
X141476Y67700D01*
X141317Y67765D01*
X141148Y67788D01*
X140978Y67765D01*
X140820Y67700D01*
X140684Y67596D01*
X140580Y67460D01*
X140566Y67426D01*
X140468Y67445D01*
Y75718D01*
X140443Y75845D01*
X140444Y75848D01*
X140466Y76018D01*
X140444Y76188D01*
X140379Y76346D01*
X140274Y76482D01*
X140139Y76586D01*
X139981Y76651D01*
X139811Y76674D01*
X139641Y76651D01*
X139483Y76586D01*
X139381Y76507D01*
X139284Y76533D01*
X139279Y76546D01*
X139174Y76682D01*
X139039Y76786D01*
X138881Y76851D01*
X138867Y76853D01*
X138835Y76948D01*
X138963Y77076D01*
X139041Y77191D01*
X139068Y77328D01*
X139068Y77328D01*
X139068Y77328D01*
Y77328D01*
Y77872D01*
X139174Y77954D01*
X139279Y78090D01*
X139344Y78248D01*
X139366Y78418D01*
X139344Y78588D01*
X139279Y78746D01*
X139174Y78882D01*
X139039Y78986D01*
X138948Y79023D01*
X138929Y79121D01*
X139663Y79856D01*
X139741Y79971D01*
X139768Y80108D01*
Y81918D01*
X139741Y82055D01*
X139663Y82170D01*
X139322Y82512D01*
X139366Y82601D01*
X139430Y82593D01*
D02*
G37*
G36*
X82484Y89788D02*
X82059Y89363D01*
X81981Y89247D01*
X81954Y89110D01*
Y81366D01*
X81344Y80756D01*
X81211Y80774D01*
X81041Y80751D01*
X80883Y80686D01*
X80747Y80582D01*
X80643Y80446D01*
X80578Y80288D01*
X80555Y80118D01*
X80564Y80054D01*
X80477Y80004D01*
X80330Y80116D01*
X80087Y80217D01*
X79826Y80252D01*
X79565Y80217D01*
X79322Y80116D01*
X79113Y79956D01*
X78952Y79747D01*
X78891Y79600D01*
X78704D01*
X78199Y80104D01*
X78260Y80252D01*
X78295Y80513D01*
X78260Y80774D01*
X78160Y81017D01*
X77999Y81226D01*
X77790Y81386D01*
X77547Y81487D01*
X77286Y81522D01*
X77025Y81487D01*
X76782Y81386D01*
X76573Y81226D01*
X76412Y81017D01*
X76312Y80774D01*
X76277Y80513D01*
X76312Y80252D01*
X76412Y80009D01*
X76573Y79800D01*
X76782Y79640D01*
X77025Y79539D01*
X77286Y79504D01*
X77547Y79539D01*
X77695Y79600D01*
X78304Y78991D01*
X78304D01*
X78304Y78991D01*
X78304Y78991D01*
Y78991D01*
X78419Y78913D01*
X78556Y78886D01*
X78891D01*
X78952Y78739D01*
X79113Y78530D01*
X79322Y78369D01*
X79565Y78269D01*
X79826Y78234D01*
X80087Y78269D01*
X80330Y78369D01*
X80539Y78530D01*
X80641Y78663D01*
X80697D01*
X80741Y78573D01*
X80643Y78446D01*
X80578Y78288D01*
X80555Y78118D01*
X80578Y77948D01*
X80643Y77790D01*
X80747Y77654D01*
Y77582D01*
X80643Y77446D01*
X80636Y77429D01*
X80539Y77416D01*
X80330Y77576D01*
X80087Y77677D01*
X79826Y77712D01*
X79565Y77677D01*
X79322Y77576D01*
X79113Y77416D01*
X78952Y77207D01*
X78852Y76964D01*
X78817Y76703D01*
X78852Y76442D01*
X78952Y76199D01*
X79113Y75990D01*
X79322Y75829D01*
X79327Y75827D01*
Y75677D01*
X78378Y74729D01*
X78286Y74767D01*
Y76433D01*
X77295D01*
Y76718D01*
X77266Y76865D01*
X77259Y76875D01*
X77301Y76966D01*
X77547Y76999D01*
X77790Y77100D01*
X77999Y77260D01*
X78160Y77469D01*
X78260Y77712D01*
X78295Y77973D01*
X78260Y78234D01*
X78160Y78477D01*
X77999Y78686D01*
X77790Y78846D01*
X77547Y78947D01*
X77286Y78982D01*
X77025Y78947D01*
X76782Y78846D01*
X76573Y78686D01*
X76412Y78477D01*
X76312Y78234D01*
X76283Y78016D01*
X76188Y77984D01*
X76095Y78077D01*
Y83059D01*
X76196Y83159D01*
X76286Y83115D01*
X76277Y83053D01*
X76312Y82792D01*
X76412Y82549D01*
X76573Y82340D01*
X76782Y82179D01*
X77025Y82079D01*
X77286Y82044D01*
X77547Y82079D01*
X77790Y82179D01*
X77999Y82340D01*
X78160Y82549D01*
X78260Y82792D01*
X78295Y83053D01*
X78260Y83314D01*
X78160Y83557D01*
X77999Y83766D01*
X77790Y83926D01*
X77547Y84027D01*
X77286Y84062D01*
X77224Y84053D01*
X77180Y84143D01*
X80446Y87410D01*
X80543Y87390D01*
X80647Y87254D01*
X80783Y87150D01*
X80941Y87085D01*
X81111Y87062D01*
X81281Y87085D01*
X81439Y87150D01*
X81575Y87254D01*
X81679Y87390D01*
X81744Y87548D01*
X81767Y87718D01*
X81744Y87888D01*
X81679Y88046D01*
X81575Y88182D01*
X81527Y88218D01*
Y88318D01*
X81575Y88354D01*
X81679Y88490D01*
X81744Y88648D01*
X81767Y88818D01*
X81744Y88988D01*
X81679Y89146D01*
X81575Y89282D01*
X81439Y89386D01*
X81281Y89451D01*
X81111Y89474D01*
X80941Y89451D01*
X80783Y89386D01*
X80647Y89282D01*
X80543Y89146D01*
X80478Y88988D01*
X80468Y88910D01*
X80301D01*
X80301Y88910D01*
X80178Y88886D01*
X80153Y88881D01*
X80029Y88798D01*
X74931Y83700D01*
X74848Y83576D01*
X74843Y83551D01*
X74819Y83428D01*
X74819Y83428D01*
Y77526D01*
X74819Y77526D01*
X74843Y77403D01*
X74848Y77379D01*
X74931Y77254D01*
X74931Y77254D01*
X74931Y77254D01*
D01*
X74931D01*
Y77254D01*
D01*
X75627Y76559D01*
Y74597D01*
X75549Y74533D01*
X75488Y74546D01*
X73168Y76866D01*
Y82370D01*
X80665Y89867D01*
X82391D01*
X82437Y89876D01*
X82484Y89788D01*
D02*
G37*
G36*
X136454Y81536D02*
Y80431D01*
X136379Y80365D01*
X136311Y80374D01*
X136141Y80351D01*
X135983Y80286D01*
X135847Y80182D01*
X135743Y80046D01*
X135678Y79888D01*
X135655Y79718D01*
X135678Y79548D01*
X135743Y79390D01*
X135847Y79254D01*
X135958Y79170D01*
X135926Y79075D01*
X134761D01*
Y79218D01*
Y80164D01*
X135165D01*
Y80918D01*
X134211D01*
Y81018D01*
X134111D01*
Y81872D01*
X133700D01*
X133662Y81964D01*
X133663Y81966D01*
X133741Y82081D01*
X133768Y82218D01*
Y84091D01*
X133860Y84130D01*
X136454Y81536D01*
D02*
G37*
G36*
X85761Y83673D02*
X85778Y83548D01*
X85843Y83390D01*
X85947Y83254D01*
X86083Y83150D01*
X86241Y83085D01*
X86411Y83062D01*
X86581Y83085D01*
X86683Y83127D01*
X86728Y83108D01*
X86776Y83072D01*
X86755Y82918D01*
X86778Y82748D01*
X86843Y82590D01*
X86947Y82454D01*
X87083Y82350D01*
X87241Y82285D01*
X87411Y82262D01*
X87581Y82285D01*
X87739Y82350D01*
X87875Y82454D01*
X87979Y82590D01*
X88044Y82748D01*
X88067Y82918D01*
X88049Y83051D01*
X88659Y83661D01*
X92160D01*
X92215Y83578D01*
X92178Y83488D01*
X92155Y83318D01*
X92178Y83148D01*
X92243Y82990D01*
X92347Y82854D01*
X92483Y82750D01*
X92641Y82685D01*
X92811Y82662D01*
X92944Y82680D01*
X93259Y82366D01*
X93259Y82366D01*
X93259D01*
X93259Y82366D01*
X93259D01*
X93259Y82366D01*
Y82366D01*
Y82366D01*
D01*
D01*
X93259D01*
Y82366D01*
X93374Y82288D01*
X93511Y82261D01*
X100011D01*
X100018Y82161D01*
X99941Y82151D01*
X99783Y82086D01*
X99647Y81982D01*
X99543Y81846D01*
X99478Y81688D01*
X99455Y81518D01*
X99473Y81385D01*
X99363Y81275D01*
X91156D01*
X91075Y81382D01*
X90939Y81486D01*
X90781Y81551D01*
X90611Y81574D01*
X90441Y81551D01*
X90283Y81486D01*
X90236Y81449D01*
X90146Y81494D01*
Y81624D01*
X88746D01*
Y80124D01*
X89115D01*
Y79973D01*
X88771D01*
Y78473D01*
X89115D01*
Y78347D01*
X88771D01*
Y76847D01*
X90171D01*
Y78347D01*
X89828D01*
Y78473D01*
X90171D01*
Y79323D01*
X90261Y79367D01*
X90283Y79350D01*
X90441Y79285D01*
X90611Y79262D01*
X90781Y79285D01*
X90939Y79350D01*
X91075Y79454D01*
X91156Y79561D01*
X98065D01*
X98147Y79454D01*
X98283Y79350D01*
X98441Y79285D01*
X98611Y79262D01*
X98781Y79285D01*
X98939Y79350D01*
X99075Y79454D01*
X99179Y79590D01*
X99244Y79748D01*
X99267Y79918D01*
X99244Y80088D01*
X99179Y80246D01*
X99075Y80382D01*
X98964Y80466D01*
X98996Y80561D01*
X99511D01*
X99648Y80588D01*
X99763Y80666D01*
X99978Y80880D01*
X100111Y80862D01*
X100281Y80885D01*
X100439Y80950D01*
X100575Y81054D01*
X100679Y81190D01*
X100744Y81348D01*
X100767Y81518D01*
X100744Y81688D01*
X100679Y81846D01*
X100575Y81982D01*
X100439Y82086D01*
X100281Y82151D01*
X100204Y82161D01*
X100211Y82261D01*
X102705D01*
X103532Y81434D01*
X103648Y81357D01*
X103784Y81330D01*
X117526D01*
X117662Y81357D01*
X117778Y81434D01*
X117778Y81434D01*
X117778Y81434D01*
X118605Y82261D01*
X119218D01*
X119256Y82169D01*
X107162Y70075D01*
X105556D01*
X105475Y70182D01*
X105339Y70286D01*
X105181Y70351D01*
X105011Y70374D01*
X104841Y70351D01*
X104683Y70286D01*
X104547Y70182D01*
X104443Y70046D01*
X104378Y69888D01*
X104355Y69718D01*
X104378Y69548D01*
X104415Y69458D01*
X104360Y69375D01*
X95493D01*
X93856Y71012D01*
X93874Y71145D01*
X93851Y71315D01*
X93786Y71473D01*
X93682Y71609D01*
X93546Y71713D01*
X93388Y71779D01*
X93218Y71801D01*
X93048Y71779D01*
X92890Y71713D01*
X92754Y71609D01*
X92650Y71473D01*
X92585Y71315D01*
X92562Y71145D01*
X92585Y70976D01*
X92650Y70818D01*
X92754Y70682D01*
X92890Y70578D01*
X93048Y70512D01*
X93218Y70490D01*
X93351Y70507D01*
X95093Y68766D01*
X95209Y68688D01*
X95345Y68661D01*
X110309D01*
X110357Y68599D01*
X110492Y68495D01*
X110651Y68429D01*
X110820Y68407D01*
X110868Y68413D01*
X110912Y68324D01*
X109544Y66956D01*
X109411Y66974D01*
X109241Y66951D01*
X109083Y66886D01*
X108947Y66782D01*
X108843Y66646D01*
X108778Y66488D01*
X108755Y66318D01*
X108778Y66148D01*
X108843Y65990D01*
X108863Y65965D01*
X108819Y65875D01*
X107411D01*
X107274Y65848D01*
X107159Y65770D01*
X106744Y65356D01*
X106611Y65374D01*
X106441Y65351D01*
X106283Y65286D01*
X106147Y65182D01*
X106043Y65046D01*
X105978Y64888D01*
X105955Y64718D01*
X105978Y64548D01*
X106043Y64390D01*
X106147Y64254D01*
X106166Y64240D01*
X106163Y64140D01*
X106059Y64070D01*
X104963Y62975D01*
X93811D01*
X93674Y62948D01*
X93559Y62870D01*
X90959Y60270D01*
X90881Y60155D01*
X90859Y60044D01*
X90760Y60034D01*
X90755Y60047D01*
X90601Y60248D01*
X90400Y60402D01*
X90167Y60498D01*
X89916Y60531D01*
X89665Y60498D01*
X89432Y60402D01*
X89231Y60248D01*
X89077Y60047D01*
X88981Y59814D01*
X88948Y59563D01*
X88981Y59312D01*
X89077Y59079D01*
X89231Y58878D01*
X89432Y58724D01*
X89665Y58628D01*
X89916Y58595D01*
X90069Y58615D01*
X90096Y58560D01*
X90044Y58475D01*
X88471D01*
X88334Y58448D01*
X88219Y58370D01*
X87754Y57906D01*
X87627Y57958D01*
X87376Y57991D01*
X87125Y57958D01*
X86892Y57862D01*
X86691Y57708D01*
X86537Y57507D01*
X86441Y57274D01*
X86408Y57023D01*
X86441Y56772D01*
X86537Y56539D01*
X86691Y56338D01*
X86892Y56184D01*
X87125Y56088D01*
X87376Y56055D01*
X87627Y56088D01*
X87860Y56184D01*
X88061Y56338D01*
X88215Y56539D01*
X88311Y56772D01*
X88344Y57023D01*
X88311Y57274D01*
X88259Y57401D01*
X88619Y57761D01*
X89159D01*
X89204Y57671D01*
X89077Y57507D01*
X88981Y57274D01*
X88948Y57023D01*
X88981Y56772D01*
X89077Y56539D01*
X89231Y56338D01*
X89432Y56184D01*
X89665Y56088D01*
X89916Y56055D01*
X90167Y56088D01*
X90400Y56184D01*
X90601Y56338D01*
X90755Y56539D01*
X90851Y56772D01*
X90884Y57023D01*
X90854Y57256D01*
X91359Y57761D01*
X91699D01*
X91744Y57671D01*
X91617Y57507D01*
X91521Y57274D01*
X91488Y57023D01*
X91521Y56772D01*
X91617Y56539D01*
X91771Y56338D01*
X91972Y56184D01*
X92205Y56088D01*
X92456Y56055D01*
X92707Y56088D01*
X92940Y56184D01*
X93141Y56338D01*
X93295Y56539D01*
X93391Y56772D01*
X93424Y57023D01*
X93391Y57274D01*
X93295Y57507D01*
X93141Y57708D01*
X92940Y57862D01*
X92845Y57901D01*
X92825Y57999D01*
X94020Y59194D01*
X94118Y59174D01*
X94157Y59079D01*
X94311Y58878D01*
X94512Y58724D01*
X94745Y58628D01*
X94996Y58595D01*
X95247Y58628D01*
X95480Y58724D01*
X95681Y58878D01*
X95835Y59079D01*
X95931Y59312D01*
X95964Y59563D01*
X95931Y59814D01*
X95835Y60047D01*
X95806Y60085D01*
X95876Y60155D01*
X95883Y60150D01*
X96041Y60085D01*
X96211Y60062D01*
X96381Y60085D01*
X96539Y60150D01*
X96675Y60254D01*
X96779Y60390D01*
X96844Y60548D01*
X96859Y60661D01*
X113311D01*
X113448Y60688D01*
X113563Y60766D01*
X117063Y64266D01*
X117141Y64381D01*
X117168Y64518D01*
X117168Y64518D01*
X117168Y64518D01*
Y64518D01*
Y68604D01*
X117258Y68648D01*
X117325Y68596D01*
X117483Y68531D01*
X117653Y68509D01*
X117786Y68526D01*
X121287Y65026D01*
X121402Y64948D01*
X121525Y64924D01*
X121609Y64814D01*
X121745Y64710D01*
X121903Y64645D01*
X122072Y64622D01*
X122242Y64645D01*
X122400Y64710D01*
X122536Y64814D01*
X122640Y64950D01*
X122706Y65108D01*
X122728Y65278D01*
X122706Y65448D01*
X122640Y65606D01*
X122536Y65742D01*
X122400Y65846D01*
X122242Y65911D01*
X122072Y65934D01*
X121903Y65911D01*
X121745Y65846D01*
X121609Y65742D01*
X121582Y65740D01*
X118291Y69031D01*
X118308Y69164D01*
X118286Y69334D01*
X118221Y69492D01*
X118116Y69628D01*
X117981Y69732D01*
X117822Y69797D01*
X117653Y69820D01*
X117544Y69805D01*
X117499Y69895D01*
X122815Y75210D01*
X122907Y75172D01*
Y74718D01*
X123811D01*
Y74618D01*
X123911D01*
Y73664D01*
X124715D01*
Y73668D01*
X126511D01*
Y75013D01*
X126563Y75066D01*
X126641Y75181D01*
X126668Y75318D01*
X126668Y75318D01*
X126668Y75318D01*
Y75318D01*
Y76111D01*
X127455D01*
Y76461D01*
X127611D01*
Y76068D01*
X127921D01*
Y75968D01*
X127611D01*
Y74468D01*
D01*
X127611Y74468D01*
X127611Y74468D01*
D01*
D01*
Y74468D01*
X127611D01*
D01*
Y73767D01*
X127087Y73242D01*
X126987Y73094D01*
X126952Y72918D01*
X126952Y72918D01*
X126952D01*
X126952Y72918D01*
X126952D01*
Y72668D01*
X126711D01*
Y71168D01*
X126969D01*
X126987Y71076D01*
X127087Y70927D01*
X127987Y70027D01*
X128135Y69927D01*
X128311Y69893D01*
X128487Y69927D01*
X128507Y69941D01*
X129111D01*
Y69668D01*
X129401D01*
Y68918D01*
X129401Y68918D01*
X129401D01*
X129411Y68866D01*
Y68567D01*
X129021Y68177D01*
X127002D01*
X126826Y68142D01*
X126677Y68042D01*
X121040Y62405D01*
X116130D01*
X115954Y62370D01*
X115805Y62271D01*
X113882Y60347D01*
X113782Y60198D01*
X113747Y60023D01*
Y59983D01*
X113649Y59964D01*
X113615Y60047D01*
X113461Y60248D01*
X113260Y60402D01*
X113027Y60498D01*
X112776Y60531D01*
X112525Y60498D01*
X112292Y60402D01*
X112091Y60248D01*
X111937Y60047D01*
X111841Y59814D01*
X111808Y59563D01*
X111841Y59312D01*
X111937Y59079D01*
X112091Y58878D01*
X112100Y58872D01*
X112068Y58777D01*
X110944D01*
X110912Y58872D01*
X110921Y58878D01*
X111075Y59079D01*
X111171Y59312D01*
X111204Y59563D01*
X111171Y59814D01*
X111075Y60047D01*
X110921Y60248D01*
X110720Y60402D01*
X110487Y60498D01*
X110236Y60531D01*
X109985Y60498D01*
X109752Y60402D01*
X109551Y60248D01*
X109397Y60047D01*
X109301Y59814D01*
X109268Y59563D01*
X109301Y59312D01*
X109397Y59079D01*
X109551Y58878D01*
X109560Y58872D01*
X109528Y58777D01*
X108404D01*
X108372Y58872D01*
X108381Y58878D01*
X108535Y59079D01*
X108631Y59312D01*
X108664Y59563D01*
X108631Y59814D01*
X108535Y60047D01*
X108381Y60248D01*
X108180Y60402D01*
X107947Y60498D01*
X107696Y60531D01*
X107445Y60498D01*
X107212Y60402D01*
X107011Y60248D01*
X106857Y60047D01*
X106761Y59814D01*
X106728Y59563D01*
X106761Y59312D01*
X106857Y59079D01*
X107011Y58878D01*
X107020Y58872D01*
X106988Y58777D01*
X105864D01*
X105832Y58872D01*
X105841Y58878D01*
X105995Y59079D01*
X106091Y59312D01*
X106124Y59563D01*
X106091Y59814D01*
X105995Y60047D01*
X105841Y60248D01*
X105640Y60402D01*
X105407Y60498D01*
X105156Y60531D01*
X104905Y60498D01*
X104672Y60402D01*
X104471Y60248D01*
X104317Y60047D01*
X104221Y59814D01*
X104188Y59563D01*
X104221Y59312D01*
X104317Y59079D01*
X104471Y58878D01*
X104480Y58872D01*
X104448Y58777D01*
X103324D01*
X103292Y58872D01*
X103301Y58878D01*
X103455Y59079D01*
X103551Y59312D01*
X103584Y59563D01*
X103551Y59814D01*
X103455Y60047D01*
X103301Y60248D01*
X103100Y60402D01*
X102867Y60498D01*
X102616Y60531D01*
X102365Y60498D01*
X102132Y60402D01*
X101931Y60248D01*
X101777Y60047D01*
X101681Y59814D01*
X101648Y59563D01*
X101681Y59312D01*
X101777Y59079D01*
X101931Y58878D01*
X101940Y58872D01*
X101930Y58842D01*
X101834Y58812D01*
X101739Y58886D01*
X101581Y58951D01*
X101411Y58974D01*
X101241Y58951D01*
X101083Y58886D01*
X100947Y58782D01*
X100843Y58646D01*
X100778Y58488D01*
X100755Y58318D01*
X100778Y58148D01*
X100843Y57990D01*
X100947Y57854D01*
X101083Y57750D01*
X101241Y57685D01*
X101411Y57662D01*
X101581Y57685D01*
X101739Y57750D01*
X101875Y57854D01*
X101878Y57859D01*
X101973D01*
X102005Y57764D01*
X101931Y57708D01*
X101777Y57507D01*
X101681Y57274D01*
X101648Y57023D01*
X101681Y56772D01*
X101777Y56539D01*
X101931Y56338D01*
X102132Y56184D01*
X102365Y56088D01*
X102616Y56055D01*
X102867Y56088D01*
X103100Y56184D01*
X103301Y56338D01*
X103455Y56539D01*
X103551Y56772D01*
X103584Y57023D01*
X103551Y57274D01*
X103455Y57507D01*
X103301Y57708D01*
X103227Y57764D01*
X103259Y57859D01*
X104513D01*
X104545Y57764D01*
X104471Y57708D01*
X104317Y57507D01*
X104221Y57274D01*
X104188Y57023D01*
X104221Y56772D01*
X104317Y56539D01*
X104471Y56338D01*
X104672Y56184D01*
X104905Y56088D01*
X105156Y56055D01*
X105407Y56088D01*
X105640Y56184D01*
X105841Y56338D01*
X105995Y56539D01*
X106091Y56772D01*
X106124Y57023D01*
X106091Y57274D01*
X105995Y57507D01*
X105841Y57708D01*
X105767Y57764D01*
X105799Y57859D01*
X107053D01*
X107085Y57764D01*
X107011Y57708D01*
X106857Y57507D01*
X106761Y57274D01*
X106728Y57023D01*
X106761Y56772D01*
X106857Y56539D01*
X107011Y56338D01*
X107212Y56184D01*
X107445Y56088D01*
X107696Y56055D01*
X107947Y56088D01*
X108180Y56184D01*
X108381Y56338D01*
X108535Y56539D01*
X108631Y56772D01*
X108664Y57023D01*
X108631Y57274D01*
X108535Y57507D01*
X108381Y57708D01*
X108307Y57764D01*
X108339Y57859D01*
X109593D01*
X109625Y57764D01*
X109551Y57708D01*
X109397Y57507D01*
X109301Y57274D01*
X109268Y57023D01*
X109301Y56772D01*
X109397Y56539D01*
X109551Y56338D01*
X109752Y56184D01*
X109985Y56088D01*
X110236Y56055D01*
X110487Y56088D01*
X110720Y56184D01*
X110921Y56338D01*
X111075Y56539D01*
X111171Y56772D01*
X111204Y57023D01*
X111171Y57274D01*
X111075Y57507D01*
X110921Y57708D01*
X110847Y57764D01*
X110879Y57859D01*
X112133D01*
X112165Y57764D01*
X112091Y57708D01*
X111937Y57507D01*
X111841Y57274D01*
X111808Y57023D01*
X111841Y56772D01*
X111937Y56539D01*
X112091Y56338D01*
X112292Y56184D01*
X112525Y56088D01*
X112776Y56055D01*
X113027Y56088D01*
X113260Y56184D01*
X113461Y56338D01*
X113615Y56539D01*
X113711Y56772D01*
X113744Y57023D01*
X113711Y57274D01*
X113615Y57507D01*
X113461Y57708D01*
X113349Y57794D01*
X113371Y57891D01*
X113387Y57894D01*
X113535Y57994D01*
X114486Y58944D01*
X114586Y58938D01*
X114631Y58878D01*
X114832Y58724D01*
X115065Y58628D01*
X115316Y58595D01*
X115567Y58628D01*
X115800Y58724D01*
X116001Y58878D01*
X116155Y59079D01*
X116251Y59312D01*
X116284Y59563D01*
X116251Y59814D01*
X116155Y60047D01*
X116001Y60248D01*
X115800Y60402D01*
X115567Y60498D01*
X115470Y60511D01*
X115438Y60606D01*
X116320Y61488D01*
X121230D01*
X121406Y61523D01*
X121555Y61622D01*
X125437Y65505D01*
X125527Y65460D01*
X125506Y65303D01*
X125529Y65134D01*
X125594Y64976D01*
X125698Y64840D01*
X125834Y64736D01*
X125992Y64670D01*
X126162Y64648D01*
X126331Y64670D01*
X126490Y64736D01*
X126625Y64840D01*
X126707Y64947D01*
X129821D01*
X129865Y64857D01*
X129836Y64818D01*
X129770Y64660D01*
X129748Y64491D01*
X129770Y64321D01*
X129836Y64163D01*
X129792Y64075D01*
X124811D01*
X124674Y64048D01*
X124559Y63970D01*
X120942Y60354D01*
X120880Y60402D01*
X120647Y60498D01*
X120396Y60531D01*
X120145Y60498D01*
X119912Y60402D01*
X119711Y60248D01*
X119557Y60047D01*
X119461Y59814D01*
X119428Y59563D01*
X119461Y59312D01*
X119557Y59079D01*
X119711Y58878D01*
X119912Y58724D01*
X120145Y58628D01*
X120396Y58595D01*
X120647Y58628D01*
X120880Y58724D01*
X121081Y58878D01*
X121235Y59079D01*
X121331Y59312D01*
X121364Y59563D01*
X121341Y59743D01*
X121477Y59879D01*
X121569Y59841D01*
Y58701D01*
X120774Y57906D01*
X120647Y57958D01*
X120396Y57991D01*
X120145Y57958D01*
X119912Y57862D01*
X119711Y57708D01*
X119557Y57507D01*
X119461Y57274D01*
X119428Y57023D01*
X119461Y56772D01*
X119557Y56539D01*
X119711Y56338D01*
X119912Y56184D01*
X120145Y56088D01*
X120396Y56055D01*
X120647Y56088D01*
X120880Y56184D01*
X121081Y56338D01*
X121235Y56539D01*
X121331Y56772D01*
X121364Y57023D01*
X121331Y57274D01*
X121279Y57401D01*
X122178Y58301D01*
X122256Y58416D01*
X122283Y58553D01*
Y58741D01*
X122373Y58785D01*
X122452Y58724D01*
X122685Y58628D01*
X122936Y58595D01*
X123187Y58628D01*
X123420Y58724D01*
X123621Y58878D01*
X123775Y59079D01*
X123871Y59312D01*
X123904Y59563D01*
X123871Y59814D01*
X123819Y59941D01*
X123962Y60084D01*
X124054Y60046D01*
Y58646D01*
X123314Y57906D01*
X123187Y57958D01*
X122936Y57991D01*
X122685Y57958D01*
X122452Y57862D01*
X122251Y57708D01*
X122097Y57507D01*
X122001Y57274D01*
X121968Y57023D01*
X122001Y56772D01*
X122097Y56539D01*
X122251Y56338D01*
X122452Y56184D01*
X122685Y56088D01*
X122936Y56055D01*
X123187Y56088D01*
X123420Y56184D01*
X123621Y56338D01*
X123775Y56539D01*
X123871Y56772D01*
X123904Y57023D01*
X123871Y57274D01*
X123819Y57401D01*
X124663Y58246D01*
X124741Y58361D01*
X124768Y58498D01*
X124768Y58498D01*
X124768Y58498D01*
Y58498D01*
Y58783D01*
X124858Y58828D01*
X124992Y58724D01*
X125225Y58628D01*
X125459Y58597D01*
X125491Y58502D01*
X125224Y58235D01*
X125146Y58120D01*
X125119Y57983D01*
Y57914D01*
X124992Y57862D01*
X124791Y57708D01*
X124637Y57507D01*
X124541Y57274D01*
X124508Y57023D01*
X124541Y56772D01*
X124637Y56539D01*
X124791Y56338D01*
X124992Y56184D01*
X125225Y56088D01*
X125476Y56055D01*
X125727Y56088D01*
X125960Y56184D01*
X126161Y56338D01*
X126315Y56539D01*
X126411Y56772D01*
X126444Y57023D01*
X126411Y57274D01*
X126315Y57507D01*
X126161Y57708D01*
X125963Y57859D01*
X125957Y57959D01*
X127063Y59066D01*
X127077Y59086D01*
X127079Y59089D01*
X127177Y59079D01*
X127331Y58878D01*
X127532Y58724D01*
X127765Y58628D01*
X128016Y58595D01*
X128267Y58628D01*
X128500Y58724D01*
X128701Y58878D01*
X128855Y59079D01*
X128951Y59312D01*
X128984Y59563D01*
X128951Y59814D01*
X128899Y59941D01*
X129919Y60961D01*
X131319D01*
X131357Y60869D01*
X130934Y60446D01*
X130807Y60498D01*
X130556Y60531D01*
X130305Y60498D01*
X130072Y60402D01*
X129871Y60248D01*
X129717Y60047D01*
X129621Y59814D01*
X129588Y59563D01*
X129621Y59312D01*
X129717Y59079D01*
X129871Y58878D01*
X130072Y58724D01*
X130305Y58628D01*
X130556Y58595D01*
X130807Y58628D01*
X130927Y58678D01*
X130983Y58595D01*
X130863Y58475D01*
X129111D01*
X128974Y58448D01*
X128859Y58370D01*
X128394Y57906D01*
X128267Y57958D01*
X128016Y57991D01*
X127765Y57958D01*
X127532Y57862D01*
X127331Y57708D01*
X127177Y57507D01*
X127081Y57274D01*
X127048Y57023D01*
X127081Y56772D01*
X127177Y56539D01*
X127331Y56338D01*
X127532Y56184D01*
X127765Y56088D01*
X128016Y56055D01*
X128267Y56088D01*
X128500Y56184D01*
X128701Y56338D01*
X128855Y56539D01*
X128951Y56772D01*
X128984Y57023D01*
X128951Y57274D01*
X128899Y57401D01*
X129259Y57761D01*
X129799D01*
X129844Y57671D01*
X129717Y57507D01*
X129621Y57274D01*
X129588Y57023D01*
X129621Y56772D01*
X129717Y56539D01*
X129871Y56338D01*
X130072Y56184D01*
X130305Y56088D01*
X130556Y56055D01*
X130807Y56088D01*
X131040Y56184D01*
X131241Y56338D01*
X131395Y56539D01*
X131491Y56772D01*
X131524Y57023D01*
X131491Y57274D01*
X131439Y57401D01*
X131799Y57761D01*
X132339D01*
X132384Y57671D01*
X132257Y57507D01*
X132161Y57274D01*
X132128Y57023D01*
X132161Y56772D01*
X132257Y56539D01*
X132411Y56338D01*
X132612Y56184D01*
X132845Y56088D01*
X133096Y56055D01*
X133347Y56088D01*
X133580Y56184D01*
X133781Y56338D01*
X133935Y56539D01*
X134031Y56772D01*
X134064Y57023D01*
X134031Y57274D01*
X133935Y57507D01*
X133808Y57671D01*
X133853Y57761D01*
X134879D01*
X134924Y57671D01*
X134797Y57507D01*
X134701Y57274D01*
X134668Y57023D01*
X134701Y56772D01*
X134797Y56539D01*
X134951Y56338D01*
X135152Y56184D01*
X135385Y56088D01*
X135636Y56055D01*
X135887Y56088D01*
X136120Y56184D01*
X136321Y56338D01*
X136475Y56539D01*
X136571Y56772D01*
X136604Y57023D01*
X136571Y57274D01*
X136475Y57507D01*
X136348Y57671D01*
X136393Y57761D01*
X137419D01*
X137464Y57671D01*
X137337Y57507D01*
X137241Y57274D01*
X137208Y57023D01*
X137241Y56772D01*
X137337Y56539D01*
X137491Y56338D01*
X137692Y56184D01*
X137925Y56088D01*
X138176Y56055D01*
X138427Y56088D01*
X138660Y56184D01*
X138861Y56338D01*
X139015Y56539D01*
X139111Y56772D01*
X139144Y57023D01*
X139111Y57274D01*
X139015Y57507D01*
X138876Y57688D01*
X138906Y57767D01*
X138918Y57782D01*
X138948Y57788D01*
X139063Y57866D01*
X139863Y58666D01*
X139941Y58781D01*
X139968Y58918D01*
Y60573D01*
X140075Y60654D01*
X140179Y60790D01*
X140244Y60948D01*
X140267Y61118D01*
X140244Y61288D01*
X140179Y61446D01*
X140075Y61582D01*
X139939Y61686D01*
X139781Y61751D01*
X139611Y61774D01*
X139511Y61760D01*
X139472Y61853D01*
X139475Y61854D01*
X139579Y61990D01*
X139644Y62148D01*
X139667Y62318D01*
X139644Y62488D01*
X139579Y62646D01*
X139475Y62782D01*
X139339Y62886D01*
X139181Y62951D01*
X139011Y62974D01*
X138841Y62951D01*
X138683Y62886D01*
X138600Y62994D01*
X138579Y63046D01*
X138475Y63182D01*
X138339Y63286D01*
X138181Y63351D01*
X138127Y63358D01*
X138095Y63453D01*
X138255Y63613D01*
X138288Y63620D01*
X138404Y63697D01*
X139985Y65279D01*
X140008Y65313D01*
X140107Y65329D01*
X140185Y65269D01*
X140343Y65204D01*
X140513Y65181D01*
X140682Y65204D01*
X140841Y65269D01*
X140976Y65373D01*
X141081Y65509D01*
X141146Y65667D01*
X141168Y65837D01*
X141146Y66006D01*
X141081Y66165D01*
X140976Y66300D01*
X140841Y66405D01*
X140682Y66470D01*
X140513Y66492D01*
X140512Y66492D01*
X140468Y66539D01*
Y66819D01*
X140566Y66838D01*
X140580Y66804D01*
X140684Y66669D01*
X140820Y66564D01*
X140978Y66499D01*
X141148Y66477D01*
X141317Y66499D01*
X141476Y66564D01*
X141611Y66669D01*
X141615Y66673D01*
X141707D01*
X142461Y65919D01*
Y64668D01*
X145161D01*
Y64764D01*
X147214Y64774D01*
X147261Y64686D01*
X147229Y64637D01*
X146858Y64214D01*
X146803Y64178D01*
X146774Y64172D01*
X146770Y64173D01*
X144126Y64179D01*
X144095Y64173D01*
X144063Y64172D01*
X144046Y64164D01*
X144028Y64160D01*
X144002Y64143D01*
X143973Y64129D01*
X143961Y64116D01*
X143945Y64105D01*
X143928Y64079D01*
X143906Y64056D01*
X143900Y64038D01*
X143890Y64023D01*
X143883Y63992D01*
X143873Y63962D01*
X143799Y63916D01*
X143746Y63932D01*
X143256Y63980D01*
X142766Y63932D01*
X142295Y63789D01*
X141860Y63557D01*
X141480Y63244D01*
X141167Y62864D01*
X140935Y62429D01*
X140792Y61958D01*
X140744Y61468D01*
X140775Y61149D01*
X140775Y61149D01*
X140676Y61134D01*
X140646Y61124D01*
X140616Y61117D01*
X140600Y61107D01*
X140582Y61101D01*
X140559Y61079D01*
X140533Y61062D01*
X140523Y61046D01*
X140509Y61034D01*
X140495Y61005D01*
X140478Y60979D01*
X140474Y60961D01*
X140466Y60944D01*
X140465Y60912D01*
X140459Y60882D01*
X140465Y58359D01*
X140433Y57961D01*
X140342Y57582D01*
X140193Y57222D01*
X139989Y56889D01*
X139748Y56607D01*
X139721Y56588D01*
X139719Y56585D01*
X139717Y56584D01*
X139579Y56432D01*
X139282Y56188D01*
X138949Y56010D01*
X138860Y55983D01*
X138820Y55962D01*
X138780Y55943D01*
X138776Y55939D01*
X138772Y55937D01*
X138757Y55918D01*
X80954D01*
X80760Y55977D01*
X80507Y56112D01*
X80288Y56292D01*
X80163Y56454D01*
X80086Y56641D01*
X80062Y56822D01*
X80066Y56841D01*
X80072Y58139D01*
X80064Y58182D01*
X80058Y58226D01*
X80055Y58231D01*
X80053Y58237D01*
X80029Y58274D01*
X80007Y58311D01*
X80002Y58315D01*
X79999Y58320D01*
X79962Y58344D01*
X79927Y58371D01*
X79921Y58372D01*
X79916Y58375D01*
X79873Y58384D01*
X79831Y58395D01*
X79731Y58400D01*
X79716Y58411D01*
X79680Y58783D01*
X79537Y59254D01*
X79305Y59689D01*
X78992Y60069D01*
X78612Y60382D01*
X78379Y60506D01*
X78404Y60603D01*
X81265D01*
X81325Y60563D01*
X81332Y60527D01*
D01*
D01*
Y60527D01*
X81332D01*
Y60521D01*
X81332D01*
Y59663D01*
X82196D01*
Y60527D01*
X81394D01*
X81393Y60533D01*
Y60533D01*
D01*
Y60533D01*
D01*
D01*
X81384Y60627D01*
X81402Y60630D01*
X81514Y60705D01*
X86042D01*
X86179Y60732D01*
X86295Y60809D01*
X86295Y60809D01*
X86295Y60809D01*
X88095Y62610D01*
X89015D01*
Y63264D01*
X89105Y63308D01*
X89131Y63288D01*
X89289Y63222D01*
X89459Y63200D01*
X89628Y63222D01*
X89787Y63288D01*
X89922Y63392D01*
X90027Y63528D01*
X90092Y63686D01*
X90114Y63856D01*
X90092Y64025D01*
X90027Y64183D01*
X89922Y64319D01*
X89787Y64423D01*
X89628Y64489D01*
X89459Y64511D01*
X89289Y64489D01*
X89131Y64423D01*
X89109Y64406D01*
X89019Y64450D01*
Y64810D01*
X88365D01*
Y64206D01*
X88558D01*
X88587Y64110D01*
X88584Y64108D01*
X88486Y64010D01*
X87515D01*
Y63039D01*
X85895Y61418D01*
X81367D01*
X81231Y61391D01*
X81119Y61317D01*
X77964D01*
Y61485D01*
X77510D01*
Y61585D01*
X77410D01*
Y62164D01*
X77124D01*
X77086Y62256D01*
X77613Y62783D01*
X77690Y62899D01*
X77691Y62906D01*
X77692Y62910D01*
X77960D01*
Y64060D01*
X77471D01*
X77433Y64152D01*
X77721Y64440D01*
X80130D01*
X80267Y64468D01*
X80382Y64545D01*
X81470Y65633D01*
X81553Y65577D01*
X81534Y65531D01*
X81424Y65071D01*
X81395Y64700D01*
X84400D01*
Y64600D01*
X84500D01*
Y61595D01*
X84871Y61624D01*
X85331Y61734D01*
X85768Y61915D01*
X86171Y62162D01*
X86531Y62469D01*
X86838Y62829D01*
X87085Y63232D01*
X87266Y63669D01*
X87376Y64129D01*
X87411Y64572D01*
X87511Y64568D01*
Y64206D01*
X88165D01*
Y64910D01*
X88265D01*
Y65010D01*
X89019D01*
Y65524D01*
X89102Y65580D01*
X89213Y65534D01*
X89383Y65511D01*
X89552Y65534D01*
X89710Y65599D01*
X89846Y65703D01*
X89950Y65839D01*
X90016Y65997D01*
X90038Y66167D01*
X90016Y66337D01*
X89950Y66495D01*
X89846Y66631D01*
X89710Y66735D01*
X89552Y66800D01*
X89383Y66823D01*
X89249Y66805D01*
X89190Y66864D01*
X89123Y66909D01*
X89152Y67005D01*
X89818D01*
X90142Y66681D01*
X90124Y66548D01*
X90146Y66378D01*
X90212Y66220D01*
X90316Y66084D01*
X90452Y65980D01*
X90610Y65915D01*
X90780Y65892D01*
X90949Y65915D01*
X91107Y65980D01*
X91243Y66084D01*
X91257Y66103D01*
X91352Y66071D01*
Y63185D01*
X91347Y63182D01*
X91243Y63046D01*
X91178Y62888D01*
X91155Y62718D01*
X91178Y62548D01*
X91243Y62390D01*
X91347Y62254D01*
X91483Y62150D01*
X91641Y62085D01*
X91811Y62062D01*
X91981Y62085D01*
X92139Y62150D01*
X92275Y62254D01*
X92379Y62390D01*
X92444Y62548D01*
X92467Y62718D01*
X92444Y62888D01*
X92379Y63046D01*
X92275Y63182D01*
X92270Y63185D01*
Y72728D01*
X93512Y73971D01*
X97462Y77920D01*
X99483D01*
X99486Y77915D01*
X99622Y77811D01*
X99780Y77746D01*
X99950Y77723D01*
X100120Y77746D01*
X100278Y77811D01*
X100414Y77915D01*
X100429Y77916D01*
X100852Y77493D01*
X100820Y77398D01*
X100703Y77383D01*
X100462Y77283D01*
X100255Y77124D01*
X100096Y76917D01*
X99996Y76676D01*
X99962Y76418D01*
X99996Y76160D01*
X100096Y75919D01*
X100255Y75712D01*
X100462Y75553D01*
X100703Y75453D01*
X100961Y75419D01*
X101219Y75453D01*
X101460Y75553D01*
X101554Y75626D01*
X101644Y75581D01*
Y73894D01*
X101644Y73894D01*
X101644D01*
X101671Y73757D01*
X101749Y73642D01*
X103781Y71609D01*
X103764Y71476D01*
X103786Y71306D01*
X103852Y71148D01*
X103956Y71012D01*
X104092Y70908D01*
X104250Y70842D01*
X104419Y70820D01*
X104589Y70842D01*
X104747Y70908D01*
X104883Y71012D01*
X104987Y71148D01*
X105053Y71306D01*
X105075Y71476D01*
X105053Y71645D01*
X104987Y71803D01*
X104883Y71939D01*
X104747Y72043D01*
X104589Y72109D01*
X104419Y72131D01*
X104286Y72114D01*
X102358Y74042D01*
Y76849D01*
X102331Y76985D01*
X102253Y77101D01*
X100723Y78631D01*
X100607Y78709D01*
X100500Y78730D01*
X100414Y78843D01*
X100278Y78947D01*
X100120Y79012D01*
X99950Y79035D01*
X99780Y79012D01*
X99622Y78947D01*
X99486Y78843D01*
X99483Y78838D01*
X97272D01*
X97096Y78803D01*
X96948Y78703D01*
X93036Y74792D01*
X93012Y74787D01*
X92864Y74688D01*
X92764Y74539D01*
X92759Y74515D01*
X91487Y73242D01*
X91271Y73027D01*
X87875D01*
X87819Y73110D01*
X87882Y73262D01*
X87905Y73431D01*
X87882Y73601D01*
X87817Y73759D01*
X87713Y73895D01*
X87577Y73999D01*
X87419Y74065D01*
X87394Y74068D01*
X87356Y74160D01*
X87379Y74190D01*
X87444Y74348D01*
X87467Y74518D01*
X87444Y74688D01*
X87379Y74846D01*
X87275Y74982D01*
X87139Y75086D01*
X86981Y75151D01*
X86811Y75174D01*
X86641Y75151D01*
X86483Y75086D01*
X86347Y74982D01*
X86266Y74875D01*
X82011D01*
X81874Y74848D01*
X81759Y74770D01*
X80163Y73175D01*
X76859D01*
X76539Y73495D01*
X76526Y73556D01*
X76590Y73634D01*
X78211D01*
X78211Y73634D01*
X78334Y73658D01*
X78358Y73663D01*
X78483Y73746D01*
X78483Y73746D01*
X78483Y73746D01*
X79983Y75246D01*
X79983Y75246D01*
X80066Y75371D01*
X80095Y75518D01*
Y75732D01*
X80330Y75829D01*
X80539Y75990D01*
X80700Y76199D01*
X80800Y76442D01*
X80807Y76496D01*
X80894Y76546D01*
X81041Y76485D01*
X81211Y76462D01*
X81381Y76485D01*
X81539Y76550D01*
X81675Y76654D01*
X81779Y76790D01*
X81844Y76948D01*
X81867Y77118D01*
X81849Y77251D01*
X83763Y79166D01*
X83841Y79281D01*
X83868Y79418D01*
Y80053D01*
X83960Y80091D01*
X84513Y79539D01*
X84506Y79439D01*
X84398Y79356D01*
X84294Y79220D01*
X84228Y79062D01*
X84206Y78892D01*
X84228Y78723D01*
X84294Y78565D01*
X84281Y78490D01*
X84213Y78445D01*
X82679Y76911D01*
X82581Y76951D01*
X82411Y76974D01*
X82241Y76951D01*
X82083Y76886D01*
X81947Y76782D01*
X81843Y76646D01*
X81778Y76488D01*
X81755Y76318D01*
X81778Y76148D01*
X81843Y75990D01*
X81947Y75854D01*
X82083Y75750D01*
X82241Y75685D01*
X82411Y75662D01*
X82581Y75685D01*
X82739Y75750D01*
X82875Y75854D01*
X82979Y75990D01*
X83044Y76148D01*
X83062Y76284D01*
X84613Y77836D01*
X85151D01*
X85288Y77863D01*
X85404Y77940D01*
X85770Y78307D01*
X85870Y78300D01*
X85966Y78175D01*
X86102Y78071D01*
X86260Y78005D01*
X86430Y77983D01*
X86563Y78000D01*
X87171Y77392D01*
Y76847D01*
X88571D01*
Y78347D01*
X87269D01*
X87213Y78430D01*
X87231Y78473D01*
X88571D01*
Y79973D01*
X87630D01*
X87583Y80061D01*
X87625Y80124D01*
X88546D01*
Y81624D01*
X87146D01*
Y81230D01*
X86872D01*
X86849Y81261D01*
X86713Y81365D01*
X86555Y81431D01*
X86385Y81453D01*
X86216Y81431D01*
X86058Y81365D01*
X85922Y81261D01*
X85818Y81125D01*
X85752Y80967D01*
X85730Y80797D01*
X85752Y80628D01*
X85818Y80470D01*
X85922Y80334D01*
Y80245D01*
X85889Y80202D01*
X85789Y80196D01*
X84668Y81317D01*
Y81667D01*
X84751Y81722D01*
X84841Y81685D01*
X85011Y81662D01*
X85181Y81685D01*
X85339Y81750D01*
X85475Y81854D01*
X85579Y81990D01*
X85644Y82148D01*
X85667Y82318D01*
X85644Y82488D01*
X85579Y82646D01*
X85475Y82782D01*
X85368Y82863D01*
Y83118D01*
X85341Y83255D01*
X85263Y83370D01*
X85068Y83566D01*
Y84236D01*
X85160Y84274D01*
X85761Y83673D01*
D02*
G37*
G36*
X117779Y92682D02*
Y92366D01*
X117672Y92285D01*
X117568Y92149D01*
X117502Y91991D01*
X117480Y91821D01*
X117502Y91651D01*
X117540Y91561D01*
X117484Y91478D01*
X103966D01*
X101629Y93815D01*
X101648Y93913D01*
X101739Y93950D01*
X101875Y94054D01*
X101979Y94190D01*
X102044Y94348D01*
X102067Y94518D01*
X102049Y94651D01*
X102159Y94761D01*
X115700D01*
X117779Y92682D01*
D02*
G37*
G36*
X79394Y98668D02*
X74413Y93688D01*
X74303Y93673D01*
X74145Y93608D01*
X74009Y93504D01*
X73905Y93368D01*
X73840Y93210D01*
X73817Y93040D01*
X73840Y92871D01*
X73905Y92712D01*
X74009Y92577D01*
X74145Y92472D01*
X74303Y92407D01*
X74473Y92385D01*
X74642Y92407D01*
X74801Y92472D01*
X74936Y92577D01*
X75041Y92712D01*
X75106Y92871D01*
X75128Y93040D01*
X75106Y93210D01*
X75059Y93324D01*
X75852Y94118D01*
X75950Y94098D01*
X75988Y94008D01*
X76092Y93872D01*
X76228Y93768D01*
X76386Y93702D01*
X76556Y93680D01*
X76725Y93702D01*
X76883Y93768D01*
X77019Y93872D01*
X77108Y93988D01*
X82481D01*
Y93699D01*
X82386Y93667D01*
X82375Y93682D01*
X82239Y93786D01*
X82081Y93851D01*
X81911Y93874D01*
X81741Y93851D01*
X81583Y93786D01*
X81447Y93682D01*
X81366Y93575D01*
X77711D01*
X77574Y93548D01*
X77459Y93470D01*
X76263Y92275D01*
X72545D01*
X72409Y92248D01*
X72293Y92170D01*
X68054Y87931D01*
X67976Y87815D01*
X67949Y87679D01*
Y87321D01*
X67866Y87265D01*
X67843Y87275D01*
X67556Y87312D01*
X67269Y87275D01*
X67001Y87164D01*
X66771Y86988D01*
X66595Y86758D01*
X66484Y86490D01*
X66447Y86203D01*
X66484Y85916D01*
X66595Y85648D01*
X66771Y85418D01*
X67001Y85242D01*
X67269Y85131D01*
X67556Y85094D01*
X67843Y85131D01*
X68111Y85242D01*
X68259Y85356D01*
X68349Y85312D01*
Y83761D01*
X65784Y81195D01*
X65706Y81080D01*
X65679Y80943D01*
Y74596D01*
X65481Y74514D01*
X65259Y74344D01*
X65170Y74388D01*
Y82828D01*
X65259Y82872D01*
X65481Y82702D01*
X65749Y82591D01*
X66036Y82554D01*
X66323Y82591D01*
X66591Y82702D01*
X66821Y82878D01*
X66997Y83108D01*
X67108Y83376D01*
X67145Y83663D01*
X67108Y83950D01*
X66997Y84218D01*
X66821Y84448D01*
X66591Y84624D01*
X66323Y84735D01*
X66036Y84772D01*
X65749Y84735D01*
X65481Y84624D01*
X65259Y84454D01*
X65170Y84498D01*
Y87737D01*
X74200Y96767D01*
X75164D01*
Y98761D01*
X79355D01*
X79394Y98668D01*
D02*
G37*
G36*
X130272Y77991D02*
X130278Y77948D01*
X130343Y77790D01*
X130445Y77658D01*
X130401Y77568D01*
X129211D01*
Y76068D01*
X130087D01*
X130094Y76051D01*
X130038Y75968D01*
X129211D01*
Y74468D01*
X129211D01*
D01*
Y74468D01*
X129211Y74468D01*
X129211D01*
X129211Y74468D01*
X129211D01*
Y72968D01*
X129915D01*
X129926Y72941D01*
X129879Y72853D01*
X129838Y72845D01*
X129713Y72761D01*
X129713Y72761D01*
X129620Y72668D01*
X128311D01*
Y71168D01*
X129111D01*
Y71168D01*
X129111Y71168D01*
X129111Y71168D01*
Y70762D01*
X128550D01*
X128111Y71200D01*
Y72668D01*
X127941D01*
X127902Y72760D01*
X128110Y72968D01*
X129011D01*
Y74468D01*
D01*
Y74468D01*
X129011Y74468D01*
Y74468D01*
X129011D01*
X129011D01*
Y75968D01*
X128839D01*
Y76068D01*
X129011D01*
Y77568D01*
X127611D01*
Y77175D01*
X127455D01*
Y77525D01*
X126142D01*
Y76666D01*
X126059Y76583D01*
X125981Y76467D01*
X125884Y76487D01*
Y76718D01*
X125224D01*
Y76918D01*
X125884D01*
Y77529D01*
X125658D01*
X125619Y77622D01*
X126959Y78961D01*
X129302D01*
X130272Y77991D01*
D02*
G37*
G36*
X81447Y92754D02*
X81583Y92650D01*
X81741Y92585D01*
X81911Y92562D01*
X82081Y92585D01*
X82239Y92650D01*
X82375Y92754D01*
X82386Y92769D01*
X82481Y92737D01*
Y91502D01*
X82053Y91075D01*
X80411D01*
X80274Y91048D01*
X80159Y90970D01*
X72159Y82970D01*
X72081Y82855D01*
X72054Y82718D01*
Y76318D01*
X72054Y76318D01*
X72054D01*
X72081Y76181D01*
X72159Y76066D01*
X74424Y73800D01*
X74373Y73714D01*
X74329Y73728D01*
X73986Y73761D01*
X73643Y73728D01*
X73313Y73628D01*
X73009Y73465D01*
X72743Y73246D01*
X72524Y72980D01*
X72361Y72676D01*
X72261Y72346D01*
X72228Y72003D01*
X72261Y71660D01*
X72361Y71330D01*
X72524Y71026D01*
X72743Y70760D01*
X72851Y70671D01*
X72817Y70577D01*
X67801D01*
X66026Y72352D01*
X66058Y72446D01*
X66323Y72481D01*
X66591Y72592D01*
X66821Y72768D01*
X66997Y72998D01*
X67108Y73266D01*
X67145Y73553D01*
X67108Y73840D01*
X66997Y74108D01*
X66821Y74338D01*
X66591Y74514D01*
X66393Y74596D01*
Y75770D01*
X66491Y75790D01*
X66595Y75538D01*
X66771Y75308D01*
X67001Y75132D01*
X67269Y75021D01*
X67556Y74984D01*
X67843Y75021D01*
X68111Y75132D01*
X68341Y75308D01*
X68517Y75538D01*
X68628Y75806D01*
X68665Y76093D01*
X68628Y76380D01*
X68517Y76648D01*
X68341Y76878D01*
X68111Y77054D01*
X67843Y77165D01*
X67556Y77202D01*
X67269Y77165D01*
X67001Y77054D01*
X66771Y76878D01*
X66595Y76648D01*
X66491Y76396D01*
X66393Y76416D01*
Y80795D01*
X68958Y83361D01*
X69036Y83476D01*
X69063Y83613D01*
X69063Y83613D01*
X69063Y83613D01*
Y83613D01*
Y85054D01*
X69162Y85069D01*
X69219Y84882D01*
X69390Y84560D01*
X69622Y84279D01*
X69903Y84047D01*
X70225Y83876D01*
X70573Y83770D01*
X70936Y83734D01*
X71299Y83770D01*
X71647Y83876D01*
X71969Y84047D01*
X72250Y84279D01*
X72482Y84560D01*
X72653Y84882D01*
X72759Y85230D01*
X72795Y85593D01*
X72759Y85956D01*
X72653Y86304D01*
X72482Y86626D01*
X72250Y86907D01*
X71969Y87139D01*
X71647Y87310D01*
X71299Y87416D01*
X70936Y87452D01*
X70573Y87416D01*
X70225Y87310D01*
X69903Y87139D01*
X69622Y86907D01*
X69390Y86626D01*
X69219Y86304D01*
X69162Y86117D01*
X69063Y86132D01*
Y87365D01*
X72259Y90561D01*
X76111D01*
X76248Y90588D01*
X76363Y90666D01*
X77559Y91861D01*
X80366D01*
X80447Y91754D01*
X80583Y91650D01*
X80741Y91585D01*
X80911Y91562D01*
X81081Y91585D01*
X81239Y91650D01*
X81375Y91754D01*
X81479Y91890D01*
X81544Y92048D01*
X81567Y92218D01*
X81544Y92388D01*
X81479Y92546D01*
X81375Y92682D01*
X81264Y92766D01*
X81283Y92823D01*
X81382Y92840D01*
X81447Y92754D01*
D02*
G37*
G36*
X138880Y108837D02*
X139312Y108733D01*
X139721Y108564D01*
X140100Y108332D01*
X140429Y108050D01*
X140559Y107882D01*
X140636Y107695D01*
X140660Y107514D01*
X140656Y107494D01*
X140649Y104497D01*
X140653Y104478D01*
X140652Y104459D01*
X140663Y104430D01*
X140669Y104399D01*
X140679Y104383D01*
X140686Y104365D01*
X140706Y104342D01*
X140724Y104316D01*
X140739Y104306D01*
X140752Y104291D01*
X140780Y104278D01*
X140806Y104261D01*
X140825Y104257D01*
X140842Y104249D01*
X140885Y104173D01*
X140792Y103868D01*
X140744Y103378D01*
X140792Y102888D01*
X140935Y102417D01*
X141167Y101982D01*
X141480Y101602D01*
X141860Y101289D01*
X142295Y101057D01*
X142766Y100914D01*
X143256Y100866D01*
X143746Y100914D01*
X144046Y101005D01*
X144123Y100962D01*
X144131Y100944D01*
X144135Y100925D01*
X144153Y100900D01*
X144166Y100872D01*
X144180Y100859D01*
X144191Y100843D01*
X144217Y100826D01*
X144240Y100805D01*
X144258Y100799D01*
X144274Y100788D01*
X144304Y100782D01*
X144333Y100772D01*
X144353Y100773D01*
X144372Y100769D01*
X145447Y100775D01*
X145907Y100730D01*
X146338Y100599D01*
X146735Y100387D01*
X147060Y100120D01*
X147084Y100085D01*
X147085Y100084D01*
X147085Y100084D01*
X147926Y99255D01*
X148059Y99082D01*
X148136Y98895D01*
X148161Y98708D01*
X148156Y98685D01*
X148156Y98685D01*
X148156Y98685D01*
X148157Y97423D01*
X148086Y97352D01*
X142025D01*
X141975Y97473D01*
X141790Y97713D01*
X141550Y97898D01*
X141270Y98013D01*
X140970Y98053D01*
X139430D01*
X139130Y98013D01*
X138850Y97898D01*
X138610Y97713D01*
X138425Y97473D01*
X138310Y97193D01*
X138270Y96893D01*
X138310Y96593D01*
X138425Y96313D01*
X138610Y96073D01*
X138850Y95888D01*
X138955Y95845D01*
X138936Y95747D01*
X135488D01*
X135312Y95712D01*
X135164Y95612D01*
X134501Y94950D01*
X134369D01*
X133801Y95517D01*
X133793Y95523D01*
X133818Y95620D01*
X133871Y95624D01*
X134331Y95734D01*
X134768Y95915D01*
X135171Y96162D01*
X135531Y96469D01*
X135838Y96829D01*
X136085Y97232D01*
X136266Y97669D01*
X136376Y98129D01*
X136405Y98500D01*
X130395D01*
X130424Y98129D01*
X130534Y97669D01*
X130715Y97232D01*
X130962Y96829D01*
X131269Y96469D01*
X131629Y96162D01*
X132032Y95915D01*
X132392Y95766D01*
X132373Y95668D01*
X131449D01*
X129108Y98009D01*
X128941Y98121D01*
X128744Y98160D01*
X125892D01*
X125870Y98181D01*
X125704Y98293D01*
X125507Y98332D01*
X107447D01*
X107011Y98769D01*
X107049Y98861D01*
X127111D01*
X127248Y98888D01*
X127363Y98966D01*
X127363Y98966D01*
X127363Y98966D01*
X132775Y104377D01*
X132845Y104348D01*
X133096Y104315D01*
X133347Y104348D01*
X133580Y104444D01*
X133781Y104598D01*
X133935Y104799D01*
X134031Y105032D01*
X134064Y105283D01*
X134031Y105534D01*
X133935Y105767D01*
X133781Y105968D01*
X133580Y106122D01*
X133347Y106218D01*
X133096Y106251D01*
X132845Y106218D01*
X132612Y106122D01*
X132411Y105968D01*
X132263Y105774D01*
X132168Y105806D01*
Y106390D01*
X132718Y106940D01*
X132845Y106888D01*
X133096Y106855D01*
X133347Y106888D01*
X133580Y106984D01*
X133781Y107138D01*
X133935Y107339D01*
X134031Y107572D01*
X134064Y107823D01*
X134031Y108074D01*
X133935Y108307D01*
X133781Y108508D01*
X133580Y108662D01*
X133347Y108758D01*
X133243Y108772D01*
X133249Y108872D01*
X135455Y108872D01*
X135461Y108772D01*
X135384Y108762D01*
X135150Y108665D01*
X134948Y108511D01*
X134794Y108309D01*
X134697Y108075D01*
X134677Y107923D01*
X136595D01*
X136575Y108075D01*
X136478Y108309D01*
X136324Y108511D01*
X136122Y108665D01*
X135888Y108762D01*
X135810Y108772D01*
X135817Y108872D01*
X137998Y108873D01*
X138005Y108773D01*
X137924Y108762D01*
X137690Y108665D01*
X137488Y108511D01*
X137334Y108309D01*
X137237Y108075D01*
X137217Y107923D01*
X139135D01*
X139115Y108075D01*
X139018Y108309D01*
X138864Y108511D01*
X138662Y108665D01*
X138428Y108762D01*
X138347Y108773D01*
X138354Y108873D01*
X138428Y108873D01*
X138880Y108837D01*
D02*
G37*
G36*
X93454Y106320D02*
Y105638D01*
X93356Y105619D01*
X93295Y105767D01*
X93141Y105968D01*
X92940Y106122D01*
X92707Y106218D01*
X92456Y106251D01*
X92205Y106218D01*
X91972Y106122D01*
X91771Y105968D01*
X91617Y105767D01*
X91521Y105534D01*
X91488Y105283D01*
X91521Y105032D01*
X91617Y104799D01*
X91771Y104598D01*
X91972Y104444D01*
X92099Y104392D01*
Y103780D01*
X83021Y94701D01*
X77094D01*
X77019Y94799D01*
X76883Y94903D01*
X76793Y94941D01*
X76774Y95039D01*
X80095Y98360D01*
X84786D01*
X84923Y98388D01*
X85039Y98465D01*
X91178Y104604D01*
X91256Y104720D01*
X91283Y104857D01*
Y106145D01*
X92078Y106940D01*
X92205Y106888D01*
X92456Y106855D01*
X92707Y106888D01*
X92834Y106940D01*
X93454Y106320D01*
D02*
G37*
G36*
X136389Y109496D02*
Y109496D01*
X136392Y109499D01*
X137391Y109455D01*
X138464Y109314D01*
X139521Y109080D01*
X140554Y108754D01*
X141554Y108340D01*
X142515Y107840D01*
X143428Y107258D01*
X144287Y106599D01*
X145085Y105867D01*
X145376Y105550D01*
X145374Y105537D01*
X145388D01*
X145669Y105230D01*
D01*
X145816Y105069D01*
X146476Y104210D01*
X147057Y103297D01*
X147557Y102337D01*
X147972Y101336D01*
X148297Y100304D01*
X148532Y99247D01*
X148673Y98173D01*
X148719Y97118D01*
X148714Y97092D01*
Y97010D01*
X148713Y97009D01*
X148714Y97008D01*
Y67605D01*
X148714Y67603D01*
X148674Y66682D01*
X148532Y65608D01*
X148298Y64550D01*
X147972Y63516D01*
X147557Y62515D01*
X147057Y61554D01*
X146475Y60640D01*
X145815Y59780D01*
X145083Y58981D01*
X144284Y58249D01*
X143424Y57589D01*
X142510Y57007D01*
X141549Y56506D01*
X140548Y56092D01*
X139514Y55766D01*
X138959Y55643D01*
X138934Y55739D01*
X139047Y55774D01*
X139424Y55975D01*
X139755Y56247D01*
X139905Y56412D01*
X139917Y56412D01*
X139917D01*
X140196Y56739D01*
X140421Y57106D01*
X140585Y57503D01*
X140686Y57921D01*
X140719Y58349D01*
X140714Y60882D01*
X140813Y60897D01*
X140931Y60505D01*
X141164Y60070D01*
X141477Y59689D01*
X141858Y59376D01*
X142293Y59143D01*
X142765Y59000D01*
X143129Y58964D01*
Y61468D01*
X143256D01*
Y61595D01*
X145760D01*
X145724Y61959D01*
X145581Y62431D01*
X145348Y62866D01*
X145035Y63247D01*
X144654Y63560D01*
X144219Y63793D01*
X144110Y63826D01*
X144125Y63924D01*
X146770Y63918D01*
Y63911D01*
X146903Y63938D01*
X147016Y64013D01*
X147018Y64011D01*
X147431Y64482D01*
X147779Y65003D01*
X148057Y65565D01*
X148258Y66158D01*
X148380Y66773D01*
X148421Y67398D01*
X148411Y98685D01*
X148420Y98694D01*
X148420D01*
X148385Y98961D01*
X148281Y99210D01*
X148117Y99424D01*
X147264Y100265D01*
X147264Y100283D01*
Y100283D01*
X146877Y100600D01*
X146436Y100836D01*
X145957Y100981D01*
X145459Y101030D01*
X144370Y101024D01*
X144346Y101121D01*
X144654Y101286D01*
X145035Y101599D01*
X145348Y101980D01*
X145581Y102415D01*
X145724Y102887D01*
X145760Y103251D01*
X143256D01*
Y103378D01*
X143129D01*
Y105882D01*
X142765Y105846D01*
X142293Y105703D01*
X141858Y105470D01*
X141477Y105157D01*
X141164Y104776D01*
X141001Y104472D01*
X140904Y104496D01*
X140911Y107494D01*
X140920D01*
X140885Y107761D01*
X140781Y108010D01*
X140617Y108224D01*
X140618Y108225D01*
X140250Y108539D01*
X139838Y108792D01*
X139391Y108977D01*
X138920Y109090D01*
X138438Y109128D01*
X81288Y109118D01*
X81277Y109130D01*
Y109130D01*
X80920Y109083D01*
X80588Y108945D01*
X80303Y108726D01*
X80305Y108724D01*
X80141Y108510D01*
X80037Y108261D01*
X80002Y107994D01*
X80011Y105967D01*
X80011Y105967D01*
X80011D01*
X80020Y105957D01*
X79981Y105565D01*
X79864Y105179D01*
X79674Y104823D01*
X79418Y104511D01*
X79077Y104184D01*
Y104184D01*
X79076Y104171D01*
X78789Y103936D01*
X78454Y103756D01*
X78090Y103646D01*
X77711Y103609D01*
X76618Y103618D01*
Y103618D01*
X76610Y103611D01*
X76283Y103643D01*
X75962Y103740D01*
X75665Y103899D01*
X75405Y104112D01*
X75018Y104511D01*
X75018D01*
X75002Y104512D01*
X74708Y104870D01*
X74484Y105290D01*
X74346Y105745D01*
X74299Y106218D01*
X74311Y108377D01*
X74318D01*
X74291Y108510D01*
X74216Y108623D01*
X74219Y108626D01*
X73934Y108845D01*
X73602Y108983D01*
X73245Y109030D01*
X68828Y109018D01*
X68815Y109030D01*
Y109030D01*
X68056Y108981D01*
X67310Y108832D01*
X66589Y108588D01*
X65907Y108251D01*
X65274Y107828D01*
X64702Y107327D01*
X64703Y107326D01*
X64261Y106821D01*
X63888Y106263D01*
X63591Y105661D01*
X63375Y105025D01*
X63244Y104367D01*
X63200Y103697D01*
X63211Y61527D01*
X63202Y61518D01*
X63202D01*
X63239Y60950D01*
X63350Y60391D01*
X63533Y59851D01*
X63785Y59341D01*
X64102Y58867D01*
X64477Y58439D01*
X64604Y58324D01*
X64605Y58312D01*
Y58312D01*
X64819Y58148D01*
X65068Y58044D01*
X65335Y58009D01*
Y57458D01*
X74711D01*
Y57584D01*
X74810Y57599D01*
X74891Y57330D01*
X75124Y56895D01*
X75437Y56514D01*
X75818Y56201D01*
X76253Y55968D01*
X76725Y55825D01*
X77089Y55789D01*
Y58293D01*
X77343D01*
Y55789D01*
X77707Y55825D01*
X78179Y55968D01*
X78614Y56201D01*
X78995Y56514D01*
X79308Y56895D01*
X79541Y57330D01*
X79684Y57802D01*
X79718Y58146D01*
X79817Y58140D01*
X79811Y56842D01*
X79802D01*
X79837Y56575D01*
X79941Y56326D01*
X80105Y56112D01*
X80105Y56112D01*
X80365Y55899D01*
X80662Y55740D01*
X80983Y55643D01*
X81318Y55610D01*
X138200Y55618D01*
X138211Y55607D01*
Y55607D01*
X138441Y55630D01*
X138446Y55602D01*
X138386Y55522D01*
X137382Y55390D01*
X136299Y55342D01*
X136144Y55349D01*
Y55349D01*
X136144Y55349D01*
X136139Y55350D01*
X136139Y55350D01*
X69154D01*
X69144Y55352D01*
X69139Y55351D01*
X69135Y55354D01*
Y55354D01*
X69066Y55350D01*
X68989D01*
X68972Y55347D01*
X68300Y55384D01*
X67620Y55500D01*
X66958Y55691D01*
X66320Y55955D01*
X65717Y56288D01*
X65154Y56687D01*
X64640Y57147D01*
X64180Y57661D01*
X63781Y58224D01*
X63448Y58827D01*
X63184Y59465D01*
X62993Y60127D01*
X62877Y60807D01*
X62847Y61350D01*
X62843Y61349D01*
X62828Y61423D01*
X62843Y61496D01*
Y103520D01*
X62845Y103522D01*
X62845D01*
X62845Y103522D01*
X62875Y104072D01*
X62990Y104745D01*
X63179Y105401D01*
X63440Y106031D01*
X63770Y106628D01*
X64165Y107185D01*
X64620Y107694D01*
X65129Y108149D01*
X65685Y108544D01*
X66282Y108874D01*
X66913Y109135D01*
X67569Y109324D01*
X68242Y109438D01*
X68923Y109476D01*
X69054Y109469D01*
Y109469D01*
X69058Y109472D01*
X69063Y109471D01*
X69063Y109471D01*
X69063Y109471D01*
X136304Y109496D01*
X136347Y109505D01*
X136389Y109496D01*
D02*
G37*
%LPC*%
G36*
X115316Y57991D02*
X115065Y57958D01*
X114832Y57862D01*
X114631Y57708D01*
X114477Y57507D01*
X114381Y57274D01*
X114348Y57023D01*
X114381Y56772D01*
X114477Y56539D01*
X114631Y56338D01*
X114832Y56184D01*
X115065Y56088D01*
X115316Y56055D01*
X115567Y56088D01*
X115800Y56184D01*
X116001Y56338D01*
X116155Y56539D01*
X116251Y56772D01*
X116284Y57023D01*
X116251Y57274D01*
X116155Y57507D01*
X116001Y57708D01*
X115800Y57862D01*
X115567Y57958D01*
X115316Y57991D01*
D02*
G37*
G36*
X123711Y74518D02*
X122907D01*
Y73664D01*
X123711D01*
Y74518D01*
D02*
G37*
G36*
X94996Y57991D02*
X94745Y57958D01*
X94512Y57862D01*
X94311Y57708D01*
X94157Y57507D01*
X94061Y57274D01*
X94028Y57023D01*
X94061Y56772D01*
X94157Y56539D01*
X94311Y56338D01*
X94512Y56184D01*
X94745Y56088D01*
X94996Y56055D01*
X95247Y56088D01*
X95480Y56184D01*
X95681Y56338D01*
X95835Y56539D01*
X95931Y56772D01*
X95964Y57023D01*
X95931Y57274D01*
X95835Y57507D01*
X95681Y57708D01*
X95480Y57862D01*
X95247Y57958D01*
X94996Y57991D01*
D02*
G37*
G36*
X97536D02*
X97285Y57958D01*
X97052Y57862D01*
X96851Y57708D01*
X96697Y57507D01*
X96601Y57274D01*
X96568Y57023D01*
X96601Y56772D01*
X96697Y56539D01*
X96851Y56338D01*
X97052Y56184D01*
X97285Y56088D01*
X97536Y56055D01*
X97787Y56088D01*
X98020Y56184D01*
X98221Y56338D01*
X98375Y56539D01*
X98471Y56772D01*
X98504Y57023D01*
X98471Y57274D01*
X98375Y57507D01*
X98221Y57708D01*
X98020Y57862D01*
X97787Y57958D01*
X97536Y57991D01*
D02*
G37*
G36*
X100076D02*
X99825Y57958D01*
X99592Y57862D01*
X99391Y57708D01*
X99237Y57507D01*
X99141Y57274D01*
X99108Y57023D01*
X99141Y56772D01*
X99237Y56539D01*
X99391Y56338D01*
X99592Y56184D01*
X99825Y56088D01*
X100076Y56055D01*
X100327Y56088D01*
X100560Y56184D01*
X100761Y56338D01*
X100915Y56539D01*
X101011Y56772D01*
X101044Y57023D01*
X101011Y57274D01*
X100915Y57507D01*
X100761Y57708D01*
X100560Y57862D01*
X100327Y57958D01*
X100076Y57991D01*
D02*
G37*
G36*
X86631Y70770D02*
X85977D01*
Y70166D01*
X86631D01*
Y70770D01*
D02*
G37*
G36*
X85777D02*
X85123D01*
Y70166D01*
X85777D01*
Y70770D01*
D02*
G37*
G36*
X82196Y56923D02*
X81337D01*
X81357Y56771D01*
X81454Y56537D01*
X81608Y56335D01*
X81810Y56181D01*
X82044Y56084D01*
X82196Y56064D01*
Y56923D01*
D02*
G37*
G36*
X117856Y57991D02*
X117605Y57958D01*
X117372Y57862D01*
X117171Y57708D01*
X117017Y57507D01*
X116921Y57274D01*
X116888Y57023D01*
X116921Y56772D01*
X117017Y56539D01*
X117171Y56338D01*
X117372Y56184D01*
X117605Y56088D01*
X117856Y56055D01*
X118107Y56088D01*
X118340Y56184D01*
X118541Y56338D01*
X118695Y56539D01*
X118791Y56772D01*
X118824Y57023D01*
X118791Y57274D01*
X118695Y57507D01*
X118541Y57708D01*
X118340Y57862D01*
X118107Y57958D01*
X117856Y57991D01*
D02*
G37*
G36*
X70936Y76022D02*
X70573Y75986D01*
X70225Y75880D01*
X69903Y75709D01*
X69622Y75477D01*
X69390Y75196D01*
X69219Y74874D01*
X69113Y74526D01*
X69077Y74163D01*
X69113Y73800D01*
X69219Y73452D01*
X69390Y73130D01*
X69622Y72849D01*
X69903Y72617D01*
X70225Y72446D01*
X70573Y72340D01*
X70936Y72304D01*
X71299Y72340D01*
X71647Y72446D01*
X71969Y72617D01*
X72250Y72849D01*
X72482Y73130D01*
X72653Y73452D01*
X72759Y73800D01*
X72795Y74163D01*
X72759Y74526D01*
X72653Y74874D01*
X72482Y75196D01*
X72250Y75477D01*
X71969Y75709D01*
X71647Y75880D01*
X71299Y75986D01*
X70936Y76022D01*
D02*
G37*
G36*
X98361Y77412D02*
X97467D01*
Y76518D01*
X98361D01*
Y77412D01*
D02*
G37*
G36*
X99455Y76318D02*
X98561D01*
Y75424D01*
X99455D01*
Y76318D01*
D02*
G37*
G36*
Y77412D02*
X98561D01*
Y76518D01*
X99455D01*
Y77412D01*
D02*
G37*
G36*
X79826Y82792D02*
X79565Y82757D01*
X79322Y82656D01*
X79113Y82496D01*
X78952Y82287D01*
X78852Y82044D01*
X78817Y81783D01*
X78852Y81522D01*
X78952Y81279D01*
X79113Y81070D01*
X79322Y80910D01*
X79565Y80809D01*
X79826Y80774D01*
X80087Y80809D01*
X80330Y80910D01*
X80539Y81070D01*
X80700Y81279D01*
X80800Y81522D01*
X80835Y81783D01*
X80800Y82044D01*
X80700Y82287D01*
X80539Y82496D01*
X80330Y82656D01*
X80087Y82757D01*
X79826Y82792D01*
D02*
G37*
G36*
X144211Y78954D02*
X144015Y78929D01*
X143833Y78853D01*
X143676Y78733D01*
X143556Y78576D01*
X143480Y78394D01*
X143455Y78198D01*
X143480Y78002D01*
X143556Y77820D01*
X143676Y77663D01*
X143833Y77543D01*
X144015Y77467D01*
X144211Y77442D01*
X144407Y77467D01*
X144589Y77543D01*
X144746Y77663D01*
X144866Y77820D01*
X144942Y78002D01*
X144967Y78198D01*
X144942Y78394D01*
X144866Y78576D01*
X144746Y78733D01*
X144589Y78853D01*
X144407Y78929D01*
X144211Y78954D01*
D02*
G37*
G36*
X98361Y76318D02*
X97467D01*
Y75424D01*
X98361D01*
Y76318D01*
D02*
G37*
G36*
X84836Y57991D02*
X84585Y57958D01*
X84352Y57862D01*
X84151Y57708D01*
X83997Y57507D01*
X83901Y57274D01*
X83868Y57023D01*
X83901Y56772D01*
X83997Y56539D01*
X84151Y56338D01*
X84352Y56184D01*
X84585Y56088D01*
X84836Y56055D01*
X85087Y56088D01*
X85320Y56184D01*
X85521Y56338D01*
X85675Y56539D01*
X85771Y56772D01*
X85804Y57023D01*
X85771Y57274D01*
X85675Y57507D01*
X85521Y57708D01*
X85320Y57862D01*
X85087Y57958D01*
X84836Y57991D01*
D02*
G37*
G36*
X103461Y77417D02*
X103203Y77383D01*
X102962Y77283D01*
X102755Y77124D01*
X102596Y76917D01*
X102496Y76676D01*
X102462Y76418D01*
X102496Y76160D01*
X102596Y75919D01*
X102755Y75712D01*
X102962Y75553D01*
X103203Y75453D01*
X103461Y75419D01*
X103719Y75453D01*
X103960Y75553D01*
X104167Y75712D01*
X104326Y75919D01*
X104426Y76160D01*
X104460Y76418D01*
X104426Y76676D01*
X104326Y76917D01*
X104167Y77124D01*
X103960Y77283D01*
X103719Y77383D01*
X103461Y77417D01*
D02*
G37*
G36*
X105961D02*
X105703Y77383D01*
X105462Y77283D01*
X105255Y77124D01*
X105096Y76917D01*
X104996Y76676D01*
X104962Y76418D01*
X104996Y76160D01*
X105096Y75919D01*
X105255Y75712D01*
X105462Y75553D01*
X105703Y75453D01*
X105961Y75419D01*
X106219Y75453D01*
X106460Y75553D01*
X106667Y75712D01*
X106826Y75919D01*
X106926Y76160D01*
X106960Y76418D01*
X106926Y76676D01*
X106826Y76917D01*
X106667Y77124D01*
X106460Y77283D01*
X106219Y77383D01*
X105961Y77417D01*
D02*
G37*
G36*
X110961D02*
X110703Y77383D01*
X110462Y77283D01*
X110255Y77124D01*
X110096Y76917D01*
X109996Y76676D01*
X109962Y76418D01*
X109996Y76160D01*
X110096Y75919D01*
X110255Y75712D01*
X110462Y75553D01*
X110703Y75453D01*
X110961Y75419D01*
X111219Y75453D01*
X111460Y75553D01*
X111667Y75712D01*
X111826Y75919D01*
X111926Y76160D01*
X111960Y76418D01*
X111926Y76676D01*
X111826Y76917D01*
X111667Y77124D01*
X111460Y77283D01*
X111219Y77383D01*
X110961Y77417D01*
D02*
G37*
G36*
X108461D02*
X108203Y77383D01*
X107962Y77283D01*
X107755Y77124D01*
X107596Y76917D01*
X107496Y76676D01*
X107462Y76418D01*
X107496Y76160D01*
X107596Y75919D01*
X107755Y75712D01*
X107962Y75553D01*
X108203Y75453D01*
X108461Y75419D01*
X108719Y75453D01*
X108960Y75553D01*
X109167Y75712D01*
X109326Y75919D01*
X109426Y76160D01*
X109460Y76418D01*
X109426Y76676D01*
X109326Y76917D01*
X109167Y77124D01*
X108960Y77283D01*
X108719Y77383D01*
X108461Y77417D01*
D02*
G37*
G36*
X84479Y70425D02*
X83825D01*
Y69821D01*
X84479D01*
Y70425D01*
D02*
G37*
G36*
X69821Y61030D02*
X69321D01*
X69126Y60991D01*
X68960Y60881D01*
X68850Y60715D01*
X68813Y60532D01*
X67108D01*
Y60897D01*
X65708D01*
Y59397D01*
X67108D01*
Y59763D01*
X68811D01*
Y59520D01*
X68850Y59325D01*
X68960Y59160D01*
X69126Y59049D01*
X69321Y59010D01*
X69821D01*
X70016Y59049D01*
X70181Y59160D01*
X70292Y59325D01*
X70330Y59520D01*
Y60520D01*
X70292Y60715D01*
X70181Y60881D01*
X70016Y60991D01*
X69821Y61030D01*
D02*
G37*
G36*
X83260Y60527D02*
X82396D01*
Y59663D01*
X83260D01*
Y60527D01*
D02*
G37*
G36*
X145760Y61341D02*
X143383D01*
Y58964D01*
X143747Y59000D01*
X144219Y59143D01*
X144654Y59376D01*
X145035Y59689D01*
X145348Y60070D01*
X145581Y60505D01*
X145724Y60977D01*
X145760Y61341D01*
D02*
G37*
G36*
X76110Y63385D02*
X75756D01*
Y62906D01*
X76110D01*
Y63385D01*
D02*
G37*
G36*
X77964Y62164D02*
X77610D01*
Y61685D01*
X77964D01*
Y62164D01*
D02*
G37*
G36*
X84300Y64500D02*
X81395D01*
X81424Y64129D01*
X81534Y63669D01*
X81715Y63232D01*
X81962Y62829D01*
X82269Y62469D01*
X82629Y62162D01*
X83032Y61915D01*
X83469Y61734D01*
X83929Y61624D01*
X84300Y61595D01*
Y64500D01*
D02*
G37*
G36*
X100076Y60531D02*
X99825Y60498D01*
X99592Y60402D01*
X99391Y60248D01*
X99237Y60047D01*
X99141Y59814D01*
X99108Y59563D01*
X99141Y59312D01*
X99237Y59079D01*
X99391Y58878D01*
X99592Y58724D01*
X99825Y58628D01*
X100076Y58595D01*
X100327Y58628D01*
X100560Y58724D01*
X100761Y58878D01*
X100915Y59079D01*
X101011Y59312D01*
X101044Y59563D01*
X101011Y59814D01*
X100915Y60047D01*
X100761Y60248D01*
X100560Y60402D01*
X100327Y60498D01*
X100076Y60531D01*
D02*
G37*
G36*
X97536D02*
X97285Y60498D01*
X97052Y60402D01*
X96851Y60248D01*
X96697Y60047D01*
X96601Y59814D01*
X96568Y59563D01*
X96601Y59312D01*
X96697Y59079D01*
X96851Y58878D01*
X97052Y58724D01*
X97285Y58628D01*
X97536Y58595D01*
X97787Y58628D01*
X98020Y58724D01*
X98221Y58878D01*
X98375Y59079D01*
X98471Y59312D01*
X98504Y59563D01*
X98471Y59814D01*
X98375Y60047D01*
X98221Y60248D01*
X98020Y60402D01*
X97787Y60498D01*
X97536Y60531D01*
D02*
G37*
G36*
X87376D02*
X87125Y60498D01*
X86892Y60402D01*
X86691Y60248D01*
X86537Y60047D01*
X86441Y59814D01*
X86408Y59563D01*
X86441Y59312D01*
X86537Y59079D01*
X86691Y58878D01*
X86892Y58724D01*
X87125Y58628D01*
X87376Y58595D01*
X87627Y58628D01*
X87860Y58724D01*
X88061Y58878D01*
X88215Y59079D01*
X88311Y59312D01*
X88344Y59563D01*
X88311Y59814D01*
X88215Y60047D01*
X88061Y60248D01*
X87860Y60402D01*
X87627Y60498D01*
X87376Y60531D01*
D02*
G37*
G36*
X83260Y59463D02*
X82396D01*
Y58599D01*
X83260D01*
Y59463D01*
D02*
G37*
G36*
X82196D02*
X81332D01*
Y58599D01*
X82196D01*
Y59463D01*
D02*
G37*
G36*
X117856Y60531D02*
X117605Y60498D01*
X117372Y60402D01*
X117171Y60248D01*
X117017Y60047D01*
X116921Y59814D01*
X116888Y59563D01*
X116921Y59312D01*
X117017Y59079D01*
X117171Y58878D01*
X117372Y58724D01*
X117605Y58628D01*
X117856Y58595D01*
X118107Y58628D01*
X118340Y58724D01*
X118541Y58878D01*
X118695Y59079D01*
X118791Y59312D01*
X118824Y59563D01*
X118791Y59814D01*
X118695Y60047D01*
X118541Y60248D01*
X118340Y60402D01*
X118107Y60498D01*
X117856Y60531D01*
D02*
G37*
G36*
X79234Y66260D02*
X78880D01*
Y65781D01*
X79234D01*
Y66260D01*
D02*
G37*
G36*
X83255Y56923D02*
X82396D01*
Y56064D01*
X82548Y56084D01*
X82782Y56181D01*
X82984Y56335D01*
X83138Y56537D01*
X83235Y56771D01*
X83255Y56923D01*
D02*
G37*
G36*
X82196Y57982D02*
X82044Y57962D01*
X81810Y57865D01*
X81608Y57711D01*
X81454Y57509D01*
X81357Y57275D01*
X81337Y57123D01*
X82196D01*
Y57982D01*
D02*
G37*
G36*
X83625Y70425D02*
X82971D01*
Y69821D01*
X83625D01*
Y70425D01*
D02*
G37*
G36*
X144211Y70974D02*
X144015Y70949D01*
X143833Y70873D01*
X143676Y70753D01*
X143556Y70596D01*
X143480Y70414D01*
X143455Y70218D01*
X143480Y70022D01*
X143556Y69840D01*
X143676Y69683D01*
X143833Y69563D01*
X144015Y69487D01*
X144211Y69462D01*
X144407Y69487D01*
X144589Y69563D01*
X144746Y69683D01*
X144866Y69840D01*
X144942Y70022D01*
X144967Y70218D01*
X144942Y70414D01*
X144866Y70596D01*
X144746Y70753D01*
X144589Y70873D01*
X144407Y70949D01*
X144211Y70974D01*
D02*
G37*
G36*
X77380Y68839D02*
X77026D01*
Y68360D01*
X77380D01*
Y68839D01*
D02*
G37*
G36*
X98730Y66633D02*
X98730Y66633D01*
X98730D01*
X98436Y66604D01*
X98153Y66518D01*
X97892Y66379D01*
X97664Y66191D01*
X97477Y65963D01*
X97337Y65702D01*
X97252Y65420D01*
X97223Y65126D01*
X97252Y64832D01*
X97337Y64549D01*
X97477Y64288D01*
X97664Y64060D01*
X97892Y63872D01*
X98153Y63733D01*
X98436Y63647D01*
X98730Y63618D01*
Y63618D01*
D01*
D01*
Y63618D01*
X98730Y63618D01*
X98730Y63618D01*
X98730D01*
X98730D01*
D01*
D01*
Y63618D01*
Y63618D01*
D01*
X99024Y63647D01*
X99307Y63733D01*
X99567Y63872D01*
X99796Y64060D01*
X99983Y64288D01*
X100122Y64549D01*
X100208Y64832D01*
X100237Y65126D01*
X100208Y65420D01*
X100122Y65702D01*
X99983Y65963D01*
X99796Y66191D01*
X99567Y66379D01*
X99307Y66518D01*
X99024Y66604D01*
X98730Y66633D01*
X98730Y66633D01*
D02*
G37*
G36*
X84836Y60531D02*
X84585Y60498D01*
X84352Y60402D01*
X84151Y60248D01*
X83997Y60047D01*
X83901Y59814D01*
X83868Y59563D01*
X83901Y59312D01*
X83997Y59079D01*
X84151Y58878D01*
X84352Y58724D01*
X84585Y58628D01*
X84836Y58595D01*
X85087Y58628D01*
X85320Y58724D01*
X85521Y58878D01*
X85675Y59079D01*
X85771Y59312D01*
X85804Y59563D01*
X85771Y59814D01*
X85675Y60047D01*
X85521Y60248D01*
X85320Y60402D01*
X85087Y60498D01*
X84836Y60531D01*
D02*
G37*
G36*
X76110Y64064D02*
X75756D01*
Y63585D01*
X76110D01*
Y64064D01*
D02*
G37*
G36*
X82396Y57982D02*
Y57123D01*
X83255D01*
X83235Y57275D01*
X83138Y57509D01*
X82984Y57711D01*
X82782Y57865D01*
X82548Y57962D01*
X82396Y57982D01*
D02*
G37*
G36*
X67730Y66655D02*
X67534Y66630D01*
X67352Y66554D01*
X67195Y66434D01*
X67075Y66277D01*
X67000Y66095D01*
X66974Y65899D01*
X67000Y65703D01*
X67075Y65521D01*
X67195Y65364D01*
X67352Y65244D01*
X67534Y65168D01*
X67730Y65143D01*
X67926Y65168D01*
X68108Y65244D01*
X68265Y65364D01*
X68385Y65521D01*
X68461Y65703D01*
X68487Y65899D01*
X68461Y66095D01*
X68385Y66277D01*
X68265Y66434D01*
X68108Y66554D01*
X67926Y66630D01*
X67730Y66655D01*
D02*
G37*
G36*
X69871Y65805D02*
X69371D01*
X69176Y65766D01*
X69011Y65656D01*
X68900Y65490D01*
X68862Y65295D01*
Y64746D01*
X66651D01*
Y65063D01*
X65251D01*
Y63563D01*
Y62090D01*
X66180D01*
X66236Y62053D01*
X66383Y62023D01*
X67074D01*
X67118Y61934D01*
X67075Y61877D01*
X67000Y61695D01*
X66974Y61499D01*
X67000Y61303D01*
X67075Y61121D01*
X67195Y60964D01*
X67352Y60844D01*
X67534Y60768D01*
X67730Y60743D01*
X67926Y60768D01*
X68108Y60844D01*
X68265Y60964D01*
X68385Y61121D01*
X68461Y61303D01*
X68487Y61499D01*
X68461Y61695D01*
X68385Y61877D01*
X68342Y61934D01*
X68386Y62023D01*
X68836D01*
Y61908D01*
X68875Y61713D01*
X68986Y61547D01*
X69151Y61437D01*
X69346Y61398D01*
X69846D01*
X70041Y61437D01*
X70206Y61547D01*
X70317Y61713D01*
X70356Y61908D01*
Y62908D01*
X70317Y63103D01*
X70206Y63268D01*
X70041Y63379D01*
X69846Y63418D01*
X69346D01*
X69151Y63379D01*
X68986Y63268D01*
X68875Y63103D01*
X68836Y62908D01*
Y62792D01*
X66651D01*
Y63563D01*
Y63879D01*
X69094D01*
X69176Y63824D01*
X69371Y63786D01*
X69871D01*
X70066Y63824D01*
X70232Y63935D01*
X70342Y64100D01*
X70381Y64295D01*
Y65295D01*
X70342Y65490D01*
X70232Y65656D01*
X70066Y65766D01*
X69871Y65805D01*
D02*
G37*
G36*
X82396Y106242D02*
Y105383D01*
X83255D01*
X83235Y105535D01*
X83138Y105769D01*
X82984Y105971D01*
X82782Y106125D01*
X82548Y106222D01*
X82396Y106242D01*
D02*
G37*
G36*
X82196D02*
X82044Y106222D01*
X81810Y106125D01*
X81608Y105971D01*
X81454Y105769D01*
X81357Y105535D01*
X81337Y105383D01*
X82196D01*
Y106242D01*
D02*
G37*
G36*
X139135Y105183D02*
X138276D01*
Y104324D01*
X138428Y104344D01*
X138662Y104441D01*
X138864Y104595D01*
X139018Y104797D01*
X139115Y105031D01*
X139135Y105183D01*
D02*
G37*
G36*
X138076Y106242D02*
X137924Y106222D01*
X137690Y106125D01*
X137488Y105971D01*
X137334Y105769D01*
X137237Y105535D01*
X137217Y105383D01*
X138076D01*
Y106242D01*
D02*
G37*
G36*
X135736D02*
Y105383D01*
X136595D01*
X136575Y105535D01*
X136478Y105769D01*
X136324Y105971D01*
X136122Y106125D01*
X135888Y106222D01*
X135736Y106242D01*
D02*
G37*
G36*
X135536D02*
X135384Y106222D01*
X135150Y106125D01*
X134948Y105971D01*
X134794Y105769D01*
X134697Y105535D01*
X134677Y105383D01*
X135536D01*
Y106242D01*
D02*
G37*
G36*
X83255Y105183D02*
X82396D01*
Y104324D01*
X82548Y104344D01*
X82782Y104441D01*
X82984Y104595D01*
X83138Y104797D01*
X83235Y105031D01*
X83255Y105183D01*
D02*
G37*
G36*
X82196D02*
X81337D01*
X81357Y105031D01*
X81454Y104797D01*
X81608Y104595D01*
X81810Y104441D01*
X82044Y104344D01*
X82196Y104324D01*
Y105183D01*
D02*
G37*
G36*
X79720Y106426D02*
X77343D01*
Y104049D01*
X77707Y104085D01*
X78179Y104228D01*
X78614Y104461D01*
X78995Y104774D01*
X79308Y105155D01*
X79541Y105590D01*
X79684Y106062D01*
X79720Y106426D01*
D02*
G37*
G36*
X138076Y105183D02*
X137217D01*
X137237Y105031D01*
X137334Y104797D01*
X137488Y104595D01*
X137690Y104441D01*
X137924Y104344D01*
X138076Y104324D01*
Y105183D01*
D02*
G37*
G36*
X136595D02*
X135736D01*
Y104324D01*
X135888Y104344D01*
X136122Y104441D01*
X136324Y104595D01*
X136478Y104797D01*
X136575Y105031D01*
X136595Y105183D01*
D02*
G37*
G36*
X135536D02*
X134677D01*
X134697Y105031D01*
X134794Y104797D01*
X134948Y104595D01*
X135150Y104441D01*
X135384Y104344D01*
X135536Y104324D01*
Y105183D01*
D02*
G37*
G36*
X138276Y106242D02*
Y105383D01*
X139135D01*
X139115Y105535D01*
X139018Y105769D01*
X138864Y105971D01*
X138662Y106125D01*
X138428Y106222D01*
X138276Y106242D01*
D02*
G37*
G36*
X135536Y107723D02*
X134677D01*
X134697Y107571D01*
X134794Y107337D01*
X134948Y107135D01*
X135150Y106981D01*
X135384Y106884D01*
X135536Y106864D01*
Y107723D01*
D02*
G37*
G36*
X83260D02*
X82396D01*
Y106859D01*
X83260D01*
Y107723D01*
D02*
G37*
G36*
X82196D02*
X81332D01*
Y106859D01*
X82196D01*
Y107723D01*
D02*
G37*
G36*
X139135D02*
X138276D01*
Y106864D01*
X138428Y106884D01*
X138662Y106981D01*
X138864Y107135D01*
X139018Y107337D01*
X139115Y107571D01*
X139135Y107723D01*
D02*
G37*
G36*
X138076D02*
X137217D01*
X137237Y107571D01*
X137334Y107337D01*
X137488Y107135D01*
X137690Y106981D01*
X137924Y106884D01*
X138076Y106864D01*
Y107723D01*
D02*
G37*
G36*
X136595D02*
X135736D01*
Y106864D01*
X135888Y106884D01*
X136122Y106981D01*
X136324Y107135D01*
X136478Y107337D01*
X136575Y107571D01*
X136595Y107723D01*
D02*
G37*
G36*
X68627Y107563D02*
X68127D01*
X67932Y107524D01*
X67766Y107413D01*
X67656Y107248D01*
X67617Y107053D01*
Y106053D01*
X67656Y105858D01*
X67766Y105693D01*
X67932Y105582D01*
X68127Y105543D01*
X68627D01*
X68822Y105582D01*
X68987Y105693D01*
X69098Y105858D01*
X69137Y106053D01*
Y106399D01*
X70433D01*
Y106006D01*
X71833D01*
Y107506D01*
X70433D01*
Y107113D01*
X69125D01*
X69098Y107248D01*
X68987Y107413D01*
X68822Y107524D01*
X68627Y107563D01*
D02*
G37*
G36*
X66641Y106453D02*
X65977D01*
Y105539D01*
X66127D01*
X66323Y105578D01*
X66490Y105690D01*
X66602Y105856D01*
X66641Y106053D01*
Y106453D01*
D02*
G37*
G36*
X65777D02*
X65113D01*
Y106053D01*
X65152Y105856D01*
X65263Y105690D01*
X65430Y105578D01*
X65627Y105539D01*
X65777D01*
Y106453D01*
D02*
G37*
G36*
X77343Y109057D02*
Y106680D01*
X79720D01*
X79684Y107044D01*
X79541Y107516D01*
X79308Y107951D01*
X78995Y108332D01*
X78614Y108645D01*
X78179Y108878D01*
X77707Y109021D01*
X77343Y109057D01*
D02*
G37*
G36*
X77089D02*
X76725Y109021D01*
X76253Y108878D01*
X75818Y108645D01*
X75437Y108332D01*
X75124Y107951D01*
X74891Y107516D01*
X74748Y107044D01*
X74712Y106680D01*
X77089D01*
Y109057D01*
D02*
G37*
G36*
X66127Y107567D02*
X65977D01*
Y106653D01*
X66641D01*
Y107053D01*
X66602Y107250D01*
X66490Y107416D01*
X66323Y107528D01*
X66127Y107567D01*
D02*
G37*
G36*
X77089Y106426D02*
X74712D01*
X74748Y106062D01*
X74891Y105590D01*
X75124Y105155D01*
X75437Y104774D01*
X75818Y104461D01*
X76253Y104228D01*
X76725Y104085D01*
X77089Y104049D01*
Y106426D01*
D02*
G37*
G36*
X137390Y87873D02*
X137215Y87850D01*
X136958Y87744D01*
X136738Y87575D01*
X136569Y87355D01*
X136463Y87098D01*
X136440Y86923D01*
X137390D01*
Y87873D01*
D02*
G37*
G36*
X73986Y89511D02*
X73643Y89478D01*
X73313Y89378D01*
X73009Y89215D01*
X72743Y88996D01*
X72524Y88730D01*
X72361Y88426D01*
X72261Y88096D01*
X72228Y87753D01*
X72261Y87410D01*
X72361Y87080D01*
X72524Y86776D01*
X72743Y86510D01*
X73009Y86291D01*
X73313Y86128D01*
X73643Y86028D01*
X73986Y85995D01*
X74329Y86028D01*
X74659Y86128D01*
X74963Y86291D01*
X75229Y86510D01*
X75448Y86776D01*
X75611Y87080D01*
X75711Y87410D01*
X75744Y87753D01*
X75711Y88096D01*
X75611Y88426D01*
X75448Y88730D01*
X75229Y88996D01*
X74963Y89215D01*
X74659Y89378D01*
X74329Y89478D01*
X73986Y89511D01*
D02*
G37*
G36*
X138540Y86723D02*
X137590D01*
Y85773D01*
X137765Y85796D01*
X138022Y85902D01*
X138242Y86071D01*
X138411Y86291D01*
X138517Y86548D01*
X138540Y86723D01*
D02*
G37*
G36*
X123925Y94200D02*
X122471D01*
Y92946D01*
X123925D01*
Y94200D01*
D02*
G37*
G36*
X65253Y94344D02*
X65253Y94344D01*
X65253D01*
X64959Y94315D01*
X64676Y94230D01*
X64415Y94090D01*
X64187Y93903D01*
X63999Y93674D01*
X63860Y93414D01*
X63774Y93131D01*
X63745Y92837D01*
X63774Y92543D01*
X63860Y92260D01*
X63999Y92000D01*
X64187Y91771D01*
X64415Y91584D01*
X64676Y91444D01*
X64959Y91359D01*
X65253Y91330D01*
Y91330D01*
D01*
D01*
Y91330D01*
X65253Y91330D01*
X65253Y91330D01*
X65253D01*
X65253D01*
D01*
D01*
Y91330D01*
Y91330D01*
D01*
X65547Y91359D01*
X65829Y91444D01*
X66090Y91584D01*
X66318Y91771D01*
X66506Y92000D01*
X66645Y92260D01*
X66731Y92543D01*
X66760Y92837D01*
X66731Y93131D01*
X66645Y93414D01*
X66506Y93674D01*
X66318Y93903D01*
X66090Y94090D01*
X65829Y94230D01*
X65547Y94315D01*
X65253Y94344D01*
X65253Y94344D01*
D02*
G37*
G36*
X137590Y87873D02*
Y86923D01*
X138540D01*
X138517Y87098D01*
X138411Y87355D01*
X138242Y87575D01*
X138022Y87744D01*
X137765Y87850D01*
X137590Y87873D01*
D02*
G37*
G36*
X80826Y84223D02*
X79926D01*
Y83324D01*
X80088Y83345D01*
X80332Y83446D01*
X80542Y83607D01*
X80703Y83817D01*
X80804Y84061D01*
X80826Y84223D01*
D02*
G37*
G36*
X79726D02*
X78826D01*
X78848Y84061D01*
X78949Y83817D01*
X79110Y83607D01*
X79320Y83446D01*
X79564Y83345D01*
X79726Y83324D01*
Y84223D01*
D02*
G37*
G36*
X135165Y81872D02*
X134311D01*
Y81118D01*
X135165D01*
Y81872D01*
D02*
G37*
G36*
X137390Y86723D02*
X136440D01*
X136463Y86548D01*
X136569Y86291D01*
X136738Y86071D01*
X136958Y85902D01*
X137215Y85796D01*
X137390Y85773D01*
Y86723D01*
D02*
G37*
G36*
X79926Y85323D02*
Y84423D01*
X80826D01*
X80804Y84585D01*
X80703Y84829D01*
X80542Y85039D01*
X80332Y85200D01*
X80088Y85301D01*
X79926Y85323D01*
D02*
G37*
G36*
X79726D02*
X79564Y85301D01*
X79320Y85200D01*
X79110Y85039D01*
X78949Y84829D01*
X78848Y84585D01*
X78826Y84423D01*
X79726D01*
Y85323D01*
D02*
G37*
G36*
X125579Y94200D02*
X124125D01*
Y92946D01*
X125579D01*
Y94200D01*
D02*
G37*
G36*
X68014Y102019D02*
Y99617D01*
X69179D01*
Y100767D01*
X69136Y101095D01*
X69009Y101400D01*
X68808Y101662D01*
X68546Y101863D01*
X68241Y101989D01*
X68014Y102019D01*
D02*
G37*
G36*
X67814D02*
X67587Y101989D01*
X67282Y101863D01*
X67020Y101662D01*
X66819Y101400D01*
X66692Y101095D01*
X66649Y100767D01*
Y99617D01*
X67814D01*
Y102019D01*
D02*
G37*
G36*
X138862Y101913D02*
X138862Y101913D01*
X138862D01*
X138568Y101884D01*
X138285Y101799D01*
X138024Y101659D01*
X137796Y101472D01*
X137609Y101244D01*
X137469Y100983D01*
X137383Y100700D01*
X137355Y100406D01*
X137383Y100112D01*
X137469Y99829D01*
X137609Y99569D01*
X137796Y99340D01*
X138024Y99153D01*
X138285Y99014D01*
X138568Y98928D01*
X138862Y98899D01*
Y98899D01*
D01*
D01*
Y98899D01*
X138862Y98899D01*
X138862Y98899D01*
X138862D01*
X138862D01*
D01*
D01*
Y98899D01*
Y98899D01*
D01*
X139156Y98928D01*
X139439Y99014D01*
X139699Y99153D01*
X139928Y99340D01*
X140115Y99569D01*
X140254Y99829D01*
X140340Y100112D01*
X140369Y100406D01*
X140340Y100700D01*
X140254Y100983D01*
X140115Y101244D01*
X139928Y101472D01*
X139699Y101659D01*
X139439Y101799D01*
X139156Y101884D01*
X138862Y101913D01*
X138862Y101913D01*
D02*
G37*
G36*
X143383Y105882D02*
Y103505D01*
X145760D01*
X145724Y103869D01*
X145581Y104341D01*
X145348Y104776D01*
X145071Y105114D01*
X145035Y105157D01*
X144857Y105304D01*
X144654Y105470D01*
X144219Y105703D01*
X143747Y105846D01*
X143383Y105882D01*
D02*
G37*
G36*
X71914Y105478D02*
X69914D01*
X69588Y105435D01*
X69284Y105309D01*
X69022Y105109D01*
X68822Y104848D01*
X68696Y104544D01*
X68653Y104217D01*
X68696Y103891D01*
X68822Y103587D01*
X69022Y103326D01*
X69284Y103125D01*
X69588Y102999D01*
X69914Y102956D01*
X71914D01*
X72240Y102999D01*
X72544Y103125D01*
X72806Y103326D01*
X73006Y103587D01*
X73132Y103891D01*
X73175Y104217D01*
X73132Y104544D01*
X73006Y104848D01*
X72806Y105109D01*
X72544Y105309D01*
X72240Y105435D01*
X71914Y105478D01*
D02*
G37*
G36*
X84938Y102783D02*
X84134D01*
Y101929D01*
X84938D01*
Y102783D01*
D02*
G37*
G36*
X67814Y99417D02*
X66649D01*
Y98267D01*
X66692Y97940D01*
X66819Y97635D01*
X67020Y97373D01*
X67282Y97172D01*
X67587Y97045D01*
X67814Y97016D01*
Y99417D01*
D02*
G37*
G36*
X125579Y95654D02*
X124125D01*
Y94400D01*
X125579D01*
Y95654D01*
D02*
G37*
G36*
X123925D02*
X122471D01*
Y94400D01*
X123925D01*
Y95654D01*
D02*
G37*
G36*
X133500Y101605D02*
Y98700D01*
X136405D01*
X136376Y99071D01*
X136266Y99531D01*
X136085Y99968D01*
X135838Y100371D01*
X135531Y100731D01*
X135171Y101038D01*
X134768Y101285D01*
X134331Y101466D01*
X133871Y101576D01*
X133500Y101605D01*
D02*
G37*
G36*
X133300D02*
X132929Y101576D01*
X132469Y101466D01*
X132032Y101285D01*
X131629Y101038D01*
X131269Y100731D01*
X130962Y100371D01*
X130715Y99968D01*
X130534Y99531D01*
X130424Y99071D01*
X130395Y98700D01*
X133300D01*
Y101605D01*
D02*
G37*
G36*
X69179Y99417D02*
X68014D01*
Y97016D01*
X68241Y97045D01*
X68546Y97172D01*
X68808Y97373D01*
X69009Y97635D01*
X69136Y97940D01*
X69179Y98267D01*
Y99417D01*
D02*
G37*
%LPD*%
D10*
X132811Y73218D02*
X133711D01*
X132038Y72445D02*
X132811Y73218D01*
X132038Y71967D02*
Y72445D01*
X131411Y71340D02*
X132038Y71967D01*
X131411Y70418D02*
Y71340D01*
X80911Y88618D02*
X81111Y88818D01*
X80945Y87884D02*
X81111Y87718D01*
X75711Y77918D02*
X76911Y76718D01*
X80819Y88526D02*
X81111Y88818D01*
X80301Y88526D02*
X80819D01*
X80811Y88018D02*
X81111Y87718D01*
X80511Y88018D02*
X80811D01*
X75711Y77918D02*
Y83218D01*
X80511Y88018D01*
X75203Y83428D02*
X80301Y88526D01*
X75203Y77526D02*
Y83428D01*
Y77526D02*
X76011Y76718D01*
X79711Y75518D02*
Y76418D01*
X78211Y74018D02*
X79711Y75518D01*
X76011Y74518D02*
Y76718D01*
Y74518D02*
X76511Y74018D01*
X78211D01*
X76911Y75718D02*
Y76718D01*
X129011Y71918D02*
X129414D01*
X129985Y72490D01*
X133288Y74995D02*
X133711Y75418D01*
X132616Y74995D02*
X133288D01*
X130111Y72490D02*
X132616Y74995D01*
X129985Y72490D02*
X130111D01*
X129911Y73718D02*
X131484Y75291D01*
Y75919D01*
X133183Y77618D01*
X133711D01*
X131638Y77817D02*
Y78257D01*
X129911Y76818D02*
X130639D01*
X131638Y77817D01*
Y78257D02*
X133199Y79818D01*
X133711D01*
X129911Y75218D02*
X132584Y77891D01*
Y78103D01*
X133199Y78718D01*
X133711D01*
X66408Y60147D02*
X69444D01*
X66383Y62408D02*
X69596D01*
X65951Y62840D02*
X66383Y62408D01*
D11*
X113487Y68947D02*
G03*
X113487Y68247I0J-350D01*
G01*
X113940Y73574D02*
G03*
X113586Y73574I-177J-177D01*
G01*
X110572Y62973D02*
G03*
X110572Y63326I-177J177D01*
G01*
X111412Y63194D02*
G03*
X111766Y63194I177J177D01*
G01*
D02*
G03*
X111766Y63547I-177J177D01*
G01*
X110572Y63680D02*
G03*
X110572Y63327I177J-177D01*
G01*
X110926Y63680D02*
G03*
X110572Y63680I-177J-177D01*
G01*
X111145Y64521D02*
G03*
X111145Y64168I177J-177D01*
G01*
X111499Y64521D02*
G03*
X111145Y64521I-177J-177D01*
G01*
X111853Y65228D02*
G03*
X111853Y64875I177J-177D01*
G01*
X112125Y63895D02*
G03*
X112479Y63895I177J177D01*
G01*
D02*
G03*
X112479Y64249I-177J177D01*
G01*
X112206Y65228D02*
G03*
X111853Y65228I-177J-177D01*
G01*
X112560Y65935D02*
G03*
X112560Y65582I177J-177D01*
G01*
X112913Y65935D02*
G03*
X112560Y65935I-177J-177D01*
G01*
X112832Y64602D02*
G03*
X113186Y64602I177J177D01*
G01*
D02*
G03*
X113186Y64956I-177J177D01*
G01*
X113539Y65309D02*
G03*
X113893Y65309I177J177D01*
G01*
X113267Y66642D02*
G03*
X113267Y66289I177J-177D01*
G01*
X113893Y65309D02*
G03*
X113893Y65663I-177J177D01*
G01*
X114246Y66017D02*
G03*
X114600Y66017I177J177D01*
G01*
X114462Y66862D02*
G03*
X114462Y66508I177J-177D01*
G01*
X114600Y66017D02*
G03*
X114600Y66370I-177J177D01*
G01*
X113620Y66642D02*
G03*
X113267Y66642I-177J-177D01*
G01*
X113513Y68975D02*
G03*
X113513Y69675I0J350D01*
G01*
Y70375D02*
G03*
X113513Y69675I0J-350D01*
G01*
Y70375D02*
G03*
X113513Y71075I0J350D01*
G01*
X114134Y71965D02*
G03*
X114488Y71965I177J177D01*
G01*
X113078Y72668D02*
G03*
X113078Y72315I177J-177D01*
G01*
X113431Y72668D02*
G03*
X113078Y72668I-177J-177D01*
G01*
X113586Y73574D02*
G03*
X113586Y73221I177J-177D01*
G01*
X114293Y74281D02*
G03*
X114293Y73928I177J-177D01*
G01*
X114488Y71965D02*
G03*
X114488Y72319I-177J177D01*
G01*
X114841Y72673D02*
G03*
X115195Y72673I177J177D01*
G01*
X114647Y74281D02*
G03*
X114293Y74281I-177J-177D01*
G01*
X115000Y74988D02*
G03*
X115000Y74635I177J-177D01*
G01*
X115195Y72673D02*
G03*
X115195Y73026I-177J177D01*
G01*
X115548Y73380D02*
G03*
X115902Y73380I177J177D01*
G01*
D02*
G03*
X115902Y73733I-177J177D01*
G01*
X115354Y74988D02*
G03*
X115000Y74988I-177J-177D01*
G01*
X116256Y74087D02*
G03*
X116609Y74087I177J177D01*
G01*
D02*
G03*
X116609Y74440I-177J177D01*
G01*
X116963Y74794D02*
G03*
X117316Y74794I177J177D01*
G01*
D02*
G03*
X117316Y75147I-177J177D01*
G01*
X115707Y75696D02*
G03*
X115707Y75342I177J-177D01*
G01*
X116061Y75696D02*
G03*
X115707Y75696I-177J-177D01*
G01*
X117033Y75784D02*
G03*
X117033Y75430I177J-177D01*
G01*
X117992Y76378D02*
G03*
X118345Y76378I177J177D01*
G01*
X117809Y76561D02*
G03*
X117455Y76561I-177J-177D01*
G01*
X118345Y76378D02*
G03*
X118345Y76731I-177J177D01*
G01*
X117810Y77620D02*
G03*
X117810Y77267I177J-177D01*
G01*
X118164Y77620D02*
G03*
X117810Y77620I-177J-177D01*
G01*
X118517Y78328D02*
G03*
X118517Y77974I177J-177D01*
G01*
X118871Y78328D02*
G03*
X118517Y78328I-177J-177D01*
G01*
X118699Y77085D02*
G03*
X119053Y77085I177J177D01*
G01*
D02*
G03*
X119053Y77439I-177J177D01*
G01*
X119406Y77792D02*
G03*
X119760Y77792I177J177D01*
G01*
X119224Y79035D02*
G03*
X119224Y78681I177J-177D01*
G01*
X119578Y79035D02*
G03*
X119224Y79035I-177J-177D01*
G01*
X119760Y77792D02*
G03*
X119760Y78146I-177J177D01*
G01*
X120113Y78499D02*
G03*
X120467Y78499I177J177D01*
G01*
D02*
G03*
X120467Y78853I-177J177D01*
G01*
X119931Y79742D02*
G03*
X119931Y79388I177J-177D01*
G01*
X120285Y79742D02*
G03*
X119931Y79742I-177J-177D01*
G01*
X120820Y79206D02*
G03*
X121174Y79206I177J177D01*
G01*
D02*
G03*
X121174Y79560I-177J177D01*
G01*
X121527Y79913D02*
G03*
X121881Y79913I177J177D01*
G01*
D02*
G03*
X121881Y80267I-177J177D01*
G01*
X120638Y80449D02*
G03*
X120638Y80095I177J-177D01*
G01*
X120992Y80449D02*
G03*
X120638Y80449I-177J-177D01*
G01*
X121698Y80804D02*
G03*
X121698Y80450I177J-177D01*
G01*
X113144Y71895D02*
Y72248D01*
Y71895D02*
X113513Y71526D01*
Y68020D02*
Y68247D01*
X112971Y67478D02*
X113513Y68020D01*
X102001Y73894D02*
Y76849D01*
Y73894D02*
X104419Y71476D01*
X100471Y78379D02*
X102001Y76849D01*
X99950Y78379D02*
X100471D01*
X74473Y93040D02*
Y93243D01*
X79947Y98717D01*
X90926Y106293D02*
X92456Y107823D01*
X135890Y70409D02*
X137566D01*
X133299Y67818D02*
X135890Y70409D01*
X81367Y61062D02*
X86042D01*
X76556Y94336D02*
X76564Y94344D01*
X82755Y68175D02*
X85587D01*
X81615Y67036D02*
X82755Y68175D01*
X87198Y68351D02*
X87338Y68212D01*
X88240D01*
X85877Y68466D02*
X86982Y67362D01*
X89966D01*
X90780Y66548D01*
X85893Y67650D02*
X86931Y66612D01*
X86042Y61062D02*
X88836Y63856D01*
X89459D01*
X88938Y66612D02*
X89383Y66167D01*
X86931Y66612D02*
X88938D01*
X80130Y64797D02*
X82983Y67650D01*
X85893D01*
X84016Y69216D02*
X90113D01*
X90811Y68518D01*
X83725Y68925D02*
X84016Y69216D01*
X85587Y68175D02*
X85877Y68466D01*
X112268Y83464D02*
X112624Y83820D01*
X112268Y82398D02*
Y83464D01*
Y82398D02*
X112522Y82144D01*
X116891D01*
X112624Y83820D02*
X114213D01*
X117637Y84418D02*
X123621D01*
X117461Y84242D02*
X117637Y84418D01*
X117461Y82714D02*
Y84242D01*
X116891Y82144D02*
X117461Y82714D01*
X114213Y83820D02*
X115311Y84918D01*
X102853Y82618D02*
X103784Y81686D01*
X93511Y82618D02*
X102853D01*
X116610Y83617D02*
X116611Y83618D01*
X115672Y83617D02*
X116610D01*
X100279Y83337D02*
X105308D01*
X99599Y84018D02*
X100279Y83337D01*
X92811Y83318D02*
X93511Y82618D01*
X88511Y84018D02*
X99599D01*
X110811Y85618D02*
X112611Y87418D01*
X89325Y85618D02*
X110811D01*
X112611Y87418D02*
X116511D01*
X104311Y98018D02*
X104811D01*
X105711Y97118D01*
X104011Y97018D02*
Y97318D01*
X101411Y94518D02*
X102011Y95118D01*
X101311Y95918D02*
X101711Y95518D01*
X101704Y99818D02*
X106018D01*
X101538Y100218D02*
X106184D01*
X104111Y100618D02*
X105011Y101518D01*
X101273Y100618D02*
X104111D01*
X103729Y101018D02*
X104829Y102118D01*
X101107Y101018D02*
X103729D01*
X103564Y101418D02*
X104664Y102518D01*
X100941Y101418D02*
X103564D01*
X103398Y101818D02*
X104498Y102918D01*
X100775Y101818D02*
X103398D01*
X103232Y102218D02*
X104332Y103318D01*
X100610Y102218D02*
X103232D01*
X103067Y102618D02*
X104167Y103718D01*
X100444Y102618D02*
X103067D01*
X102901Y103018D02*
X103311Y103428D01*
X98011Y103018D02*
X102901D01*
X100804Y98918D02*
X101704Y99818D01*
X106018D02*
X106618Y99218D01*
X100638Y99318D02*
X101538Y100218D01*
X106184D02*
X106784Y99618D01*
X100373Y99718D02*
X101273Y100618D01*
X100207Y100118D02*
X101107Y101018D01*
X100041Y100518D02*
X100941Y101418D01*
X99875Y100918D02*
X100775Y101818D01*
X99710Y101318D02*
X100610Y102218D01*
X99544Y101718D02*
X100444Y102618D01*
X97511Y102518D02*
X98011Y103018D01*
X133711Y69244D02*
Y71018D01*
X132011Y67544D02*
X133711Y69244D01*
X132011Y67018D02*
Y67544D01*
X129744Y70351D02*
X129811Y70418D01*
X132611Y70244D02*
Y71492D01*
X131711Y69344D02*
X132611Y70244D01*
X133261Y71668D02*
X133711Y72118D01*
X132787Y71668D02*
X133261D01*
X132611Y71492D02*
X132787Y71668D01*
X131711Y68618D02*
Y69344D01*
X80911Y72418D02*
X81511Y73018D01*
X76311Y72418D02*
X80911D01*
X80311Y72818D02*
X82011Y74518D01*
X86811D01*
X131873Y86618D02*
X132411Y86080D01*
X132461Y82418D02*
X132811Y82768D01*
X125211Y63318D02*
X135193D01*
X126291Y62918D02*
X135358D01*
X126611Y62518D02*
X135524D01*
X128031Y62118D02*
X135690D01*
X128743Y61718D02*
X135855D01*
X136021Y61318D02*
X137021Y62318D01*
X129771Y61318D02*
X136021D01*
X128016Y59563D02*
X129771Y61318D01*
X126811Y59786D02*
X128743Y61718D01*
X125476Y59563D02*
X128031Y62118D01*
X124411Y60318D02*
X126611Y62518D01*
X122936Y59563D02*
X126291Y62918D01*
X121926Y60033D02*
X125211Y63318D01*
X120656Y59563D02*
X124811Y63718D01*
X137021Y62318D02*
X137611D01*
X126811Y59318D02*
Y59786D01*
X131711Y60718D02*
X136411D01*
X130556Y59563D02*
X131711Y60718D01*
X87701Y84218D02*
X87901Y84418D01*
X87111Y84218D02*
X87701D01*
X86211Y85118D02*
X87111Y84218D01*
X87411Y82918D02*
X88511Y84018D01*
X87411Y85918D02*
X88111Y85218D01*
X137611Y62318D02*
X138011Y62718D01*
X136411Y60718D02*
X137211Y61518D01*
X87411Y84918D02*
X87511Y84818D01*
X125211Y89718D02*
X128255Y92762D01*
X122936Y57023D02*
X124411Y58498D01*
X120396Y57023D02*
X121926Y58553D01*
Y60033D01*
X120396Y59563D02*
X120656D01*
X125476Y57023D02*
Y57983D01*
X126811Y59318D01*
X124411Y58498D02*
Y60318D01*
X130556Y57023D02*
X131651Y58118D01*
X138811D01*
X139611Y58918D02*
Y61118D01*
X128016Y57023D02*
X129111Y58118D01*
X131011D01*
X131411Y58518D01*
X106611Y64718D02*
X107411Y65518D01*
X93986Y59665D02*
Y59981D01*
X95423Y61418D01*
X107411Y65518D02*
X109601D01*
X124211Y106518D02*
X126611D01*
X90611Y80918D02*
X99511D01*
X90611Y79918D02*
X98611D01*
X109011Y105718D02*
X109811Y106518D01*
X110611Y103918D02*
X111411Y104718D01*
X109811Y106518D02*
X111471D01*
X112776Y107823D01*
X108742Y103518D02*
X113011D01*
X113811Y104318D02*
Y105518D01*
X114611Y106318D01*
X116751Y106718D02*
X117856Y107823D01*
X111411Y104718D02*
Y105346D01*
X112783Y106718D01*
X116751D01*
X119011Y106438D02*
X120396Y107823D01*
X114611Y106318D02*
X116821D01*
X117856Y105283D01*
X113011Y103518D02*
X113811Y104318D01*
X113611Y103118D02*
X115316Y104823D01*
X113811Y102518D02*
X115211Y103918D01*
X118411D01*
X119011Y104518D01*
X109011Y103118D02*
X113611D01*
X109011Y102518D02*
X113811D01*
X131811Y104518D02*
Y106538D01*
X133096Y107823D01*
X102611Y103718D02*
X103911Y105018D01*
Y105818D01*
X104711Y106618D01*
X106491D01*
X107696Y107823D01*
X109131Y106718D02*
X110236Y107823D01*
X107511Y106718D02*
X109131D01*
X106511Y105718D02*
X107511Y106718D01*
X106511Y104918D02*
Y105718D01*
X105811Y104218D02*
X106511Y104918D01*
X109011D02*
Y105718D01*
X107811Y103718D02*
X109011Y104918D01*
X108142Y102918D02*
X108742Y103518D01*
X108411Y102518D02*
X109011Y103118D01*
X108611Y102118D02*
X109011Y102518D01*
X108577Y103918D02*
X110611D01*
X107977Y103318D02*
X108577Y103918D01*
X103811Y104218D02*
X105811D01*
X103311Y103718D02*
X103811Y104218D01*
X85811Y85118D02*
X86211D01*
X78556Y79243D02*
X79826D01*
X77286Y80513D02*
X78556Y79243D01*
X92456Y107823D02*
X93801Y106478D01*
X72411Y76318D02*
Y82718D01*
X138811Y58118D02*
X139611Y58918D01*
X87376Y57023D02*
X88471Y58118D01*
X90211D01*
Y57118D02*
X91211Y58118D01*
X90211Y58118D02*
X91211Y59118D01*
Y58118D02*
X92439D01*
X93986Y59665D01*
X132011Y83718D02*
Y84928D01*
X129611Y89118D02*
X132021D01*
X137166Y60298D02*
X138811Y61943D01*
X137166Y59223D02*
Y60298D01*
X131411Y58518D02*
X136461D01*
X137166Y59223D01*
X132021Y89118D02*
X132321Y89418D01*
X133111D01*
X133411Y89118D01*
X133367Y92762D02*
X133611Y92518D01*
X128255Y92762D02*
X133367D01*
X120711Y96318D02*
X120911Y96118D01*
X127111Y99218D02*
X133111Y105218D01*
X126911Y99618D02*
X131811Y104518D01*
X103311Y103428D02*
Y103718D01*
X105011Y101518D02*
X113211D01*
X104167Y103718D02*
X107811D01*
X104332Y103318D02*
X107977D01*
X104498Y102918D02*
X108142D01*
X104664Y102518D02*
X108411D01*
X104829Y102118D02*
X108611D01*
X91983Y101718D02*
X99544D01*
X92148Y101318D02*
X99710D01*
X92314Y100918D02*
X99875D01*
X92480Y100518D02*
X100041D01*
X92645Y100118D02*
X100207D01*
X92811Y99718D02*
X100373D01*
X93011Y99318D02*
X100638D01*
X93211Y98918D02*
X100804D01*
X119011Y104518D02*
Y106438D01*
X106618Y99218D02*
X127111D01*
X106784Y99618D02*
X126911D01*
X102211Y96318D02*
X102611Y95918D01*
X118111D01*
X102811Y97118D02*
X103611Y96318D01*
X104611Y96718D02*
X119311D01*
X105711Y97118D02*
X120111D01*
X120911Y96318D01*
X119311Y96718D02*
X120911Y95118D01*
X103611Y96318D02*
X118701D01*
X119901Y95118D01*
X118111Y95918D02*
X119911Y94118D01*
X99511Y80918D02*
X100111Y81518D01*
X66036Y80943D02*
X68706Y83613D01*
X66036Y73553D02*
Y80943D01*
X85011Y82318D02*
Y83118D01*
X84711Y83418D02*
X85011Y83118D01*
X133611Y92518D02*
X138411D01*
X93611Y60718D02*
X94711Y61818D01*
X92411Y60508D02*
X94121Y62218D01*
X91211Y59118D02*
Y60018D01*
X106311Y63818D02*
X108521D01*
X91211Y60018D02*
X93811Y62618D01*
X106611Y63118D02*
X108011D01*
X108521Y63818D02*
X109121Y63218D01*
X108011Y63118D02*
X108311Y62818D01*
X93811Y62618D02*
X105111D01*
X106311Y63818D01*
X95423Y61418D02*
X113101D01*
X96211Y60718D02*
X96511Y61018D01*
X113311D01*
X72811Y76718D02*
X76711Y72818D01*
X72411Y76318D02*
X76311Y72418D01*
X76711Y72818D02*
X80311D01*
X68706Y83613D02*
Y87513D01*
X72111Y90918D01*
X67556Y86203D02*
X68306Y86953D01*
Y87679D01*
X72545Y91918D01*
X81211Y80118D02*
X82311Y81218D01*
Y89110D01*
X81211Y77118D02*
X83511Y79418D01*
X81211Y78118D02*
X83111Y80018D01*
X81211Y79118D02*
X82711Y80618D01*
X85611Y94781D02*
X92148Y101318D01*
X86011Y94615D02*
X92314Y100918D01*
X86411Y94449D02*
X92480Y100518D01*
X86811Y94284D02*
X92645Y100118D01*
X87211Y94118D02*
X92811Y99718D01*
X87611Y93918D02*
X93011Y99318D01*
X85611Y91584D02*
Y94781D01*
X82711Y80618D02*
Y88684D01*
X86011Y91418D02*
Y94615D01*
X83111Y80018D02*
Y88518D01*
X86411Y91253D02*
Y94449D01*
X83511Y79418D02*
Y88353D01*
X86811Y91087D02*
Y94284D01*
X83911Y80645D02*
Y88187D01*
X87211Y90921D02*
Y94118D01*
X87611Y90756D02*
Y93918D01*
X84711Y83418D02*
Y87856D01*
X88211Y93918D02*
X93211Y98918D01*
X88211Y90790D02*
Y93918D01*
X86611Y86718D02*
Y87718D01*
X87418Y87525D02*
X89325Y85618D01*
X86611Y87718D02*
X87211Y88318D01*
X88111D01*
X90411Y86018D01*
X85111Y87690D02*
X88211Y90790D01*
X84711Y87856D02*
X87611Y90756D01*
X84311Y88021D02*
X87211Y90921D01*
X83911Y88187D02*
X86811Y91087D01*
X83511Y88353D02*
X86411Y91253D01*
X83111Y88518D02*
X86011Y91418D01*
X82711Y88684D02*
X85611Y91584D01*
X83637Y93373D02*
X91983Y101718D01*
X82311Y89110D02*
X83637Y90437D01*
Y93373D01*
X72545Y91918D02*
X76411D01*
X77711Y93218D01*
X81911D01*
X72111Y90918D02*
X76111D01*
X77411Y92218D01*
X80911D01*
X72411Y82718D02*
X80411Y90718D01*
X82201D01*
X82838Y91355D01*
X82391Y90224D02*
X83238Y91070D01*
X146321Y82358D02*
X147801Y83838D01*
X138411Y92518D02*
X140681Y94788D01*
X144861D01*
X146611Y93038D01*
Y89718D02*
Y93038D01*
X139051Y85768D02*
X144991Y91708D01*
Y93348D01*
X72811Y76718D02*
Y82518D01*
X80517Y90224D01*
X82391D01*
X85111Y85408D02*
Y87690D01*
X85111Y85408D02*
X85111Y85408D01*
X85111Y84828D02*
Y85408D01*
X86221Y83718D02*
X86411D01*
X85111Y84828D02*
X86221Y83718D01*
X93811Y104318D02*
Y106478D01*
X83238Y91070D02*
Y93744D01*
X93811Y104318D01*
X87901Y84418D02*
X113211D01*
X88111Y85218D02*
X111911D01*
X87511Y84818D02*
X112237D01*
X90411Y86018D02*
X110511D01*
X112237Y84818D02*
X113137Y85718D01*
X116511D02*
X116611Y85618D01*
X111911Y85218D02*
X112911Y86218D01*
X113137Y85718D02*
X116511D01*
X110511Y86018D02*
X112411Y87918D01*
X119211D01*
X120311Y86818D01*
X134611Y85015D02*
X137911Y81715D01*
X135811Y85518D02*
Y90112D01*
X134611Y85015D02*
Y89615D01*
X135011Y85181D02*
Y89781D01*
X135411Y85346D02*
Y89946D01*
X129255Y92363D02*
X133061D01*
X133605Y91818D01*
X134105D01*
X135811Y90112D01*
X129421Y91963D02*
X132895D01*
X133439Y91418D01*
X133939D01*
X135411Y89946D01*
X133774Y91018D02*
X135011Y89781D01*
X131658Y91018D02*
X133774D01*
X131358Y90718D02*
X131658Y91018D01*
X133608Y90618D02*
X134611Y89615D01*
X131824Y90618D02*
X133608D01*
X131524Y90318D02*
X131824Y90618D01*
X131690Y89918D02*
X131990Y90218D01*
X133442D01*
X134211Y89449D01*
X129121Y89918D02*
X131690D01*
X128955Y90318D02*
X131524D01*
X128742Y90718D02*
X131358D01*
X133011Y80018D02*
Y81818D01*
X113211Y84418D02*
X113711Y84918D01*
X133277Y89818D02*
X133811Y89284D01*
X132155Y89818D02*
X133277D01*
X131855Y89518D02*
X132155Y89818D01*
X129286Y89518D02*
X131855D01*
X132011Y84928D02*
X132411Y85328D01*
Y86080D01*
X133811Y84684D02*
Y89284D01*
X132811Y82768D02*
Y86289D01*
X132082Y87018D02*
X132811Y86289D01*
X126798Y76818D02*
X128311D01*
X126780Y81118D02*
X131011D01*
X127214Y82118D02*
X131011D01*
X127648Y83118D02*
X131011D01*
X128083Y84118D02*
X131011D01*
X128886Y86618D02*
X131873D01*
X128720Y87018D02*
X132082D01*
X129854Y88718D02*
X132611D01*
X119311Y86618D02*
X120078Y85851D01*
X123311Y86418D02*
X129255Y92363D01*
X120078Y85851D02*
X123310D01*
X129421Y91963D01*
X123476Y85451D02*
X128742Y90718D01*
X123655Y85018D02*
X128955Y90318D01*
X123621Y84418D02*
X129121Y89918D01*
X118411Y84018D02*
X123786D01*
X129286Y89518D01*
X125611Y74618D02*
X126311Y75318D01*
Y76331D01*
X126798Y76818D01*
X132811Y76518D02*
X133711D01*
X133811Y84684D02*
X136811Y81684D01*
X132211Y75618D02*
Y75918D01*
X132811Y76518D01*
X130411Y79718D02*
X131011Y79118D01*
X130850Y77918D02*
X130911Y77979D01*
X133711Y72118D02*
X135411D01*
X136111Y72818D01*
X137611D01*
X133711Y71018D02*
X135411D01*
X136111Y71718D01*
X137611D01*
X135811Y85518D02*
X139411Y81918D01*
X135411Y85346D02*
X139011Y81746D01*
X135011Y85181D02*
X138611Y81581D01*
X137211Y80528D02*
X137311Y80428D01*
X134211Y84849D02*
Y89449D01*
X137211Y80528D02*
Y81849D01*
X134211Y84849D02*
X137211Y81849D01*
X137911Y80818D02*
Y81715D01*
X138611Y80439D02*
Y81581D01*
X133711Y77618D02*
X135977D01*
X139011Y80274D02*
Y81746D01*
X133711Y75418D02*
X134342D01*
X134411Y73218D02*
X135011Y73818D01*
X133711Y73218D02*
X134411D01*
X139411Y80108D02*
Y81918D01*
X135011Y73818D02*
Y75218D01*
X136311Y79718D02*
X136811Y80218D01*
Y81684D01*
X133711Y78718D02*
X136424D01*
X136811Y79105D01*
Y79205D01*
X137311Y79705D01*
Y80428D01*
X135977Y77618D02*
X136511Y78152D01*
Y78239D01*
X137211Y78939D01*
Y79039D01*
X138611Y80439D01*
X134342Y75418D02*
X136911Y77986D01*
Y78074D01*
X137555Y78718D01*
X137555D01*
X137611Y78773D01*
Y78874D01*
X139011Y80274D01*
X135011Y75218D02*
X137311Y77518D01*
Y77908D01*
X137721Y78318D01*
X137721D01*
X138011Y78608D01*
Y78708D01*
X139411Y80108D01*
X136611Y76018D02*
X138011Y77418D01*
Y77618D01*
X138711Y78418D02*
X138711Y78418D01*
Y77328D02*
Y78418D01*
X137944Y75451D02*
X138711Y76218D01*
X138301Y76918D02*
X138711Y77328D01*
X138211Y76918D02*
X138301D01*
X137111Y75818D02*
X138211Y76918D01*
X136611Y75068D02*
Y76018D01*
Y75068D02*
X138361Y73318D01*
X138921Y74018D02*
X138977D01*
X139311Y73684D01*
X138755Y73618D02*
X138811D01*
X138911Y73518D01*
X137111Y75262D02*
X138755Y73618D01*
X137944Y74995D02*
X138921Y74018D01*
X137944Y74995D02*
Y75451D01*
X137111Y75262D02*
Y75818D01*
X139211Y74718D02*
X139711Y74218D01*
X140111Y66539D02*
Y75718D01*
X139811Y76018D02*
X140111Y75718D01*
X119011Y86218D02*
X119778Y85451D01*
X123476D01*
X68580Y106756D02*
X71133D01*
X68377Y106553D02*
X68580Y106756D01*
X83911Y80645D02*
X84887Y79669D01*
X84311Y81169D02*
Y88021D01*
X90611Y79918D02*
X90805Y79724D01*
X84887Y73812D02*
X86868D01*
X87249Y73431D01*
X138911Y67036D02*
Y73518D01*
X139311Y66871D02*
Y73684D01*
X139711Y66705D02*
Y74218D01*
X139974Y65837D02*
X140513D01*
X138361Y67068D02*
Y73318D01*
X124811Y63718D02*
X135011D01*
X137243Y65950D01*
X137323D01*
X137733Y66360D01*
Y66440D01*
X138361Y67068D01*
X135193Y63318D02*
X137424Y65550D01*
X137489D01*
X138133Y66194D01*
Y66258D01*
X138911Y67036D01*
X135358Y62918D02*
X137590Y65150D01*
X137654D01*
X138533Y66028D01*
Y66093D01*
X139311Y66871D01*
X135524Y62518D02*
X137756Y64750D01*
X137820D01*
X138933Y65863D01*
Y65927D01*
X139711Y66705D01*
X135690Y62118D02*
X137921Y64350D01*
X137986D01*
X139333Y65697D01*
Y65761D01*
X140111Y66539D01*
X135855Y61718D02*
X138087Y63950D01*
X138151D01*
X139733Y65531D01*
Y65596D01*
X139974Y65837D01*
X133011Y81818D02*
X133411Y82218D01*
Y89118D01*
X135211Y65844D02*
X137084Y67716D01*
X135211Y65494D02*
Y65844D01*
X126162Y65303D02*
X135021D01*
X135211Y65494D01*
X121539Y65278D02*
X122072D01*
X117653Y69164D02*
X121539Y65278D01*
X110471Y69018D02*
X110566Y69113D01*
X93218Y71145D02*
X95345Y69018D01*
X110471D01*
X83169Y94344D02*
X92456Y103632D01*
Y105283D01*
X101711Y95518D02*
X116013D01*
X118974Y92558D01*
X102011Y95118D02*
X115848D01*
X118135Y92830D01*
Y91821D02*
Y92830D01*
X100711Y95918D02*
X101311D01*
X100363Y96266D02*
X100711Y95918D01*
X99593Y96266D02*
X100363D01*
X100025Y94914D02*
Y94920D01*
Y94914D02*
X103818Y91121D01*
X119696D01*
X121488Y92913D01*
X78181Y66411D02*
Y66710D01*
X78507Y67036D01*
X81615D01*
X78181Y68311D02*
Y68610D01*
X78659Y69088D01*
X83562D01*
X83725Y68925D01*
X103784Y81686D02*
X117526D01*
X118457Y82618D01*
X128751Y85918D02*
X131536D01*
X131611D01*
X109601Y65518D02*
X112205Y68122D01*
X109411Y66318D02*
X111805Y68712D01*
X130911Y77979D02*
Y78118D01*
Y78411D01*
X105011Y69718D02*
X107310D01*
X117344Y76094D02*
X117692D01*
X117894Y75892D01*
X118372D01*
X118394Y75914D01*
X118447D01*
X112605Y67712D02*
Y73158D01*
X116007Y76561D01*
X112205Y68122D02*
Y73324D01*
X113940Y73574D02*
X114382Y73132D01*
X94121Y62218D02*
X111367D01*
X111533Y61818D02*
X112111Y62396D01*
Y62408D01*
X112521Y62818D01*
X112533D01*
X111367Y62218D02*
X111711Y62562D01*
Y62574D01*
X112355Y63218D01*
X112367D01*
X94711Y61818D02*
X111533D01*
X109121Y63218D02*
X109701D01*
X110111Y63628D01*
Y64070D01*
X116190Y73091D02*
X116194Y73088D01*
X116338Y73231D01*
Y73239D01*
X116043Y72944D02*
X116050D01*
X116194Y73088D01*
X117605Y74505D02*
X117608Y74502D01*
X117752Y74646D01*
Y74653D01*
X117457Y74358D02*
X117464D01*
X117608Y74502D01*
X116897Y73798D02*
X116901Y73795D01*
X117045Y73939D01*
Y73946D01*
X117457Y74358D01*
X116338Y73239D02*
X116750Y73651D01*
X116757D01*
X116901Y73795D01*
X115483Y72384D02*
X115487Y72381D01*
X115630Y72524D01*
Y72532D01*
X116043Y72944D01*
X115336Y72237D02*
X115343D01*
X115487Y72381D01*
X114780Y71674D02*
X114923Y71817D01*
Y71824D01*
X115336Y72237D01*
X114629Y71530D02*
X114636D01*
X114780Y71674D01*
X114776Y71677D02*
X114780Y71674D01*
X108311Y62818D02*
X110418D01*
X118457Y82618D02*
X123111D01*
X129611Y89118D01*
X123354Y82218D02*
X129854Y88718D01*
X123520Y81818D02*
X128720Y87018D01*
X120299Y81418D02*
X123686D01*
X128886Y86618D01*
X121912Y81018D02*
X123851D01*
X128751Y85918D01*
X123151Y80618D02*
X124017D01*
X128517Y85118D01*
X123317Y80218D02*
X124183D01*
X128083Y84118D01*
X124348Y79818D02*
X127648Y83118D01*
X126345Y80118D02*
X131011D01*
X124255Y79418D02*
X124514D01*
X127214Y82118D01*
X126811Y79318D02*
X129450D01*
X126511Y79718D02*
X130411D01*
X118447Y75914D02*
X123151Y80618D01*
X117752Y74653D02*
X123317Y80218D01*
X124680Y79018D02*
X126780Y81118D01*
X125293Y77800D02*
X126811Y79318D01*
X125011Y78218D02*
X126511Y79718D01*
X124845Y78618D02*
X126345Y80118D01*
X124900Y77800D02*
X125293D01*
X124752Y78218D02*
X125011D01*
X124586Y78618D02*
X124845D01*
X124421Y79018D02*
X124680D01*
X123765Y79818D02*
X124348D01*
X119810Y82218D02*
X123354D01*
X107310Y69718D02*
X119810Y82218D01*
X120121Y81818D02*
X123520D01*
X111805Y68712D02*
Y73501D01*
X120121Y81818D01*
X112205Y73324D02*
X120299Y81418D01*
X113311Y61018D02*
X116811Y64518D01*
X113101Y61418D02*
X116411Y64728D01*
X112811Y62118D02*
X116011Y65318D01*
X112533Y62818D02*
X115611Y65896D01*
X116811Y64518D02*
Y69711D01*
X124900Y77800D01*
X116411Y64728D02*
Y69877D01*
X124752Y78218D01*
X116011Y65318D02*
Y70043D01*
X124586Y78618D01*
X115611Y65896D02*
Y70208D01*
X124421Y79018D01*
X112367Y63218D02*
X115187Y66038D01*
Y70350D01*
X124255Y79418D01*
X114376Y68318D02*
Y71277D01*
X114629Y71530D01*
X114776Y70829D02*
X123765Y79818D01*
X113137Y67078D02*
X114376Y68318D01*
X112953Y67478D02*
X112971D01*
X110997Y64957D02*
X111015D01*
X111417Y65358D01*
X109411Y63918D02*
Y63936D01*
X110111Y64070D02*
X110997Y64957D01*
X114776Y67177D02*
Y70829D01*
X111417Y65358D02*
Y65376D01*
X111704Y65664D01*
X111722D01*
X112124Y66066D01*
Y66084D01*
X112412Y66371D01*
X112430D01*
X112831Y66773D01*
Y66791D01*
X113119Y67078D01*
X113137D01*
X108611Y64718D02*
X109611D01*
X112605Y67712D01*
X109411Y63936D02*
X112953Y67478D01*
X92411Y59318D02*
Y59563D01*
Y60508D01*
X130780Y77988D02*
X130850Y77918D01*
X129450Y79318D02*
X130780Y77988D01*
X76564Y94344D02*
X82838D01*
X83169D01*
X82838Y91355D02*
Y94344D01*
X118411Y85018D02*
X118511D01*
X123655D01*
X115311Y86218D02*
X119011D01*
X122111Y86418D02*
X122211D01*
X123311D01*
X118211Y86618D02*
X118511D01*
X119311D01*
X116611Y85318D02*
Y85618D01*
X112911Y86218D02*
X113711D01*
X113811D01*
X138811Y61943D02*
Y62318D01*
X104161Y97168D02*
X104611Y96718D01*
X104011Y97318D02*
X104161Y97168D01*
X122921Y107808D02*
X124211Y106518D01*
X147801Y83838D02*
Y87638D01*
X76860Y63485D02*
Y64084D01*
X77573Y64797D01*
X80130D01*
X81265Y60960D02*
X81367Y61062D01*
X77186Y60960D02*
X81265D01*
X77010Y61136D02*
X77186Y60960D01*
X77010Y61136D02*
Y61435D01*
X76860Y61585D02*
X77010Y61435D01*
X77360Y63036D02*
Y63335D01*
X76758Y62433D02*
X77360Y63036D01*
Y63335D02*
X77510Y63485D01*
X78630Y68110D02*
X78780Y68260D01*
X78630Y67811D02*
Y68110D01*
X78079Y67259D02*
X78630Y67811D01*
X75844Y67259D02*
X78079D01*
X73381Y64795D02*
X75844Y67259D01*
X72121Y64795D02*
X73381D01*
X76114Y66360D02*
X77480D01*
X73482Y63729D02*
X76114Y66360D01*
X73465Y63745D02*
X73482Y63729D01*
X71644Y63745D02*
X73465D01*
X71321Y64068D02*
X71644Y63745D01*
X71321Y64068D02*
Y65523D01*
X72121Y66323D01*
Y67183D01*
X84311Y81169D02*
X85587Y79894D01*
X82411Y76318D02*
X82591D01*
X84466Y78192D01*
X85151D01*
X85587Y78628D01*
X84861Y78892D02*
X84887Y78918D01*
Y79669D01*
X85587Y78628D02*
Y79894D01*
X89471Y77597D02*
Y79223D01*
Y80848D01*
X86385Y79781D02*
X87313D01*
X87871Y79223D01*
X86430Y78638D02*
X87471Y77597D01*
X87871D01*
X86385Y80797D02*
X86462Y80874D01*
X87846D01*
X74484Y62433D02*
X76758D01*
X72071Y60020D02*
X74484Y62433D01*
X75163Y61585D02*
X76210D01*
X72548Y58970D02*
X75163Y61585D01*
X71593Y58970D02*
X72548D01*
X71271Y59292D02*
X71593Y58970D01*
X71271Y59292D02*
Y61582D01*
X72096Y62408D01*
X79947Y98717D02*
X84786D01*
X90926Y104857D01*
Y106293D01*
X72669Y106820D02*
Y108077D01*
X110418Y62818D02*
X110572Y62973D01*
X110926Y63680D02*
X111412Y63194D01*
X110572Y63327D02*
X110572Y63326D01*
X111145Y64168D02*
X111766Y63547D01*
X111499Y64521D02*
X112125Y63895D01*
X111853Y64875D02*
X112479Y64249D01*
X112206Y65228D02*
X112832Y64602D01*
X112560Y65582D02*
X113186Y64956D01*
X112913Y65935D02*
X113539Y65309D01*
X113267Y66289D02*
X113893Y65663D01*
X113931Y66332D02*
X114246Y66017D01*
X113620Y66642D02*
X113931Y66332D01*
X114462Y66508D02*
X114600Y66370D01*
X114462Y66862D02*
X114776Y67177D01*
X113513Y71075D02*
Y71526D01*
X113078Y72315D02*
X113144Y72248D01*
X113431Y72668D02*
X114134Y71965D01*
X113586Y73221D02*
X114488Y72319D01*
X114382Y73132D02*
X114841Y72673D01*
X114735Y73486D02*
X115195Y73026D01*
X114293Y73928D02*
X114735Y73486D01*
X114647Y74281D02*
X115089Y73839D01*
X115000Y74635D02*
X115442Y74193D01*
X115089Y73839D02*
X115548Y73380D01*
X115354Y74988D02*
X115796Y74546D01*
X115442Y74193D02*
X115902Y73733D01*
X115707Y75342D02*
X116149Y74900D01*
X115796Y74546D02*
X116256Y74087D01*
X116149Y74900D02*
X116609Y74440D01*
X116061Y75696D02*
X116503Y75253D01*
X116963Y74794D01*
X117033Y75430D02*
X117316Y75147D01*
X117033Y75784D02*
X117344Y76094D01*
X128517Y85118D02*
X130886D01*
X117809Y76561D02*
X117992Y76378D01*
X116007Y76561D02*
X117455D01*
X117810Y77267D02*
X118345Y76731D01*
X118164Y77620D02*
X118699Y77085D01*
X118517Y77974D02*
X119053Y77439D01*
X118871Y78328D02*
X119406Y77792D01*
X119224Y78681D02*
X119760Y78146D01*
X119578Y79035D02*
X120113Y78499D01*
X119931Y79388D02*
X120467Y78853D01*
X120285Y79742D02*
X120820Y79206D01*
X120638Y80095D02*
X121174Y79560D01*
X120992Y80449D02*
X121527Y79913D01*
X121698Y80450D02*
X121881Y80267D01*
X121698Y80804D02*
X121912Y81018D01*
D13*
X83725Y70525D02*
D03*
Y68925D02*
D03*
X85877Y70066D02*
D03*
Y68466D02*
D03*
X88189Y68161D02*
D03*
Y66561D02*
D03*
X88265Y64910D02*
D03*
Y63310D02*
D03*
D22*
X132800Y94200D02*
D03*
X134400D02*
D03*
X129911Y75218D02*
D03*
X128311D02*
D03*
X129911Y73718D02*
D03*
X128311D02*
D03*
X129011Y71918D02*
D03*
X127411D02*
D03*
X131411Y70418D02*
D03*
X129811D02*
D03*
X131711Y68618D02*
D03*
X130111D02*
D03*
X65951Y67208D02*
D03*
X64351D02*
D03*
X65951Y64313D02*
D03*
X64351D02*
D03*
X66408Y60147D02*
D03*
X64808D02*
D03*
X65951Y62840D02*
D03*
X64351D02*
D03*
X71133Y106756D02*
D03*
X72733D02*
D03*
X132011Y67018D02*
D03*
X130411D02*
D03*
X129911Y76818D02*
D03*
X128311D02*
D03*
X115311Y86618D02*
D03*
X113711D02*
D03*
X118511Y87018D02*
D03*
X116911D02*
D03*
X122211Y86718D02*
D03*
X120611D02*
D03*
X115311Y84918D02*
D03*
X113711D02*
D03*
X118511Y85318D02*
D03*
X116911D02*
D03*
X118211Y83618D02*
D03*
X116611D02*
D03*
X87846Y80874D02*
D03*
X89446D02*
D03*
X87871Y79223D02*
D03*
X89471D02*
D03*
X87871Y77597D02*
D03*
X89471D02*
D03*
D26*
X125224Y76818D02*
D03*
X126798D02*
D03*
D28*
X123811Y74618D02*
D03*
X125611D02*
D03*
X84034Y101829D02*
D03*
X82234D02*
D03*
D30*
X138862Y100406D02*
D03*
X98730Y65126D02*
D03*
X65253Y92837D02*
D03*
X144211Y70218D02*
D03*
Y78198D02*
D03*
X67730Y65899D02*
D03*
Y61499D02*
D03*
D33*
X123811Y74618D02*
Y75405D01*
X125880Y77474D02*
Y77525D01*
X123811Y75405D02*
X125224Y76818D01*
X125880Y77474D01*
X64300Y67260D02*
X64351Y67208D01*
X64300Y67260D02*
Y72229D01*
X64351Y64313D02*
Y67208D01*
Y60604D02*
X64834Y60122D01*
X64351Y60604D02*
Y64313D01*
X65951Y67208D02*
X69596D01*
X65951Y64313D02*
X69139D01*
X69621Y64795D01*
X84034Y101829D02*
Y103059D01*
X84099Y103124D01*
D34*
X70790Y100459D02*
X72748Y102417D01*
X70790Y95377D02*
Y100459D01*
X64111Y88698D02*
X70790Y95377D01*
X64111Y72418D02*
Y88698D01*
X82411Y72718D02*
Y73618D01*
X81411Y71718D02*
X82411Y72718D01*
X79711Y55718D02*
Y55798D01*
X77216Y58293D02*
X79711Y55798D01*
X75241Y56318D02*
X77216Y58293D01*
X74211Y56318D02*
X75241D01*
X142229Y81100D02*
X143075D01*
X97272Y78379D02*
X99950D01*
X113211Y58318D02*
X114206Y59313D01*
X101411Y58318D02*
X113211D01*
X119011Y100318D02*
X120396Y101703D01*
Y105283D01*
X76388Y71718D02*
X81411D01*
X80411Y70318D02*
X81161Y71068D01*
X82161D01*
X142419Y81100D02*
X143075D01*
X147175D02*
X148415Y79860D01*
X144011Y65218D02*
X148082Y65237D01*
X140200Y96893D02*
X148539D01*
X134400Y94200D02*
X135488Y95288D01*
X145068D01*
X147411Y92945D01*
Y89387D02*
Y92945D01*
X73184Y70118D02*
X73199Y70103D01*
X75837Y70318D02*
X80211D01*
X73199Y70103D02*
X74773D01*
X76388Y71718D01*
X67155Y69374D02*
X74893D01*
X75837Y70318D01*
X67611Y70118D02*
X73184D01*
X64711Y73018D02*
X67611Y70118D01*
X128380Y76448D02*
X128455Y76523D01*
X127411Y71251D02*
X128311Y70351D01*
X134211Y66418D02*
X137111Y69318D01*
X137511D01*
X143511Y65518D02*
X143811D01*
X129211Y67718D02*
X130111Y68618D01*
X144711Y86687D02*
X147411Y89387D01*
X72748Y102417D02*
X81970D01*
X84836Y105283D01*
X73880Y99483D02*
X73914Y99517D01*
X93188Y74295D02*
Y74363D01*
Y74295D02*
X97272Y78379D01*
X82161Y71068D02*
X83661Y72568D01*
X91461D01*
X141148Y67132D02*
X141897D01*
X143511Y65518D01*
X114206Y59313D02*
Y60023D01*
X116130Y61947D01*
X121230D01*
X127002Y67718D01*
X129211D01*
X84836Y105283D02*
Y107823D01*
X64711Y73018D02*
Y87927D01*
X73880Y97096D01*
Y99483D01*
X91811Y62718D02*
Y72918D01*
X91461Y72568D02*
X91811Y72918D01*
X93188Y74295D01*
X127411Y71251D02*
Y71918D01*
Y72918D01*
X144711Y85418D02*
Y86687D01*
X139888Y83441D02*
X142229Y81100D01*
X139576Y83753D02*
X139888Y83441D01*
X143075Y81100D02*
X143811D01*
X147175D01*
X128380Y73887D02*
Y76448D01*
X127411Y72918D02*
X128380Y73887D01*
X64111Y72418D02*
X64300Y72229D01*
X67155Y69374D01*
D35*
X81966Y62166D02*
X84400Y64600D01*
X133400Y98600D02*
Y102717D01*
X129035Y98600D02*
X133400D01*
X73914Y99517D02*
X84455D01*
X87376Y102438D01*
Y105283D01*
D36*
X107235Y97818D02*
X125507D01*
X106181Y98872D02*
X107235Y97818D01*
X102465Y98872D02*
X106181D01*
X101811Y98218D02*
X102465Y98872D01*
X94611Y98218D02*
X101811D01*
X133438Y95154D02*
X134392Y94200D01*
X134400D01*
X136616Y93823D02*
X137490D01*
X136011Y93218D02*
X136616Y93823D01*
X133790Y93218D02*
X136011D01*
X132808Y94200D02*
X133790Y93218D01*
X132800Y94200D02*
X132808D01*
X125507Y97818D02*
X125679Y97646D01*
X128744D01*
X131236Y95154D01*
X133438D01*
X129125Y94200D02*
X132800D01*
X129025Y94300D02*
X129125Y94200D01*
D37*
X89916Y105283D02*
Y107823D01*
X87376Y105283D02*
Y107823D01*
D39*
X129811Y68918D02*
Y70418D01*
X130411Y67018D02*
Y68318D01*
X130111Y68618D02*
X130411Y68318D01*
X129811Y68918D02*
X130111Y68618D01*
X128311Y70351D02*
X129744D01*
X129811Y70418D02*
X131511Y72118D01*
Y72818D01*
X133011Y74318D01*
X133711D01*
X130411Y66022D02*
Y67018D01*
X130404Y66015D02*
X130411Y66022D01*
X130404Y64491D02*
X134874D01*
X137033Y66650D01*
D40*
X80569Y99543D02*
Y101219D01*
D42*
X138176Y105283D02*
D03*
X135636D02*
D03*
X133096D02*
D03*
X130556D02*
D03*
X128016D02*
D03*
X125476D02*
D03*
X122936D02*
D03*
X120396D02*
D03*
X117856D02*
D03*
X115316D02*
D03*
X112776D02*
D03*
X110236D02*
D03*
X107696D02*
D03*
X105156D02*
D03*
X102616D02*
D03*
X100076D02*
D03*
X97536D02*
D03*
X94996D02*
D03*
X92456D02*
D03*
X89916D02*
D03*
X87376D02*
D03*
X84836D02*
D03*
X82296D02*
D03*
X138176Y107823D02*
D03*
X135636D02*
D03*
X133096D02*
D03*
X130556D02*
D03*
X128016D02*
D03*
X125476D02*
D03*
X122936D02*
D03*
X120396D02*
D03*
X117856D02*
D03*
X115316D02*
D03*
X112776D02*
D03*
X110236D02*
D03*
X107696D02*
D03*
X105156D02*
D03*
X102616D02*
D03*
X100076D02*
D03*
X97536D02*
D03*
X94996D02*
D03*
X92456D02*
D03*
X89916D02*
D03*
X87376D02*
D03*
X84836D02*
D03*
Y59563D02*
D03*
X87376D02*
D03*
X89916D02*
D03*
X92456D02*
D03*
X94996D02*
D03*
X97536D02*
D03*
X100076D02*
D03*
X102616D02*
D03*
X105156D02*
D03*
X107696D02*
D03*
X110236D02*
D03*
X112776D02*
D03*
X115316D02*
D03*
X117856D02*
D03*
X120396D02*
D03*
X122936D02*
D03*
X125476D02*
D03*
X128016D02*
D03*
X130556D02*
D03*
X133096D02*
D03*
X135636D02*
D03*
X138176D02*
D03*
X82296Y57023D02*
D03*
X84836D02*
D03*
X87376D02*
D03*
X89916D02*
D03*
X92456D02*
D03*
X94996D02*
D03*
X97536D02*
D03*
X100076D02*
D03*
X102616D02*
D03*
X105156D02*
D03*
X107696D02*
D03*
X110236D02*
D03*
X112776D02*
D03*
X115316D02*
D03*
X117856D02*
D03*
X120396D02*
D03*
X122936D02*
D03*
X125476D02*
D03*
X128016D02*
D03*
X130556D02*
D03*
X133096D02*
D03*
X135636D02*
D03*
X138176D02*
D03*
D43*
X82296Y107823D02*
D03*
Y59563D02*
D03*
D44*
X67914Y99517D02*
D03*
D45*
X73914D02*
D03*
D46*
X70914Y104217D02*
D03*
D47*
X66036Y83663D02*
D03*
X67556Y76093D02*
D03*
X66036Y73553D02*
D03*
X67556Y86203D02*
D03*
D48*
X79826Y76703D02*
D03*
X77286Y77973D02*
D03*
X79826Y79243D02*
D03*
X77286Y80513D02*
D03*
X79826Y81783D02*
D03*
X77286Y83053D02*
D03*
X79826Y84323D02*
D03*
D49*
X77286Y75433D02*
D03*
D50*
X70936Y85593D02*
D03*
Y74163D02*
D03*
D51*
X73986Y72003D02*
D03*
Y87753D02*
D03*
D52*
X98461Y76418D02*
D03*
D53*
X100961D02*
D03*
X103461D02*
D03*
X105961D02*
D03*
X108461D02*
D03*
X110961D02*
D03*
D54*
X84400Y64600D02*
D03*
X133400Y98600D02*
D03*
D55*
X77216Y58293D02*
D03*
Y106553D02*
D03*
X143256Y61468D02*
D03*
Y103378D02*
D03*
D56*
X140200Y83753D02*
D03*
Y96893D02*
D03*
D57*
X137490Y93823D02*
D03*
D58*
Y91323D02*
D03*
X137490Y86823D02*
D03*
X137490Y89323D02*
D03*
D59*
X105011Y69718D02*
D03*
X106611Y64718D02*
D03*
X109611Y68118D02*
D03*
X66218Y68707D02*
D03*
X64999Y58750D02*
D03*
X65075Y68707D02*
D03*
X104419Y71476D02*
D03*
X74473Y93040D02*
D03*
X133299Y67818D02*
D03*
X137566Y70409D02*
D03*
X76556Y94336D02*
D03*
X79959Y66065D02*
D03*
X87198Y68351D02*
D03*
X89459Y63856D02*
D03*
X90780Y66548D02*
D03*
X115672Y83617D02*
D03*
X105308Y83337D02*
D03*
X104311Y98018D02*
D03*
X102211Y96318D02*
D03*
X104011Y97018D02*
D03*
X102611Y103718D02*
D03*
X81511Y73018D02*
D03*
X138011Y62718D02*
D03*
X119011Y100318D02*
D03*
X87411Y85918D02*
D03*
X87411Y82918D02*
D03*
X85811Y85118D02*
D03*
X85011Y82318D02*
D03*
X86611Y86718D02*
D03*
X137211Y61518D02*
D03*
X92811Y83318D02*
D03*
X146611Y89718D02*
D03*
X125211D02*
D03*
X81911Y93218D02*
D03*
X80911Y92218D02*
D03*
X139611Y61118D02*
D03*
X112811Y62118D02*
D03*
X109411Y63918D02*
D03*
X108611Y64718D02*
D03*
X109411Y66318D02*
D03*
X106611Y63118D02*
D03*
X96211Y60718D02*
D03*
X90811Y68518D02*
D03*
X89383Y66167D02*
D03*
X126611Y106518D02*
D03*
X90611Y79918D02*
D03*
Y80918D02*
D03*
X100111Y81518D02*
D03*
X98611Y79918D02*
D03*
X81211Y80118D02*
D03*
Y79118D02*
D03*
Y78118D02*
D03*
Y77118D02*
D03*
X82411Y76318D02*
D03*
X113211Y101518D02*
D03*
X86411Y83718D02*
D03*
X87411Y84918D02*
D03*
X101411Y94518D02*
D03*
X97511Y102518D02*
D03*
X81111Y88818D02*
D03*
Y87718D02*
D03*
X86811Y74518D02*
D03*
X139011Y62318D02*
D03*
X80411Y70318D02*
D03*
X93611Y60718D02*
D03*
X101411Y58318D02*
D03*
X91811Y62718D02*
D03*
X131011Y84118D02*
D03*
X130886Y85143D02*
D03*
X131536Y85918D02*
D03*
X131011Y83118D02*
D03*
X131939Y83619D02*
D03*
X132611Y88718D02*
D03*
X102811Y97118D02*
D03*
X94611Y98218D02*
D03*
X93811D02*
D03*
X120911Y96118D02*
D03*
X119901Y95118D02*
D03*
X120911Y95118D02*
D03*
X119911Y94118D02*
D03*
X99950Y78379D02*
D03*
X82411Y73618D02*
D03*
X88211Y70718D02*
D03*
X70917Y66421D02*
D03*
X86211Y82218D02*
D03*
X93011Y87018D02*
D03*
X95111Y92918D02*
D03*
X87511Y89100D02*
D03*
X90711Y87818D02*
D03*
X135311Y91718D02*
D03*
X142611Y91918D02*
D03*
Y82718D02*
D03*
X144611D02*
D03*
X147711Y82318D02*
D03*
X144811Y71818D02*
D03*
X140311Y62618D02*
D03*
X127811Y64518D02*
D03*
X125011D02*
D03*
X117611Y61118D02*
D03*
X127011Y68718D02*
D03*
X127611Y78500D02*
D03*
X142611Y92918D02*
D03*
X143611D02*
D03*
X124011Y96518D02*
D03*
X96311Y58318D02*
D03*
X86211D02*
D03*
X102611Y67718D02*
D03*
Y66418D02*
D03*
X115711Y93818D02*
D03*
X126611Y92818D02*
D03*
X147011Y73918D02*
D03*
Y71818D02*
D03*
X74193Y78816D02*
D03*
X93611Y72618D02*
D03*
X95611D02*
D03*
X108711Y79018D02*
D03*
X95611Y75018D02*
D03*
X101311Y60318D02*
D03*
X93711Y56418D02*
D03*
X96211D02*
D03*
X98811D02*
D03*
X67818Y79223D02*
D03*
X67611Y73118D02*
D03*
X75411Y90018D02*
D03*
X87418Y87525D02*
D03*
X145921Y84778D02*
D03*
X146321Y82358D02*
D03*
X139051Y85768D02*
D03*
X144991Y93348D02*
D03*
X147601Y87638D02*
D03*
X144811Y73918D02*
D03*
X137511Y69318D02*
D03*
X136005Y81118D02*
D03*
X132211Y75618D02*
D03*
X130911Y78118D02*
D03*
X137611Y71718D02*
D03*
Y72818D02*
D03*
X137911Y80818D02*
D03*
X138711Y78418D02*
D03*
X138011Y77618D02*
D03*
X136311Y79718D02*
D03*
X139811Y76018D02*
D03*
X138711Y76218D02*
D03*
X139211Y74718D02*
D03*
X144511Y85518D02*
D03*
X91516Y94564D02*
D03*
X84887Y73812D02*
D03*
X87249Y73431D02*
D03*
X140513Y65837D02*
D03*
X141148Y67132D02*
D03*
X137033Y66650D02*
D03*
X137084Y67716D02*
D03*
X116611Y58318D02*
D03*
X131011Y80118D02*
D03*
Y79118D02*
D03*
Y82118D02*
D03*
X132461Y82418D02*
D03*
X131011Y81118D02*
D03*
X126162Y65303D02*
D03*
X122072Y65278D02*
D03*
X117653Y69164D02*
D03*
X110820Y69063D02*
D03*
X93218Y71145D02*
D03*
X130404Y66015D02*
D03*
Y64491D02*
D03*
X72669Y108077D02*
D03*
X88519Y100762D02*
D03*
X71120Y102387D02*
D03*
X78613Y95656D02*
D03*
X118135Y91821D02*
D03*
X118974Y92558D02*
D03*
X99593Y96266D02*
D03*
X100025Y94920D02*
D03*
X121488Y92913D02*
D03*
X74651Y68529D02*
D03*
X76378Y93040D02*
D03*
X70714Y91262D02*
D03*
X71933Y93548D02*
D03*
X80569Y101219D02*
D03*
X84861Y78892D02*
D03*
X86385Y80797D02*
D03*
Y79781D02*
D03*
X86430Y78638D02*
D03*
X75184Y63221D02*
D03*
X78232Y81788D02*
D03*
X79781Y91186D02*
D03*
X84099Y103124D02*
D03*
D60*
X145325Y89450D02*
D03*
Y88475D02*
D03*
X144025D02*
D03*
Y89450D02*
D03*
X144675Y88975D02*
D03*
D61*
X69596Y62408D02*
D03*
X72096D02*
D03*
X72071Y60020D02*
D03*
X69571D02*
D03*
X69621Y64795D02*
D03*
X72121D02*
D03*
Y67183D02*
D03*
X69621D02*
D03*
X68377Y106553D02*
D03*
X65877D02*
D03*
D62*
X143811Y81018D02*
D03*
Y65518D02*
D03*
D63*
X133711Y79818D02*
D03*
Y78718D02*
D03*
Y77618D02*
D03*
Y76518D02*
D03*
Y75418D02*
D03*
Y74318D02*
D03*
Y73218D02*
D03*
Y71018D02*
D03*
Y72118D02*
D03*
D64*
X134211Y81018D02*
D03*
D65*
Y66418D02*
D03*
D66*
X77480Y68260D02*
D03*
X78130D02*
D03*
X78780D02*
D03*
Y66360D02*
D03*
X78130D02*
D03*
X77480D02*
D03*
X77510Y61585D02*
D03*
X76860D02*
D03*
X76210D02*
D03*
Y63485D02*
D03*
X76860D02*
D03*
X77510D02*
D03*
D67*
X124025Y94300D02*
D03*
X129025D02*
D03*
D68*
X94261Y97818D02*
D03*
M02*
