%FSLAX43Y43*%
%MOMM*%
G71*
G01*
G75*
G04 Layer_Color=16711935*
%ADD10C,0.254*%
%ADD11C,0.200*%
%ADD12C,0.200*%
%ADD13R,1.000X0.900*%
%ADD14R,1.890X1.570*%
%ADD15O,0.400X1.600*%
%ADD16R,0.400X1.600*%
%ADD17R,0.800X0.800*%
%ADD18R,0.600X1.700*%
%ADD19R,1.000X1.000*%
%ADD20R,2.400X0.950*%
%ADD21R,2.400X3.300*%
%ADD22R,0.900X1.000*%
%ADD23R,0.914X0.813*%
%ADD24R,1.200X0.250*%
%ADD25R,2.000X1.450*%
%ADD26R,0.813X0.914*%
%ADD27O,1.200X0.250*%
%ADD28R,1.300X1.400*%
%ADD29R,1.650X0.300*%
%ADD30C,1.000*%
%ADD31R,3.000X1.500*%
%ADD32R,2.300X0.500*%
%ADD33C,0.350*%
%ADD34C,0.400*%
%ADD35C,1.000*%
%ADD36C,0.508*%
%ADD37C,0.800*%
%ADD38C,0.500*%
%ADD39C,0.305*%
%ADD40C,0.300*%
%ADD41R,1.700X2.100*%
%ADD42C,1.420*%
%ADD43R,1.420X1.420*%
%ADD44O,2.000X4.500*%
%ADD45R,2.000X5.000*%
%ADD46O,4.000X2.000*%
%ADD47C,1.700*%
%ADD48C,1.500*%
%ADD49R,1.500X1.500*%
%ADD50C,3.200*%
%ADD51C,3.000*%
%ADD52R,1.480X1.480*%
%ADD53C,1.480*%
%ADD54C,5.500*%
%ADD55C,4.500*%
%ADD56O,3.340X1.800*%
%ADD57R,1.600X1.600*%
%ADD58C,1.600*%
%ADD59C,0.800*%
%ADD60C,0.400*%
G04:AMPARAMS|DCode=61|XSize=1mm|YSize=1.5mm|CornerRadius=0.25mm|HoleSize=0mm|Usage=FLASHONLY|Rotation=180.000|XOffset=0mm|YOffset=0mm|HoleType=Round|Shape=RoundedRectangle|*
%AMROUNDEDRECTD61*
21,1,1.000,1.000,0,0,180.0*
21,1,0.500,1.500,0,0,180.0*
1,1,0.500,-0.250,0.500*
1,1,0.500,0.250,0.500*
1,1,0.500,0.250,-0.500*
1,1,0.500,-0.250,-0.500*
%
%ADD61ROUNDEDRECTD61*%
%ADD62R,2.200X1.200*%
%ADD63R,1.600X0.700*%
%ADD64R,1.400X1.200*%
%ADD65R,1.400X1.600*%
%ADD66R,0.400X0.650*%
%ADD67R,2.600X2.200*%
%ADD68R,1.700X1.600*%
%ADD69C,0.250*%
%ADD70C,0.100*%
%ADD71R,1.203X1.103*%
%ADD72R,2.093X1.773*%
%ADD73O,0.603X1.803*%
%ADD74R,0.603X1.803*%
%ADD75R,1.003X1.003*%
%ADD76R,0.803X1.903*%
%ADD77R,1.203X1.203*%
%ADD78R,2.603X1.153*%
%ADD79R,2.603X3.503*%
%ADD80R,1.103X1.203*%
%ADD81R,1.118X1.016*%
%ADD82R,1.240X0.290*%
%ADD83R,2.040X1.490*%
%ADD84R,1.016X1.118*%
%ADD85O,1.300X0.350*%
%ADD86R,1.503X1.603*%
%ADD87R,1.853X0.503*%
%ADD88C,3.000*%
%ADD89R,3.203X1.703*%
%ADD90R,2.503X0.703*%
%ADD91C,1.623*%
%ADD92R,1.623X1.623*%
%ADD93O,2.203X4.703*%
%ADD94R,2.203X5.203*%
%ADD95O,4.203X2.203*%
%ADD96C,1.903*%
%ADD97C,1.703*%
%ADD98R,1.703X1.703*%
%ADD99C,3.403*%
%ADD100C,3.203*%
%ADD101R,1.683X1.683*%
%ADD102C,1.683*%
%ADD103C,1.203*%
%ADD104C,5.600*%
%ADD105R,0.040X0.290*%
%ADD106C,4.703*%
%ADD107O,3.543X2.003*%
%ADD108R,1.803X1.803*%
%ADD109C,1.803*%
%ADD110C,0.603*%
G04:AMPARAMS|DCode=111|XSize=1.203mm|YSize=1.703mm|CornerRadius=0.352mm|HoleSize=0mm|Usage=FLASHONLY|Rotation=180.000|XOffset=0mm|YOffset=0mm|HoleType=Round|Shape=RoundedRectangle|*
%AMROUNDEDRECTD111*
21,1,1.203,1.000,0,0,180.0*
21,1,0.500,1.703,0,0,180.0*
1,1,0.703,-0.250,0.500*
1,1,0.703,0.250,0.500*
1,1,0.703,0.250,-0.500*
1,1,0.703,-0.250,-0.500*
%
%ADD111ROUNDEDRECTD111*%
%ADD112R,2.327X1.327*%
%ADD113R,1.727X0.827*%
%ADD114R,1.728X0.828*%
%ADD115R,1.527X1.327*%
%ADD116R,1.527X1.727*%
%ADD117R,0.603X0.853*%
%ADD118R,2.803X2.403*%
D71*
X83725Y70525D02*
D03*
Y68925D02*
D03*
X85877Y70066D02*
D03*
Y68466D02*
D03*
X88189Y68161D02*
D03*
Y66561D02*
D03*
X88265Y64910D02*
D03*
Y63310D02*
D03*
D80*
X132800Y94200D02*
D03*
X134400D02*
D03*
X129911Y75218D02*
D03*
X128311D02*
D03*
X129911Y73718D02*
D03*
X128311D02*
D03*
X129011Y71918D02*
D03*
X127411D02*
D03*
X131411Y70418D02*
D03*
X129811D02*
D03*
X131711Y68618D02*
D03*
X130111D02*
D03*
X65951Y67208D02*
D03*
X64351D02*
D03*
X65951Y64313D02*
D03*
X64351D02*
D03*
X66408Y60147D02*
D03*
X64808D02*
D03*
X65951Y62840D02*
D03*
X64351D02*
D03*
X71133Y106756D02*
D03*
X72733D02*
D03*
X132011Y67018D02*
D03*
X130411D02*
D03*
X129911Y76818D02*
D03*
X128311D02*
D03*
X115311Y86618D02*
D03*
X113711D02*
D03*
X118511Y87018D02*
D03*
X116911D02*
D03*
X122211Y86718D02*
D03*
X120611D02*
D03*
X115311Y84918D02*
D03*
X113711D02*
D03*
X118511Y85318D02*
D03*
X116911D02*
D03*
X118211Y83618D02*
D03*
X116611D02*
D03*
X87846Y80874D02*
D03*
X89446D02*
D03*
X87871Y79223D02*
D03*
X89471D02*
D03*
X87871Y77597D02*
D03*
X89471D02*
D03*
D84*
X125224Y76818D02*
D03*
X126798D02*
D03*
D86*
X123811Y74618D02*
D03*
X125611D02*
D03*
X84034Y101829D02*
D03*
X82234D02*
D03*
D88*
X138862Y100406D02*
D03*
X98730Y65126D02*
D03*
X65253Y92837D02*
D03*
D91*
X138176Y105283D02*
D03*
X135636D02*
D03*
X133096D02*
D03*
X130556D02*
D03*
X128016D02*
D03*
X125476D02*
D03*
X122936D02*
D03*
X120396D02*
D03*
X117856D02*
D03*
X115316D02*
D03*
X112776D02*
D03*
X110236D02*
D03*
X107696D02*
D03*
X105156D02*
D03*
X102616D02*
D03*
X100076D02*
D03*
X97536D02*
D03*
X94996D02*
D03*
X92456D02*
D03*
X89916D02*
D03*
X87376D02*
D03*
X84836D02*
D03*
X82296D02*
D03*
X138176Y107823D02*
D03*
X135636D02*
D03*
X133096D02*
D03*
X130556D02*
D03*
X128016D02*
D03*
X125476D02*
D03*
X122936D02*
D03*
X120396D02*
D03*
X117856D02*
D03*
X115316D02*
D03*
X112776D02*
D03*
X110236D02*
D03*
X107696D02*
D03*
X105156D02*
D03*
X102616D02*
D03*
X100076D02*
D03*
X97536D02*
D03*
X94996D02*
D03*
X92456D02*
D03*
X89916D02*
D03*
X87376D02*
D03*
X84836D02*
D03*
Y59563D02*
D03*
X87376D02*
D03*
X89916D02*
D03*
X92456D02*
D03*
X94996D02*
D03*
X97536D02*
D03*
X100076D02*
D03*
X102616D02*
D03*
X105156D02*
D03*
X107696D02*
D03*
X110236D02*
D03*
X112776D02*
D03*
X115316D02*
D03*
X117856D02*
D03*
X120396D02*
D03*
X122936D02*
D03*
X125476D02*
D03*
X128016D02*
D03*
X130556D02*
D03*
X133096D02*
D03*
X135636D02*
D03*
X138176D02*
D03*
X82296Y57023D02*
D03*
X84836D02*
D03*
X87376D02*
D03*
X89916D02*
D03*
X92456D02*
D03*
X94996D02*
D03*
X97536D02*
D03*
X100076D02*
D03*
X102616D02*
D03*
X105156D02*
D03*
X107696D02*
D03*
X110236D02*
D03*
X112776D02*
D03*
X115316D02*
D03*
X117856D02*
D03*
X120396D02*
D03*
X122936D02*
D03*
X125476D02*
D03*
X128016D02*
D03*
X130556D02*
D03*
X133096D02*
D03*
X135636D02*
D03*
X138176D02*
D03*
D92*
X82296Y107823D02*
D03*
Y59563D02*
D03*
D93*
X67914Y99517D02*
D03*
D94*
X73914D02*
D03*
D95*
X70914Y104217D02*
D03*
D96*
X66036Y83663D02*
D03*
X67556Y76093D02*
D03*
X66036Y73553D02*
D03*
X67556Y86203D02*
D03*
D97*
X79826Y76703D02*
D03*
X77286Y77973D02*
D03*
X79826Y79243D02*
D03*
X77286Y80513D02*
D03*
X79826Y81783D02*
D03*
X77286Y83053D02*
D03*
X79826Y84323D02*
D03*
D98*
X77286Y75433D02*
D03*
D99*
X70936Y85593D02*
D03*
Y74163D02*
D03*
D100*
X73986Y72003D02*
D03*
Y87753D02*
D03*
D101*
X98461Y76418D02*
D03*
D102*
X100961D02*
D03*
X103461D02*
D03*
X105961D02*
D03*
X108461D02*
D03*
X110961D02*
D03*
D103*
X144211Y70218D02*
D03*
Y78198D02*
D03*
X67730Y65899D02*
D03*
Y61499D02*
D03*
D104*
X84400Y64600D02*
D03*
X133400Y98600D02*
D03*
D105*
X84250Y91350D02*
D03*
Y71850D02*
D03*
X130250Y91350D02*
D03*
Y71850D02*
D03*
D106*
X77216Y58293D02*
D03*
Y106553D02*
D03*
X143256Y61468D02*
D03*
Y103378D02*
D03*
D107*
X140200Y83753D02*
D03*
Y96893D02*
D03*
D108*
X137490Y93823D02*
D03*
D109*
Y91323D02*
D03*
X137490Y86823D02*
D03*
X137490Y89323D02*
D03*
D110*
X145325Y89450D02*
D03*
Y88475D02*
D03*
X144025D02*
D03*
Y89450D02*
D03*
X144675Y88975D02*
D03*
D111*
X69596Y62408D02*
D03*
X72096D02*
D03*
X72071Y60020D02*
D03*
X69571D02*
D03*
X69621Y64795D02*
D03*
X72121D02*
D03*
Y67183D02*
D03*
X69621D02*
D03*
X68377Y106553D02*
D03*
X65877D02*
D03*
D112*
X143811Y81018D02*
D03*
Y65518D02*
D03*
D113*
X133711Y79818D02*
D03*
D114*
Y78718D02*
D03*
Y77618D02*
D03*
Y76518D02*
D03*
Y75418D02*
D03*
Y74318D02*
D03*
Y73218D02*
D03*
Y71018D02*
D03*
Y72118D02*
D03*
D115*
X134211Y81018D02*
D03*
D116*
Y66418D02*
D03*
D117*
X77480Y68260D02*
D03*
X78130D02*
D03*
X78780D02*
D03*
Y66360D02*
D03*
X78130D02*
D03*
X77480D02*
D03*
X77510Y61585D02*
D03*
X76860D02*
D03*
X76210D02*
D03*
Y63485D02*
D03*
X76860D02*
D03*
X77510D02*
D03*
D118*
X124025Y94300D02*
D03*
X129025D02*
D03*
M02*
