%FSLAX43Y43*%
%MOMM*%
G71*
G01*
G75*
G04 Layer_Physical_Order=1*
G04 Layer_Color=255*
%ADD10C,0.254*%
%ADD11R,0.813X0.914*%
%ADD12R,1.000X0.900*%
%ADD13R,1.300X1.400*%
%ADD14O,1.200X0.250*%
%ADD15R,0.400X1.600*%
%ADD16O,0.400X1.600*%
%ADD17R,1.890X1.570*%
%ADD18R,0.914X0.813*%
%ADD19R,0.900X1.000*%
%ADD20R,0.800X0.800*%
%ADD21R,2.000X1.450*%
%ADD22R,1.200X0.250*%
%ADD23R,0.900X0.400*%
%ADD24R,4.000X2.050*%
%ADD25R,2.300X0.500*%
%ADD26R,3.500X2.050*%
%ADD27R,1.400X1.300*%
%ADD28R,2.400X3.300*%
%ADD29R,2.400X0.950*%
%ADD30R,1.700X0.600*%
%ADD31R,1.000X1.000*%
%ADD32R,0.600X1.700*%
%ADD33R,1.000X1.000*%
%ADD34C,0.200*%
%ADD35C,0.400*%
%ADD36C,0.500*%
%ADD37C,0.800*%
%ADD38C,1.000*%
%ADD39C,0.508*%
%ADD40R,1.700X2.100*%
%ADD41C,4.500*%
%ADD42R,1.420X1.420*%
%ADD43C,1.420*%
%ADD44C,1.600*%
%ADD45R,1.600X1.600*%
%ADD46O,3.340X1.800*%
%ADD47C,5.500*%
%ADD48C,1.000*%
%ADD49O,2.000X4.500*%
%ADD50R,2.000X5.000*%
%ADD51O,4.000X2.000*%
%ADD52C,1.700*%
%ADD53C,3.200*%
%ADD54C,3.000*%
%ADD55R,1.500X1.500*%
%ADD56C,1.500*%
%ADD57C,1.480*%
%ADD58R,1.480X1.480*%
%ADD59C,1.270*%
%ADD60C,0.800*%
G36*
X81259Y108868D02*
X81276Y108868D01*
X81285Y108866D01*
X81293D01*
D01*
X81293Y108866D01*
X81309Y108863D01*
X81332Y108840D01*
X81332Y108787D01*
X81332D01*
Y107923D01*
X83260D01*
Y108787D01*
X83260D01*
Y108863D01*
X84621Y108864D01*
X84628Y108764D01*
X84585Y108758D01*
X84352Y108662D01*
X84151Y108508D01*
X83997Y108307D01*
X83901Y108074D01*
X83868Y107823D01*
X83901Y107572D01*
X83997Y107339D01*
X84151Y107138D01*
X84352Y106984D01*
X84377Y106974D01*
Y106132D01*
X84352Y106122D01*
X84151Y105968D01*
X83997Y105767D01*
X83901Y105534D01*
X83868Y105283D01*
X83901Y105032D01*
X83997Y104799D01*
X84151Y104598D01*
X84352Y104444D01*
X84585Y104348D01*
X84836Y104315D01*
X85087Y104348D01*
X85112Y104358D01*
X87882Y101588D01*
Y100225D01*
X87391D01*
Y100027D01*
X86875D01*
Y101468D01*
X83975D01*
Y100027D01*
X81075D01*
Y100293D01*
X78175D01*
Y98843D01*
X81075D01*
Y99109D01*
X81355D01*
Y97404D01*
X81167Y97216D01*
X81075Y97254D01*
Y97993D01*
X78175D01*
Y97778D01*
X76374D01*
X75164Y98988D01*
Y102267D01*
X72664D01*
Y100467D01*
X72641D01*
Y100467D01*
X70845D01*
Y100471D01*
X70041D01*
Y99517D01*
Y98563D01*
X70845D01*
Y98567D01*
X72641D01*
D01*
X72641D01*
X72664Y98544D01*
Y96767D01*
X75164D01*
Y97416D01*
X75256Y97454D01*
X75803Y96908D01*
X75968Y96797D01*
X76163Y96758D01*
X77266D01*
X77276Y96659D01*
X77220Y96648D01*
X77104Y96570D01*
X77042Y96508D01*
X76097D01*
Y95008D01*
X76224D01*
X76244Y94910D01*
X76228Y94903D01*
X76092Y94799D01*
X76010Y94692D01*
X75891D01*
Y94840D01*
X75541D01*
Y95008D01*
X75897D01*
Y96508D01*
X74497D01*
Y96115D01*
X73242D01*
Y96559D01*
X71742D01*
Y96165D01*
X69042D01*
Y96559D01*
X67542D01*
Y95059D01*
X67542D01*
Y94967D01*
X67538Y94963D01*
X67538D01*
Y94309D01*
X69046D01*
Y94963D01*
X69042D01*
Y95059D01*
X69042D01*
Y95452D01*
X71742D01*
Y95059D01*
X71742D01*
Y94967D01*
X71738Y94963D01*
X71738D01*
Y94309D01*
X73246D01*
Y94963D01*
X73242D01*
Y95059D01*
X73242D01*
Y95401D01*
X74497D01*
Y95008D01*
X74827D01*
Y94840D01*
X74477D01*
Y93527D01*
X75891D01*
Y93979D01*
X76010D01*
X76092Y93872D01*
X76228Y93768D01*
X76386Y93702D01*
X76556Y93680D01*
X76725Y93702D01*
X76883Y93768D01*
X77019Y93872D01*
X77123Y94008D01*
X77189Y94166D01*
X77211Y94336D01*
X77189Y94505D01*
X77123Y94663D01*
X77019Y94799D01*
X76883Y94903D01*
X76868Y94910D01*
X76887Y95008D01*
X77497D01*
Y95953D01*
X77505Y95961D01*
X79919D01*
X79957Y95869D01*
X76159Y92070D01*
X76081Y91955D01*
X76054Y91818D01*
Y89266D01*
X75962Y89228D01*
X75601Y89588D01*
X75580Y89602D01*
X75562Y89620D01*
X75539Y89630D01*
X75518Y89644D01*
X75494Y89649D01*
X75471Y89658D01*
X75451D01*
X75276Y89693D01*
X75162Y89769D01*
X75102Y89860D01*
X75084Y89877D01*
X75070Y89898D01*
X75049Y89912D01*
X75031Y89930D01*
X75008Y89940D01*
X74987Y89953D01*
X74963Y89958D01*
X74940Y89968D01*
X74914D01*
X74890Y89973D01*
X63458D01*
X63455Y103688D01*
X63497Y104333D01*
X63622Y104959D01*
X63731Y105281D01*
X63731Y105281D01*
X63827Y105563D01*
X64109Y106135D01*
X64435Y106623D01*
X64435Y106623D01*
X64463Y106666D01*
X64891Y107154D01*
X65307Y107518D01*
X65430Y107626D01*
X65445Y107636D01*
X65445Y107636D01*
X66035Y108030D01*
X66550Y108284D01*
X66687Y108352D01*
X67376Y108586D01*
X68061Y108722D01*
X68061Y108722D01*
X68089Y108727D01*
X68158Y108732D01*
X68776Y108772D01*
X68778Y108772D01*
X68778Y108772D01*
X68798Y108768D01*
X68823Y108768D01*
X68828Y108767D01*
X68828D01*
X68828Y108767D01*
X68848Y108763D01*
X69461Y108765D01*
X73229Y108775D01*
X73535Y108735D01*
X73806Y108623D01*
X73999Y108474D01*
X73999Y108474D01*
X73999Y108474D01*
X74017Y108460D01*
X74017D01*
X74018Y108459D01*
X74051Y108410D01*
X74057Y108381D01*
X74056Y108378D01*
X74044Y106219D01*
X74047Y106206D01*
X74046Y106193D01*
X74092Y105720D01*
X74100Y105696D01*
X74102Y105671D01*
X74108Y105652D01*
X74108Y105652D01*
X74108Y105652D01*
X74234Y105235D01*
X74234Y105235D01*
D01*
X74240Y105216D01*
X74252Y105194D01*
X74259Y105170D01*
X74269Y105152D01*
X74269Y105152D01*
X74269Y105152D01*
X74483Y104750D01*
X74499Y104731D01*
X74511Y104709D01*
X74795Y104362D01*
X74807Y104353D01*
X74807Y104352D01*
X74810Y104350D01*
X74812Y104347D01*
X74815Y104343D01*
X74827Y104334D01*
X74840Y104319D01*
X74848Y104314D01*
X74853Y104310D01*
X74864Y104304D01*
X74872Y104296D01*
X74872D01*
Y104296D01*
X75222Y103935D01*
X75231Y103928D01*
X75238Y103920D01*
X75241Y103918D01*
X75243Y103915D01*
X75432Y103760D01*
X75432D01*
X75432Y103760D01*
X75458Y103739D01*
X75458Y103739D01*
X75503Y103702D01*
X75526Y103690D01*
X75545Y103674D01*
X75563Y103665D01*
X75563Y103665D01*
X75824Y103525D01*
X75824Y103525D01*
X75841Y103516D01*
X75864Y103509D01*
X75867Y103507D01*
X75867D01*
X75871Y103505D01*
X75887Y103496D01*
X75888Y103496D01*
X75888Y103496D01*
X75888Y103496D01*
X75889Y103496D01*
X75889Y103496D01*
X75907Y103491D01*
X75907Y103491D01*
X76190Y103405D01*
X76190Y103405D01*
X76209Y103399D01*
X76234Y103396D01*
X76258Y103389D01*
X76278Y103387D01*
X76278Y103387D01*
X76569Y103358D01*
X76584Y103360D01*
X76585Y103360D01*
X76588Y103360D01*
X76592Y103359D01*
X76597Y103359D01*
X76611Y103361D01*
X76617Y103361D01*
X76618Y103360D01*
X76619Y103361D01*
X76631Y103360D01*
X76641Y103361D01*
X76643Y103362D01*
X76647Y103363D01*
X77709Y103354D01*
X77722Y103356D01*
X77736Y103355D01*
X78115Y103392D01*
X78139Y103400D01*
X78164Y103402D01*
X78183Y103408D01*
X78183Y103408D01*
X78183Y103408D01*
X78391Y103471D01*
X78391D01*
X78528Y103512D01*
X78550Y103524D01*
X78574Y103532D01*
X78581Y103535D01*
X78581D01*
X78892Y103701D01*
X78892Y103701D01*
X78909Y103711D01*
X78927Y103725D01*
X78931Y103727D01*
X78931Y103727D01*
X78932Y103728D01*
X78951Y103739D01*
X78952Y103739D01*
X78952Y103739D01*
X78952Y103739D01*
X78966Y103751D01*
X78966Y103751D01*
X79225Y103964D01*
X79235Y103976D01*
X79235Y103976D01*
X79238Y103979D01*
X79241Y103981D01*
X79245Y103984D01*
X79254Y103996D01*
X79259Y104001D01*
X79260Y104001D01*
X79260Y104001D01*
X79268Y104009D01*
X79274Y104017D01*
X79276Y104019D01*
X79279Y104024D01*
X79283Y104029D01*
X79283Y104029D01*
X79594Y104327D01*
X79601Y104337D01*
X79611Y104344D01*
X79612Y104347D01*
X79615Y104350D01*
X79616Y104350D01*
X79616Y104350D01*
X79858Y104646D01*
X79858Y104646D01*
X79858Y104646D01*
X79871Y104661D01*
X79883Y104683D01*
X79899Y104703D01*
X80080Y105041D01*
X80080Y105041D01*
X80080Y105041D01*
X80089Y105059D01*
X80096Y105083D01*
X80108Y105105D01*
X80114Y105124D01*
Y105124D01*
X80114Y105124D01*
X80175Y105327D01*
X80175Y105327D01*
X80219Y105472D01*
X80219Y105472D01*
X80225Y105491D01*
X80228Y105516D01*
X80235Y105540D01*
X80237Y105560D01*
X80237Y105560D01*
X80272Y105916D01*
X80271Y105931D01*
X80271Y105931D01*
X80270Y105935D01*
X80271Y105939D01*
X80272Y105944D01*
X80270Y105958D01*
X80271Y105978D01*
X80269Y105987D01*
X80269Y105991D01*
X80266Y106001D01*
X80257Y107978D01*
X80275Y108117D01*
X80275Y108117D01*
X80286Y108195D01*
X80363Y108382D01*
X80493Y108551D01*
X80716Y108723D01*
X80987Y108835D01*
X81088Y108848D01*
X81088Y108848D01*
X81252Y108869D01*
X81259Y108868D01*
D02*
G37*
G36*
X90206Y68281D02*
X90243Y68190D01*
X90347Y68054D01*
X90483Y67950D01*
X90641Y67885D01*
X90811Y67862D01*
X90981Y67885D01*
X91139Y67950D01*
X91275Y68054D01*
X91356Y68161D01*
X105100D01*
X105139Y68069D01*
X102945Y65875D01*
X93650D01*
X93650Y65875D01*
X91957D01*
X91418Y66415D01*
X91435Y66548D01*
X91413Y66718D01*
X91347Y66876D01*
X91243Y67012D01*
X91107Y67116D01*
X90949Y67181D01*
X90780Y67204D01*
X90610Y67181D01*
X90452Y67116D01*
X90316Y67012D01*
X90212Y66876D01*
X90146Y66718D01*
X90124Y66548D01*
X90146Y66378D01*
X90212Y66220D01*
X90316Y66084D01*
X90452Y65980D01*
X90610Y65915D01*
X90780Y65892D01*
X90913Y65910D01*
X91557Y65266D01*
X91557Y65266D01*
X91557D01*
X91557Y65266D01*
X91557D01*
X91557Y65266D01*
Y65266D01*
Y65266D01*
D01*
D01*
X91557D01*
Y65266D01*
X91673Y65188D01*
X91743Y65174D01*
X91733Y65075D01*
X90979D01*
X90021Y66034D01*
X90038Y66167D01*
X90016Y66337D01*
X89950Y66495D01*
X89846Y66631D01*
X89710Y66735D01*
X89552Y66800D01*
X89383Y66823D01*
X89213Y66800D01*
X89123Y66763D01*
X89039Y66818D01*
Y67232D01*
X90108Y68300D01*
X90206Y68281D01*
D02*
G37*
G36*
X126002Y80106D02*
X124359Y78463D01*
X124281Y78347D01*
X124254Y78210D01*
Y71546D01*
X113154Y60446D01*
X113027Y60498D01*
X112776Y60531D01*
X112525Y60498D01*
X112292Y60402D01*
X112093Y60249D01*
X112003Y60293D01*
Y60805D01*
X112678Y61480D01*
X112811Y61462D01*
X112981Y61485D01*
X113139Y61550D01*
X113275Y61654D01*
X113379Y61790D01*
X113444Y61948D01*
X113467Y62118D01*
X113444Y62288D01*
X113379Y62446D01*
X113275Y62582D01*
X113139Y62686D01*
X112981Y62751D01*
X112811Y62774D01*
X112641Y62751D01*
X112483Y62686D01*
X112347Y62582D01*
X112243Y62446D01*
X112178Y62288D01*
X112155Y62118D01*
X112173Y61985D01*
X111695Y61507D01*
X111603Y61545D01*
Y70695D01*
X121069Y80161D01*
X125811D01*
X125948Y80188D01*
X126002Y80106D01*
D02*
G37*
G36*
X87171Y108764D02*
X87125Y108758D01*
X86892Y108662D01*
X86691Y108508D01*
X86537Y108307D01*
X86441Y108074D01*
X86408Y107823D01*
X86441Y107572D01*
X86537Y107339D01*
X86691Y107138D01*
X86892Y106984D01*
X87125Y106888D01*
X87376Y106855D01*
Y106751D01*
X87944Y106183D01*
X87878Y106108D01*
X87860Y106122D01*
X87627Y106218D01*
X87376Y106251D01*
X87125Y106218D01*
X86892Y106122D01*
X86691Y105968D01*
X86537Y105767D01*
X86441Y105534D01*
X86408Y105283D01*
X86441Y105032D01*
X86537Y104799D01*
X86691Y104598D01*
X86892Y104444D01*
X87125Y104348D01*
X87376Y104315D01*
X87627Y104348D01*
X87860Y104444D01*
X88061Y104598D01*
X88215Y104799D01*
X88311Y105032D01*
X88344Y105283D01*
X88311Y105534D01*
X88215Y105767D01*
X88201Y105785D01*
X88276Y105851D01*
X88963Y105164D01*
X88981Y105032D01*
X89077Y104799D01*
X89231Y104598D01*
X89432Y104444D01*
X89665Y104348D01*
X89797Y104330D01*
X93997Y100130D01*
Y99131D01*
X93939Y99073D01*
X93411D01*
X93313Y99053D01*
X93231Y98998D01*
X93176Y98916D01*
X93156Y98818D01*
Y98223D01*
X93155Y98218D01*
X93156Y98213D01*
Y96718D01*
X93176Y96620D01*
X93231Y96538D01*
X93313Y96483D01*
X93411Y96463D01*
X95105D01*
Y94033D01*
X96931Y92207D01*
Y90893D01*
X96701Y90663D01*
Y89112D01*
X93545Y85957D01*
X91041D01*
X91003Y86049D01*
X92063Y87110D01*
X92141Y87226D01*
X92168Y87362D01*
Y92484D01*
X92141Y92620D01*
X92063Y92736D01*
X88629Y96170D01*
X88513Y96248D01*
X88377Y96275D01*
X81366D01*
X81328Y96367D01*
X81964Y97004D01*
X82041Y97119D01*
X82069Y97256D01*
X82069Y97256D01*
X82069Y97256D01*
Y97256D01*
Y99109D01*
X83975D01*
Y97668D01*
X86875D01*
Y99109D01*
X87391D01*
Y98429D01*
X87387D01*
Y97625D01*
X89295D01*
Y98429D01*
X89291D01*
Y100225D01*
X88800D01*
Y101778D01*
X88765Y101953D01*
X88666Y102102D01*
X85761Y105007D01*
X85771Y105032D01*
X85804Y105283D01*
X85771Y105534D01*
X85675Y105767D01*
X85521Y105968D01*
X85320Y106122D01*
X85295Y106132D01*
Y106974D01*
X85320Y106984D01*
X85521Y107138D01*
X85675Y107339D01*
X85771Y107572D01*
X85804Y107823D01*
X85771Y108074D01*
X85675Y108307D01*
X85521Y108508D01*
X85320Y108662D01*
X85087Y108758D01*
X85044Y108764D01*
X85050Y108864D01*
X87164Y108864D01*
X87171Y108764D01*
D02*
G37*
G36*
X70207Y57520D02*
X72084D01*
Y58016D01*
X74711Y58018D01*
X74711Y58018D01*
Y58018D01*
X74716D01*
X74728Y58010D01*
X74748Y57802D01*
X74891Y57330D01*
X75124Y56895D01*
X75437Y56514D01*
X75818Y56201D01*
X76253Y55968D01*
X76725Y55825D01*
X77089Y55789D01*
Y58293D01*
X77343D01*
Y55789D01*
X77707Y55825D01*
X78179Y55968D01*
X78614Y56201D01*
X78995Y56514D01*
X79308Y56895D01*
X79541Y57330D01*
X79613Y57569D01*
X79642Y57584D01*
X79658Y57580D01*
D01*
X79658Y57580D01*
X79658D01*
X79658Y57580D01*
X79658D01*
D01*
D01*
X79658Y57580D01*
X79658D01*
D01*
X79715Y57574D01*
X79747Y57564D01*
X79765Y57563D01*
X79783Y57556D01*
X79784Y57556D01*
X79784Y57556D01*
X79795Y57554D01*
X79799Y57553D01*
X79799Y57553D01*
X79800Y57553D01*
X79810Y57551D01*
X79812Y57550D01*
X79813Y57547D01*
X79813Y57536D01*
X79814Y57531D01*
X79814Y57520D01*
X79814Y57520D01*
X79813Y57172D01*
X79811Y56862D01*
Y56862D01*
X79811Y56861D01*
X79811Y56842D01*
X79802D01*
X79837Y56575D01*
X79850Y56544D01*
Y56544D01*
X79889Y56450D01*
X79889Y56450D01*
X79941Y56326D01*
X79962Y56298D01*
X80013Y56231D01*
D01*
X80013Y56231D01*
X80071Y56156D01*
X80105Y56112D01*
X80105Y56112D01*
X80365Y55899D01*
X80662Y55740D01*
X80691Y55732D01*
X80719Y55723D01*
X80719D01*
X80847Y55684D01*
X80880Y55674D01*
D01*
X80983Y55643D01*
X81318Y55610D01*
X138200Y55618D01*
X138211Y55607D01*
Y55607D01*
X138441Y55630D01*
X138446Y55602D01*
X138386Y55522D01*
X137382Y55390D01*
X136299Y55342D01*
X136144Y55349D01*
Y55349D01*
X136144Y55349D01*
X136139Y55350D01*
X136139Y55350D01*
X69154D01*
X69144Y55352D01*
X69139Y55351D01*
X69135Y55354D01*
Y55354D01*
X69066Y55350D01*
X68989D01*
X68972Y55347D01*
X68300Y55384D01*
X67620Y55500D01*
X66958Y55691D01*
X66320Y55955D01*
X65717Y56288D01*
X65154Y56687D01*
X64640Y57147D01*
X64388Y57429D01*
X64429Y57520D01*
X65703D01*
Y58799D01*
X65957D01*
Y57520D01*
X69953D01*
Y58799D01*
X70207D01*
Y57520D01*
D02*
G37*
G36*
X135633Y87353D02*
Y86202D01*
X135633Y86202D01*
X135633D01*
X135660Y86065D01*
X135738Y85949D01*
X136681Y85006D01*
D01*
X136681D01*
Y85006D01*
D01*
X136681D01*
Y85006D01*
X136681D01*
X136681Y85006D01*
Y85006D01*
X136681Y85006D01*
Y85006D01*
X136797Y84928D01*
X136934Y84901D01*
X138541D01*
X138678Y84928D01*
X138793Y85006D01*
X138918Y85130D01*
X139051Y85112D01*
X139221Y85135D01*
X139379Y85200D01*
X139515Y85304D01*
X139619Y85440D01*
X139684Y85598D01*
X139707Y85768D01*
X139684Y85938D01*
X139619Y86096D01*
X139515Y86232D01*
X139559Y86321D01*
X140703D01*
X142357Y84667D01*
X142319Y84574D01*
X141789D01*
X141550Y84758D01*
X141270Y84873D01*
X140970Y84913D01*
X139430D01*
X139130Y84873D01*
X138850Y84758D01*
X138610Y84573D01*
X138425Y84333D01*
X138310Y84053D01*
X138270Y83753D01*
X138310Y83453D01*
X138425Y83173D01*
X138610Y82933D01*
X138850Y82748D01*
X139130Y82633D01*
X139430Y82593D01*
X140970D01*
X141270Y82633D01*
X141550Y82748D01*
X141790Y82933D01*
X141889Y83062D01*
X145183D01*
X145198Y83050D01*
X145277Y83017D01*
X145356Y82985D01*
X145525Y82962D01*
X145885D01*
X145918Y82868D01*
X145857Y82822D01*
X145753Y82686D01*
X145688Y82528D01*
X145665Y82358D01*
X145688Y82188D01*
X145753Y82030D01*
X145857Y81894D01*
X145993Y81790D01*
X146151Y81725D01*
X146321Y81702D01*
X146491Y81725D01*
X146532Y81742D01*
X147354Y80919D01*
Y70766D01*
X143638Y67050D01*
X143538D01*
X143003Y67585D01*
X143041Y67678D01*
X144006D01*
Y69178D01*
X142506D01*
Y68213D01*
X142489Y68206D01*
X142406Y68262D01*
Y69178D01*
X141753D01*
X141715Y69270D01*
X143508Y71063D01*
X143585Y71179D01*
X143613Y71315D01*
X143613Y71315D01*
X143613Y71315D01*
Y71315D01*
Y71878D01*
X144006D01*
Y73378D01*
X142506D01*
Y71878D01*
X142899D01*
Y71463D01*
X141536Y70100D01*
X141444Y70139D01*
Y71628D01*
X140344D01*
Y69734D01*
X138745D01*
X138204Y70275D01*
X138222Y70409D01*
X138200Y70578D01*
X138134Y70737D01*
X138030Y70872D01*
X137894Y70977D01*
X137828Y71004D01*
Y71104D01*
X137939Y71150D01*
X138075Y71254D01*
X138179Y71390D01*
X138244Y71548D01*
X138266Y71713D01*
X141163Y74610D01*
X141241Y74726D01*
X141268Y74862D01*
Y77774D01*
X141241Y77910D01*
X141163Y78026D01*
X138543Y80646D01*
X138544Y80648D01*
X138567Y80818D01*
X138544Y80988D01*
X138479Y81146D01*
X138375Y81282D01*
X138239Y81386D01*
X138081Y81451D01*
X137911Y81474D01*
X137741Y81451D01*
X137583Y81386D01*
X137447Y81282D01*
X137343Y81146D01*
X137278Y80988D01*
X137255Y80818D01*
X137278Y80648D01*
X137343Y80490D01*
X137447Y80354D01*
X137583Y80250D01*
X137741Y80185D01*
X137911Y80162D01*
X138005Y80175D01*
X138613Y79567D01*
X138574Y79475D01*
X137059D01*
X136949Y79585D01*
X136967Y79718D01*
X136944Y79888D01*
X136879Y80046D01*
X136775Y80182D01*
X136639Y80286D01*
X136481Y80351D01*
X136311Y80374D01*
X136141Y80351D01*
X135983Y80286D01*
X135847Y80182D01*
X135743Y80046D01*
X135678Y79888D01*
X135655Y79718D01*
X135678Y79548D01*
X135743Y79390D01*
X135847Y79254D01*
X135983Y79150D01*
X136141Y79085D01*
X136311Y79062D01*
X136444Y79080D01*
X136659Y78866D01*
X136659D01*
X136659Y78866D01*
X136659D01*
X136659Y78866D01*
Y78866D01*
X136659Y78866D01*
Y78866D01*
X136667Y78860D01*
X136647Y78762D01*
X136574Y78748D01*
X136459Y78670D01*
X135745Y77957D01*
X135504D01*
Y78000D01*
X134650D01*
Y78200D01*
X135504D01*
Y78479D01*
X135500D01*
Y78725D01*
Y79225D01*
Y79725D01*
Y80225D01*
Y80725D01*
Y81225D01*
Y81725D01*
Y82225D01*
Y82725D01*
Y83225D01*
Y83725D01*
Y84225D01*
Y84725D01*
Y85225D01*
Y85725D01*
Y86225D01*
Y86725D01*
Y87221D01*
X135504D01*
Y87390D01*
X135550Y87409D01*
X135633Y87353D01*
D02*
G37*
G36*
X118211Y100181D02*
Y99567D01*
X101087Y82442D01*
X100987Y82294D01*
X100952Y82118D01*
X100952Y82118D01*
X100952D01*
X100952Y82118D01*
X100952D01*
Y78518D01*
X100952Y78518D01*
X100952D01*
X100987Y78342D01*
X101087Y78194D01*
X101752Y77528D01*
Y77172D01*
X101662Y77128D01*
X101460Y77283D01*
X101219Y77383D01*
X100961Y77417D01*
X100703Y77383D01*
X100462Y77283D01*
X100255Y77124D01*
X100096Y76917D01*
X99996Y76676D01*
X99962Y76418D01*
X99996Y76160D01*
X100096Y75919D01*
X100255Y75712D01*
X100462Y75553D01*
X100703Y75453D01*
X100961Y75419D01*
X101219Y75453D01*
X101458Y75552D01*
X101513Y75469D01*
X100621Y74577D01*
X90211D01*
X90035Y74542D01*
X89935Y74475D01*
X89500D01*
Y74475D01*
Y74725D01*
Y75225D01*
Y75243D01*
X92994D01*
X93131Y75270D01*
X93247Y75348D01*
X93247Y75348D01*
X93247Y75348D01*
X96555Y78656D01*
X96647Y78617D01*
Y78535D01*
X97207D01*
Y79146D01*
X97176D01*
X97138Y79239D01*
X97866Y79967D01*
X97956Y79923D01*
X97955Y79918D01*
X97978Y79748D01*
X98043Y79590D01*
X98147Y79454D01*
X98283Y79350D01*
X98441Y79285D01*
X98611Y79262D01*
X98781Y79285D01*
X98939Y79350D01*
X99025Y79417D01*
X99110Y79364D01*
X99093Y79275D01*
X99104Y79220D01*
X99040Y79142D01*
X98226D01*
Y77728D01*
X99539D01*
Y77770D01*
X99622Y77811D01*
X99780Y77746D01*
X99950Y77723D01*
X100120Y77746D01*
X100278Y77811D01*
X100414Y77915D01*
X100518Y78051D01*
X100583Y78209D01*
X100606Y78379D01*
X100583Y78549D01*
X100518Y78707D01*
X100461Y78780D01*
X100484Y78878D01*
X100571Y78922D01*
X100571D01*
X100571Y78922D01*
X100695Y79005D01*
X100778Y79129D01*
X100807Y79275D01*
X100778Y79421D01*
X100709Y79525D01*
X100778Y79629D01*
X100807Y79775D01*
X100778Y79921D01*
X100709Y80025D01*
X100778Y80129D01*
X100807Y80275D01*
X100778Y80421D01*
X100709Y80525D01*
X100778Y80629D01*
X100807Y80775D01*
X100778Y80921D01*
X100695Y81045D01*
X100672Y81061D01*
X100655Y81160D01*
X100679Y81190D01*
X100744Y81348D01*
X100767Y81518D01*
X100744Y81688D01*
X100679Y81846D01*
X100575Y81982D01*
X100439Y82086D01*
X100281Y82151D01*
X100189Y82163D01*
X100157Y82258D01*
X118118Y100219D01*
X118211Y100181D01*
D02*
G37*
G36*
X69701Y86973D02*
X69622Y86907D01*
X69390Y86626D01*
X69219Y86304D01*
X69113Y85956D01*
X69077Y85593D01*
X69113Y85230D01*
X69219Y84882D01*
X69390Y84560D01*
X69622Y84279D01*
X69903Y84047D01*
X70225Y83876D01*
X70573Y83770D01*
X70936Y83734D01*
X71299Y83770D01*
X71647Y83876D01*
X71969Y84047D01*
X72250Y84279D01*
X72482Y84560D01*
X72653Y84882D01*
X72759Y85230D01*
X72795Y85593D01*
X72759Y85956D01*
X72653Y86304D01*
X72482Y86626D01*
X72250Y86907D01*
X72246Y86911D01*
X72235Y86980D01*
X72270Y87015D01*
X72314Y87049D01*
X72338Y87044D01*
X72357Y87039D01*
X72400Y87007D01*
X72524Y86776D01*
X72743Y86510D01*
X73009Y86291D01*
X73313Y86128D01*
X73643Y86028D01*
X73986Y85995D01*
X74329Y86028D01*
X74659Y86128D01*
X74963Y86291D01*
X75229Y86510D01*
X75448Y86776D01*
X75502Y86877D01*
X75502D01*
X75502Y86877D01*
X75574Y86960D01*
X75640Y87009D01*
X75657Y87013D01*
X75676Y87002D01*
X75697Y86984D01*
X75718Y86977D01*
X75736Y86965D01*
X75765Y86961D01*
X75792Y86952D01*
X75813Y86954D01*
X75835Y86950D01*
X75982Y86957D01*
X76054Y86888D01*
Y86466D01*
X71920Y82331D01*
X71184Y81595D01*
X71106Y81480D01*
X71079Y81343D01*
Y76727D01*
X71106Y76591D01*
X71184Y76475D01*
X71690Y75969D01*
X71638Y75883D01*
X71299Y75986D01*
X70936Y76022D01*
X70573Y75986D01*
X70225Y75880D01*
X69903Y75709D01*
X69622Y75477D01*
X69390Y75196D01*
X69219Y74874D01*
X69113Y74526D01*
X69077Y74163D01*
X69113Y73800D01*
X69219Y73452D01*
X69390Y73130D01*
X69622Y72849D01*
X69772Y72725D01*
X69739Y72631D01*
X68655Y72619D01*
X66782D01*
X66750Y72714D01*
X66821Y72768D01*
X66997Y72998D01*
X67108Y73266D01*
X67145Y73553D01*
X67108Y73840D01*
X66997Y74108D01*
X66821Y74338D01*
X66591Y74514D01*
X66323Y74625D01*
X66036Y74662D01*
X65839Y74637D01*
X65764Y74703D01*
X65766Y76418D01*
X65766Y76418D01*
X65766Y76418D01*
Y78494D01*
X66105D01*
Y79248D01*
Y80002D01*
X65766D01*
Y81318D01*
X65770Y82513D01*
X65845Y82579D01*
X66036Y82554D01*
X66323Y82591D01*
X66521Y82673D01*
X66754Y82441D01*
X66869Y82363D01*
X67006Y82336D01*
X68617D01*
Y81964D01*
X70117D01*
Y83364D01*
X68617D01*
Y83050D01*
X67154D01*
X67026Y83178D01*
X67108Y83376D01*
X67145Y83663D01*
X67108Y83950D01*
X66997Y84218D01*
X66821Y84448D01*
X66591Y84624D01*
X66323Y84735D01*
X66036Y84772D01*
X65853Y84748D01*
X65778Y84814D01*
X65785Y86643D01*
X66190Y87048D01*
X66707Y87051D01*
X66752Y86962D01*
X66595Y86758D01*
X66484Y86490D01*
X66447Y86203D01*
X66484Y85916D01*
X66595Y85648D01*
X66771Y85418D01*
X67001Y85242D01*
X67269Y85131D01*
X67556Y85094D01*
X67843Y85131D01*
X68111Y85242D01*
X68341Y85418D01*
X68517Y85648D01*
X68628Y85916D01*
X68665Y86203D01*
X68628Y86490D01*
X68517Y86758D01*
X68354Y86970D01*
X68398Y87060D01*
X69667Y87067D01*
X69701Y86973D01*
D02*
G37*
G36*
X148165Y70598D02*
X148166Y67406D01*
X148160Y67311D01*
D01*
X148127Y66806D01*
X148069Y66515D01*
X148011Y66224D01*
X147859Y65776D01*
X147859Y65776D01*
X147821Y65663D01*
X147768Y65556D01*
X147768Y65556D01*
X147558Y65131D01*
X147246Y64663D01*
X147246Y64663D01*
X147229Y64637D01*
X146858Y64214D01*
X146845Y64206D01*
X146845Y64206D01*
X146803Y64178D01*
X146774Y64172D01*
X146770Y64173D01*
X146753Y64173D01*
X146753D01*
D01*
X144392Y64179D01*
X144387Y64178D01*
X144386Y64178D01*
X144372Y64175D01*
X144354Y64176D01*
X144349Y64175D01*
X144319Y64165D01*
X144289Y64159D01*
X144273Y64148D01*
X144255Y64142D01*
X144232Y64121D01*
X144206Y64104D01*
X144195Y64088D01*
X144181Y64075D01*
X144168Y64047D01*
X144150Y64021D01*
X144148Y64016D01*
X144145Y63998D01*
X144138Y63985D01*
X144138Y63984D01*
X144136Y63980D01*
X144115Y63896D01*
X144028Y63846D01*
X143746Y63932D01*
X143256Y63980D01*
X142766Y63932D01*
X142295Y63789D01*
X141860Y63557D01*
X141480Y63244D01*
X141167Y62864D01*
X140935Y62429D01*
X140792Y61958D01*
X140744Y61468D01*
X140792Y60978D01*
X140819Y60889D01*
X140766Y60804D01*
X140697Y60794D01*
X140692Y60792D01*
X140692D01*
X140678Y60790D01*
X140659Y60783D01*
X140648Y60782D01*
X140643Y60780D01*
X140640Y60778D01*
X140617Y60773D01*
X140602Y60763D01*
X140584Y60756D01*
X140561Y60735D01*
X140535Y60718D01*
X140524Y60702D01*
X140511Y60689D01*
X140497Y60661D01*
X140480Y60635D01*
X140476Y60616D01*
X140468Y60600D01*
X140467Y60577D01*
X140465Y60573D01*
X140464Y60568D01*
X140464Y60557D01*
X140461Y60537D01*
X140461Y60523D01*
X140460Y60518D01*
X140461Y60075D01*
X140465Y58359D01*
X140433Y57961D01*
X140342Y57582D01*
X140193Y57222D01*
X139989Y56889D01*
X139927Y56817D01*
X139927Y56817D01*
X139782Y56647D01*
X139682Y56651D01*
X139661Y56681D01*
X139700Y56845D01*
X139649Y57277D01*
X139043Y59148D01*
X139111Y59312D01*
X139144Y59563D01*
X139111Y59814D01*
X139015Y60047D01*
X138861Y60248D01*
X138660Y60402D01*
X138634Y60412D01*
X138482Y60880D01*
X138541Y60961D01*
X138976D01*
X138978Y60948D01*
X139043Y60790D01*
X139147Y60654D01*
X139283Y60550D01*
X139441Y60485D01*
X139611Y60462D01*
X139781Y60485D01*
X139939Y60550D01*
X140075Y60654D01*
X140179Y60790D01*
X140244Y60948D01*
X140267Y61118D01*
X140244Y61288D01*
X140179Y61446D01*
X140075Y61582D01*
X139939Y61686D01*
X139781Y61751D01*
X139611Y61774D01*
X139511Y61760D01*
X139472Y61853D01*
X139475Y61854D01*
X139579Y61990D01*
X139644Y62148D01*
X139667Y62318D01*
X139644Y62488D01*
X139579Y62646D01*
X139475Y62782D01*
X139368Y62863D01*
Y62952D01*
X139362Y62984D01*
X139425Y63061D01*
X140511D01*
X140648Y63088D01*
X140763Y63166D01*
X140763Y63166D01*
X140763Y63166D01*
X143839Y66241D01*
X143839Y66241D01*
X143839Y66241D01*
X147963Y70366D01*
X148041Y70481D01*
X148066Y70608D01*
X148165Y70598D01*
D02*
G37*
G36*
X80278Y92388D02*
X80255Y92218D01*
X80278Y92048D01*
X80343Y91890D01*
X80447Y91754D01*
X80583Y91650D01*
X80741Y91585D01*
X80911Y91562D01*
X81081Y91585D01*
X81193Y91631D01*
X82240Y90585D01*
X82201Y90492D01*
X80483D01*
X80483Y90492D01*
X80360Y90468D01*
X80335Y90463D01*
X80211Y90380D01*
X79131Y89300D01*
X79048Y89176D01*
X79043Y89151D01*
X79019Y89028D01*
X79019Y89028D01*
Y87108D01*
X79019Y87108D01*
X79043Y86985D01*
X79048Y86960D01*
X79131Y86836D01*
X79131Y86836D01*
X79131D01*
Y86836D01*
X79131Y86836D01*
X80819Y85148D01*
Y84806D01*
X80721Y84787D01*
X80703Y84829D01*
X80542Y85039D01*
X80332Y85200D01*
X80088Y85301D01*
X79926Y85323D01*
Y84323D01*
Y83324D01*
X80088Y83345D01*
X80332Y83446D01*
X80542Y83607D01*
X80703Y83817D01*
X80721Y83859D01*
X80819Y83840D01*
Y82330D01*
X80741Y82266D01*
X80705Y82273D01*
X80700Y82287D01*
X80539Y82496D01*
X80330Y82656D01*
X80087Y82757D01*
X79826Y82792D01*
X79565Y82757D01*
X79322Y82656D01*
X79113Y82496D01*
X78952Y82287D01*
X78852Y82044D01*
X78817Y81783D01*
X78852Y81522D01*
X78952Y81279D01*
X79113Y81070D01*
X79226Y80983D01*
X79233Y80883D01*
X77326Y78976D01*
X77286Y78982D01*
X77025Y78947D01*
X76782Y78846D01*
X76573Y78686D01*
X76412Y78477D01*
X76312Y78234D01*
X76277Y77973D01*
X76312Y77712D01*
X76412Y77469D01*
X76573Y77260D01*
X76690Y77170D01*
X76658Y77075D01*
X76441D01*
X75393Y78123D01*
X75431Y78216D01*
X76099D01*
Y79630D01*
X76099D01*
Y79652D01*
X76170Y79723D01*
X76205D01*
Y80156D01*
X76351D01*
X76412Y80009D01*
X76573Y79800D01*
X76782Y79640D01*
X77025Y79539D01*
X77286Y79504D01*
X77547Y79539D01*
X77790Y79640D01*
X77999Y79800D01*
X78160Y80009D01*
X78260Y80252D01*
X78295Y80513D01*
X78260Y80774D01*
X78160Y81017D01*
X77999Y81226D01*
X77790Y81386D01*
X77547Y81487D01*
X77286Y81522D01*
X77025Y81487D01*
X76782Y81386D01*
X76573Y81226D01*
X76412Y81017D01*
X76351Y80870D01*
X76205D01*
Y81023D01*
X74190D01*
X74152Y81115D01*
X76196Y83159D01*
X76286Y83115D01*
X76277Y83053D01*
X76312Y82792D01*
X76412Y82549D01*
X76573Y82340D01*
X76782Y82179D01*
X77025Y82079D01*
X77286Y82044D01*
X77547Y82079D01*
X77790Y82179D01*
X77999Y82340D01*
X78160Y82549D01*
X78260Y82792D01*
X78295Y83053D01*
X78260Y83314D01*
X78160Y83557D01*
X77999Y83766D01*
X77790Y83926D01*
X77547Y84027D01*
X77286Y84062D01*
X77224Y84053D01*
X77180Y84143D01*
X78391Y85354D01*
X78391Y85354D01*
X78446Y85438D01*
X78474Y85479D01*
X78503Y85626D01*
X78503Y85626D01*
Y90748D01*
X80182Y92427D01*
X80278Y92388D01*
D02*
G37*
G36*
X138669Y108854D02*
X138880Y108837D01*
X139312Y108733D01*
X139705Y108571D01*
X139705D01*
X139705Y108571D01*
X139721Y108564D01*
X140100Y108332D01*
X140429Y108050D01*
X140559Y107882D01*
X140636Y107695D01*
X140660Y107513D01*
X140656Y107494D01*
X140656Y107476D01*
X140656Y107476D01*
X140656Y107474D01*
X140650Y104710D01*
X140651Y104705D01*
X140651Y104704D01*
X140653Y104690D01*
X140653Y104672D01*
X140653Y104666D01*
X140664Y104637D01*
X140670Y104606D01*
X140680Y104590D01*
X140687Y104573D01*
X140708Y104549D01*
X140725Y104523D01*
X140741Y104513D01*
X140753Y104499D01*
X140782Y104485D01*
X140808Y104468D01*
X140813Y104466D01*
X140830Y104462D01*
X140843Y104456D01*
X140844Y104456D01*
X140849Y104454D01*
X140900Y104441D01*
X140941Y104350D01*
X140935Y104339D01*
X140792Y103868D01*
X140744Y103378D01*
X140792Y102888D01*
X140935Y102417D01*
X141167Y101982D01*
X141480Y101602D01*
X141860Y101289D01*
X142295Y101057D01*
X142766Y100914D01*
X143256Y100866D01*
X143746Y100914D01*
X144217Y101057D01*
X144225Y101061D01*
X144316Y101021D01*
X144330Y100969D01*
X144332Y100964D01*
X144332Y100963D01*
X144338Y100950D01*
X144342Y100932D01*
X144344Y100927D01*
X144361Y100902D01*
X144375Y100874D01*
X144389Y100861D01*
X144400Y100845D01*
X144425Y100828D01*
X144449Y100807D01*
X144467Y100801D01*
X144483Y100790D01*
X144513Y100784D01*
X144542Y100774D01*
X144548Y100773D01*
X144566Y100774D01*
X144580Y100771D01*
X144581Y100771D01*
X144586Y100771D01*
X144965Y100773D01*
X145447Y100775D01*
X145678Y100753D01*
X145907Y100730D01*
X146338Y100599D01*
X146735Y100387D01*
X147058Y100122D01*
X147066Y100109D01*
X147083Y100092D01*
X147084Y100091D01*
X147085Y100091D01*
X147088Y100086D01*
X147088Y100086D01*
X147088Y100086D01*
X147099Y100070D01*
X147926Y99255D01*
X148059Y99082D01*
X148136Y98895D01*
X148152Y98774D01*
Y98774D01*
X148165Y98677D01*
X148163Y97649D01*
X141839D01*
X141790Y97713D01*
X141550Y97898D01*
X141270Y98013D01*
X140970Y98053D01*
X139430D01*
X139130Y98013D01*
X138850Y97898D01*
X138610Y97713D01*
X138425Y97473D01*
X138310Y97193D01*
X138270Y96893D01*
X138310Y96593D01*
X138425Y96313D01*
X138610Y96073D01*
X138850Y95888D01*
X139130Y95773D01*
X139430Y95733D01*
X140970D01*
X141270Y95773D01*
X141550Y95888D01*
X141790Y96073D01*
X141839Y96137D01*
X148090D01*
X148160Y96066D01*
X148157Y94576D01*
X148158Y94575D01*
X148157Y94575D01*
Y94575D01*
X148157Y94575D01*
X148157Y94575D01*
X148158Y93185D01*
X148066Y93147D01*
X147735Y93477D01*
X147650Y93534D01*
Y93925D01*
X146150D01*
Y92525D01*
X147650D01*
X147650Y92525D01*
Y92525D01*
X147670Y92533D01*
X147768Y92435D01*
Y88560D01*
X147487Y88279D01*
X147431Y88271D01*
X147273Y88206D01*
X147137Y88102D01*
X147033Y87966D01*
X146968Y87808D01*
X146945Y87638D01*
X146968Y87468D01*
X147033Y87310D01*
X147126Y87190D01*
X147081Y87100D01*
X146730D01*
X146702Y87127D01*
X146587Y87205D01*
X146450Y87232D01*
X146109D01*
Y87475D01*
X146074Y87651D01*
X145974Y87799D01*
X145874Y87867D01*
X145874Y87936D01*
Y87936D01*
D01*
D01*
D01*
X145874Y87968D01*
X145874D01*
X145874Y87968D01*
Y88875D01*
X143476D01*
Y88000D01*
X143476Y88000D01*
X143476Y88000D01*
X143476Y87936D01*
X143469Y87929D01*
X143246D01*
Y86975D01*
X143700D01*
Y86875D01*
X143800D01*
Y85821D01*
X143843D01*
X143899Y85738D01*
X143878Y85688D01*
X143855Y85518D01*
X143878Y85348D01*
X143915Y85258D01*
X143860Y85175D01*
X142859D01*
X141103Y86930D01*
X140988Y87008D01*
X140851Y87035D01*
X138901D01*
X138764Y87008D01*
X138648Y86930D01*
X138632Y86914D01*
X138537Y86946D01*
X138517Y87098D01*
X138411Y87355D01*
X138242Y87575D01*
X138022Y87744D01*
X137765Y87850D01*
X137590Y87873D01*
Y86823D01*
X137390D01*
Y87873D01*
X137215Y87850D01*
X136958Y87744D01*
X136837Y87650D01*
X136747Y87694D01*
Y87705D01*
X136720Y87841D01*
X136642Y87957D01*
X135747Y88852D01*
X135631Y88930D01*
X135504Y88955D01*
Y89000D01*
X134650D01*
Y89200D01*
X135504D01*
Y89240D01*
X135505Y89240D01*
X135529Y89245D01*
X135654Y89328D01*
X135962Y89636D01*
X136396D01*
X136462Y89561D01*
X136431Y89323D01*
X136467Y89049D01*
X136573Y88793D01*
X136741Y88574D01*
X136960Y88406D01*
X137216Y88300D01*
X137490Y88264D01*
X137764Y88300D01*
X138020Y88406D01*
X138239Y88574D01*
X138407Y88793D01*
X138513Y89049D01*
X138549Y89323D01*
X138513Y89597D01*
X138407Y89853D01*
X138239Y90072D01*
X138020Y90240D01*
X137940Y90273D01*
Y90373D01*
X138020Y90406D01*
X138239Y90574D01*
X138407Y90793D01*
X138513Y91049D01*
X138549Y91323D01*
X138513Y91597D01*
X138407Y91853D01*
X138239Y92072D01*
X138020Y92240D01*
X137764Y92346D01*
X137490Y92382D01*
X137216Y92346D01*
X136960Y92240D01*
X136741Y92072D01*
X136573Y91853D01*
X136467Y91597D01*
X136431Y91323D01*
X136467Y91049D01*
X136511Y90942D01*
X136456Y90859D01*
X135615D01*
X135615Y90859D01*
X135468Y90830D01*
X135426Y90802D01*
X135343Y90747D01*
X135343Y90747D01*
X135081Y90484D01*
X134650D01*
X134603Y90475D01*
X134403D01*
X134365Y90567D01*
X134863Y91066D01*
X134941Y91181D01*
X134968Y91318D01*
Y93918D01*
X134941Y94055D01*
X134863Y94170D01*
X133863Y95170D01*
X133748Y95248D01*
X133611Y95275D01*
X122259D01*
X121549Y95985D01*
X121567Y96118D01*
X121544Y96288D01*
X121479Y96446D01*
X121375Y96582D01*
X121239Y96686D01*
X121081Y96751D01*
X120911Y96774D01*
X120741Y96751D01*
X120583Y96686D01*
X120447Y96582D01*
X120343Y96446D01*
X120278Y96288D01*
X120255Y96118D01*
X120278Y95948D01*
X120343Y95790D01*
X120434Y95671D01*
X120404Y95610D01*
X120358Y95587D01*
X120229Y95686D01*
X120071Y95751D01*
X119901Y95774D01*
X119731Y95751D01*
X119573Y95686D01*
X119437Y95582D01*
X119333Y95446D01*
X119268Y95288D01*
X119245Y95118D01*
X119268Y94948D01*
X119333Y94790D01*
X119437Y94654D01*
X119447Y94647D01*
X119447Y94582D01*
X119367Y94477D01*
X119268Y94464D01*
X119239Y94486D01*
X119081Y94551D01*
X118911Y94574D01*
X118741Y94551D01*
X118583Y94486D01*
X118447Y94382D01*
X118343Y94246D01*
X118278Y94088D01*
X118255Y93918D01*
X118278Y93748D01*
X118320Y93646D01*
X118301Y93601D01*
X118265Y93553D01*
X118111Y93574D01*
X117941Y93551D01*
X117783Y93486D01*
X117647Y93382D01*
X117543Y93246D01*
X117478Y93088D01*
X117455Y92918D01*
X117478Y92748D01*
X117543Y92590D01*
X117647Y92454D01*
X117783Y92350D01*
X117941Y92285D01*
X118111Y92262D01*
X118281Y92285D01*
X118439Y92350D01*
X118575Y92454D01*
X118656Y92561D01*
X123063D01*
X125166Y90458D01*
X125134Y90363D01*
X125041Y90351D01*
X124883Y90286D01*
X124747Y90182D01*
X124643Y90046D01*
X124578Y89888D01*
X124555Y89718D01*
X124578Y89548D01*
X124643Y89390D01*
X124747Y89254D01*
X124883Y89150D01*
X125041Y89085D01*
X125211Y89062D01*
X125344Y89080D01*
X127577Y86848D01*
X127692Y86770D01*
X127829Y86743D01*
X128800D01*
Y86725D01*
Y86457D01*
X127793D01*
X127656Y86430D01*
X127541Y86352D01*
X124463Y83275D01*
X119927D01*
X119790Y83248D01*
X119675Y83170D01*
X105379Y68875D01*
X91356D01*
X91275Y68982D01*
X91139Y69086D01*
X91048Y69123D01*
X91029Y69221D01*
X91169Y69361D01*
X104466D01*
X104547Y69254D01*
X104683Y69150D01*
X104841Y69085D01*
X105011Y69062D01*
X105181Y69085D01*
X105339Y69150D01*
X105475Y69254D01*
X105579Y69390D01*
X105644Y69548D01*
X105667Y69718D01*
X105644Y69888D01*
X105579Y70046D01*
X105475Y70182D01*
X105339Y70286D01*
X105181Y70351D01*
X105011Y70374D01*
X104841Y70351D01*
X104683Y70286D01*
X104547Y70182D01*
X104466Y70075D01*
X91021D01*
X90884Y70048D01*
X90769Y69970D01*
X88430Y67632D01*
X88353Y67516D01*
X88326Y67380D01*
Y64632D01*
X88326Y64632D01*
X88326D01*
X88353Y64495D01*
X88430Y64379D01*
X88821Y63989D01*
X88803Y63856D01*
X88826Y63686D01*
X88891Y63528D01*
X88995Y63392D01*
X89131Y63288D01*
X89235Y63245D01*
X89255Y63147D01*
X87438Y61330D01*
X85466D01*
X85329Y61303D01*
X85214Y61225D01*
X84918Y60930D01*
X84418D01*
X84281Y60903D01*
X84239Y60875D01*
X84211D01*
X84074Y60848D01*
X83959Y60770D01*
X83359Y60170D01*
X83356Y60166D01*
X83260Y60195D01*
Y60527D01*
X82396D01*
Y59563D01*
Y58599D01*
X83254D01*
Y58248D01*
X83281Y58111D01*
X83359Y57996D01*
X83953Y57401D01*
X83901Y57274D01*
X83868Y57023D01*
X83901Y56772D01*
X83997Y56539D01*
X84151Y56338D01*
X84352Y56184D01*
X84585Y56088D01*
X84836Y56055D01*
X85087Y56088D01*
X85320Y56184D01*
X85521Y56338D01*
X85675Y56539D01*
X85771Y56772D01*
X85804Y57023D01*
X85771Y57274D01*
X85675Y57507D01*
X85521Y57708D01*
X85320Y57862D01*
X85087Y57958D01*
X84836Y57991D01*
X84585Y57958D01*
X84458Y57906D01*
X83968Y58396D01*
Y58962D01*
X84063Y58994D01*
X84151Y58878D01*
X84352Y58724D01*
X84585Y58628D01*
X84836Y58595D01*
X85087Y58628D01*
X85320Y58724D01*
X85521Y58878D01*
X85675Y59079D01*
X85771Y59312D01*
X85804Y59563D01*
X85771Y59814D01*
X85675Y60047D01*
X85662Y60064D01*
X85814Y60216D01*
X86554D01*
X86598Y60126D01*
X86537Y60047D01*
X86441Y59814D01*
X86408Y59563D01*
X86441Y59312D01*
X86537Y59079D01*
X86691Y58878D01*
X86892Y58724D01*
X87125Y58628D01*
X87376Y58595D01*
X87627Y58628D01*
X87860Y58724D01*
X88061Y58878D01*
X88215Y59079D01*
X88311Y59312D01*
X88344Y59563D01*
X88311Y59814D01*
X88259Y59941D01*
X91062Y62744D01*
X91156Y62712D01*
X91178Y62548D01*
X91243Y62390D01*
X91347Y62254D01*
X91483Y62150D01*
X91641Y62085D01*
X91811Y62062D01*
X91981Y62085D01*
X92139Y62150D01*
X92275Y62254D01*
X92278Y62259D01*
X97421D01*
X98352Y61328D01*
Y60232D01*
X98257Y60200D01*
X98221Y60248D01*
X98020Y60402D01*
X97787Y60498D01*
X97536Y60531D01*
X97285Y60498D01*
X97052Y60402D01*
X96851Y60248D01*
X96697Y60047D01*
X96601Y59814D01*
X96568Y59563D01*
X96601Y59312D01*
X96697Y59079D01*
X96851Y58878D01*
X97052Y58724D01*
X97285Y58628D01*
X97536Y58595D01*
X97787Y58628D01*
X98020Y58724D01*
X98221Y58878D01*
X98289Y58968D01*
X98387Y58945D01*
X98387Y58942D01*
X98487Y58794D01*
X99287Y57994D01*
X99435Y57894D01*
X99475Y57886D01*
X99497Y57789D01*
X99391Y57708D01*
X99237Y57507D01*
X99141Y57274D01*
X99108Y57023D01*
X99141Y56772D01*
X99237Y56539D01*
X99391Y56338D01*
X99592Y56184D01*
X99825Y56088D01*
X100076Y56055D01*
X100327Y56088D01*
X100560Y56184D01*
X100761Y56338D01*
X100915Y56539D01*
X101011Y56772D01*
X101044Y57023D01*
X101011Y57274D01*
X100915Y57507D01*
X100761Y57708D01*
X100687Y57764D01*
X100719Y57859D01*
X100944D01*
X100947Y57854D01*
X101083Y57750D01*
X101241Y57685D01*
X101411Y57662D01*
X101581Y57685D01*
X101739Y57750D01*
X101875Y57854D01*
X101979Y57990D01*
X102044Y58148D01*
X102067Y58318D01*
X102044Y58488D01*
X101979Y58646D01*
X101875Y58782D01*
X101739Y58886D01*
X101581Y58951D01*
X101411Y58974D01*
X101241Y58951D01*
X101083Y58886D01*
X100947Y58782D01*
X100944Y58777D01*
X100784D01*
X100752Y58872D01*
X100761Y58878D01*
X100915Y59079D01*
X101011Y59312D01*
X101044Y59563D01*
X101011Y59814D01*
X100915Y60047D01*
X100761Y60248D01*
X100560Y60402D01*
X100327Y60498D01*
X100076Y60531D01*
X99825Y60498D01*
X99592Y60402D01*
X99391Y60248D01*
X99365Y60213D01*
X99270Y60245D01*
Y61518D01*
X99235Y61694D01*
X99135Y61842D01*
X97935Y63042D01*
X97901Y63065D01*
X97930Y63161D01*
X103355D01*
X103492Y63188D01*
X103608Y63266D01*
X110797Y70455D01*
X110889Y70416D01*
Y60385D01*
X110799Y60341D01*
X110720Y60402D01*
X110593Y60454D01*
Y63093D01*
X110566Y63230D01*
X110488Y63345D01*
X110049Y63785D01*
X110067Y63918D01*
X110044Y64088D01*
X109979Y64246D01*
X109875Y64382D01*
X109739Y64486D01*
X109581Y64551D01*
X109411Y64574D01*
X109326Y64562D01*
X109255Y64633D01*
X109267Y64718D01*
X109244Y64888D01*
X109179Y65046D01*
X109075Y65182D01*
X108939Y65286D01*
X108781Y65351D01*
X108688Y65363D01*
X108656Y65458D01*
X109007Y65809D01*
X109083Y65750D01*
X109241Y65685D01*
X109411Y65662D01*
X109581Y65685D01*
X109739Y65750D01*
X109875Y65854D01*
X109979Y65990D01*
X110044Y66148D01*
X110067Y66318D01*
X110044Y66488D01*
X109979Y66646D01*
X109875Y66782D01*
X109739Y66886D01*
X109581Y66951D01*
X109411Y66974D01*
X109241Y66951D01*
X109083Y66886D01*
X108947Y66782D01*
X108843Y66646D01*
X108832Y66620D01*
X108759Y66570D01*
X107444Y65255D01*
X107366Y65140D01*
X107339Y65003D01*
Y64915D01*
X107241Y64895D01*
X107179Y65046D01*
X107075Y65182D01*
X106939Y65286D01*
X106781Y65351D01*
X106611Y65374D01*
X106441Y65351D01*
X106283Y65286D01*
X106147Y65182D01*
X106043Y65046D01*
X105978Y64888D01*
X105955Y64718D01*
X105973Y64585D01*
X103759Y62370D01*
X103681Y62255D01*
X103654Y62118D01*
Y59797D01*
X103554Y59790D01*
X103551Y59814D01*
X103455Y60047D01*
X103301Y60248D01*
X103100Y60402D01*
X102867Y60498D01*
X102616Y60531D01*
X102365Y60498D01*
X102132Y60402D01*
X101931Y60248D01*
X101777Y60047D01*
X101681Y59814D01*
X101648Y59563D01*
X101681Y59312D01*
X101777Y59079D01*
X101931Y58878D01*
X102132Y58724D01*
X102365Y58628D01*
X102616Y58595D01*
X102867Y58628D01*
X103100Y58724D01*
X103301Y58878D01*
X103455Y59079D01*
X103551Y59312D01*
X103554Y59336D01*
X103654Y59329D01*
Y58566D01*
X102994Y57906D01*
X102867Y57958D01*
X102616Y57991D01*
X102365Y57958D01*
X102132Y57862D01*
X101931Y57708D01*
X101777Y57507D01*
X101681Y57274D01*
X101648Y57023D01*
X101681Y56772D01*
X101777Y56539D01*
X101931Y56338D01*
X102132Y56184D01*
X102365Y56088D01*
X102616Y56055D01*
X102867Y56088D01*
X103100Y56184D01*
X103301Y56338D01*
X103455Y56539D01*
X103551Y56772D01*
X103584Y57023D01*
X103551Y57274D01*
X103499Y57401D01*
X104263Y58166D01*
X104341Y58281D01*
X104368Y58418D01*
Y58858D01*
X104463Y58890D01*
X104471Y58878D01*
X104672Y58724D01*
X104905Y58628D01*
X105156Y58595D01*
X105407Y58628D01*
X105640Y58724D01*
X105841Y58878D01*
X105995Y59079D01*
X106091Y59312D01*
X106124Y59563D01*
X106091Y59814D01*
X105995Y60047D01*
X105841Y60248D01*
X105640Y60402D01*
X105407Y60498D01*
X105156Y60531D01*
X104905Y60498D01*
X104672Y60402D01*
X104471Y60248D01*
X104463Y60236D01*
X104368Y60268D01*
Y61970D01*
X106478Y64080D01*
X106611Y64062D01*
X106781Y64085D01*
X106939Y64150D01*
X107075Y64254D01*
X107179Y64390D01*
X107241Y64541D01*
X107339Y64521D01*
Y63315D01*
X107241Y63295D01*
X107179Y63446D01*
X107075Y63582D01*
X106939Y63686D01*
X106781Y63751D01*
X106611Y63774D01*
X106441Y63751D01*
X106283Y63686D01*
X106147Y63582D01*
X106043Y63446D01*
X105978Y63288D01*
X105955Y63118D01*
X105978Y62948D01*
X106043Y62790D01*
X106147Y62654D01*
X106254Y62573D01*
Y58626D01*
X105534Y57906D01*
X105407Y57958D01*
X105156Y57991D01*
X104905Y57958D01*
X104672Y57862D01*
X104471Y57708D01*
X104317Y57507D01*
X104221Y57274D01*
X104188Y57023D01*
X104221Y56772D01*
X104317Y56539D01*
X104471Y56338D01*
X104672Y56184D01*
X104905Y56088D01*
X105156Y56055D01*
X105407Y56088D01*
X105640Y56184D01*
X105841Y56338D01*
X105995Y56539D01*
X106091Y56772D01*
X106124Y57023D01*
X106091Y57274D01*
X106039Y57401D01*
X106863Y58226D01*
X106941Y58341D01*
X106968Y58478D01*
Y58799D01*
X107058Y58843D01*
X107212Y58724D01*
X107445Y58628D01*
X107696Y58595D01*
X107947Y58628D01*
X108180Y58724D01*
X108381Y58878D01*
X108535Y59079D01*
X108556Y59131D01*
X108654Y59111D01*
Y58486D01*
X108074Y57906D01*
X107947Y57958D01*
X107696Y57991D01*
X107445Y57958D01*
X107212Y57862D01*
X107011Y57708D01*
X106857Y57507D01*
X106761Y57274D01*
X106728Y57023D01*
X106761Y56772D01*
X106857Y56539D01*
X107011Y56338D01*
X107212Y56184D01*
X107445Y56088D01*
X107696Y56055D01*
X107947Y56088D01*
X108180Y56184D01*
X108381Y56338D01*
X108535Y56539D01*
X108631Y56772D01*
X108664Y57023D01*
X108631Y57274D01*
X108579Y57401D01*
X109263Y58086D01*
X109341Y58201D01*
X109368Y58338D01*
X109368Y58338D01*
X109368Y58338D01*
Y58338D01*
Y58962D01*
X109463Y58994D01*
X109551Y58878D01*
X109752Y58724D01*
X109985Y58628D01*
X110236Y58595D01*
X110487Y58628D01*
X110720Y58724D01*
X110799Y58785D01*
X110889Y58741D01*
Y58181D01*
X110614Y57906D01*
X110487Y57958D01*
X110236Y57991D01*
X109985Y57958D01*
X109752Y57862D01*
X109551Y57708D01*
X109397Y57507D01*
X109301Y57274D01*
X109268Y57023D01*
X109301Y56772D01*
X109397Y56539D01*
X109551Y56338D01*
X109752Y56184D01*
X109985Y56088D01*
X110236Y56055D01*
X110487Y56088D01*
X110720Y56184D01*
X110921Y56338D01*
X111075Y56539D01*
X111171Y56772D01*
X111204Y57023D01*
X111171Y57274D01*
X111119Y57401D01*
X111498Y57781D01*
X111512Y57782D01*
X111893Y57401D01*
X111841Y57274D01*
X111808Y57023D01*
X111841Y56772D01*
X111937Y56539D01*
X112091Y56338D01*
X112292Y56184D01*
X112525Y56088D01*
X112776Y56055D01*
X113027Y56088D01*
X113260Y56184D01*
X113461Y56338D01*
X113615Y56539D01*
X113711Y56772D01*
X113744Y57023D01*
X113711Y57274D01*
X113615Y57507D01*
X113461Y57708D01*
X113260Y57862D01*
X113027Y57958D01*
X112776Y57991D01*
X112525Y57958D01*
X112398Y57906D01*
X112003Y58301D01*
Y58833D01*
X112093Y58877D01*
X112292Y58724D01*
X112525Y58628D01*
X112776Y58595D01*
X113027Y58628D01*
X113260Y58724D01*
X113461Y58878D01*
X113615Y59079D01*
X113711Y59312D01*
X113744Y59563D01*
X113711Y59814D01*
X113659Y59941D01*
X113762Y60044D01*
X113854Y60006D01*
Y58128D01*
X113854Y58128D01*
X113854D01*
X113881Y57991D01*
X113959Y57876D01*
X114433Y57401D01*
X114381Y57274D01*
X114348Y57023D01*
X114381Y56772D01*
X114477Y56539D01*
X114631Y56338D01*
X114832Y56184D01*
X115065Y56088D01*
X115316Y56055D01*
X115567Y56088D01*
X115800Y56184D01*
X116001Y56338D01*
X116155Y56539D01*
X116251Y56772D01*
X116284Y57023D01*
X116251Y57274D01*
X116155Y57507D01*
X116001Y57708D01*
X115800Y57862D01*
X115567Y57958D01*
X115316Y57991D01*
X115065Y57958D01*
X114938Y57906D01*
X114568Y58276D01*
Y58814D01*
X114658Y58858D01*
X114832Y58724D01*
X115065Y58628D01*
X115316Y58595D01*
X115567Y58628D01*
X115800Y58724D01*
X116001Y58878D01*
X116155Y59079D01*
X116251Y59312D01*
X116284Y59563D01*
X116251Y59814D01*
X116155Y60047D01*
X116001Y60248D01*
X115800Y60402D01*
X115673Y60454D01*
Y60824D01*
X118362Y63513D01*
X118454Y63474D01*
Y60666D01*
X118234Y60446D01*
X118107Y60498D01*
X117856Y60531D01*
X117605Y60498D01*
X117372Y60402D01*
X117171Y60248D01*
X117017Y60047D01*
X116921Y59814D01*
X116888Y59563D01*
X116921Y59312D01*
X117017Y59079D01*
X117171Y58878D01*
X117372Y58724D01*
X117605Y58628D01*
X117856Y58595D01*
X118107Y58628D01*
X118340Y58724D01*
X118541Y58878D01*
X118695Y59079D01*
X118756Y59227D01*
X118854Y59208D01*
Y58526D01*
X118234Y57906D01*
X118107Y57958D01*
X117856Y57991D01*
X117605Y57958D01*
X117372Y57862D01*
X117171Y57708D01*
X117017Y57507D01*
X116921Y57274D01*
X116888Y57023D01*
X116921Y56772D01*
X117017Y56539D01*
X117171Y56338D01*
X117372Y56184D01*
X117605Y56088D01*
X117856Y56055D01*
X118107Y56088D01*
X118340Y56184D01*
X118541Y56338D01*
X118695Y56539D01*
X118791Y56772D01*
X118824Y57023D01*
X118791Y57274D01*
X118739Y57401D01*
X119463Y58126D01*
X119541Y58241D01*
X119568Y58378D01*
Y58910D01*
X119663Y58942D01*
X119711Y58878D01*
X119912Y58724D01*
X120145Y58628D01*
X120396Y58595D01*
X120647Y58628D01*
X120880Y58724D01*
X121081Y58878D01*
X121235Y59079D01*
X121331Y59312D01*
X121364Y59563D01*
X121331Y59814D01*
X121235Y60047D01*
X121081Y60248D01*
X120880Y60402D01*
X120647Y60498D01*
X120396Y60531D01*
X120145Y60498D01*
X119912Y60402D01*
X119711Y60248D01*
X119663Y60184D01*
X119568Y60216D01*
Y63587D01*
X126463Y70483D01*
X126541Y70599D01*
X126568Y70735D01*
X126568Y70735D01*
X126568Y70735D01*
Y70735D01*
Y74760D01*
X127551Y75743D01*
X128800D01*
Y75725D01*
Y75225D01*
Y74725D01*
Y74457D01*
X128593D01*
X128456Y74430D01*
X128341Y74352D01*
X127959Y73970D01*
X127881Y73855D01*
X127854Y73718D01*
Y69887D01*
X127881Y69750D01*
X127959Y69634D01*
X130954Y66639D01*
Y60527D01*
X130871Y60472D01*
X130807Y60498D01*
X130556Y60531D01*
X130305Y60498D01*
X130072Y60402D01*
X129871Y60248D01*
X129717Y60047D01*
X129621Y59814D01*
X129588Y59563D01*
X129621Y59312D01*
X129717Y59079D01*
X129871Y58878D01*
X130072Y58724D01*
X130305Y58628D01*
X130556Y58595D01*
X130807Y58628D01*
X131040Y58724D01*
X131164Y58820D01*
X131254Y58776D01*
Y57810D01*
X131164Y57766D01*
X131040Y57862D01*
X130807Y57958D01*
X130556Y57991D01*
X130305Y57958D01*
X130072Y57862D01*
X129871Y57708D01*
X129717Y57507D01*
X129621Y57274D01*
X129588Y57023D01*
X129621Y56772D01*
X129717Y56539D01*
X129871Y56338D01*
X130072Y56184D01*
X130305Y56088D01*
X130556Y56055D01*
X130807Y56088D01*
X131040Y56184D01*
X131241Y56338D01*
X131301Y56417D01*
X131401Y56424D01*
X131814Y56010D01*
X131776Y55918D01*
X80954D01*
X80793Y55967D01*
X80793Y55967D01*
X80760Y55977D01*
X80507Y56112D01*
X80288Y56292D01*
X80215Y56386D01*
X80163Y56454D01*
X80124Y56548D01*
X80124Y56548D01*
X80086Y56641D01*
X80062Y56822D01*
X80066Y56841D01*
X80066Y56860D01*
X80066Y56860D01*
X80066Y56861D01*
X80069Y57530D01*
X80068Y57535D01*
X80068Y57535D01*
X80068Y57549D01*
X80065Y57569D01*
X80065Y57580D01*
X80064Y57585D01*
X80062Y57589D01*
X80061Y57612D01*
X80053Y57629D01*
X80049Y57647D01*
X80032Y57673D01*
X80019Y57702D01*
X80005Y57714D01*
X79995Y57730D01*
X79968Y57748D01*
X79945Y57769D01*
X79928Y57775D01*
X79912Y57786D01*
X79890Y57790D01*
X79886Y57792D01*
X79881Y57794D01*
X79870Y57796D01*
X79852Y57803D01*
X79838Y57805D01*
X79833Y57806D01*
X79821Y57808D01*
X79765Y57825D01*
X79683Y57833D01*
X79728Y58293D01*
X79680Y58783D01*
X79537Y59254D01*
X79305Y59689D01*
X78992Y60069D01*
X78612Y60382D01*
X78177Y60614D01*
X77706Y60757D01*
X77216Y60805D01*
X76726Y60757D01*
X76255Y60614D01*
X75820Y60382D01*
X75440Y60069D01*
X75127Y59689D01*
X74895Y59254D01*
X74752Y58783D01*
X74704Y58293D01*
X74686Y58273D01*
X73126Y58271D01*
X72151Y58270D01*
X72088Y58334D01*
X72080Y58369D01*
Y60074D01*
X68080D01*
D01*
X68080Y60074D01*
X68080D01*
Y60074D01*
D01*
X66289D01*
Y67324D01*
X68080D01*
D01*
X68080Y67324D01*
X68080Y67324D01*
X68080D01*
Y67324D01*
Y67324D01*
X71925D01*
X71987Y67283D01*
X72084Y67263D01*
X72411D01*
X72509Y67283D01*
X72591Y67338D01*
X75691Y70438D01*
X75746Y70520D01*
X75755Y70561D01*
X75854Y70552D01*
Y68718D01*
X75854Y68718D01*
X75854D01*
X75881Y68581D01*
X75959Y68466D01*
X76854Y67570D01*
Y66966D01*
X76663Y66775D01*
X76311D01*
X76184Y66750D01*
X76181Y66751D01*
X76011Y66774D01*
X75841Y66751D01*
X75683Y66686D01*
X75631Y66646D01*
X75601Y66660D01*
X74930D01*
Y66100D01*
X75358D01*
X75373Y65985D01*
X75230Y65842D01*
X74123D01*
Y65656D01*
X71480D01*
Y65799D01*
X68680D01*
Y64799D01*
Y63999D01*
Y63199D01*
Y62603D01*
X68676D01*
Y62199D01*
X71484D01*
Y62542D01*
X72513D01*
X72874Y62181D01*
X72990Y62104D01*
X73127Y62076D01*
X76331D01*
X76347Y62054D01*
X76483Y61950D01*
X76641Y61885D01*
X76811Y61862D01*
X76981Y61885D01*
X77139Y61950D01*
X77275Y62054D01*
X77379Y62190D01*
X77444Y62348D01*
X77467Y62518D01*
X77444Y62688D01*
X77402Y62790D01*
X77457Y62873D01*
X77630D01*
Y62959D01*
X77651Y62963D01*
X77676Y62968D01*
X77801Y63051D01*
X77835Y63086D01*
X78663D01*
X78663Y63086D01*
X78786Y63110D01*
X78810Y63115D01*
X78935Y63198D01*
X79791Y64054D01*
X79791Y64054D01*
X79874Y64179D01*
X79879Y64203D01*
X79903Y64326D01*
X79903Y64326D01*
Y65810D01*
X79874Y65957D01*
X79791Y66082D01*
X79791Y66082D01*
X78795Y67077D01*
Y70418D01*
X79693D01*
X79759Y70343D01*
X79755Y70318D01*
X79778Y70148D01*
X79843Y69990D01*
X79947Y69854D01*
X80083Y69750D01*
X80241Y69685D01*
X80411Y69662D01*
X80581Y69685D01*
X80739Y69750D01*
X80875Y69854D01*
X80979Y69990D01*
X81044Y70148D01*
X81067Y70318D01*
X81044Y70488D01*
X80979Y70646D01*
X80875Y70782D01*
X81943Y71850D01*
X83676D01*
X83720Y71631D01*
X83844Y71444D01*
X84031Y71320D01*
X84250Y71276D01*
X84469Y71320D01*
X84656Y71444D01*
X84780Y71631D01*
X84800Y71734D01*
X84900Y71724D01*
Y69875D01*
X87400D01*
Y71825D01*
X84900D01*
X84900Y71825D01*
Y71825D01*
X84831Y71839D01*
X84824Y71850D01*
D01*
X84780Y72069D01*
X84754Y72108D01*
X84774Y72206D01*
X84863Y72266D01*
X84863Y72266D01*
X84863Y72266D01*
X85863Y73266D01*
X85941Y73381D01*
X85968Y73518D01*
X85968Y73518D01*
X85968Y73518D01*
Y73518D01*
Y80288D01*
X85941Y80425D01*
X85863Y80541D01*
X84811Y81593D01*
X84855Y81683D01*
X85011Y81662D01*
X85181Y81685D01*
X85339Y81750D01*
X85475Y81854D01*
X85579Y81990D01*
X85644Y82148D01*
X85667Y82318D01*
X85644Y82488D01*
X85579Y82646D01*
X85475Y82782D01*
X85339Y82886D01*
X85181Y82951D01*
X85011Y82974D01*
X84841Y82951D01*
X84683Y82886D01*
X84594Y82817D01*
X84504Y82861D01*
Y83000D01*
X83650D01*
Y83200D01*
X84504D01*
Y83479D01*
X84500D01*
Y83725D01*
Y83994D01*
X84592Y84032D01*
X85859Y82766D01*
X85974Y82688D01*
X86111Y82661D01*
X86814D01*
X86843Y82590D01*
X86947Y82454D01*
X87083Y82350D01*
X87241Y82285D01*
X87411Y82262D01*
X87581Y82285D01*
X87717Y82341D01*
X87800Y82286D01*
Y82225D01*
Y81725D01*
Y81225D01*
Y80725D01*
Y80225D01*
Y79892D01*
X87741Y79852D01*
X87459Y79570D01*
X87381Y79455D01*
X87354Y79318D01*
Y75318D01*
X87381Y75181D01*
X87459Y75066D01*
X87475Y75049D01*
X87437Y74957D01*
X87294D01*
X87275Y74982D01*
X87139Y75086D01*
X86981Y75151D01*
X86811Y75174D01*
X86641Y75151D01*
X86483Y75086D01*
X86347Y74982D01*
X86243Y74846D01*
X86178Y74688D01*
X86155Y74518D01*
X86178Y74348D01*
X86243Y74190D01*
X86347Y74054D01*
X86483Y73950D01*
X86641Y73885D01*
X86811Y73862D01*
X86981Y73885D01*
X87139Y73950D01*
X87275Y74054D01*
X87379Y74190D01*
X87401Y74243D01*
X87800D01*
Y74225D01*
Y73979D01*
X87796D01*
Y73700D01*
X89504D01*
Y73761D01*
X89935D01*
X90035Y73694D01*
X90211Y73659D01*
X100811D01*
X100987Y73694D01*
X101135Y73794D01*
X102535Y75194D01*
X102635Y75342D01*
X102670Y75518D01*
Y75664D01*
X102759Y75708D01*
X102962Y75553D01*
X103203Y75453D01*
X103461Y75419D01*
X103719Y75453D01*
X103960Y75553D01*
X104167Y75712D01*
X104326Y75919D01*
X104426Y76160D01*
X104460Y76418D01*
X104426Y76676D01*
X104326Y76917D01*
X104167Y77124D01*
X103960Y77283D01*
X103719Y77383D01*
X103461Y77417D01*
X103203Y77383D01*
X102962Y77283D01*
X102759Y77128D01*
X102670Y77172D01*
Y77718D01*
X102670Y77718D01*
X102670Y77718D01*
Y77718D01*
X102670D01*
X102670Y77718D01*
X102635Y77894D01*
X102535Y78042D01*
X101870Y78708D01*
Y81928D01*
X118994Y99052D01*
X119093Y99201D01*
X119128Y99377D01*
X119128Y99377D01*
X119128Y99377D01*
Y99377D01*
Y99678D01*
X119181Y99685D01*
X119339Y99750D01*
X119475Y99854D01*
X119579Y99990D01*
X119644Y100148D01*
X119667Y100318D01*
X119644Y100488D01*
X119579Y100646D01*
X119559Y100671D01*
X119603Y100761D01*
X128411D01*
X128548Y100788D01*
X128663Y100866D01*
X128663Y100866D01*
X128663Y100866D01*
X132063Y104266D01*
X132141Y104381D01*
X132168Y104518D01*
X132168Y104518D01*
X132168Y104518D01*
Y104518D01*
Y104760D01*
X132263Y104792D01*
X132411Y104598D01*
X132612Y104444D01*
X132845Y104348D01*
X133096Y104315D01*
X133347Y104348D01*
X133580Y104444D01*
X133781Y104598D01*
X133935Y104799D01*
X134031Y105032D01*
X134064Y105283D01*
X134031Y105534D01*
X133935Y105767D01*
X133781Y105968D01*
X133580Y106122D01*
X133347Y106218D01*
X133311Y106223D01*
Y106883D01*
X133347Y106888D01*
X133580Y106984D01*
X133781Y107138D01*
X133935Y107339D01*
X134031Y107572D01*
X134064Y107823D01*
X134031Y108074D01*
X133935Y108307D01*
X133781Y108508D01*
X133580Y108662D01*
X133347Y108758D01*
X133243Y108772D01*
X133249Y108872D01*
X135455Y108872D01*
X135461Y108772D01*
X135384Y108762D01*
X135150Y108665D01*
X134948Y108511D01*
X134794Y108309D01*
X134697Y108075D01*
X134677Y107923D01*
X136595D01*
X136575Y108075D01*
X136478Y108309D01*
X136324Y108511D01*
X136122Y108665D01*
X135888Y108762D01*
X135810Y108772D01*
X135817Y108872D01*
X137998Y108873D01*
X138005Y108773D01*
X137924Y108762D01*
X137690Y108665D01*
X137488Y108511D01*
X137334Y108309D01*
X137237Y108075D01*
X137217Y107923D01*
X139135D01*
X139115Y108075D01*
X139018Y108309D01*
X138864Y108511D01*
X138662Y108665D01*
X138428Y108762D01*
X138347Y108773D01*
X138354Y108873D01*
X138428Y108873D01*
X138669Y108854D01*
D02*
G37*
G36*
X136389Y109496D02*
Y109496D01*
X136392Y109499D01*
X137391Y109455D01*
X138464Y109314D01*
X139521Y109080D01*
X140554Y108754D01*
X141554Y108340D01*
X142515Y107840D01*
X143428Y107258D01*
X144287Y106599D01*
X145085Y105867D01*
X145376Y105550D01*
X145372Y105518D01*
X145472Y105417D01*
X145499Y105416D01*
X145816Y105069D01*
X146476Y104210D01*
X147057Y103297D01*
X147557Y102337D01*
X147972Y101336D01*
X148297Y100304D01*
X148532Y99247D01*
X148673Y98173D01*
X148719Y97118D01*
X148714Y97092D01*
Y97010D01*
X148713Y97009D01*
X148714Y97008D01*
Y67605D01*
X148714Y67603D01*
X148674Y66682D01*
X148532Y65608D01*
X148298Y64550D01*
X147972Y63516D01*
X147557Y62515D01*
X147057Y61554D01*
X146475Y60640D01*
X145815Y59780D01*
X145083Y58981D01*
X144284Y58249D01*
X143424Y57589D01*
X142510Y57007D01*
X141549Y56506D01*
X140548Y56092D01*
X139514Y55766D01*
X138959Y55643D01*
X138934Y55739D01*
X139047Y55774D01*
X139424Y55975D01*
X139755Y56247D01*
X139905Y56412D01*
X139917Y56412D01*
X139917D01*
X139976Y56481D01*
X139976Y56481D01*
X140082Y56605D01*
X140175Y56714D01*
X140183Y56724D01*
Y56724D01*
X140196Y56739D01*
X140207Y56756D01*
D01*
X140216Y56771D01*
X140421Y57106D01*
X140428Y57124D01*
D01*
X140578Y57484D01*
Y57484D01*
X140585Y57503D01*
X140590Y57522D01*
Y57522D01*
X140681Y57901D01*
Y57901D01*
X140686Y57921D01*
X140687Y57941D01*
X140687Y57941D01*
X140719Y58339D01*
Y58339D01*
X140719Y58349D01*
X140719Y58360D01*
Y58360D01*
X140717Y59429D01*
X140715Y60508D01*
X140715Y60508D01*
X140714Y60519D01*
X140715Y60524D01*
Y60524D01*
X140715Y60524D01*
X140715Y60535D01*
X140716Y60537D01*
X140719Y60538D01*
X140730Y60540D01*
X140734Y60542D01*
X140745Y60543D01*
X140745Y60543D01*
X140803Y60552D01*
X140812Y60555D01*
X140822Y60555D01*
X140836Y60562D01*
X140927Y60520D01*
X140931Y60505D01*
X141164Y60070D01*
X141477Y59689D01*
X141858Y59376D01*
X142293Y59143D01*
X142765Y59000D01*
X143129Y58964D01*
Y61468D01*
X143256D01*
Y61595D01*
X145760D01*
X145724Y61959D01*
X145581Y62431D01*
X145348Y62866D01*
X145035Y63247D01*
X144654Y63560D01*
X144328Y63734D01*
X144320Y63743D01*
X144340Y63786D01*
X144361Y63827D01*
X144361Y63831D01*
X144362Y63833D01*
X144382Y63910D01*
X144387Y63922D01*
X144399Y63924D01*
X145808Y63920D01*
X146770Y63918D01*
Y63911D01*
X146823Y63922D01*
X146823D01*
X146823D01*
X146824Y63922D01*
X146824D01*
X146853Y63928D01*
X146853Y63928D01*
X146853D01*
X146853Y63928D01*
X146903Y63938D01*
X146945Y63966D01*
X146945Y63966D01*
X146945Y63966D01*
X146945Y63966D01*
X146945Y63966D01*
X146969Y63982D01*
X147016Y64013D01*
X147018Y64011D01*
X147049Y64046D01*
X147049Y64046D01*
X147362Y64403D01*
X147431Y64482D01*
X147441Y64496D01*
D01*
X147442Y64497D01*
X147458Y64522D01*
X147458Y64522D01*
X147721Y64916D01*
X147779Y65003D01*
X147997Y65443D01*
X147997Y65443D01*
X148049Y65550D01*
D01*
X148057Y65565D01*
X148062Y65581D01*
Y65581D01*
X148100Y65694D01*
Y65694D01*
X148100Y65694D01*
X148253Y66142D01*
Y66142D01*
X148258Y66158D01*
X148261Y66174D01*
X148261Y66174D01*
X148319Y66465D01*
X148327Y66506D01*
X148380Y66773D01*
X148414Y67288D01*
X148414Y67295D01*
X148421Y67390D01*
Y67390D01*
X148421Y67398D01*
X148421Y67406D01*
D01*
X148421Y68746D01*
X148414Y88215D01*
X148415Y88216D01*
X148455Y88275D01*
X148482Y88412D01*
Y92583D01*
X148455Y92720D01*
X148413Y92782D01*
X148413Y93185D01*
Y93185D01*
Y93185D01*
Y93186D01*
Y93186D01*
X148413Y93710D01*
X148412Y94576D01*
X148415Y96065D01*
X148415Y96065D01*
X148415Y96066D01*
X148412Y96082D01*
X148411Y97616D01*
X148418Y97649D01*
X148420Y98677D01*
X148420Y98677D01*
D01*
D01*
X148420Y98677D01*
X148420Y98694D01*
X148420D01*
X148418Y98710D01*
X148418Y98711D01*
X148409Y98773D01*
X148409Y98774D01*
X148405Y98807D01*
Y98807D01*
X148389Y98928D01*
X148389Y98928D01*
X148385Y98961D01*
X148372Y98992D01*
X148372Y98992D01*
X148294Y99179D01*
X148294Y99179D01*
X148281Y99210D01*
X148261Y99237D01*
D01*
X148214Y99299D01*
X148117Y99424D01*
X148105Y99437D01*
X148105Y99437D01*
X147280Y100249D01*
X147278Y100251D01*
X147268Y100266D01*
X147268Y100267D01*
X147267Y100267D01*
X147263Y100273D01*
X147263Y100282D01*
X147264Y100283D01*
X147096Y100421D01*
X146896Y100584D01*
X146896Y100584D01*
X146877Y100600D01*
X146436Y100836D01*
X146030Y100959D01*
X145981Y100974D01*
D01*
X145957Y100981D01*
X145932Y100984D01*
X145932D01*
X145837Y100993D01*
X145600Y101016D01*
X145472Y101029D01*
D01*
X145459Y101030D01*
X145446Y101030D01*
X145446D01*
X144963Y101028D01*
X144592Y101025D01*
X144580Y101027D01*
X144575Y101039D01*
X144564Y101083D01*
X144557Y101098D01*
X144554Y101113D01*
X144537Y101140D01*
X144556Y101212D01*
X144593Y101253D01*
X144593Y101253D01*
D01*
X144654Y101286D01*
X145035Y101599D01*
X145348Y101980D01*
X145581Y102415D01*
X145724Y102887D01*
X145760Y103251D01*
X143256D01*
Y103378D01*
X143129D01*
Y105882D01*
X142765Y105846D01*
X142293Y105703D01*
X141858Y105470D01*
X141477Y105157D01*
X141164Y104776D01*
X141134Y104719D01*
X141090Y104680D01*
X141020Y104661D01*
X140992Y104679D01*
X140977Y104681D01*
X140962Y104688D01*
X140919Y104699D01*
X140907Y104704D01*
X140905Y104717D01*
X140908Y106190D01*
X140911Y107474D01*
X140911Y107475D01*
X140911Y107494D01*
X140920D01*
X140906Y107595D01*
X140889Y107728D01*
X140889Y107728D01*
X140885Y107761D01*
X140872Y107792D01*
X140872Y107792D01*
X140794Y107979D01*
X140794Y107979D01*
X140781Y108010D01*
X140761Y108037D01*
X140761Y108037D01*
X140632Y108206D01*
X140632Y108206D01*
X140617Y108224D01*
X140618Y108225D01*
X140595Y108244D01*
X140595Y108244D01*
X140360Y108445D01*
X140250Y108539D01*
X140112Y108623D01*
X139855Y108781D01*
X139855Y108781D01*
X139838Y108792D01*
X139819Y108799D01*
X139819Y108799D01*
X139811Y108802D01*
X139802Y108806D01*
X139802Y108806D01*
X139802D01*
X139391Y108977D01*
X139353Y108986D01*
X138940Y109085D01*
X138940D01*
X138920Y109090D01*
X138900Y109091D01*
X138900Y109091D01*
X138689Y109108D01*
X138543Y109119D01*
X138438Y109128D01*
X135455Y109127D01*
X135455D01*
X134603Y109127D01*
X85297Y109119D01*
X85050Y109119D01*
D01*
X84621Y109119D01*
X84621D01*
X83260Y109118D01*
X83260D01*
X81320Y109118D01*
X81311Y109120D01*
X81311Y109120D01*
X81302Y109119D01*
X81301Y109119D01*
X81301D01*
X81293Y109121D01*
X81285D01*
X81285Y109121D01*
X81285Y109121D01*
X81277Y109123D01*
X81277Y109123D01*
Y109130D01*
X81218Y109122D01*
X81218D01*
X81055Y109101D01*
X81055Y109101D01*
X80920Y109083D01*
X80889Y109070D01*
D01*
X80619Y108958D01*
X80619Y108958D01*
X80588Y108945D01*
X80561Y108925D01*
X80561Y108925D01*
X80338Y108754D01*
X80338Y108754D01*
X80303Y108726D01*
X80305Y108724D01*
X80291Y108707D01*
X80291Y108707D01*
X80161Y108537D01*
X80161Y108537D01*
X80141Y108510D01*
X80128Y108479D01*
X80128Y108479D01*
X80050Y108292D01*
Y108292D01*
X80037Y108261D01*
X80023Y108150D01*
X80023Y108150D01*
X80014Y108086D01*
X80002Y107994D01*
X80007Y106974D01*
X80011Y106000D01*
Y106000D01*
X80011Y105967D01*
X80015D01*
X80015Y105966D01*
X80015Y105962D01*
X80017Y105958D01*
X80017Y105956D01*
X80017Y105956D01*
X80017Y105951D01*
X80017Y105950D01*
Y105950D01*
X80018Y105941D01*
X80018Y105941D01*
X80018Y105941D01*
X80018Y105941D01*
X79993Y105686D01*
X79984Y105590D01*
X79984Y105590D01*
X79981Y105565D01*
X79974Y105541D01*
X79974Y105541D01*
X79944Y105443D01*
X79932Y105401D01*
Y105401D01*
Y105401D01*
X79932Y105401D01*
X79904Y105311D01*
X79872Y105203D01*
X79872Y105203D01*
X79866Y105186D01*
X79864Y105179D01*
X79855Y105161D01*
D01*
X79852Y105157D01*
Y105157D01*
X79674Y104823D01*
X79674Y104823D01*
X79674Y104823D01*
X79668Y104815D01*
X79661Y104807D01*
D01*
X79652Y104796D01*
X79418Y104511D01*
X79418Y104511D01*
X79107Y104213D01*
D01*
X79107Y104213D01*
X79107Y104213D01*
X79103Y104208D01*
X79103Y104208D01*
X79077Y104184D01*
X79079Y104181D01*
X79077Y104178D01*
X79075Y104174D01*
X79074Y104173D01*
X79070Y104170D01*
X79064Y104161D01*
X79064Y104161D01*
X78950Y104067D01*
X78805Y103948D01*
X78805Y103948D01*
X78805Y103948D01*
X78805Y103948D01*
X78803Y103947D01*
X78800Y103946D01*
X78800Y103946D01*
X78787Y103935D01*
X78772Y103926D01*
X78772Y103926D01*
X78552Y103809D01*
X78473Y103766D01*
X78461Y103760D01*
X78461Y103760D01*
X78458Y103759D01*
X78454Y103756D01*
X78317Y103715D01*
X78317Y103715D01*
X78317D01*
X78173Y103671D01*
X78109Y103652D01*
X78109D01*
X78090Y103646D01*
D01*
X78090D01*
X77774Y103615D01*
X77711Y103609D01*
X76618Y103618D01*
Y103615D01*
X76616Y103615D01*
X76611Y103614D01*
X76610Y103613D01*
X76605Y103614D01*
X76603Y103614D01*
X76603D01*
X76594Y103612D01*
D01*
X76497Y103622D01*
X76308Y103640D01*
X76308Y103640D01*
X76303Y103641D01*
X76303D01*
X76295Y103642D01*
X76283Y103643D01*
X76259Y103650D01*
X76259Y103650D01*
X76008Y103726D01*
X75981Y103734D01*
D01*
D01*
D01*
X75981Y103734D01*
X75981Y103734D01*
X75981Y103734D01*
X75981Y103735D01*
D01*
X75981D01*
D01*
D01*
Y103735D01*
X75971Y103737D01*
X75964Y103742D01*
X75955Y103744D01*
X75944Y103750D01*
X75944Y103750D01*
X75683Y103889D01*
X75683Y103889D01*
X75669Y103897D01*
X75665Y103899D01*
X75665Y103899D01*
X75665Y103899D01*
X75657Y103906D01*
X75405Y104112D01*
X75405Y104112D01*
X75055Y104473D01*
X75055Y104473D01*
X75051Y104477D01*
X75047Y104482D01*
X75047Y104482D01*
X75018Y104511D01*
X75014Y104507D01*
X75010Y104511D01*
X75006Y104513D01*
X75004Y104514D01*
D01*
X75001Y104518D01*
X75000Y104518D01*
X75000Y104518D01*
X74992Y104524D01*
X74992Y104524D01*
X74724Y104851D01*
X74724Y104851D01*
X74708Y104870D01*
X74696Y104892D01*
X74696Y104892D01*
X74493Y105272D01*
X74493Y105272D01*
X74484Y105290D01*
X74478Y105309D01*
X74478Y105309D01*
X74352Y105726D01*
Y105726D01*
X74346Y105745D01*
X74299Y106218D01*
X74311Y108377D01*
X74318D01*
X74307Y108430D01*
Y108430D01*
X74307Y108430D01*
X74307Y108431D01*
Y108431D01*
X74301Y108460D01*
Y108460D01*
Y108460D01*
X74301Y108460D01*
X74301Y108460D01*
X74291Y108510D01*
X74263Y108552D01*
X74263Y108552D01*
X74246Y108577D01*
X74216Y108623D01*
X74219Y108626D01*
X74155Y108676D01*
X74154Y108676D01*
D01*
X74064Y108746D01*
X73961Y108825D01*
X73961Y108825D01*
X73934Y108845D01*
X73887Y108865D01*
X73633Y108970D01*
X73633Y108970D01*
X73602Y108983D01*
X73569Y108987D01*
X73569Y108987D01*
X73349Y109016D01*
X73245Y109030D01*
X71939Y109026D01*
X69460Y109020D01*
X68848Y109018D01*
X68828Y109022D01*
X68828D01*
Y109022D01*
X68827Y109022D01*
X68827Y109022D01*
X68825Y109023D01*
X68825Y109023D01*
D01*
X68825Y109023D01*
Y109023D01*
D01*
D01*
D01*
X68824Y109023D01*
X68822Y109023D01*
X68815Y109030D01*
Y109030D01*
X68759Y109027D01*
X68759D01*
X68142Y108986D01*
X68142D01*
X68142D01*
X68076Y108982D01*
X68056Y108981D01*
X68040Y108977D01*
X68040D01*
X68011Y108972D01*
X68011Y108972D01*
X68011D01*
X68011D01*
X67585Y108887D01*
X67310Y108832D01*
X66966Y108715D01*
X66605Y108593D01*
X66605D01*
X66589Y108588D01*
X66574Y108580D01*
D01*
X66565Y108576D01*
X65907Y108251D01*
X65303Y107848D01*
X65303Y107848D01*
X65288Y107838D01*
X65288Y107838D01*
X65274Y107828D01*
X65262Y107817D01*
X65262Y107817D01*
X65139Y107710D01*
X65139Y107710D01*
D01*
X64723Y107345D01*
D01*
X64702Y107327D01*
X64703Y107326D01*
X64700Y107322D01*
X64700Y107322D01*
X64385Y106963D01*
X64261Y106821D01*
X64251Y106807D01*
D01*
X64223Y106765D01*
X64223Y106765D01*
X64223Y106765D01*
X63962Y106374D01*
X63888Y106263D01*
X63765Y106015D01*
X63598Y105676D01*
D01*
X63591Y105661D01*
X63585Y105645D01*
Y105645D01*
X63489Y105362D01*
D01*
X63489Y105362D01*
X63380Y105041D01*
Y105041D01*
X63375Y105025D01*
X63372Y105009D01*
X63372Y105009D01*
X63309Y104696D01*
X63244Y104367D01*
X63200Y103697D01*
X63204Y89718D01*
X74832D01*
X74843Y89690D01*
X74947Y89554D01*
X75083Y89450D01*
X75241Y89385D01*
X75411Y89362D01*
X75460Y89369D01*
X75782Y89048D01*
X75782Y89047D01*
X75782Y89047D01*
X76054Y88775D01*
Y87215D01*
X75970Y87212D01*
X75970D01*
X75827Y87205D01*
X75827D01*
X75692Y87336D01*
X75715Y87409D01*
X75736Y87626D01*
X72236D01*
X72257Y87409D01*
X71800Y87270D01*
X71717Y87273D01*
X71647Y87310D01*
X71299Y87416D01*
X70936Y87452D01*
X70573Y87416D01*
X70272Y87325D01*
X69206Y87319D01*
X68396Y87315D01*
X68396D01*
X67571Y87311D01*
X67556Y87312D01*
X67540Y87310D01*
X65532Y87300D01*
X65530Y86644D01*
D01*
X65523Y84815D01*
D01*
X65523Y84641D01*
X65481Y84624D01*
X65251Y84448D01*
X65075Y84218D01*
X64964Y83950D01*
X64927Y83663D01*
X64964Y83376D01*
X65075Y83108D01*
X65251Y82878D01*
X65481Y82702D01*
X65516Y82688D01*
X65511Y81321D01*
X65511Y81319D01*
D01*
X65511Y81318D01*
Y81318D01*
Y80002D01*
Y79998D01*
X65505Y79998D01*
Y79998D01*
X65313D01*
X65309Y80002D01*
Y80002D01*
X64732D01*
Y79248D01*
Y78494D01*
X65309D01*
Y78498D01*
X65505D01*
Y78498D01*
X65511Y78498D01*
Y78494D01*
Y76418D01*
X65509Y74703D01*
Y74703D01*
X65509Y74525D01*
X65481Y74514D01*
X65251Y74338D01*
X65075Y74108D01*
X64964Y73840D01*
X64927Y73553D01*
X64964Y73266D01*
X65075Y72998D01*
X65251Y72768D01*
X65481Y72592D01*
X65507Y72582D01*
X65507Y72365D01*
X68656D01*
X70430Y72383D01*
X70573Y72340D01*
X70936Y72304D01*
X71299Y72340D01*
X71647Y72446D01*
X71969Y72617D01*
X72208Y72814D01*
X72363Y72687D01*
X72358Y72677D01*
X72257Y72347D01*
X72236Y72130D01*
X73986D01*
Y72003D01*
X74113D01*
Y70253D01*
X74330Y70274D01*
X74660Y70375D01*
X74965Y70538D01*
X75232Y70757D01*
X75323Y70867D01*
X75511Y70800D01*
Y70627D01*
X75493Y70600D01*
X72429Y67536D01*
X72409Y67523D01*
X72386Y67518D01*
X72109D01*
X72086Y67523D01*
X72084Y67524D01*
Y68472D01*
X70080D01*
Y68599D01*
X69953D01*
Y69878D01*
X65957D01*
Y68599D01*
X65830D01*
Y68472D01*
X63576D01*
Y67518D01*
X63209D01*
X63211Y61527D01*
X63202Y61518D01*
X63202D01*
X63239Y60950D01*
X63350Y60391D01*
X63533Y59851D01*
X63576Y59764D01*
Y58795D01*
X63479Y58770D01*
X63448Y58827D01*
X63184Y59465D01*
X62993Y60127D01*
X62877Y60807D01*
X62847Y61350D01*
X62843Y61349D01*
X62828Y61423D01*
X62843Y61496D01*
Y103520D01*
X62845Y103522D01*
X62845D01*
X62845Y103522D01*
X62875Y104072D01*
X62990Y104745D01*
X63179Y105401D01*
X63440Y106031D01*
X63770Y106628D01*
X64165Y107185D01*
X64620Y107694D01*
X65129Y108149D01*
X65685Y108544D01*
X66282Y108874D01*
X66913Y109135D01*
X67569Y109324D01*
X68242Y109438D01*
X68923Y109476D01*
X69054Y109469D01*
Y109469D01*
X69058Y109472D01*
X69063Y109471D01*
X69063Y109471D01*
X69063Y109471D01*
X136304Y109496D01*
X136347Y109505D01*
X136389Y109496D01*
D02*
G37*
%LPC*%
G36*
X89504Y73500D02*
X87796D01*
Y73221D01*
Y73200D01*
X89504D01*
Y73221D01*
Y73500D01*
D02*
G37*
G36*
X98361Y76318D02*
X97467D01*
Y75424D01*
X98361D01*
Y76318D01*
D02*
G37*
G36*
X89504Y73000D02*
X88750D01*
Y72721D01*
X89504D01*
Y73000D01*
D02*
G37*
G36*
X110961Y77417D02*
X110703Y77383D01*
X110462Y77283D01*
X110255Y77124D01*
X110096Y76917D01*
X109996Y76676D01*
X109962Y76418D01*
X109996Y76160D01*
X110096Y75919D01*
X110255Y75712D01*
X110462Y75553D01*
X110703Y75453D01*
X110961Y75419D01*
X111219Y75453D01*
X111460Y75553D01*
X111667Y75712D01*
X111826Y75919D01*
X111926Y76160D01*
X111960Y76418D01*
X111926Y76676D01*
X111826Y76917D01*
X111667Y77124D01*
X111460Y77283D01*
X111219Y77383D01*
X110961Y77417D01*
D02*
G37*
G36*
X89916Y57991D02*
X89665Y57958D01*
X89432Y57862D01*
X89231Y57708D01*
X89077Y57507D01*
X88981Y57274D01*
X88948Y57023D01*
X88981Y56772D01*
X89077Y56539D01*
X89231Y56338D01*
X89432Y56184D01*
X89665Y56088D01*
X89916Y56055D01*
X90167Y56088D01*
X90400Y56184D01*
X90601Y56338D01*
X90755Y56539D01*
X90851Y56772D01*
X90884Y57023D01*
X90851Y57274D01*
X90755Y57507D01*
X90601Y57708D01*
X90400Y57862D01*
X90167Y57958D01*
X89916Y57991D01*
D02*
G37*
G36*
X104176Y80675D02*
X102458D01*
X102468Y80627D01*
X102539Y80521D01*
X102472Y80421D01*
X102443Y80275D01*
X102472Y80129D01*
X102541Y80025D01*
X102472Y79921D01*
X102443Y79775D01*
X102472Y79629D01*
X102539Y79529D01*
X102468Y79423D01*
X102458Y79375D01*
X104176D01*
X104212Y79418D01*
X104406D01*
X105604Y78220D01*
Y77342D01*
X105462Y77283D01*
X105255Y77124D01*
X105096Y76917D01*
X104996Y76676D01*
X104962Y76418D01*
X104996Y76160D01*
X105096Y75919D01*
X105255Y75712D01*
X105462Y75553D01*
X105612Y75491D01*
Y73941D01*
X105219D01*
Y72541D01*
X106719D01*
Y73941D01*
X106326D01*
Y75497D01*
X106460Y75553D01*
X106667Y75712D01*
X106826Y75919D01*
X106926Y76160D01*
X106960Y76418D01*
X106926Y76676D01*
X106826Y76917D01*
X106667Y77124D01*
X106460Y77283D01*
X106318Y77342D01*
Y78368D01*
X106291Y78505D01*
X106213Y78620D01*
X105008Y79826D01*
X105046Y79918D01*
X105506D01*
X108025Y77399D01*
X108006Y77301D01*
X107962Y77283D01*
X107755Y77124D01*
X107596Y76917D01*
X107496Y76676D01*
X107462Y76418D01*
X107496Y76160D01*
X107596Y75919D01*
X107755Y75712D01*
X107962Y75553D01*
X108203Y75453D01*
X108461Y75419D01*
X108719Y75453D01*
X108960Y75553D01*
X109167Y75712D01*
X109326Y75919D01*
X109426Y76160D01*
X109460Y76418D01*
X109426Y76676D01*
X109326Y76917D01*
X109167Y77124D01*
X108960Y77283D01*
X108818Y77342D01*
Y77468D01*
X108791Y77605D01*
X108713Y77720D01*
X105906Y80527D01*
X105791Y80605D01*
X105654Y80632D01*
X104212D01*
X104176Y80675D01*
D02*
G37*
G36*
X105869Y71541D02*
X105215D01*
Y70937D01*
X105869D01*
Y71541D01*
D02*
G37*
G36*
X106723D02*
X106069D01*
Y70937D01*
X106723D01*
Y71541D01*
D02*
G37*
G36*
X73859Y71876D02*
X72236D01*
X72257Y71659D01*
X72358Y71329D01*
X72521Y71024D01*
X72740Y70757D01*
X73007Y70538D01*
X73312Y70375D01*
X73642Y70274D01*
X73859Y70253D01*
Y71876D01*
D02*
G37*
G36*
X69611Y71774D02*
X69441Y71751D01*
X69283Y71686D01*
X69147Y71582D01*
X69043Y71446D01*
X68978Y71288D01*
X68955Y71118D01*
X68978Y70948D01*
X69043Y70790D01*
X69147Y70654D01*
X69283Y70550D01*
X69441Y70485D01*
X69611Y70462D01*
X69781Y70485D01*
X69939Y70550D01*
X70075Y70654D01*
X70179Y70790D01*
X70244Y70948D01*
X70267Y71118D01*
X70244Y71288D01*
X70179Y71446D01*
X70075Y71582D01*
X69939Y71686D01*
X69781Y71751D01*
X69611Y71774D01*
D02*
G37*
G36*
X142406Y73378D02*
X140906D01*
Y71878D01*
X142406D01*
Y73378D01*
D02*
G37*
G36*
X88550Y73000D02*
X87796D01*
Y72721D01*
X88550D01*
Y73000D01*
D02*
G37*
G36*
X105869Y72345D02*
X105215D01*
Y71741D01*
X105869D01*
Y72345D01*
D02*
G37*
G36*
X106723D02*
X106069D01*
Y71741D01*
X106723D01*
Y72345D01*
D02*
G37*
G36*
X99455Y76318D02*
X98561D01*
Y75424D01*
X99455D01*
Y76318D01*
D02*
G37*
G36*
X64478Y79121D02*
X63901D01*
Y78494D01*
X64478D01*
Y79121D01*
D02*
G37*
G36*
X70121Y78653D02*
X69467D01*
Y78049D01*
X70121D01*
Y78653D01*
D02*
G37*
G36*
X69267D02*
X68613D01*
Y78049D01*
X69267D01*
Y78653D01*
D02*
G37*
G36*
X66909Y79148D02*
X66305D01*
Y78494D01*
X66909D01*
Y79148D01*
D02*
G37*
G36*
X70121Y79457D02*
X69467D01*
Y78853D01*
X70121D01*
Y79457D01*
D02*
G37*
G36*
X69267D02*
X68613D01*
Y78853D01*
X69267D01*
Y79457D01*
D02*
G37*
G36*
X97968Y79146D02*
X97407D01*
Y78535D01*
X97968D01*
Y79146D01*
D02*
G37*
G36*
X87376Y57991D02*
X87125Y57958D01*
X86892Y57862D01*
X86691Y57708D01*
X86537Y57507D01*
X86441Y57274D01*
X86408Y57023D01*
X86441Y56772D01*
X86537Y56539D01*
X86691Y56338D01*
X86892Y56184D01*
X87125Y56088D01*
X87376Y56055D01*
X87627Y56088D01*
X87860Y56184D01*
X88061Y56338D01*
X88215Y56539D01*
X88311Y56772D01*
X88344Y57023D01*
X88311Y57274D01*
X88215Y57507D01*
X88061Y57708D01*
X87860Y57862D01*
X87627Y57958D01*
X87376Y57991D01*
D02*
G37*
G36*
X99455Y77412D02*
X98561D01*
Y76518D01*
X99455D01*
Y77412D01*
D02*
G37*
G36*
X98361D02*
X97467D01*
Y76518D01*
X98361D01*
Y77412D01*
D02*
G37*
G36*
X70117Y77853D02*
X68617D01*
Y76661D01*
X68519Y76642D01*
X68517Y76648D01*
X68341Y76878D01*
X68111Y77054D01*
X67843Y77165D01*
X67556Y77202D01*
X67269Y77165D01*
X67001Y77054D01*
X66771Y76878D01*
X66595Y76648D01*
X66484Y76380D01*
X66447Y76093D01*
X66484Y75806D01*
X66595Y75538D01*
X66771Y75308D01*
X67001Y75132D01*
X67269Y75021D01*
X67556Y74984D01*
X67843Y75021D01*
X68111Y75132D01*
X68341Y75308D01*
X68517Y75538D01*
X68599Y75736D01*
X68611D01*
X68748Y75763D01*
X68863Y75841D01*
X69475Y76453D01*
X70117D01*
Y77853D01*
D02*
G37*
G36*
X97968Y78335D02*
X97407D01*
Y77724D01*
X97968D01*
Y78335D01*
D02*
G37*
G36*
X97207D02*
X96647D01*
Y77724D01*
X97207D01*
Y78335D01*
D02*
G37*
G36*
X144211Y78954D02*
X144015Y78929D01*
X143833Y78853D01*
X143676Y78733D01*
X143556Y78576D01*
X143480Y78394D01*
X143455Y78198D01*
X143480Y78002D01*
X143556Y77820D01*
X143676Y77663D01*
X143833Y77543D01*
X144015Y77467D01*
X144211Y77442D01*
X144407Y77467D01*
X144589Y77543D01*
X144746Y77663D01*
X144866Y77820D01*
X144942Y78002D01*
X144967Y78198D01*
X144942Y78394D01*
X144866Y78576D01*
X144746Y78733D01*
X144589Y78853D01*
X144407Y78929D01*
X144211Y78954D01*
D02*
G37*
G36*
X145760Y61341D02*
X143383D01*
Y58964D01*
X143747Y59000D01*
X144219Y59143D01*
X144654Y59376D01*
X145035Y59689D01*
X145348Y60070D01*
X145581Y60505D01*
X145724Y60977D01*
X145760Y61341D01*
D02*
G37*
G36*
X82196Y59463D02*
X81332D01*
Y58599D01*
X82196D01*
Y59463D01*
D02*
G37*
G36*
X128016Y60531D02*
X127765Y60498D01*
X127532Y60402D01*
X127331Y60248D01*
X127177Y60047D01*
X127081Y59814D01*
X127048Y59563D01*
X127081Y59312D01*
X127177Y59079D01*
X127331Y58878D01*
X127532Y58724D01*
X127765Y58628D01*
X128016Y58595D01*
X128267Y58628D01*
X128500Y58724D01*
X128701Y58878D01*
X128855Y59079D01*
X128951Y59312D01*
X128984Y59563D01*
X128951Y59814D01*
X128855Y60047D01*
X128701Y60248D01*
X128500Y60402D01*
X128267Y60498D01*
X128016Y60531D01*
D02*
G37*
G36*
X82196Y60527D02*
X81332D01*
Y59663D01*
X82196D01*
Y60527D01*
D02*
G37*
G36*
X122936Y57991D02*
X122685Y57958D01*
X122452Y57862D01*
X122251Y57708D01*
X122097Y57507D01*
X122001Y57274D01*
X121968Y57023D01*
X122001Y56772D01*
X122097Y56539D01*
X122251Y56338D01*
X122452Y56184D01*
X122685Y56088D01*
X122936Y56055D01*
X123187Y56088D01*
X123420Y56184D01*
X123621Y56338D01*
X123775Y56539D01*
X123871Y56772D01*
X123904Y57023D01*
X123871Y57274D01*
X123775Y57507D01*
X123621Y57708D01*
X123420Y57862D01*
X123187Y57958D01*
X122936Y57991D01*
D02*
G37*
G36*
X67730Y62255D02*
X67534Y62230D01*
X67352Y62154D01*
X67195Y62034D01*
X67075Y61877D01*
X67000Y61695D01*
X66974Y61499D01*
X67000Y61303D01*
X67075Y61121D01*
X67195Y60964D01*
X67352Y60844D01*
X67534Y60768D01*
X67730Y60743D01*
X67926Y60768D01*
X68108Y60844D01*
X68265Y60964D01*
X68385Y61121D01*
X68461Y61303D01*
X68487Y61499D01*
X68461Y61695D01*
X68385Y61877D01*
X68265Y62034D01*
X68108Y62154D01*
X67926Y62230D01*
X67730Y62255D01*
D02*
G37*
G36*
X95411Y61875D02*
X91871D01*
X91734Y61848D01*
X91619Y61770D01*
X90294Y60446D01*
X90167Y60498D01*
X89916Y60531D01*
X89665Y60498D01*
X89432Y60402D01*
X89231Y60248D01*
X89077Y60047D01*
X88981Y59814D01*
X88948Y59563D01*
X88981Y59312D01*
X89077Y59079D01*
X89231Y58878D01*
X89432Y58724D01*
X89665Y58628D01*
X89916Y58595D01*
X90167Y58628D01*
X90400Y58724D01*
X90601Y58878D01*
X90755Y59079D01*
X90851Y59312D01*
X90884Y59563D01*
X90851Y59814D01*
X90799Y59941D01*
X92019Y61161D01*
X93019D01*
X93063Y61071D01*
X93043Y61046D01*
X92978Y60888D01*
X92955Y60718D01*
X92978Y60548D01*
X93004Y60485D01*
X92949Y60413D01*
X92938Y60402D01*
X92707Y60498D01*
X92456Y60531D01*
X92205Y60498D01*
X91972Y60402D01*
X91771Y60248D01*
X91617Y60047D01*
X91521Y59814D01*
X91488Y59563D01*
X91521Y59312D01*
X91617Y59079D01*
X91771Y58878D01*
X91972Y58724D01*
X92205Y58628D01*
X92456Y58595D01*
X92707Y58628D01*
X92940Y58724D01*
X93141Y58878D01*
X93159Y58903D01*
X93254Y58871D01*
Y58326D01*
X92834Y57906D01*
X92707Y57958D01*
X92456Y57991D01*
X92205Y57958D01*
X91972Y57862D01*
X91771Y57708D01*
X91617Y57507D01*
X91521Y57274D01*
X91488Y57023D01*
X91521Y56772D01*
X91617Y56539D01*
X91771Y56338D01*
X91972Y56184D01*
X92205Y56088D01*
X92456Y56055D01*
X92707Y56088D01*
X92940Y56184D01*
X93141Y56338D01*
X93295Y56539D01*
X93391Y56772D01*
X93424Y57023D01*
X93391Y57274D01*
X93339Y57401D01*
X93863Y57926D01*
X93941Y58041D01*
X93968Y58178D01*
Y59280D01*
X94066Y59300D01*
X94157Y59079D01*
X94311Y58878D01*
X94512Y58724D01*
X94745Y58628D01*
X94996Y58595D01*
X95247Y58628D01*
X95480Y58724D01*
X95681Y58878D01*
X95835Y59079D01*
X95931Y59312D01*
X95964Y59563D01*
X95931Y59814D01*
X95835Y60047D01*
X95806Y60085D01*
X95876Y60155D01*
X95883Y60150D01*
X96041Y60085D01*
X96211Y60062D01*
X96381Y60085D01*
X96539Y60150D01*
X96675Y60254D01*
X96779Y60390D01*
X96844Y60548D01*
X96867Y60718D01*
X96844Y60888D01*
X96779Y61046D01*
X96675Y61182D01*
X96539Y61286D01*
X96381Y61351D01*
X96211Y61374D01*
X96078Y61356D01*
X95663Y61770D01*
X95548Y61848D01*
X95411Y61875D01*
D02*
G37*
G36*
X125476Y60531D02*
X125225Y60498D01*
X124992Y60402D01*
X124791Y60248D01*
X124637Y60047D01*
X124541Y59814D01*
X124508Y59563D01*
X124541Y59312D01*
X124637Y59079D01*
X124791Y58878D01*
X124992Y58724D01*
X125225Y58628D01*
X125476Y58595D01*
X125727Y58628D01*
X125960Y58724D01*
X126161Y58878D01*
X126315Y59079D01*
X126411Y59312D01*
X126444Y59563D01*
X126411Y59814D01*
X126315Y60047D01*
X126161Y60248D01*
X125960Y60402D01*
X125727Y60498D01*
X125476Y60531D01*
D02*
G37*
G36*
X83255Y56923D02*
X82396D01*
Y56064D01*
X82548Y56084D01*
X82782Y56181D01*
X82984Y56335D01*
X83138Y56537D01*
X83235Y56771D01*
X83255Y56923D01*
D02*
G37*
G36*
X82196D02*
X81337D01*
X81357Y56771D01*
X81454Y56537D01*
X81608Y56335D01*
X81810Y56181D01*
X82044Y56084D01*
X82196Y56064D01*
Y56923D01*
D02*
G37*
G36*
X128016Y57991D02*
X127765Y57958D01*
X127532Y57862D01*
X127331Y57708D01*
X127177Y57507D01*
X127081Y57274D01*
X127048Y57023D01*
X127081Y56772D01*
X127177Y56539D01*
X127331Y56338D01*
X127532Y56184D01*
X127765Y56088D01*
X128016Y56055D01*
X128267Y56088D01*
X128500Y56184D01*
X128701Y56338D01*
X128855Y56539D01*
X128951Y56772D01*
X128984Y57023D01*
X128951Y57274D01*
X128855Y57507D01*
X128701Y57708D01*
X128500Y57862D01*
X128267Y57958D01*
X128016Y57991D01*
D02*
G37*
G36*
X82196Y57982D02*
X82044Y57962D01*
X81810Y57865D01*
X81608Y57711D01*
X81454Y57509D01*
X81357Y57275D01*
X81337Y57123D01*
X82196D01*
Y57982D01*
D02*
G37*
G36*
X122936Y60531D02*
X122685Y60498D01*
X122452Y60402D01*
X122251Y60248D01*
X122097Y60047D01*
X122001Y59814D01*
X121968Y59563D01*
X122001Y59312D01*
X122097Y59079D01*
X122251Y58878D01*
X122452Y58724D01*
X122685Y58628D01*
X122936Y58595D01*
X123187Y58628D01*
X123420Y58724D01*
X123621Y58878D01*
X123775Y59079D01*
X123871Y59312D01*
X123904Y59563D01*
X123871Y59814D01*
X123775Y60047D01*
X123621Y60248D01*
X123420Y60402D01*
X123187Y60498D01*
X122936Y60531D01*
D02*
G37*
G36*
X125476Y57991D02*
X125225Y57958D01*
X124992Y57862D01*
X124791Y57708D01*
X124637Y57507D01*
X124541Y57274D01*
X124508Y57023D01*
X124541Y56772D01*
X124637Y56539D01*
X124791Y56338D01*
X124992Y56184D01*
X125225Y56088D01*
X125476Y56055D01*
X125727Y56088D01*
X125960Y56184D01*
X126161Y56338D01*
X126315Y56539D01*
X126411Y56772D01*
X126444Y57023D01*
X126411Y57274D01*
X126315Y57507D01*
X126161Y57708D01*
X125960Y57862D01*
X125727Y57958D01*
X125476Y57991D01*
D02*
G37*
G36*
X82396Y57982D02*
Y57123D01*
X83255D01*
X83235Y57275D01*
X83138Y57509D01*
X82984Y57711D01*
X82782Y57865D01*
X82548Y57962D01*
X82396Y57982D01*
D02*
G37*
G36*
X84300Y64500D02*
X81395D01*
X81424Y64129D01*
X81534Y63669D01*
X81715Y63232D01*
X81962Y62829D01*
X82269Y62469D01*
X82629Y62162D01*
X83032Y61915D01*
X83469Y61734D01*
X83929Y61624D01*
X84300Y61595D01*
Y64500D01*
D02*
G37*
G36*
X74730Y67421D02*
X74119D01*
Y66860D01*
X74730D01*
Y67421D01*
D02*
G37*
G36*
X94996Y57991D02*
X94745Y57958D01*
X94512Y57862D01*
X94311Y57708D01*
X94157Y57507D01*
X94061Y57274D01*
X94028Y57023D01*
X94061Y56772D01*
X94157Y56539D01*
X94311Y56338D01*
X94512Y56184D01*
X94745Y56088D01*
X94996Y56055D01*
X95247Y56088D01*
X95480Y56184D01*
X95681Y56338D01*
X95835Y56539D01*
X95931Y56772D01*
X95964Y57023D01*
X95931Y57274D01*
X95835Y57507D01*
X95681Y57708D01*
X95480Y57862D01*
X95247Y57958D01*
X94996Y57991D01*
D02*
G37*
G36*
X74730Y66660D02*
X74119D01*
Y66100D01*
X74730D01*
Y66660D01*
D02*
G37*
G36*
X75541Y67421D02*
X74930D01*
Y66860D01*
X75541D01*
Y67421D01*
D02*
G37*
G36*
X144211Y70974D02*
X144015Y70949D01*
X143833Y70873D01*
X143676Y70753D01*
X143556Y70596D01*
X143480Y70414D01*
X143455Y70218D01*
X143480Y70022D01*
X143556Y69840D01*
X143676Y69683D01*
X143833Y69563D01*
X144015Y69487D01*
X144211Y69462D01*
X144407Y69487D01*
X144589Y69563D01*
X144746Y69683D01*
X144866Y69840D01*
X144942Y70022D01*
X144967Y70218D01*
X144942Y70414D01*
X144866Y70596D01*
X144746Y70753D01*
X144589Y70873D01*
X144407Y70949D01*
X144211Y70974D01*
D02*
G37*
G36*
X72084Y69878D02*
X70207D01*
Y68726D01*
X72084D01*
Y69878D01*
D02*
G37*
G36*
X65703D02*
X63576D01*
Y68726D01*
X65703D01*
Y69878D01*
D02*
G37*
G36*
X97536Y57991D02*
X97285Y57958D01*
X97052Y57862D01*
X96851Y57708D01*
X96697Y57507D01*
X96601Y57274D01*
X96568Y57023D01*
X96601Y56772D01*
X96697Y56539D01*
X96851Y56338D01*
X97052Y56184D01*
X97285Y56088D01*
X97536Y56055D01*
X97787Y56088D01*
X98020Y56184D01*
X98221Y56338D01*
X98375Y56539D01*
X98471Y56772D01*
X98504Y57023D01*
X98471Y57274D01*
X98375Y57507D01*
X98221Y57708D01*
X98020Y57862D01*
X97787Y57958D01*
X97536Y57991D01*
D02*
G37*
G36*
X69980Y61999D02*
X68676D01*
Y61595D01*
X69980D01*
Y61999D01*
D02*
G37*
G36*
X87405Y64500D02*
X84500D01*
Y61595D01*
X84871Y61624D01*
X85331Y61734D01*
X85768Y61915D01*
X86171Y62162D01*
X86531Y62469D01*
X86838Y62829D01*
X87085Y63232D01*
X87266Y63669D01*
X87376Y64129D01*
X87405Y64500D01*
D02*
G37*
G36*
X120396Y57991D02*
X120145Y57958D01*
X119912Y57862D01*
X119711Y57708D01*
X119557Y57507D01*
X119461Y57274D01*
X119428Y57023D01*
X119461Y56772D01*
X119557Y56539D01*
X119711Y56338D01*
X119912Y56184D01*
X120145Y56088D01*
X120396Y56055D01*
X120647Y56088D01*
X120880Y56184D01*
X121081Y56338D01*
X121235Y56539D01*
X121331Y56772D01*
X121364Y57023D01*
X121331Y57274D01*
X121235Y57507D01*
X121081Y57708D01*
X120880Y57862D01*
X120647Y57958D01*
X120396Y57991D01*
D02*
G37*
G36*
X71484Y61999D02*
X70180D01*
Y61595D01*
X71484D01*
Y61999D01*
D02*
G37*
G36*
X67730Y66655D02*
X67534Y66630D01*
X67352Y66554D01*
X67195Y66434D01*
X67075Y66277D01*
X67000Y66095D01*
X66974Y65899D01*
X67000Y65703D01*
X67075Y65521D01*
X67195Y65364D01*
X67352Y65244D01*
X67534Y65168D01*
X67730Y65143D01*
X67926Y65168D01*
X68108Y65244D01*
X68265Y65364D01*
X68385Y65521D01*
X68461Y65703D01*
X68487Y65899D01*
X68461Y66095D01*
X68385Y66277D01*
X68265Y66434D01*
X68108Y66554D01*
X67926Y66630D01*
X67730Y66655D01*
D02*
G37*
G36*
X84500Y67605D02*
Y64700D01*
X87405D01*
X87376Y65071D01*
X87266Y65531D01*
X87085Y65968D01*
X86838Y66371D01*
X86531Y66731D01*
X86171Y67038D01*
X85768Y67285D01*
X85331Y67466D01*
X84871Y67576D01*
X84500Y67605D01*
D02*
G37*
G36*
X84300D02*
X83929Y67576D01*
X83469Y67466D01*
X83032Y67285D01*
X82629Y67038D01*
X82269Y66731D01*
X81962Y66371D01*
X81715Y65968D01*
X81534Y65531D01*
X81424Y65071D01*
X81395Y64700D01*
X84300D01*
Y67605D01*
D02*
G37*
G36*
X103200Y79175D02*
X102458D01*
X102468Y79127D01*
X102552Y79002D01*
X102677Y78918D01*
X102825Y78889D01*
X103200D01*
Y79175D01*
D02*
G37*
G36*
X77089Y106426D02*
X74712D01*
X74748Y106062D01*
X74891Y105590D01*
X75124Y105155D01*
X75437Y104774D01*
X75818Y104461D01*
X76253Y104228D01*
X76725Y104085D01*
X77089Y104049D01*
Y106426D01*
D02*
G37*
G36*
X79720D02*
X77343D01*
Y104049D01*
X77707Y104085D01*
X78179Y104228D01*
X78614Y104461D01*
X78995Y104774D01*
X79308Y105155D01*
X79541Y105590D01*
X79684Y106062D01*
X79720Y106426D01*
D02*
G37*
G36*
X71914Y105478D02*
X69914D01*
X69588Y105435D01*
X69284Y105309D01*
X69022Y105109D01*
X68822Y104848D01*
X68696Y104544D01*
X68653Y104217D01*
X68696Y103891D01*
X68822Y103587D01*
X69022Y103326D01*
X69284Y103125D01*
X69588Y102999D01*
X69914Y102956D01*
X71914D01*
X72240Y102999D01*
X72544Y103125D01*
X72806Y103326D01*
X73006Y103587D01*
X73132Y103891D01*
X73175Y104217D01*
X73132Y104544D01*
X73006Y104848D01*
X72806Y105109D01*
X72544Y105309D01*
X72240Y105435D01*
X71914Y105478D01*
D02*
G37*
G36*
X143383Y105882D02*
Y103505D01*
X145760D01*
X145724Y103869D01*
X145581Y104341D01*
X145348Y104776D01*
X145299Y104836D01*
X145035Y105157D01*
X144711Y105423D01*
D01*
X144654Y105470D01*
X144219Y105703D01*
X143747Y105846D01*
X143383Y105882D01*
D02*
G37*
G36*
X135536Y105183D02*
X134677D01*
X134697Y105031D01*
X134794Y104797D01*
X134948Y104595D01*
X135150Y104441D01*
X135384Y104344D01*
X135536Y104324D01*
Y105183D01*
D02*
G37*
G36*
X136595D02*
X135736D01*
Y104324D01*
X135888Y104344D01*
X136122Y104441D01*
X136324Y104595D01*
X136478Y104797D01*
X136575Y105031D01*
X136595Y105183D01*
D02*
G37*
G36*
X82196D02*
X81337D01*
X81357Y105031D01*
X81454Y104797D01*
X81608Y104595D01*
X81810Y104441D01*
X82044Y104344D01*
X82196Y104324D01*
Y105183D01*
D02*
G37*
G36*
X83255D02*
X82396D01*
Y104324D01*
X82548Y104344D01*
X82782Y104441D01*
X82984Y104595D01*
X83138Y104797D01*
X83235Y105031D01*
X83255Y105183D01*
D02*
G37*
G36*
X133500Y101605D02*
Y98700D01*
X136405D01*
X136376Y99071D01*
X136266Y99531D01*
X136085Y99968D01*
X135838Y100371D01*
X135531Y100731D01*
X135171Y101038D01*
X134768Y101285D01*
X134331Y101466D01*
X133871Y101576D01*
X133500Y101605D01*
D02*
G37*
G36*
X67814Y102019D02*
X67587Y101989D01*
X67282Y101863D01*
X67020Y101662D01*
X66819Y101400D01*
X66692Y101095D01*
X66649Y100767D01*
Y99617D01*
X67814D01*
Y102019D01*
D02*
G37*
G36*
X137861Y98223D02*
X137250D01*
Y97662D01*
X137861D01*
Y98223D01*
D02*
G37*
G36*
X133300Y101605D02*
X132929Y101576D01*
X132469Y101466D01*
X132032Y101285D01*
X131629Y101038D01*
X131269Y100731D01*
X130962Y100371D01*
X130715Y99968D01*
X130534Y99531D01*
X130424Y99071D01*
X130395Y98700D01*
X133300D01*
Y101605D01*
D02*
G37*
G36*
X79525Y102597D02*
X78171D01*
Y101968D01*
X79525D01*
Y102597D01*
D02*
G37*
G36*
X81079D02*
X79725D01*
Y101968D01*
X81079D01*
Y102597D01*
D02*
G37*
G36*
X79525Y101768D02*
X78171D01*
Y101139D01*
X79525D01*
Y101768D01*
D02*
G37*
G36*
X81079D02*
X79725D01*
Y101139D01*
X81079D01*
Y101768D01*
D02*
G37*
G36*
X82196Y107723D02*
X81332D01*
Y106859D01*
X82196D01*
Y107723D01*
D02*
G37*
G36*
X83260D02*
X82396D01*
Y106859D01*
X83260D01*
Y107723D01*
D02*
G37*
G36*
X77089Y109057D02*
X76725Y109021D01*
X76253Y108878D01*
X75818Y108645D01*
X75437Y108332D01*
X75124Y107951D01*
X74891Y107516D01*
X74748Y107044D01*
X74712Y106680D01*
X77089D01*
Y109057D01*
D02*
G37*
G36*
X77343D02*
Y106680D01*
X79720D01*
X79684Y107044D01*
X79541Y107516D01*
X79308Y107951D01*
X78995Y108332D01*
X78614Y108645D01*
X78179Y108878D01*
X77707Y109021D01*
X77343Y109057D01*
D02*
G37*
G36*
X138076Y107723D02*
X137217D01*
X137237Y107571D01*
X137334Y107337D01*
X137488Y107135D01*
X137690Y106981D01*
X137924Y106884D01*
X138076Y106864D01*
Y107723D01*
D02*
G37*
G36*
X139135D02*
X138276D01*
Y106864D01*
X138428Y106884D01*
X138662Y106981D01*
X138864Y107135D01*
X139018Y107337D01*
X139115Y107571D01*
X139135Y107723D01*
D02*
G37*
G36*
X135536D02*
X134677D01*
X134697Y107571D01*
X134794Y107337D01*
X134948Y107135D01*
X135150Y106981D01*
X135384Y106884D01*
X135536Y106864D01*
Y107723D01*
D02*
G37*
G36*
X136595D02*
X135736D01*
Y106864D01*
X135888Y106884D01*
X136122Y106981D01*
X136324Y107135D01*
X136478Y107337D01*
X136575Y107571D01*
X136595Y107723D01*
D02*
G37*
G36*
X82196Y106242D02*
X82044Y106222D01*
X81810Y106125D01*
X81608Y105971D01*
X81454Y105769D01*
X81357Y105535D01*
X81337Y105383D01*
X82196D01*
Y106242D01*
D02*
G37*
G36*
X82396D02*
Y105383D01*
X83255D01*
X83235Y105535D01*
X83138Y105769D01*
X82984Y105971D01*
X82782Y106125D01*
X82548Y106222D01*
X82396Y106242D01*
D02*
G37*
G36*
X138076Y105183D02*
X137217D01*
X137237Y105031D01*
X137334Y104797D01*
X137488Y104595D01*
X137690Y104441D01*
X137924Y104344D01*
X138076Y104324D01*
Y105183D01*
D02*
G37*
G36*
X139135D02*
X138276D01*
Y104324D01*
X138428Y104344D01*
X138662Y104441D01*
X138864Y104595D01*
X139018Y104797D01*
X139115Y105031D01*
X139135Y105183D01*
D02*
G37*
G36*
X138076Y106242D02*
X137924Y106222D01*
X137690Y106125D01*
X137488Y105971D01*
X137334Y105769D01*
X137237Y105535D01*
X137217Y105383D01*
X138076D01*
Y106242D01*
D02*
G37*
G36*
X138276D02*
Y105383D01*
X139135D01*
X139115Y105535D01*
X139018Y105769D01*
X138864Y105971D01*
X138662Y106125D01*
X138428Y106222D01*
X138276Y106242D01*
D02*
G37*
G36*
X135536D02*
X135384Y106222D01*
X135150Y106125D01*
X134948Y105971D01*
X134794Y105769D01*
X134697Y105535D01*
X134677Y105383D01*
X135536D01*
Y106242D01*
D02*
G37*
G36*
X135736D02*
Y105383D01*
X136595D01*
X136575Y105535D01*
X136478Y105769D01*
X136324Y105971D01*
X136122Y106125D01*
X135888Y106222D01*
X135736Y106242D01*
D02*
G37*
G36*
X136405Y98500D02*
X133500D01*
Y95595D01*
X133871Y95624D01*
X134331Y95734D01*
X134768Y95915D01*
X135171Y96162D01*
X135531Y96469D01*
X135838Y96829D01*
X136085Y97232D01*
X136266Y97669D01*
X136339Y97976D01*
X136439Y97964D01*
Y97662D01*
X137050D01*
Y98223D01*
X136457D01*
X136389Y98296D01*
X136405Y98500D01*
D02*
G37*
G36*
X115672Y84272D02*
X115502Y84250D01*
X115344Y84185D01*
X115208Y84080D01*
X115185Y84050D01*
X112243D01*
X112106Y84023D01*
X111990Y83945D01*
X111739Y83694D01*
X105854D01*
X105772Y83801D01*
X105636Y83905D01*
X105478Y83971D01*
X105308Y83993D01*
X105139Y83971D01*
X104981Y83905D01*
X104845Y83801D01*
X104741Y83665D01*
X104675Y83507D01*
X104653Y83337D01*
X104675Y83168D01*
X104741Y83010D01*
X104845Y82874D01*
X104981Y82770D01*
X105139Y82704D01*
X105308Y82682D01*
X105478Y82704D01*
X105636Y82770D01*
X105772Y82874D01*
X105854Y82981D01*
X111887D01*
X112024Y83008D01*
X112139Y83085D01*
X112139Y83085D01*
X112139Y83085D01*
X112390Y83336D01*
X115084D01*
X115104Y83289D01*
X115208Y83153D01*
X115344Y83049D01*
X115502Y82984D01*
X115672Y82961D01*
X115841Y82984D01*
X115999Y83049D01*
X116135Y83153D01*
X116239Y83289D01*
X116305Y83447D01*
X116327Y83617D01*
X116305Y83786D01*
X116239Y83945D01*
X116135Y84080D01*
X115999Y84185D01*
X115841Y84250D01*
X115672Y84272D01*
D02*
G37*
G36*
X79726Y85323D02*
X79564Y85301D01*
X79320Y85200D01*
X79110Y85039D01*
X78949Y84829D01*
X78848Y84585D01*
X78826Y84423D01*
X79726D01*
Y85323D01*
D02*
G37*
G36*
X70121Y81768D02*
X69467D01*
Y81164D01*
X70121D01*
Y81768D01*
D02*
G37*
G36*
X79726Y84223D02*
X78826D01*
X78848Y84061D01*
X78949Y83817D01*
X79110Y83607D01*
X79320Y83446D01*
X79564Y83345D01*
X79726Y83324D01*
Y84223D01*
D02*
G37*
G36*
X74113Y89503D02*
Y87880D01*
X75736D01*
X75715Y88097D01*
X75614Y88427D01*
X75451Y88732D01*
X75232Y88999D01*
X74965Y89218D01*
X74660Y89381D01*
X74330Y89482D01*
X74113Y89503D01*
D02*
G37*
G36*
X137857Y96644D02*
X136443D01*
Y95331D01*
X137031D01*
Y94873D01*
X136440D01*
Y92773D01*
X138540D01*
Y93364D01*
X138651D01*
X141265Y90751D01*
X141413Y90651D01*
X141589Y90616D01*
X143241D01*
Y90475D01*
X143276Y90299D01*
X143376Y90151D01*
X143476Y90083D01*
X143476Y90014D01*
Y90014D01*
X143476Y89982D01*
X143476Y89982D01*
X143476D01*
Y89075D01*
X145874D01*
Y89572D01*
X145974Y89578D01*
X145978Y89548D01*
X146043Y89390D01*
X146147Y89254D01*
X146283Y89150D01*
X146441Y89085D01*
X146611Y89062D01*
X146781Y89085D01*
X146939Y89150D01*
X147075Y89254D01*
X147179Y89390D01*
X147244Y89548D01*
X147267Y89718D01*
X147244Y89888D01*
X147179Y90046D01*
X147075Y90182D01*
X147070Y90185D01*
Y90925D01*
X147650D01*
Y92325D01*
X146150D01*
Y91977D01*
X145990D01*
X145974Y91999D01*
X145826Y92099D01*
X145650Y92134D01*
X145474Y92099D01*
X145445Y92079D01*
X145357Y92126D01*
Y92809D01*
X145455Y92884D01*
X145559Y93020D01*
X145624Y93178D01*
X145647Y93348D01*
X145624Y93518D01*
X145559Y93676D01*
X145455Y93812D01*
X145319Y93916D01*
X145161Y93981D01*
X144991Y94004D01*
X144821Y93981D01*
X144663Y93916D01*
X144527Y93812D01*
X144423Y93676D01*
X144358Y93518D01*
X144335Y93348D01*
X144358Y93178D01*
X144423Y93020D01*
X144527Y92884D01*
X144643Y92796D01*
Y92126D01*
X144555Y92079D01*
X144526Y92099D01*
X144350Y92134D01*
X144174Y92099D01*
X144026Y91999D01*
X144024D01*
X143876Y92099D01*
X143700Y92134D01*
X143524Y92099D01*
X143376Y91999D01*
X143276Y91851D01*
X143241Y91675D01*
Y91534D01*
X141779D01*
X139165Y94147D01*
X139017Y94247D01*
X138841Y94282D01*
X138540D01*
Y94873D01*
X137949D01*
Y95648D01*
X137914Y95823D01*
X137857Y95908D01*
Y96644D01*
D02*
G37*
G36*
X143600Y86775D02*
X143246D01*
Y85821D01*
X143600D01*
Y86775D01*
D02*
G37*
G36*
X73859Y89503D02*
X73642Y89482D01*
X73312Y89381D01*
X73007Y89218D01*
X72740Y88999D01*
X72521Y88732D01*
X72358Y88427D01*
X72257Y88097D01*
X72236Y87880D01*
X73859D01*
Y89503D01*
D02*
G37*
G36*
X64478Y80002D02*
X63901D01*
Y79375D01*
X64478D01*
Y80002D01*
D02*
G37*
G36*
X69267Y80964D02*
X68613D01*
Y80360D01*
X69267D01*
Y80964D01*
D02*
G37*
G36*
X104142Y79175D02*
X103400D01*
Y78889D01*
X103775D01*
X103923Y78918D01*
X104048Y79002D01*
X104132Y79127D01*
X104142Y79175D01*
D02*
G37*
G36*
X66909Y80002D02*
X66305D01*
Y79348D01*
X66909D01*
Y80002D01*
D02*
G37*
G36*
X103775Y81161D02*
X103400D01*
Y80875D01*
X104142D01*
X104132Y80923D01*
X104048Y81048D01*
X103923Y81132D01*
X103775Y81161D01*
D02*
G37*
G36*
X69267Y81768D02*
X68613D01*
Y81164D01*
X69267D01*
Y81768D01*
D02*
G37*
G36*
X70121Y80964D02*
X69467D01*
Y80360D01*
X70121D01*
Y80964D01*
D02*
G37*
G36*
X103200Y81161D02*
X102825D01*
X102677Y81132D01*
X102552Y81048D01*
X102468Y80923D01*
X102458Y80875D01*
X103200D01*
Y81161D01*
D02*
G37*
G36*
X88241Y97425D02*
X87387D01*
Y96621D01*
X88241D01*
Y97425D01*
D02*
G37*
G36*
X89295D02*
X88441D01*
Y96621D01*
X89295D01*
Y97425D01*
D02*
G37*
G36*
X73246Y94109D02*
X72592D01*
Y93455D01*
X73246D01*
Y94109D01*
D02*
G37*
G36*
X133300Y98500D02*
X130395D01*
X130424Y98129D01*
X130534Y97669D01*
X130715Y97232D01*
X130962Y96829D01*
X131269Y96469D01*
X131629Y96162D01*
X132032Y95915D01*
X132469Y95734D01*
X132929Y95624D01*
X133300Y95595D01*
Y98500D01*
D02*
G37*
G36*
X67814Y99417D02*
X66649D01*
Y98267D01*
X66692Y97940D01*
X66819Y97635D01*
X67020Y97373D01*
X67282Y97172D01*
X67587Y97045D01*
X67814Y97016D01*
Y99417D01*
D02*
G37*
G36*
X68014Y102019D02*
Y99517D01*
Y97016D01*
X68241Y97045D01*
X68546Y97172D01*
X68808Y97373D01*
X69009Y97635D01*
X69136Y97940D01*
X69179Y98267D01*
Y98563D01*
X69841D01*
Y99517D01*
Y100471D01*
X69179D01*
Y100767D01*
X69136Y101095D01*
X69009Y101400D01*
X68808Y101662D01*
X68546Y101863D01*
X68241Y101989D01*
X68014Y102019D01*
D02*
G37*
G36*
X137050Y97462D02*
X136439D01*
Y96902D01*
X137050D01*
Y97462D01*
D02*
G37*
G36*
X137861D02*
X137250D01*
Y96902D01*
X137861D01*
Y97462D01*
D02*
G37*
G36*
X75084Y93269D02*
X74473D01*
Y92708D01*
X75084D01*
Y93269D01*
D02*
G37*
G36*
X75895D02*
X75284D01*
Y92708D01*
X75895D01*
Y93269D01*
D02*
G37*
G36*
X75084Y92508D02*
X74473D01*
Y91948D01*
X75084D01*
Y92508D01*
D02*
G37*
G36*
X75895D02*
X75284D01*
Y91948D01*
X75895D01*
Y92508D01*
D02*
G37*
G36*
X69046Y94109D02*
X68392D01*
Y93455D01*
X69046D01*
Y94109D01*
D02*
G37*
G36*
X72392D02*
X71738D01*
Y93455D01*
X72392D01*
Y94109D01*
D02*
G37*
G36*
X71492Y93997D02*
X69292D01*
Y92897D01*
X71492D01*
Y93997D01*
D02*
G37*
G36*
X68192Y94109D02*
X67538D01*
Y93455D01*
X68192D01*
Y94109D01*
D02*
G37*
%LPD*%
D10*
X137516Y55499D02*
G03*
X139878Y56058I-1010J9541D01*
G01*
X78211Y65118D02*
Y65518D01*
X77811Y65918D02*
X78211Y65518D01*
X75699Y64778D02*
X76839Y65918D01*
X77811D01*
X75699Y64606D02*
Y64778D01*
X75230Y64137D02*
X75699Y64606D01*
X74631Y64123D02*
X75230D01*
Y64137D01*
X74426Y63918D02*
X74631Y64123D01*
X76813Y65118D02*
X77211D01*
X76153Y64458D02*
X76813Y65118D01*
X76153Y63860D02*
Y64458D01*
X75616Y63323D02*
X76153Y63860D01*
X75230Y63323D02*
X75616D01*
X74544Y63410D02*
X74631Y63323D01*
X75230D01*
X70080Y63699D02*
X71374D01*
X71663Y63410D01*
X74544D01*
X70080Y64499D02*
X71374D01*
X71955Y63918D01*
X74426D01*
X72911Y77636D02*
X78411Y72136D01*
Y66918D02*
Y72136D01*
Y66918D02*
X79519Y65810D01*
Y64326D02*
Y65810D01*
X72403Y77426D02*
X77811Y72018D01*
Y66618D02*
Y72018D01*
Y66618D02*
X79011Y65418D01*
Y64536D02*
Y65418D01*
X90303Y89210D02*
Y91626D01*
X89693Y88600D02*
X90303Y89210D01*
X88650Y88600D02*
X89693D01*
X89909Y88092D02*
X90757Y88940D01*
Y91890D01*
X88650Y88092D02*
X89909D01*
X87929Y94718D02*
X90757Y91890D01*
X77311Y78418D02*
X79511Y80618D01*
X80429D01*
X80211Y81718D02*
X80811D01*
X80429Y80618D02*
X81711Y81900D01*
X80811Y81718D02*
X81203Y82110D01*
Y85308D01*
X81711Y81900D02*
Y85518D01*
X79403Y87108D02*
X81203Y85308D01*
X79911Y87318D02*
X81711Y85518D01*
X79403Y87108D02*
Y89028D01*
X81111Y88818D02*
X81329Y88600D01*
X83650D01*
X79403Y89028D02*
X80483Y90108D01*
X83650D01*
X80693Y89600D02*
X83650D01*
X79911Y87318D02*
Y88818D01*
X81111Y87918D02*
X81285Y88092D01*
X83650D01*
X79911Y88818D02*
X80693Y89600D01*
X87719Y94210D02*
X90303Y91626D01*
X81421Y94210D02*
X87719D01*
X78119Y90908D02*
X81421Y94210D01*
X81211Y94718D02*
X87929D01*
X77611Y91118D02*
X81211Y94718D01*
X77611Y85836D02*
Y91118D01*
X78119Y85626D02*
Y90908D01*
X72403Y80628D02*
X77611Y85836D01*
X72911Y80418D02*
X78119Y85626D01*
X76930Y64123D02*
X77529D01*
X77674Y63978D01*
X78453D01*
X79011Y64536D01*
X72403Y77426D02*
Y80628D01*
X76930Y63323D02*
X77529D01*
X77676Y63470D01*
X78663D01*
X79519Y64326D01*
X72911Y77636D02*
Y80418D01*
X134650Y89600D02*
X135382D01*
X135803Y90021D01*
X134650Y90100D02*
X135240D01*
X135615Y90475D01*
X137211D01*
X137490Y90754D01*
Y91323D01*
X135803Y90021D02*
X137157D01*
X137490Y89688D01*
Y89323D02*
Y89688D01*
D11*
X97307Y78435D02*
D03*
X98882D02*
D03*
X75442Y78923D02*
D03*
X73868D02*
D03*
D12*
X105969Y71641D02*
D03*
Y73241D02*
D03*
X146900Y93225D02*
D03*
Y91625D02*
D03*
X146925Y86400D02*
D03*
Y84800D02*
D03*
X69367Y77153D02*
D03*
Y78753D02*
D03*
Y82664D02*
D03*
Y81064D02*
D03*
D13*
X71741Y99517D02*
D03*
X69941D02*
D03*
D14*
X99950Y80775D02*
D03*
Y80275D02*
D03*
Y79775D02*
D03*
Y79275D02*
D03*
X103300Y80775D02*
D03*
Y80275D02*
D03*
Y79775D02*
D03*
Y79275D02*
D03*
D15*
X143700Y86875D02*
D03*
D16*
X144350D02*
D03*
X145000D02*
D03*
X145650D02*
D03*
X143700Y91075D02*
D03*
X144350D02*
D03*
X145000D02*
D03*
X145650D02*
D03*
D17*
X144675Y88975D02*
D03*
D18*
X137150Y97562D02*
D03*
Y95988D02*
D03*
X75184Y94183D02*
D03*
Y92608D02*
D03*
X74830Y65186D02*
D03*
Y66760D02*
D03*
D19*
X76797Y95758D02*
D03*
X75197D02*
D03*
X64605Y79248D02*
D03*
X66205D02*
D03*
X81470Y74727D02*
D03*
X79870D02*
D03*
D20*
X74305Y80373D02*
D03*
X75555D02*
D03*
D21*
X132150Y92350D02*
D03*
Y70850D02*
D03*
X86150Y92350D02*
D03*
Y70850D02*
D03*
D22*
X88650Y73100D02*
D03*
Y73600D02*
D03*
Y74100D02*
D03*
Y74600D02*
D03*
Y75100D02*
D03*
Y75600D02*
D03*
Y76100D02*
D03*
Y76600D02*
D03*
Y77100D02*
D03*
Y77600D02*
D03*
Y78100D02*
D03*
Y78600D02*
D03*
Y79100D02*
D03*
Y79600D02*
D03*
Y80100D02*
D03*
Y80600D02*
D03*
Y81100D02*
D03*
Y81600D02*
D03*
Y82100D02*
D03*
Y82600D02*
D03*
Y83100D02*
D03*
Y83600D02*
D03*
Y84100D02*
D03*
Y84600D02*
D03*
Y85100D02*
D03*
Y85600D02*
D03*
Y86100D02*
D03*
Y86600D02*
D03*
Y87100D02*
D03*
Y87600D02*
D03*
Y88100D02*
D03*
Y88600D02*
D03*
Y89100D02*
D03*
Y89600D02*
D03*
Y90100D02*
D03*
X83650Y73100D02*
D03*
Y73600D02*
D03*
Y74100D02*
D03*
Y74600D02*
D03*
Y75100D02*
D03*
Y75600D02*
D03*
Y76100D02*
D03*
Y76600D02*
D03*
Y77100D02*
D03*
Y77600D02*
D03*
Y78100D02*
D03*
Y78600D02*
D03*
Y79100D02*
D03*
Y79600D02*
D03*
Y80100D02*
D03*
Y80600D02*
D03*
Y81100D02*
D03*
Y81600D02*
D03*
Y82100D02*
D03*
Y82600D02*
D03*
Y83100D02*
D03*
Y83600D02*
D03*
Y84100D02*
D03*
Y84600D02*
D03*
Y85100D02*
D03*
Y85600D02*
D03*
Y86100D02*
D03*
Y86600D02*
D03*
Y87100D02*
D03*
Y87600D02*
D03*
Y88100D02*
D03*
Y88600D02*
D03*
Y89100D02*
D03*
Y89600D02*
D03*
Y90100D02*
D03*
X129650Y73100D02*
D03*
X134650Y73100D02*
D03*
Y73600D02*
D03*
Y74100D02*
D03*
Y74600D02*
D03*
Y75100D02*
D03*
Y75600D02*
D03*
Y76100D02*
D03*
Y76600D02*
D03*
Y77100D02*
D03*
Y77600D02*
D03*
Y78100D02*
D03*
Y78600D02*
D03*
Y79100D02*
D03*
Y79600D02*
D03*
Y80100D02*
D03*
Y80600D02*
D03*
Y81100D02*
D03*
Y81600D02*
D03*
Y82100D02*
D03*
Y82600D02*
D03*
Y83100D02*
D03*
Y83600D02*
D03*
Y84100D02*
D03*
Y84600D02*
D03*
Y85100D02*
D03*
Y85600D02*
D03*
Y86100D02*
D03*
Y86600D02*
D03*
Y87100D02*
D03*
Y87600D02*
D03*
Y88100D02*
D03*
Y88600D02*
D03*
Y89100D02*
D03*
Y89600D02*
D03*
Y90100D02*
D03*
X129650Y73600D02*
D03*
Y74100D02*
D03*
Y74600D02*
D03*
Y75100D02*
D03*
Y75600D02*
D03*
Y76100D02*
D03*
Y76600D02*
D03*
Y77100D02*
D03*
Y77600D02*
D03*
Y78100D02*
D03*
Y78600D02*
D03*
Y79100D02*
D03*
Y79600D02*
D03*
Y80100D02*
D03*
Y80600D02*
D03*
Y81100D02*
D03*
Y81600D02*
D03*
Y82100D02*
D03*
Y82600D02*
D03*
Y83100D02*
D03*
Y83600D02*
D03*
Y84100D02*
D03*
Y84600D02*
D03*
Y85100D02*
D03*
Y85600D02*
D03*
Y86100D02*
D03*
Y86600D02*
D03*
Y87100D02*
D03*
Y87600D02*
D03*
Y88100D02*
D03*
Y88600D02*
D03*
Y89100D02*
D03*
Y89600D02*
D03*
Y90100D02*
D03*
D23*
X75230Y64123D02*
D03*
Y63323D02*
D03*
X76930D02*
D03*
Y64123D02*
D03*
D24*
X65830Y58799D02*
D03*
Y68599D02*
D03*
D25*
X70080Y63699D02*
D03*
Y62099D02*
D03*
Y62899D02*
D03*
Y64499D02*
D03*
Y65299D02*
D03*
D26*
Y58799D02*
D03*
Y68599D02*
D03*
D27*
X88341Y99325D02*
D03*
Y97525D02*
D03*
D28*
X85425Y99568D02*
D03*
D29*
X79625Y97268D02*
D03*
Y99568D02*
D03*
Y101868D02*
D03*
D30*
X70392Y93447D02*
D03*
D31*
X68292Y95809D02*
D03*
Y94209D02*
D03*
X72492Y95809D02*
D03*
Y94209D02*
D03*
D32*
X140894Y70528D02*
D03*
D33*
X143256Y72628D02*
D03*
X141656D02*
D03*
X143256Y68428D02*
D03*
X141656D02*
D03*
D34*
X98882Y78435D02*
X98938Y78379D01*
X99950D01*
X105961Y76418D02*
X105969Y76410D01*
Y73241D02*
Y76410D01*
X82474Y74727D02*
X83101Y74100D01*
X81470Y74727D02*
X82474D01*
X83101Y74100D02*
X83650D01*
X81470Y74727D02*
X81750Y75006D01*
X82595D02*
X83001Y74600D01*
X81750Y75006D02*
X82595D01*
X83001Y74600D02*
X83650D01*
X84299Y81600D02*
X85611Y80288D01*
X83650Y81600D02*
X84299D01*
X85611Y73518D02*
Y80288D01*
X83650Y79600D02*
X83654Y79604D01*
X84887D01*
X74717Y65299D02*
X74830Y65186D01*
X70080Y65299D02*
X74717D01*
X76726Y62433D02*
X76811Y62518D01*
X73127Y62433D02*
X76726D01*
X72661Y62899D02*
X73127Y62433D01*
X70080Y62899D02*
X72661D01*
X145111Y89236D02*
X145325Y89450D01*
X145879D01*
X143154Y88475D02*
X144068D01*
X144211Y88618D01*
X143700Y88000D02*
X144675Y88975D01*
X143211Y89518D02*
X144132D01*
X144675Y88975D01*
X143111Y88518D02*
X143154Y88475D01*
X145132Y88518D02*
X146111D01*
X144675Y88975D02*
X145132Y88518D01*
X145879Y89450D02*
X146211Y89118D01*
X142711Y84818D02*
X144818D01*
X140851Y86678D02*
X142711Y84818D01*
X138901Y86678D02*
X140851D01*
X145650Y85657D02*
Y86875D01*
X145500Y85507D02*
X145650Y85657D01*
X144818Y84818D02*
X145500Y85500D01*
Y85507D01*
X137611Y71718D02*
X137767D01*
X140911Y74862D01*
Y77774D01*
X137911Y80773D02*
X140911Y77774D01*
X137911Y80773D02*
Y80818D01*
X140511Y75028D02*
Y77608D01*
X139501Y74018D02*
X140511Y75028D01*
X136311Y79718D02*
X136911Y79118D01*
X139001D01*
X140511Y77608D01*
X138811Y74018D02*
X139501D01*
X137611Y72818D02*
X138811Y74018D01*
X139311Y75518D02*
X139811Y76018D01*
X138421Y75518D02*
X139311D01*
X138811Y75118D02*
X139211Y74718D01*
X137839Y76100D02*
X138421Y75518D01*
X134650Y76100D02*
X137839D01*
X137773Y75600D02*
X138255Y75118D01*
X134650Y75600D02*
X137773D01*
X138255Y75118D02*
X138811D01*
X138329Y76600D02*
X138711Y76218D01*
X134650Y76600D02*
X138329D01*
X135611Y78412D02*
Y81018D01*
X136711Y78418D02*
X138711D01*
X137829Y77618D02*
X138011D01*
X137311Y77100D02*
X137829Y77618D01*
X134650Y77600D02*
X135893D01*
X136711Y78418D01*
X134650Y77100D02*
X137311D01*
X131493Y78600D02*
X134650D01*
X130850Y77957D02*
X131493Y78600D01*
X131011Y79118D02*
X131029Y79100D01*
X132311Y75718D02*
Y76718D01*
X132211Y75618D02*
X132311Y75718D01*
X128611Y73318D02*
X128893Y73600D01*
X146311Y82467D02*
X147711Y81067D01*
X132111Y60568D02*
Y67118D01*
X129011Y70218D02*
X132111Y67118D01*
X131711Y60402D02*
Y66952D01*
X128611Y70052D02*
X131711Y66952D01*
X131311Y60236D02*
Y66787D01*
X128211Y69887D02*
X131311Y66787D01*
X128211Y69887D02*
Y73718D01*
X128611Y70052D02*
Y73318D01*
X129011Y70218D02*
Y72918D01*
X134311Y62618D02*
X137011Y59918D01*
X134311Y62618D02*
Y71404D01*
X134711Y63028D02*
X138176Y59563D01*
X134711Y63028D02*
Y71570D01*
X134650Y72196D02*
Y73100D01*
Y72196D02*
X135111Y71735D01*
X130681Y75600D02*
X134711Y71570D01*
X130615Y75100D02*
X134311Y71404D01*
X135111Y63618D02*
Y71735D01*
Y63618D02*
X137011Y61718D01*
X130549Y74600D02*
X133911Y71238D01*
Y60818D02*
X135166Y59563D01*
X131311Y60236D02*
X131611Y59936D01*
Y56718D02*
Y59936D01*
X131711Y60402D02*
X132011Y60102D01*
Y58108D02*
Y60102D01*
X132111Y60568D02*
X133096Y59583D01*
Y59563D02*
Y59583D01*
X132311Y76718D02*
X133693Y78100D01*
X134650D01*
X136811Y68718D02*
Y73813D01*
X136369Y65594D02*
Y73662D01*
X135969Y65160D02*
Y73496D01*
X135569Y64160D02*
Y73330D01*
X135431Y74600D02*
X136369Y73662D01*
X135365Y74100D02*
X135969Y73496D01*
X135299Y73600D02*
X135569Y73330D01*
X135524Y75100D02*
X136811Y73813D01*
X134650Y75100D02*
X135524D01*
X136811Y68718D02*
X139230Y66299D01*
Y65299D02*
Y66299D01*
Y65299D02*
X140011Y64518D01*
Y64118D02*
Y64518D01*
X135569Y64160D02*
X138411Y61318D01*
X139411D01*
X135969Y65160D02*
X138011Y63118D01*
X136369Y65594D02*
X139011Y62952D01*
X147711Y70618D02*
Y81067D01*
X139311Y63418D02*
X140511D01*
X134650Y74100D02*
X135365D01*
X134650Y73600D02*
X135299D01*
X135374Y78175D02*
X135611Y78412D01*
X134725Y78175D02*
X135374D01*
X135611Y81018D02*
X136311Y81718D01*
X144991Y93348D02*
X145000Y93339D01*
Y91075D02*
Y93339D01*
X137946Y85723D02*
X138901Y86678D01*
X138541Y85258D02*
X139051Y85768D01*
X136934Y85258D02*
X138541D01*
X137034Y85723D02*
X137946D01*
X136390Y86367D02*
X137034Y85723D01*
X147561Y87848D02*
X148125Y88412D01*
Y92583D01*
X145921Y84778D02*
X145943Y84800D01*
X146925D01*
X135990Y86202D02*
X136934Y85258D01*
X147483Y93225D02*
X148125Y92583D01*
X81911Y93218D02*
X82411Y93718D01*
X76011Y66118D02*
X76311Y66418D01*
X76811D01*
X77211Y66818D01*
Y67718D01*
X76211Y68718D02*
X77211Y67718D01*
X84211Y60518D02*
X84363D01*
X84418Y60573D01*
X85066D01*
X85466Y60973D01*
X83611Y59918D02*
X84211Y60518D01*
X85466Y60973D02*
X87586D01*
X85666Y60573D02*
X87786D01*
X84611Y59518D02*
X85666Y60573D01*
X87786D02*
X91131Y63918D01*
X73868Y77661D02*
X74961Y76568D01*
X73868Y77661D02*
Y78923D01*
X76294Y76718D02*
X78011D01*
X74611Y78401D02*
X76294Y76718D01*
X74611Y78401D02*
Y80067D01*
X143700Y86875D02*
Y88000D01*
X135990Y86202D02*
Y87539D01*
X134650Y78100D02*
X134725Y78175D01*
X127611Y78500D02*
Y78518D01*
X129001Y82600D02*
X129650D01*
X124611Y78210D02*
X129001Y82600D01*
X124611Y71398D02*
Y78210D01*
X127611Y78500D02*
X128011Y78100D01*
X129650D01*
Y74600D02*
X130549D01*
X129650Y75600D02*
X130681D01*
X129650Y75100D02*
X130615D01*
X138811Y63918D02*
X139311Y63418D01*
X90983Y87100D02*
X91411Y87528D01*
X90393Y87100D02*
X90983D01*
X90549Y86100D02*
X91811Y87362D01*
X88650Y86100D02*
X90549D01*
X91811Y87362D02*
Y92484D01*
X91411Y87528D02*
Y92318D01*
X90493Y87600D02*
X90711Y87818D01*
X88650Y87600D02*
X90493D01*
X83650Y89100D02*
X83650Y89100D01*
X133411Y90118D02*
X134611Y91318D01*
X132611Y90118D02*
X133411D01*
X133321Y90628D02*
X134111Y91418D01*
X132321Y90628D02*
X133321D01*
X133711Y91618D02*
Y93052D01*
X133184Y91091D02*
X133711Y91618D01*
X131984Y91091D02*
X133184D01*
X134611Y91318D02*
Y93918D01*
X133611Y94918D02*
X134611Y93918D01*
X134111Y91418D02*
Y93218D01*
X132645Y94118D02*
X133711Y93052D01*
X120911Y94118D02*
X132645D01*
X131011Y90118D02*
X131984Y91091D01*
X131011Y88152D02*
Y90118D01*
X132811Y94518D02*
X134111Y93218D01*
X131411Y89718D02*
X132321Y90628D01*
X131411Y88318D02*
Y89718D01*
X131811Y89318D02*
X132611Y90118D01*
X135550Y85079D02*
X135611Y85018D01*
X135550Y85079D02*
Y87379D01*
X136390Y86367D02*
Y87705D01*
X135329Y87600D02*
X135550Y87379D01*
X134650Y87600D02*
X135329D01*
X135495Y88600D02*
X136390Y87705D01*
X134650Y88600D02*
X135495D01*
X135429Y88100D02*
X135990Y87539D01*
X84799Y90100D02*
X88650D01*
X84364Y90535D02*
X84799Y90100D01*
X82429Y73600D02*
X83650D01*
X103300Y80275D02*
X105654D01*
X104554Y79775D02*
X105961Y78368D01*
X103300Y79775D02*
X104554D01*
X99950Y78379D02*
Y79275D01*
X105961Y76418D02*
Y78368D01*
X105654Y80275D02*
X108461Y77468D01*
Y76418D02*
Y77468D01*
X119511Y93318D02*
X123411D01*
X118111Y92918D02*
X123211D01*
X119911Y95118D02*
X120911Y94118D01*
Y96118D02*
X122111Y94918D01*
X120911Y95118D02*
X121511Y94518D01*
X122111Y94918D02*
X133611D01*
X121511Y94518D02*
X132811D01*
X119901Y95118D02*
X119911D01*
X123211Y92918D02*
X128029Y88100D01*
X118911Y93918D02*
X119511Y93318D01*
X123411D02*
X128129Y88600D01*
X123911Y93718D02*
X126911Y90718D01*
X120745Y93718D02*
X123911D01*
X89629Y79600D02*
X89967Y79262D01*
X88650Y79600D02*
X89629D01*
X89938Y78018D02*
X92584D01*
X90104Y78418D02*
X92418D01*
X89856Y78100D02*
X89938Y78018D01*
X88650Y78100D02*
X89856D01*
X89922Y78600D02*
X90104Y78418D01*
X88650Y78600D02*
X89922D01*
X91101Y81418D02*
X93774D01*
X91267Y81818D02*
X93608D01*
X91432Y82218D02*
X93442D01*
X91598Y82618D02*
X93277D01*
X88650Y84100D02*
X94193D01*
X88650Y75600D02*
X92994D01*
X88650Y76100D02*
X92929D01*
X88650Y76600D02*
X92863D01*
X88650Y77100D02*
X92797D01*
X88650Y77600D02*
X92731D01*
X88650Y85100D02*
X93993D01*
X88650Y84600D02*
X94093D01*
X88650Y85600D02*
X93693D01*
X110636Y103143D02*
X112776Y105283D01*
X111036Y102115D02*
X113786Y104865D01*
X111436Y101743D02*
X114211Y104518D01*
X113211Y101518D02*
X116411Y104718D01*
Y106728D01*
X128411Y101118D02*
X131811Y104518D01*
X126791Y101518D02*
X130556Y105283D01*
X126611Y101918D02*
X129211Y104518D01*
X125051Y102318D02*
X128016Y105283D01*
X124611Y102718D02*
X126611Y104718D01*
X123611Y103118D02*
X125411Y104918D01*
X87993Y79600D02*
X88650D01*
X87711Y79318D02*
X87993Y79600D01*
X87711Y75318D02*
Y79318D01*
Y75318D02*
X87929Y75100D01*
X88650D01*
X97511Y102418D02*
Y102518D01*
X96526Y102003D02*
Y105701D01*
X96111Y101618D02*
Y106398D01*
X97536Y107823D01*
X97511Y102418D02*
X102811Y97118D01*
X101206Y103523D02*
Y106413D01*
X131811Y88518D02*
X133611Y86718D01*
X131411Y88318D02*
X133211Y86518D01*
X131011Y88152D02*
X132811Y86352D01*
X130611Y87987D02*
X132411Y86187D01*
Y85896D02*
Y86187D01*
X130611Y87987D02*
Y90418D01*
X132811Y86062D02*
Y86352D01*
X133211Y86227D02*
Y86518D01*
X133611Y86393D02*
Y86718D01*
X131811Y88518D02*
Y89318D01*
X133838Y85600D02*
X134650D01*
X133211Y86227D02*
X133838Y85600D01*
X133773Y85100D02*
X134650D01*
X132811Y86062D02*
X133773Y85100D01*
X133707Y84600D02*
X134650D01*
X132411Y85896D02*
X133707Y84600D01*
X133566Y84175D02*
X134575D01*
X131872Y85870D02*
X133566Y84175D01*
X131872Y85870D02*
Y85979D01*
X133886Y86118D02*
X134411D01*
X133611Y86393D02*
X133886Y86118D01*
X131996Y85118D02*
X133514Y83600D01*
X131011Y85118D02*
X131996D01*
X132229Y84319D02*
X133449Y83100D01*
X131012Y84319D02*
X132229D01*
X132151Y83718D02*
X133161Y82708D01*
X132011Y83718D02*
X132151D01*
X133449Y83100D02*
X134650D01*
X133514Y83600D02*
X134650D01*
X131011Y84318D02*
X131012Y84319D01*
X133161Y82600D02*
X134650D01*
X133161D02*
Y82708D01*
X132461Y82418D02*
X132779Y82100D01*
X131727Y82102D02*
Y82402D01*
X131221Y82908D02*
Y83118D01*
Y82908D02*
X131727Y82402D01*
Y82102D02*
X132229Y81600D01*
X134650D01*
X132779Y82100D02*
X134650D01*
X132629Y80600D02*
X134650D01*
X131186Y82043D02*
X132629Y80600D01*
X133829Y87100D02*
X134650D01*
X132511Y88418D02*
X133829Y87100D01*
X131929Y79600D02*
X134650D01*
X131411Y80118D02*
X131929Y79600D01*
X131011Y80118D02*
X131411D01*
X132429Y80100D02*
X134650D01*
X131411Y81118D02*
X132429Y80100D01*
X131011Y83118D02*
X131221D01*
X128293Y83600D02*
X129650D01*
X125611Y80918D02*
X128293Y83600D01*
X125411Y81318D02*
X128193Y84100D01*
X125211Y81718D02*
X128093Y84600D01*
X125011Y82118D02*
X127993Y85100D01*
X124811Y82518D02*
X127893Y85600D01*
X124611Y82918D02*
X127793Y86100D01*
X131011Y81118D02*
X131411D01*
X71836Y80928D02*
X72818Y81910D01*
X71836Y76893D02*
Y80928D01*
Y76893D02*
X74011Y74718D01*
X74411D01*
X77011Y72118D01*
X92456Y57023D02*
X93611Y58178D01*
Y60718D01*
X91021Y69718D02*
X105011D01*
X91131Y63918D02*
X103190D01*
X90931Y64318D02*
X103024D01*
X120424Y81718D01*
X103190Y63918D02*
X120590Y81318D01*
X103355Y63518D02*
X120755Y80918D01*
X91331Y63518D02*
X103355D01*
X87376Y59563D02*
X91331Y63518D01*
X83611Y58248D02*
X84836Y57023D01*
X83611Y58248D02*
Y59918D01*
X91871Y61518D02*
X95411D01*
X77011Y69118D02*
Y72118D01*
X80129Y70600D02*
X80411Y70318D01*
X139011Y62318D02*
Y62952D01*
X138811Y63918D02*
Y65792D01*
X146900Y93225D02*
X147483D01*
X76211Y68718D02*
Y72324D01*
X131029Y79100D02*
X134650D01*
X84611Y72518D02*
X85611Y73518D01*
X75695Y80513D02*
X77286D01*
X75442Y80260D02*
X75695Y80513D01*
X75442Y78923D02*
Y80260D01*
X90411Y80118D02*
X90611Y79918D01*
X87829Y83600D02*
X88650D01*
X87711Y83718D02*
X87829Y83600D01*
X84693Y82100D02*
X85011Y82418D01*
X86811Y84918D02*
X87411D01*
X86311Y84418D02*
X86811Y84918D01*
X85329Y85600D02*
X85811Y85118D01*
X83650Y85100D02*
X84629D01*
X97343Y106518D02*
X98771D01*
X96526Y105701D02*
X97343Y106518D01*
X98771D02*
X100076Y107823D01*
Y102753D02*
Y105283D01*
X101611Y103718D02*
Y104860D01*
X101606Y104865D02*
X101611Y104860D01*
X101606Y104865D02*
Y106113D01*
X130311Y90718D02*
X130611Y90418D01*
X126911Y90718D02*
X130311D01*
X128029Y88100D02*
X129650D01*
X128129Y88600D02*
X129650D01*
X87311Y83018D02*
X87411Y82918D01*
X83650Y85600D02*
X85329D01*
X115316Y107823D02*
X116411Y106728D01*
X114211Y104518D02*
Y106118D01*
X113786Y104865D02*
Y105893D01*
X113811Y105918D01*
X81211Y78118D02*
X81229Y78100D01*
X81211Y80118D02*
X82229Y79100D01*
X83650D01*
X81729Y78600D02*
X83650D01*
X81211Y79118D02*
X81729Y78600D01*
X81211Y77118D02*
X81693Y77600D01*
X83650D01*
X82411Y76318D02*
X82693Y76600D01*
X83650D01*
X81229Y78100D02*
X83650D01*
Y82100D02*
X84693D01*
X86411Y83718D02*
X87711D01*
X83650Y86600D02*
X86493D01*
X86611Y86718D02*
Y86918D01*
X86493Y86600D02*
X86611Y86718D01*
X120345Y94118D02*
X120745Y93718D01*
X113611Y106718D02*
X114211Y106118D01*
X107011Y106718D02*
X113611D01*
X113411Y106318D02*
X113811Y105918D01*
X109611Y106318D02*
X113411D01*
X109011Y105718D02*
X109611Y106318D01*
X109011Y104918D02*
Y105718D01*
X105156Y105283D02*
X106321Y104118D01*
X108211D01*
X109011Y104918D01*
X105906Y107823D02*
X107011Y106718D01*
X105156Y107823D02*
X105906D01*
X101206Y106413D02*
X102616Y107823D01*
X101606Y106113D02*
X102211Y106718D01*
X106261D01*
X107696Y105283D01*
X88650Y81100D02*
X89803D01*
X88650Y81600D02*
X89737D01*
X90293Y80600D02*
X90611Y80918D01*
X88650Y80600D02*
X90293D01*
X98611Y79918D02*
X98611Y79918D01*
X98811Y79918D02*
X99168Y80275D01*
X98611Y79918D02*
X98811D01*
X99168Y80275D02*
X99950D01*
X100111Y80818D02*
Y81518D01*
X88811Y80118D02*
X90411D01*
X126611Y104718D02*
Y106518D01*
X124411Y106758D02*
X125476Y107823D01*
X124411Y104518D02*
Y106758D01*
X123411Y103518D02*
X124411Y104518D01*
X121811Y103518D02*
X123411D01*
X121811D02*
X123211D01*
X128016Y107823D02*
X129211Y106628D01*
Y104518D02*
Y106628D01*
X131811Y104518D02*
Y106568D01*
X130556Y107823D02*
X131811Y106568D01*
X134575Y84175D02*
X134650Y84100D01*
X90811Y68518D02*
X105527D01*
X128393Y83100D02*
X129650D01*
X125811Y80518D02*
X128393Y83100D01*
X95411Y61518D02*
X96211Y60718D01*
X89916Y59563D02*
X91871Y61518D01*
X104011Y62118D02*
X106611Y64718D01*
X104011Y58418D02*
Y62118D01*
X102616Y57023D02*
X104011Y58418D01*
X106611Y58478D02*
Y63118D01*
X105156Y57023D02*
X106611Y58478D01*
X109011Y66318D02*
X109411D01*
X107696Y65003D02*
X109011Y66318D01*
X107696Y59563D02*
Y65003D01*
Y57023D02*
X109011Y58338D01*
Y62918D01*
X108611Y63318D02*
X109011Y62918D01*
X108611Y63318D02*
Y64718D01*
X109411Y63918D02*
X110236Y63093D01*
Y59563D02*
Y63093D01*
X111246Y58033D02*
Y70843D01*
X110236Y57023D02*
X111246Y58033D01*
X111646Y58153D02*
Y60953D01*
X112811Y62118D01*
X111646Y58153D02*
X112776Y57023D01*
X115316Y59563D02*
Y60972D01*
X114211Y58128D02*
Y60432D01*
Y58128D02*
X115316Y57023D01*
X117856D02*
X119211Y58378D01*
X135166Y59563D02*
X135636D01*
X134626Y56013D02*
X135636Y57023D01*
X132316Y56013D02*
X134626D01*
X131611Y56718D02*
X132316Y56013D01*
X134650Y74600D02*
X135431D01*
X132011Y58108D02*
X133096Y57023D01*
X128211Y73718D02*
X128593Y74100D01*
X129650D01*
X128893Y73600D02*
X129650D01*
X137011Y58188D02*
X138176Y57023D01*
X81011Y92318D02*
X82794Y90535D01*
X84364D01*
X74830Y65186D02*
X75079D01*
X76011Y66118D01*
X133611Y87918D02*
Y88918D01*
Y87918D02*
X133929Y87600D01*
X134650D01*
X133611Y88918D02*
X133793Y89100D01*
X135871D01*
X145650Y86875D02*
X146450D01*
X146925Y86400D01*
X134650Y88100D02*
X135429D01*
X78011Y76718D02*
X80129Y74600D01*
X74305Y80373D02*
X74611Y80067D01*
X99950Y79275D02*
Y79775D01*
X127829Y87100D02*
X129650D01*
X125211Y89718D02*
X127829Y87100D01*
X90321Y81618D02*
X90901D01*
X90155Y82018D02*
X91067D01*
X89990Y82418D02*
X91232D01*
X89824Y82818D02*
X91398D01*
X89540Y83100D02*
X89658Y83218D01*
X92475D01*
X89803Y81100D02*
X90321Y81618D01*
X89737Y81600D02*
X90155Y82018D01*
X88650Y83100D02*
X89540D01*
X88650Y82100D02*
X89672D01*
X89990Y82418D01*
X88650Y82600D02*
X89606D01*
X89824Y82818D01*
X90901Y81618D02*
X91101Y81418D01*
X91067Y82018D02*
X91267Y81818D01*
X91232Y82418D02*
X91432Y82218D01*
X91398Y82818D02*
X91598Y82618D01*
X137011Y58188D02*
Y59918D01*
X117856Y59563D02*
X118811Y60518D01*
Y63901D01*
X119211Y58378D02*
Y63735D01*
X112776Y59563D02*
X124611Y71398D01*
X114211Y60432D02*
X125011Y71232D01*
X115316Y60972D02*
X125411Y71067D01*
X118811Y63901D02*
X125811Y70901D01*
X119211Y63735D02*
X126211Y70735D01*
X125011Y71232D02*
Y75405D01*
X125411Y71067D02*
Y75239D01*
X127272Y77100D02*
X129650D01*
X125411Y75239D02*
X127272Y77100D01*
X125811Y70901D02*
Y75074D01*
X127337Y76600D01*
X129650D01*
X126211Y70735D02*
Y74908D01*
X127403Y76100D01*
X129650D01*
X127206Y77600D02*
X129650D01*
X125011Y75405D02*
X127206Y77600D01*
X128093Y84600D02*
X129650D01*
X128193Y84100D02*
X129650D01*
X127993Y85100D02*
X129650D01*
X127893Y85600D02*
X129650D01*
X127793Y86100D02*
X129650D01*
X119927Y82918D02*
X124611D01*
X120093Y82518D02*
X124811D01*
X120258Y82118D02*
X125011D01*
X120424Y81718D02*
X125211D01*
X120590Y81318D02*
X125411D01*
X120755Y80918D02*
X125611D01*
X120921Y80518D02*
X125811D01*
X111246Y70843D02*
X120921Y80518D01*
X90832Y64718D02*
X102858D01*
X120258Y82118D01*
X103093Y65518D02*
X120093Y82518D01*
X105527Y68518D02*
X119927Y82918D01*
X86111Y83018D02*
X87311D01*
X83650Y84600D02*
X84529D01*
X86111Y83018D01*
X84629Y85100D02*
X85311Y84418D01*
X86311D01*
X83650Y86100D02*
X86029D01*
X86211Y85918D01*
X87411D01*
X88650Y87100D02*
X90393D01*
X90411Y87118D01*
X88650Y89600D02*
X89493D01*
X89611Y89718D01*
Y91318D01*
X82411Y93718D02*
X87211D01*
X89611Y91318D01*
X88377Y95918D02*
X91811Y92484D01*
X80711Y95518D02*
X88211D01*
X80511Y95918D02*
X88377D01*
X76811Y91618D02*
X80711Y95518D01*
X76411Y91818D02*
X80511Y95918D01*
X66036Y83663D02*
X67006Y82693D01*
X69367D01*
X88211Y95518D02*
X91411Y92318D01*
X72418Y81511D02*
X72818Y81910D01*
X71436Y76727D02*
X73845Y74318D01*
X74217D02*
X76211Y72324D01*
X73845Y74318D02*
X74217D01*
X67556Y76093D02*
X68611D01*
X69486Y76968D01*
X86893Y74600D02*
X88650D01*
X86811Y74518D02*
X86893Y74600D01*
X88668Y74118D02*
X90211D01*
X88650Y74100D02*
X88668Y74118D01*
X137285Y67318D02*
X138811Y65792D01*
X96526Y102003D02*
X102211Y96318D01*
X93802Y102827D02*
X100561Y96068D01*
X93802Y102827D02*
Y106629D01*
X94996Y107823D01*
X92994Y75600D02*
X118512Y101118D01*
X128411D01*
X92929Y76100D02*
X118347Y101518D01*
X126791D01*
X92863Y76600D02*
X118181Y101918D01*
X126611D01*
X92797Y77100D02*
X118015Y102318D01*
X125051D01*
X92731Y77600D02*
X117849Y102718D01*
X124611D01*
X92584Y78018D02*
X117684Y103118D01*
X123611D01*
X92418Y78418D02*
X117518Y103518D01*
X121811D01*
X93774Y81418D02*
X111436Y99080D01*
Y101743D01*
X93608Y81818D02*
X111036Y99246D01*
Y102115D01*
X93442Y82218D02*
X110636Y99412D01*
Y103143D01*
X93277Y82618D02*
X110236Y99577D01*
Y105283D01*
X76411Y86318D02*
Y91818D01*
X129011Y72918D02*
X129193Y73100D01*
X129650D01*
X82929D02*
X83650D01*
X82411Y73618D02*
X82429Y73600D01*
X82929Y73100D01*
X81811Y72518D02*
X84611D01*
X81511Y72818D02*
X81811Y72518D01*
X81511Y72818D02*
Y73018D01*
X104011Y97018D02*
Y97318D01*
X101411Y94518D02*
Y96318D01*
X96111Y101618D02*
X101411Y96318D01*
X102611Y105283D02*
X106211Y101683D01*
X94193Y84100D02*
X106211Y96118D01*
X102911Y103418D02*
X105811Y100518D01*
X94093Y84600D02*
X105811Y96318D01*
X101611Y103718D02*
X105411Y99918D01*
X93993Y85100D02*
X105411Y96518D01*
X101206Y103523D02*
X105011Y99718D01*
X93693Y85600D02*
X105011Y96918D01*
X100076Y102753D02*
X104311Y98518D01*
X106211Y96118D02*
Y101683D01*
X105811Y96318D02*
Y100518D01*
X105411Y96518D02*
Y99918D01*
X105011Y96918D02*
Y99718D01*
X97536Y103793D02*
Y105283D01*
Y103793D02*
X104011Y97318D01*
X104311Y98018D02*
Y98518D01*
X83650Y89100D02*
X84411D01*
X83650Y87600D02*
X84411D01*
X84550Y87739D01*
X84411Y89100D02*
X87511D01*
X88650D01*
X84550Y87739D02*
Y88961D01*
X84411Y89100D02*
X84550Y88961D01*
X83650Y87100D02*
X84477D01*
X84950Y87573D01*
Y88539D01*
X85111Y88700D01*
X85629D01*
X85711Y88618D01*
Y87618D02*
Y88618D01*
X85411Y87318D02*
X85711Y87618D01*
X85411Y87118D02*
Y87318D01*
Y87118D02*
X85511Y87018D01*
X85921D01*
X86311Y87408D01*
Y88500D01*
X86511Y88700D01*
X86921D01*
X87418Y88203D01*
Y87525D02*
Y88203D01*
X105308Y83337D02*
X111887D01*
X112243Y83693D01*
X115595D01*
X115672Y83617D01*
X72818Y81910D02*
X76811Y85903D01*
X72172Y82079D02*
X76411Y86318D01*
X76811Y85903D02*
Y91618D01*
X71436Y76727D02*
Y81343D01*
X72172Y82079D01*
X87586Y60973D02*
X90931Y64318D01*
X89383Y66167D02*
X90832Y64718D01*
X93650Y65518D02*
X103093D01*
X93650Y65518D02*
X93650Y65518D01*
X91810Y65518D02*
X93650D01*
X90780Y66548D02*
X91810Y65518D01*
X88683Y67380D02*
X91021Y69718D01*
X88683Y64632D02*
Y67380D01*
Y64632D02*
X89459Y63856D01*
X75336Y94336D02*
X76556D01*
X75184Y94183D02*
X75336Y94336D01*
X75184Y94183D02*
Y95745D01*
X75197Y95758D01*
X72542D02*
X75197D01*
X72492Y95809D02*
X72542Y95758D01*
X68292Y95809D02*
X72492D01*
X76797Y95758D02*
X77357Y96318D01*
X80774D01*
X81712Y97256D01*
Y99568D01*
X141656Y68428D02*
X143586Y66497D01*
Y66493D02*
Y66497D01*
Y66493D02*
X147711Y70618D01*
X140511Y63418D02*
X143586Y66493D01*
X143256Y71315D02*
Y72628D01*
X141318Y69378D02*
X143256Y71315D01*
X138598Y69378D02*
X141318D01*
X137566Y70409D02*
X138598Y69378D01*
X133299Y67818D02*
X133911D01*
Y71238D01*
Y60818D02*
Y67818D01*
D35*
X88341Y99325D02*
X88457D01*
X84836Y105283D02*
X88341Y101778D01*
Y99325D02*
Y101778D01*
X88098Y99568D02*
X88341Y99325D01*
X85425Y99568D02*
X88098D01*
X74320Y56693D02*
X75921Y58293D01*
X77216D01*
X65830Y58799D02*
Y68599D01*
X144350Y85779D02*
Y86875D01*
Y85779D02*
X144711Y85418D01*
X145000Y85707D02*
Y86875D01*
X144711Y85418D02*
X145000Y85707D01*
X140111Y66718D02*
X142311D01*
X137511Y69318D02*
X140111Y66718D01*
X118670Y99377D02*
Y100318D01*
X100811Y74118D02*
X102211Y75518D01*
Y77718D01*
X101411Y78518D02*
X102211Y77718D01*
X90211Y74118D02*
X100811D01*
X140200Y96893D02*
Y97529D01*
X118670Y100318D02*
X119011D01*
X116511Y104018D02*
X122111D01*
X114411Y101918D02*
X116511Y104018D01*
X122111D02*
X122936Y104843D01*
X90311Y78918D02*
X92211D01*
X122936Y104843D02*
Y105283D01*
X91811Y62718D02*
X97611D01*
X98811Y61518D01*
Y59118D02*
Y61518D01*
Y59118D02*
X99611Y58318D01*
X101411D01*
X80129Y70600D02*
Y74600D01*
X84836Y105283D02*
Y107823D01*
X143700Y91075D02*
X144350D01*
X145000D01*
X145711Y91518D02*
X146900D01*
X73986Y70093D02*
Y72003D01*
X66246Y87753D02*
X73986D01*
X66805Y68148D02*
X72041D01*
X64605Y69524D02*
Y79248D01*
X146611Y89718D02*
Y91136D01*
X64605Y86112D02*
X66246Y87753D01*
X64605Y79248D02*
Y86112D01*
X89967Y79262D02*
X90311Y78918D01*
X92211D02*
X114411Y101118D01*
Y101918D01*
X137150Y95988D02*
X137490Y95648D01*
Y93823D02*
Y95648D01*
Y93823D02*
X138841D01*
X141589Y91075D01*
X143700D01*
X75741Y56818D02*
X77216Y58293D01*
X101411Y78518D02*
Y82118D01*
X118670Y99377D01*
X79625Y99568D02*
X81712D01*
X85425D01*
D36*
X73914Y99517D02*
X76163Y97268D01*
X79625D01*
X67914Y99517D02*
X69941D01*
X71741D02*
X73914D01*
D37*
X145525Y83618D02*
X148336D01*
X145325Y83818D02*
X145525Y83618D01*
D38*
X140265Y83818D02*
X145325D01*
X140200Y83753D02*
X140265Y83818D01*
X140200Y96893D02*
X148209D01*
D39*
X89916Y105113D02*
Y105283D01*
Y105113D02*
X94511Y100518D01*
Y98918D02*
Y100518D01*
X93811Y98218D02*
X94511Y98918D01*
D40*
X94261Y97768D02*
D03*
D41*
X143256Y103378D02*
D03*
Y61468D02*
D03*
X77216Y106553D02*
D03*
Y58293D02*
D03*
D42*
X82296Y59563D02*
D03*
Y107823D02*
D03*
D43*
X84836Y59563D02*
D03*
X87376D02*
D03*
X89916D02*
D03*
X92456D02*
D03*
X94996D02*
D03*
X97536D02*
D03*
X100076D02*
D03*
X102616D02*
D03*
X105156D02*
D03*
X107696D02*
D03*
X110236D02*
D03*
X112776D02*
D03*
X115316D02*
D03*
X117856D02*
D03*
X120396D02*
D03*
X122936D02*
D03*
X125476D02*
D03*
X128016D02*
D03*
X130556D02*
D03*
X133096D02*
D03*
X135636D02*
D03*
X138176D02*
D03*
X82296Y57023D02*
D03*
X84836D02*
D03*
X87376D02*
D03*
X89916D02*
D03*
X92456D02*
D03*
X94996D02*
D03*
X97536D02*
D03*
X100076D02*
D03*
X102616D02*
D03*
X105156D02*
D03*
X107696D02*
D03*
X110236D02*
D03*
X112776D02*
D03*
X115316D02*
D03*
X117856D02*
D03*
X120396D02*
D03*
X122936D02*
D03*
X125476D02*
D03*
X128016D02*
D03*
X130556D02*
D03*
X133096D02*
D03*
X135636D02*
D03*
X138176D02*
D03*
X84836Y107823D02*
D03*
X87376D02*
D03*
X89916D02*
D03*
X92456D02*
D03*
X94996D02*
D03*
X97536D02*
D03*
X100076D02*
D03*
X102616D02*
D03*
X105156D02*
D03*
X107696D02*
D03*
X110236D02*
D03*
X112776D02*
D03*
X115316D02*
D03*
X117856D02*
D03*
X120396D02*
D03*
X122936D02*
D03*
X125476D02*
D03*
X128016D02*
D03*
X130556D02*
D03*
X133096D02*
D03*
X135636D02*
D03*
X138176D02*
D03*
X82296Y105283D02*
D03*
X84836D02*
D03*
X87376D02*
D03*
X89916D02*
D03*
X92456D02*
D03*
X94996D02*
D03*
X97536D02*
D03*
X100076D02*
D03*
X102616D02*
D03*
X105156D02*
D03*
X107696D02*
D03*
X110236D02*
D03*
X112776D02*
D03*
X115316D02*
D03*
X117856D02*
D03*
X120396D02*
D03*
X122936D02*
D03*
X125476D02*
D03*
X128016D02*
D03*
X130556D02*
D03*
X133096D02*
D03*
X135636D02*
D03*
X138176D02*
D03*
D44*
X137490Y89323D02*
D03*
X137490Y86823D02*
D03*
X137490Y91323D02*
D03*
D45*
Y93823D02*
D03*
D46*
X140200Y96893D02*
D03*
Y83753D02*
D03*
D47*
X133400Y98600D02*
D03*
X84400Y64600D02*
D03*
D48*
X67730Y61499D02*
D03*
Y65899D02*
D03*
X144211Y78198D02*
D03*
Y70218D02*
D03*
D49*
X67914Y99517D02*
D03*
D50*
X73914D02*
D03*
D51*
X70914Y104217D02*
D03*
D52*
X67556Y86203D02*
D03*
X66036Y73553D02*
D03*
X67556Y76093D02*
D03*
X66036Y83663D02*
D03*
D53*
X70936Y74163D02*
D03*
Y85593D02*
D03*
D54*
X73986Y87753D02*
D03*
Y72003D02*
D03*
D55*
X77286Y75433D02*
D03*
D56*
X79826Y84323D02*
D03*
X77286Y83053D02*
D03*
X79826Y81783D02*
D03*
X77286Y80513D02*
D03*
X79826Y79243D02*
D03*
X77286Y77973D02*
D03*
X79826Y76703D02*
D03*
D57*
X110961Y76418D02*
D03*
X108461D02*
D03*
X105961D02*
D03*
X103461D02*
D03*
X100961D02*
D03*
D58*
X98461D02*
D03*
D59*
X91516Y94564D02*
D03*
D60*
X84887Y79604D02*
D03*
X78211Y65118D02*
D03*
X77211D02*
D03*
X145111Y89236D02*
D03*
X144211Y88618D02*
D03*
X144511Y85518D02*
D03*
X139211Y74718D02*
D03*
X138711Y76218D02*
D03*
X139811Y76018D02*
D03*
X136311Y79718D02*
D03*
X138011Y77618D02*
D03*
X138711Y78418D02*
D03*
X137911Y80818D02*
D03*
X137611Y72818D02*
D03*
Y71718D02*
D03*
X130911Y78118D02*
D03*
X131011Y79118D02*
D03*
X132211Y75618D02*
D03*
X136005Y81118D02*
D03*
X137511Y69318D02*
D03*
X142311Y66718D02*
D03*
X144811Y73918D02*
D03*
X147601Y87638D02*
D03*
X144991Y93348D02*
D03*
X139051Y85768D02*
D03*
X146321Y82358D02*
D03*
X145921Y84778D02*
D03*
X87418Y87525D02*
D03*
X78911Y90218D02*
D03*
X75411Y90018D02*
D03*
X69611Y71118D02*
D03*
X67611Y73118D02*
D03*
X67818Y79223D02*
D03*
X76511Y67118D02*
D03*
X79211Y67318D02*
D03*
X98811Y56418D02*
D03*
X96211D02*
D03*
X93711D02*
D03*
X101311Y60318D02*
D03*
X95611Y75018D02*
D03*
X108711Y79018D02*
D03*
X95611Y72618D02*
D03*
X93611D02*
D03*
X75011Y76618D02*
D03*
X147011Y71818D02*
D03*
Y73918D02*
D03*
X126611Y92818D02*
D03*
X115711Y93818D02*
D03*
X102611Y66418D02*
D03*
Y67718D02*
D03*
X109611Y68118D02*
D03*
X86211Y58318D02*
D03*
X96311D02*
D03*
X124011Y96518D02*
D03*
X143611Y92918D02*
D03*
X142611D02*
D03*
X127611Y78500D02*
D03*
X127011Y68718D02*
D03*
X123517Y72307D02*
D03*
X116611Y58318D02*
D03*
X117611Y61118D02*
D03*
X125011Y64518D02*
D03*
X127811D02*
D03*
X130611D02*
D03*
X140311Y62618D02*
D03*
X144811Y71818D02*
D03*
X147711Y82318D02*
D03*
X144611Y82718D02*
D03*
X142611D02*
D03*
Y91918D02*
D03*
X135311Y91718D02*
D03*
X90711Y87818D02*
D03*
X87511Y89100D02*
D03*
X92711Y97118D02*
D03*
X95111Y92918D02*
D03*
X93011Y87018D02*
D03*
X86211Y82218D02*
D03*
X70028Y60782D02*
D03*
X70079Y66319D02*
D03*
X88211Y70718D02*
D03*
X82411Y73618D02*
D03*
X99950Y78379D02*
D03*
X119911Y94118D02*
D03*
X120911Y95118D02*
D03*
X119901Y95118D02*
D03*
X118111Y92918D02*
D03*
X118911Y93918D02*
D03*
X120911Y96118D02*
D03*
X93811Y98218D02*
D03*
X94611D02*
D03*
X102811Y97118D02*
D03*
X132611Y88718D02*
D03*
X131939Y83619D02*
D03*
X131011Y82118D02*
D03*
X132461Y82418D02*
D03*
X131011Y83118D02*
D03*
X131536Y85918D02*
D03*
X130886Y85143D02*
D03*
X131011Y84118D02*
D03*
Y80118D02*
D03*
Y81118D02*
D03*
X105011Y69718D02*
D03*
X91811Y62718D02*
D03*
X101411Y58318D02*
D03*
X93611Y60718D02*
D03*
X80411Y70318D02*
D03*
X140011Y64118D02*
D03*
X139011Y62318D02*
D03*
X76811Y62518D02*
D03*
X76011Y66118D02*
D03*
X86811Y74518D02*
D03*
X81111Y87718D02*
D03*
Y88818D02*
D03*
X97511Y102518D02*
D03*
X101411Y94518D02*
D03*
X87411Y84918D02*
D03*
X86411Y83718D02*
D03*
X113211Y101518D02*
D03*
X82411Y76318D02*
D03*
X81211Y77118D02*
D03*
Y78118D02*
D03*
Y79118D02*
D03*
Y80118D02*
D03*
X98611Y79918D02*
D03*
X100111Y81518D02*
D03*
X90611Y80918D02*
D03*
Y79918D02*
D03*
X126611Y106518D02*
D03*
X89383Y66167D02*
D03*
X90811Y68518D02*
D03*
X96211Y60718D02*
D03*
X106611Y64718D02*
D03*
Y63118D02*
D03*
X109411Y66318D02*
D03*
X108611Y64718D02*
D03*
X109411Y63918D02*
D03*
X112811Y62118D02*
D03*
X139611Y61118D02*
D03*
X80911Y92218D02*
D03*
X81911Y93218D02*
D03*
X125211Y89718D02*
D03*
X146611D02*
D03*
X92811Y83318D02*
D03*
X137211Y61518D02*
D03*
X86611Y86718D02*
D03*
X85011Y82318D02*
D03*
X85811Y85118D02*
D03*
X87411Y82918D02*
D03*
X87411Y85918D02*
D03*
X77011Y69118D02*
D03*
X119011Y100318D02*
D03*
X138011Y62718D02*
D03*
X137211Y67318D02*
D03*
X81511Y73018D02*
D03*
X102611Y103718D02*
D03*
X104011Y97018D02*
D03*
X100711Y95918D02*
D03*
X102211Y96318D02*
D03*
X104311Y98018D02*
D03*
X105308Y83337D02*
D03*
X115672Y83617D02*
D03*
X90780Y66548D02*
D03*
X89459Y63856D02*
D03*
X87198Y68351D02*
D03*
X81559Y68123D02*
D03*
X76556Y94336D02*
D03*
X137566Y70409D02*
D03*
X133299Y67818D02*
D03*
M02*
