%FSLAX43Y43*%
%MOMM*%
G71*
G01*
G75*
G04 Layer_Color=8388736*
%ADD10C,0.254*%
%ADD11R,0.813X0.914*%
%ADD12R,1.000X0.900*%
%ADD13R,1.300X1.400*%
%ADD14O,1.200X0.250*%
%ADD15R,0.400X1.600*%
%ADD16O,0.400X1.600*%
%ADD17R,1.890X1.570*%
%ADD18R,0.914X0.813*%
%ADD19R,0.900X1.000*%
%ADD20R,0.800X0.800*%
%ADD21R,2.000X1.450*%
%ADD22R,1.200X0.250*%
%ADD23R,0.900X0.400*%
%ADD24R,4.000X2.050*%
%ADD25R,2.300X0.500*%
%ADD26R,3.500X2.050*%
%ADD27R,1.400X1.300*%
%ADD28R,2.400X3.300*%
%ADD29R,2.400X0.950*%
%ADD30R,1.700X0.600*%
%ADD31R,1.000X1.000*%
%ADD32R,0.600X1.700*%
%ADD33R,1.000X1.000*%
%ADD34C,0.200*%
%ADD35C,0.400*%
%ADD36C,0.500*%
%ADD37C,0.800*%
%ADD38C,1.000*%
%ADD39C,0.508*%
%ADD40R,1.700X2.100*%
%ADD41C,4.500*%
%ADD42R,1.420X1.420*%
%ADD43C,1.420*%
%ADD44C,1.600*%
%ADD45R,1.600X1.600*%
%ADD46O,3.340X1.800*%
%ADD47C,5.500*%
%ADD48C,1.000*%
%ADD49O,2.000X4.500*%
%ADD50R,2.000X5.000*%
%ADD51O,4.000X2.000*%
%ADD52C,1.700*%
%ADD53C,3.200*%
%ADD54C,3.000*%
%ADD55R,1.500X1.500*%
%ADD56C,1.500*%
%ADD57C,1.480*%
%ADD58R,1.480X1.480*%
%ADD59C,1.270*%
%ADD60C,0.800*%
G04:AMPARAMS|DCode=61|XSize=1mm|YSize=1.5mm|CornerRadius=0.25mm|HoleSize=0mm|Usage=FLASHONLY|Rotation=0.000|XOffset=0mm|YOffset=0mm|HoleType=Round|Shape=RoundedRectangle|*
%AMROUNDEDRECTD61*
21,1,1.000,1.000,0,0,0.0*
21,1,0.500,1.500,0,0,0.0*
1,1,0.500,0.250,-0.500*
1,1,0.500,-0.250,-0.500*
1,1,0.500,-0.250,0.500*
1,1,0.500,0.250,0.500*
%
%ADD61ROUNDEDRECTD61*%
%ADD62R,2.600X2.200*%
%ADD63R,0.400X0.650*%
%ADD64R,0.520X0.300*%
%ADD65R,2.200X1.200*%
%ADD66R,1.400X1.600*%
%ADD67R,1.400X1.200*%
%ADD68R,1.600X0.700*%
%ADD69C,0.305*%
%ADD70R,1.700X1.600*%
%ADD71C,0.250*%
%ADD72C,0.100*%
%ADD73C,0.120*%
%ADD74C,0.300*%
%ADD75R,1.016X1.118*%
%ADD76R,1.203X1.103*%
%ADD77R,1.503X1.603*%
%ADD78O,1.300X0.350*%
%ADD79R,0.603X1.803*%
%ADD80O,0.603X1.803*%
%ADD81R,2.093X1.773*%
%ADD82R,1.118X1.016*%
%ADD83R,1.103X1.203*%
%ADD84R,1.003X1.003*%
%ADD85R,2.040X1.490*%
%ADD86R,1.240X0.290*%
%ADD87R,1.000X0.500*%
%ADD88R,4.203X2.253*%
%ADD89R,2.503X0.703*%
%ADD90R,3.703X2.253*%
%ADD91R,1.603X1.503*%
%ADD92R,2.603X3.503*%
%ADD93R,2.603X1.153*%
%ADD94R,1.903X0.803*%
%ADD95R,1.203X1.203*%
%ADD96R,0.803X1.903*%
%ADD97R,1.203X1.203*%
%ADD98C,4.703*%
%ADD99R,1.623X1.623*%
%ADD100C,1.623*%
%ADD101C,1.803*%
%ADD102R,1.803X1.803*%
%ADD103O,3.543X2.003*%
%ADD104R,0.040X0.290*%
%ADD105C,5.600*%
%ADD106C,1.203*%
%ADD107O,2.203X4.703*%
%ADD108R,2.203X5.203*%
%ADD109O,4.203X2.203*%
%ADD110C,1.903*%
%ADD111C,3.403*%
%ADD112C,3.203*%
%ADD113R,1.703X1.703*%
%ADD114C,1.703*%
%ADD115C,1.683*%
%ADD116R,1.683X1.683*%
%ADD117C,1.473*%
%ADD118C,1.003*%
D75*
X97307Y78435D02*
D03*
X98882D02*
D03*
X75442Y78923D02*
D03*
X73868D02*
D03*
D76*
X105969Y71641D02*
D03*
Y73241D02*
D03*
X146900Y93225D02*
D03*
Y91625D02*
D03*
X146925Y86400D02*
D03*
Y84800D02*
D03*
X69367Y77153D02*
D03*
Y78753D02*
D03*
Y82664D02*
D03*
Y81064D02*
D03*
D77*
X71741Y99517D02*
D03*
X69941D02*
D03*
D78*
X99950Y80775D02*
D03*
Y80275D02*
D03*
Y79775D02*
D03*
Y79275D02*
D03*
X103300Y80775D02*
D03*
Y80275D02*
D03*
Y79775D02*
D03*
Y79275D02*
D03*
D79*
X143700Y86875D02*
D03*
D80*
X144350D02*
D03*
X145000D02*
D03*
X145650D02*
D03*
X143700Y91075D02*
D03*
X144350D02*
D03*
X145000D02*
D03*
X145650D02*
D03*
D81*
X144675Y88975D02*
D03*
D82*
X137150Y97562D02*
D03*
Y95988D02*
D03*
X75184Y94183D02*
D03*
Y92608D02*
D03*
X74830Y65186D02*
D03*
Y66760D02*
D03*
D83*
X76797Y95758D02*
D03*
X75197D02*
D03*
X64605Y79248D02*
D03*
X66205D02*
D03*
X81470Y74727D02*
D03*
X79870D02*
D03*
D84*
X74305Y80373D02*
D03*
X75555D02*
D03*
D85*
X132150Y92350D02*
D03*
Y70850D02*
D03*
X86150Y92350D02*
D03*
Y70850D02*
D03*
D86*
X88650Y73100D02*
D03*
Y73600D02*
D03*
Y74100D02*
D03*
Y74600D02*
D03*
Y75100D02*
D03*
Y75600D02*
D03*
Y76100D02*
D03*
Y76600D02*
D03*
Y77100D02*
D03*
Y77600D02*
D03*
Y78100D02*
D03*
Y78600D02*
D03*
Y79100D02*
D03*
Y79600D02*
D03*
Y80100D02*
D03*
Y80600D02*
D03*
Y81100D02*
D03*
Y81600D02*
D03*
Y82100D02*
D03*
Y82600D02*
D03*
Y83100D02*
D03*
Y83600D02*
D03*
Y84100D02*
D03*
Y84600D02*
D03*
Y85100D02*
D03*
Y85600D02*
D03*
Y86100D02*
D03*
Y86600D02*
D03*
Y87100D02*
D03*
Y87600D02*
D03*
Y88100D02*
D03*
Y88600D02*
D03*
Y89100D02*
D03*
Y89600D02*
D03*
Y90100D02*
D03*
X83650Y73100D02*
D03*
Y73600D02*
D03*
Y74100D02*
D03*
Y74600D02*
D03*
Y75100D02*
D03*
Y75600D02*
D03*
Y76100D02*
D03*
Y76600D02*
D03*
Y77100D02*
D03*
Y77600D02*
D03*
Y78100D02*
D03*
Y78600D02*
D03*
Y79100D02*
D03*
Y79600D02*
D03*
Y80100D02*
D03*
Y80600D02*
D03*
Y81100D02*
D03*
Y81600D02*
D03*
Y82100D02*
D03*
Y82600D02*
D03*
Y83100D02*
D03*
Y83600D02*
D03*
Y84100D02*
D03*
Y84600D02*
D03*
Y85100D02*
D03*
Y85600D02*
D03*
Y86100D02*
D03*
Y86600D02*
D03*
Y87100D02*
D03*
Y87600D02*
D03*
Y88100D02*
D03*
Y88600D02*
D03*
Y89100D02*
D03*
Y89600D02*
D03*
Y90100D02*
D03*
X129650Y73100D02*
D03*
X134650Y73100D02*
D03*
Y73600D02*
D03*
Y74100D02*
D03*
Y74600D02*
D03*
Y75100D02*
D03*
Y75600D02*
D03*
Y76100D02*
D03*
Y76600D02*
D03*
Y77100D02*
D03*
Y77600D02*
D03*
Y78100D02*
D03*
Y78600D02*
D03*
Y79100D02*
D03*
Y79600D02*
D03*
Y80100D02*
D03*
Y80600D02*
D03*
Y81100D02*
D03*
Y81600D02*
D03*
Y82100D02*
D03*
Y82600D02*
D03*
Y83100D02*
D03*
Y83600D02*
D03*
Y84100D02*
D03*
Y84600D02*
D03*
Y85100D02*
D03*
Y85600D02*
D03*
Y86100D02*
D03*
Y86600D02*
D03*
Y87100D02*
D03*
Y87600D02*
D03*
Y88100D02*
D03*
Y88600D02*
D03*
Y89100D02*
D03*
Y89600D02*
D03*
Y90100D02*
D03*
X129650Y73600D02*
D03*
Y74100D02*
D03*
Y74600D02*
D03*
Y75100D02*
D03*
Y75600D02*
D03*
Y76100D02*
D03*
Y76600D02*
D03*
Y77100D02*
D03*
Y77600D02*
D03*
Y78100D02*
D03*
Y78600D02*
D03*
Y79100D02*
D03*
Y79600D02*
D03*
Y80100D02*
D03*
Y80600D02*
D03*
Y81100D02*
D03*
Y81600D02*
D03*
Y82100D02*
D03*
Y82600D02*
D03*
Y83100D02*
D03*
Y83600D02*
D03*
Y84100D02*
D03*
Y84600D02*
D03*
Y85100D02*
D03*
Y85600D02*
D03*
Y86100D02*
D03*
Y86600D02*
D03*
Y87100D02*
D03*
Y87600D02*
D03*
Y88100D02*
D03*
Y88600D02*
D03*
Y89100D02*
D03*
Y89600D02*
D03*
Y90100D02*
D03*
D87*
X75230Y64123D02*
D03*
Y63323D02*
D03*
X76930D02*
D03*
Y64123D02*
D03*
D88*
X65830Y58799D02*
D03*
Y68599D02*
D03*
D89*
X70080Y63699D02*
D03*
Y62099D02*
D03*
Y62899D02*
D03*
Y64499D02*
D03*
Y65299D02*
D03*
D90*
Y58799D02*
D03*
Y68599D02*
D03*
D91*
X88341Y99325D02*
D03*
Y97525D02*
D03*
D92*
X85425Y99568D02*
D03*
D93*
X79625Y97268D02*
D03*
Y99568D02*
D03*
Y101868D02*
D03*
D94*
X70392Y93447D02*
D03*
D95*
X68292Y95809D02*
D03*
Y94209D02*
D03*
X72492Y95809D02*
D03*
Y94209D02*
D03*
D96*
X140894Y70528D02*
D03*
D97*
X143256Y72628D02*
D03*
X141656D02*
D03*
X143256Y68428D02*
D03*
X141656D02*
D03*
D98*
X143256Y103378D02*
D03*
Y61468D02*
D03*
X77216Y106553D02*
D03*
Y58293D02*
D03*
D99*
X82296Y59563D02*
D03*
Y107823D02*
D03*
D100*
X84836Y59563D02*
D03*
X87376D02*
D03*
X89916D02*
D03*
X92456D02*
D03*
X94996D02*
D03*
X97536D02*
D03*
X100076D02*
D03*
X102616D02*
D03*
X105156D02*
D03*
X107696D02*
D03*
X110236D02*
D03*
X112776D02*
D03*
X115316D02*
D03*
X117856D02*
D03*
X120396D02*
D03*
X122936D02*
D03*
X125476D02*
D03*
X128016D02*
D03*
X130556D02*
D03*
X133096D02*
D03*
X135636D02*
D03*
X138176D02*
D03*
X82296Y57023D02*
D03*
X84836D02*
D03*
X87376D02*
D03*
X89916D02*
D03*
X92456D02*
D03*
X94996D02*
D03*
X97536D02*
D03*
X100076D02*
D03*
X102616D02*
D03*
X105156D02*
D03*
X107696D02*
D03*
X110236D02*
D03*
X112776D02*
D03*
X115316D02*
D03*
X117856D02*
D03*
X120396D02*
D03*
X122936D02*
D03*
X125476D02*
D03*
X128016D02*
D03*
X130556D02*
D03*
X133096D02*
D03*
X135636D02*
D03*
X138176D02*
D03*
X84836Y107823D02*
D03*
X87376D02*
D03*
X89916D02*
D03*
X92456D02*
D03*
X94996D02*
D03*
X97536D02*
D03*
X100076D02*
D03*
X102616D02*
D03*
X105156D02*
D03*
X107696D02*
D03*
X110236D02*
D03*
X112776D02*
D03*
X115316D02*
D03*
X117856D02*
D03*
X120396D02*
D03*
X122936D02*
D03*
X125476D02*
D03*
X128016D02*
D03*
X130556D02*
D03*
X133096D02*
D03*
X135636D02*
D03*
X138176D02*
D03*
X82296Y105283D02*
D03*
X84836D02*
D03*
X87376D02*
D03*
X89916D02*
D03*
X92456D02*
D03*
X94996D02*
D03*
X97536D02*
D03*
X100076D02*
D03*
X102616D02*
D03*
X105156D02*
D03*
X107696D02*
D03*
X110236D02*
D03*
X112776D02*
D03*
X115316D02*
D03*
X117856D02*
D03*
X120396D02*
D03*
X122936D02*
D03*
X125476D02*
D03*
X128016D02*
D03*
X130556D02*
D03*
X133096D02*
D03*
X135636D02*
D03*
X138176D02*
D03*
D101*
X137490Y89323D02*
D03*
X137490Y86823D02*
D03*
X137490Y91323D02*
D03*
D102*
Y93823D02*
D03*
D103*
X140200Y96893D02*
D03*
Y83753D02*
D03*
D104*
X130250Y71850D02*
D03*
Y91350D02*
D03*
X84250Y71850D02*
D03*
Y91350D02*
D03*
D105*
X133400Y98600D02*
D03*
X84400Y64600D02*
D03*
D106*
X67730Y61499D02*
D03*
Y65899D02*
D03*
X144211Y78198D02*
D03*
Y70218D02*
D03*
D107*
X67914Y99517D02*
D03*
D108*
X73914D02*
D03*
D109*
X70914Y104217D02*
D03*
D110*
X67556Y86203D02*
D03*
X66036Y73553D02*
D03*
X67556Y76093D02*
D03*
X66036Y83663D02*
D03*
D111*
X70936Y74163D02*
D03*
Y85593D02*
D03*
D112*
X73986Y87753D02*
D03*
Y72003D02*
D03*
D113*
X77286Y75433D02*
D03*
D114*
X79826Y84323D02*
D03*
X77286Y83053D02*
D03*
X79826Y81783D02*
D03*
X77286Y80513D02*
D03*
X79826Y79243D02*
D03*
X77286Y77973D02*
D03*
X79826Y76703D02*
D03*
D115*
X110961Y76418D02*
D03*
X108461D02*
D03*
X105961D02*
D03*
X103461D02*
D03*
X100961D02*
D03*
D116*
X98461D02*
D03*
D117*
X91516Y94564D02*
D03*
D118*
X84887Y79604D02*
D03*
X78211Y65118D02*
D03*
X77211D02*
D03*
X145111Y89236D02*
D03*
X144211Y88618D02*
D03*
X144511Y85518D02*
D03*
X139211Y74718D02*
D03*
X138711Y76218D02*
D03*
X139811Y76018D02*
D03*
X136311Y79718D02*
D03*
X138011Y77618D02*
D03*
X138711Y78418D02*
D03*
X137911Y80818D02*
D03*
X137611Y72818D02*
D03*
Y71718D02*
D03*
X130911Y78118D02*
D03*
X131011Y79118D02*
D03*
X132211Y75618D02*
D03*
X136005Y81118D02*
D03*
X137511Y69318D02*
D03*
X142311Y66718D02*
D03*
X144811Y73918D02*
D03*
X147601Y87638D02*
D03*
X144991Y93348D02*
D03*
X139051Y85768D02*
D03*
X146321Y82358D02*
D03*
X145921Y84778D02*
D03*
X87418Y87525D02*
D03*
X78911Y90218D02*
D03*
X75411Y90018D02*
D03*
X69611Y71118D02*
D03*
X67611Y73118D02*
D03*
X67818Y79223D02*
D03*
X76511Y67118D02*
D03*
X79211Y67318D02*
D03*
X98811Y56418D02*
D03*
X96211D02*
D03*
X93711D02*
D03*
X101311Y60318D02*
D03*
X95611Y75018D02*
D03*
X108711Y79018D02*
D03*
X95611Y72618D02*
D03*
X93611D02*
D03*
X75011Y76618D02*
D03*
X147011Y71818D02*
D03*
Y73918D02*
D03*
X126611Y92818D02*
D03*
X115711Y93818D02*
D03*
X102611Y66418D02*
D03*
Y67718D02*
D03*
X109611Y68118D02*
D03*
X86211Y58318D02*
D03*
X96311D02*
D03*
X124011Y96518D02*
D03*
X143611Y92918D02*
D03*
X142611D02*
D03*
X127611Y78500D02*
D03*
X127011Y68718D02*
D03*
X123517Y72307D02*
D03*
X116611Y58318D02*
D03*
X117611Y61118D02*
D03*
X125011Y64518D02*
D03*
X127811D02*
D03*
X130611D02*
D03*
X140311Y62618D02*
D03*
X144811Y71818D02*
D03*
X147711Y82318D02*
D03*
X144611Y82718D02*
D03*
X142611D02*
D03*
Y91918D02*
D03*
X135311Y91718D02*
D03*
X90711Y87818D02*
D03*
X87511Y89100D02*
D03*
X92711Y97118D02*
D03*
X95111Y92918D02*
D03*
X93011Y87018D02*
D03*
X86211Y82218D02*
D03*
X70028Y60782D02*
D03*
X70079Y66319D02*
D03*
X88211Y70718D02*
D03*
X82411Y73618D02*
D03*
X99950Y78379D02*
D03*
X119911Y94118D02*
D03*
X120911Y95118D02*
D03*
X119901Y95118D02*
D03*
X118111Y92918D02*
D03*
X118911Y93918D02*
D03*
X120911Y96118D02*
D03*
X93811Y98218D02*
D03*
X94611D02*
D03*
X102811Y97118D02*
D03*
X132611Y88718D02*
D03*
X131939Y83619D02*
D03*
X131011Y82118D02*
D03*
X132461Y82418D02*
D03*
X131011Y83118D02*
D03*
X131536Y85918D02*
D03*
X130886Y85143D02*
D03*
X131011Y84118D02*
D03*
Y80118D02*
D03*
Y81118D02*
D03*
X105011Y69718D02*
D03*
X91811Y62718D02*
D03*
X101411Y58318D02*
D03*
X93611Y60718D02*
D03*
X80411Y70318D02*
D03*
X140011Y64118D02*
D03*
X139011Y62318D02*
D03*
X76811Y62518D02*
D03*
X76011Y66118D02*
D03*
X86811Y74518D02*
D03*
X81111Y87718D02*
D03*
Y88818D02*
D03*
X97511Y102518D02*
D03*
X101411Y94518D02*
D03*
X87411Y84918D02*
D03*
X86411Y83718D02*
D03*
X113211Y101518D02*
D03*
X82411Y76318D02*
D03*
X81211Y77118D02*
D03*
Y78118D02*
D03*
Y79118D02*
D03*
Y80118D02*
D03*
X98611Y79918D02*
D03*
X100111Y81518D02*
D03*
X90611Y80918D02*
D03*
Y79918D02*
D03*
X126611Y106518D02*
D03*
X89383Y66167D02*
D03*
X90811Y68518D02*
D03*
X96211Y60718D02*
D03*
X106611Y64718D02*
D03*
Y63118D02*
D03*
X109411Y66318D02*
D03*
X108611Y64718D02*
D03*
X109411Y63918D02*
D03*
X112811Y62118D02*
D03*
X139611Y61118D02*
D03*
X80911Y92218D02*
D03*
X81911Y93218D02*
D03*
X125211Y89718D02*
D03*
X146611D02*
D03*
X92811Y83318D02*
D03*
X137211Y61518D02*
D03*
X86611Y86718D02*
D03*
X85011Y82318D02*
D03*
X85811Y85118D02*
D03*
X87411Y82918D02*
D03*
X87411Y85918D02*
D03*
X77011Y69118D02*
D03*
X119011Y100318D02*
D03*
X138011Y62718D02*
D03*
X137211Y67318D02*
D03*
X81511Y73018D02*
D03*
X102611Y103718D02*
D03*
X104011Y97018D02*
D03*
X100711Y95918D02*
D03*
X102211Y96318D02*
D03*
X104311Y98018D02*
D03*
X105308Y83337D02*
D03*
X115672Y83617D02*
D03*
X90780Y66548D02*
D03*
X89459Y63856D02*
D03*
X87198Y68351D02*
D03*
X81559Y68123D02*
D03*
X76556Y94336D02*
D03*
X137566Y70409D02*
D03*
X133299Y67818D02*
D03*
M02*
