G04 Layer_Color=16711935*
%FSLAX43Y43*%
%MOMM*%
G71*
G01*
G75*
%ADD74R,1.103X1.203*%
%ADD77C,3.000*%
%ADD78R,1.016X1.118*%
%ADD79R,1.203X1.103*%
%ADD81R,1.503X1.603*%
%ADD94C,1.203*%
%ADD95C,4.703*%
%ADD96C,1.803*%
%ADD97R,1.803X1.803*%
%ADD98O,3.543X2.003*%
%ADD99R,0.040X0.290*%
%ADD100C,5.600*%
%ADD101C,1.683*%
%ADD102R,1.683X1.683*%
%ADD103C,1.903*%
%ADD104C,3.403*%
%ADD105C,3.203*%
%ADD106R,1.703X1.703*%
%ADD107C,1.703*%
%ADD108O,4.203X2.203*%
%ADD109R,2.203X5.203*%
%ADD110O,2.203X4.703*%
%ADD111C,1.623*%
%ADD112R,1.623X1.623*%
%ADD113C,0.603*%
%ADD114R,2.803X2.403*%
%ADD115R,0.603X0.853*%
%ADD116R,2.327X1.327*%
%ADD117R,1.527X1.727*%
%ADD118R,1.527X1.327*%
%ADD119R,1.728X0.828*%
%ADD120R,1.727X0.827*%
G04:AMPARAMS|DCode=121|XSize=1.203mm|YSize=1.703mm|CornerRadius=0.352mm|HoleSize=0mm|Usage=FLASHONLY|Rotation=0.000|XOffset=0mm|YOffset=0mm|HoleType=Round|Shape=RoundedRectangle|*
%AMROUNDEDRECTD121*
21,1,1.203,1.000,0,0,0.0*
21,1,0.500,1.703,0,0,0.0*
1,1,0.703,0.250,-0.500*
1,1,0.703,-0.250,-0.500*
1,1,0.703,-0.250,0.500*
1,1,0.703,0.250,0.500*
%
%ADD121ROUNDEDRECTD121*%
D74*
X89471Y77597D02*
D03*
X87871D02*
D03*
X89471Y79223D02*
D03*
X87871D02*
D03*
X89446Y80874D02*
D03*
X87846D02*
D03*
X116611Y83618D02*
D03*
X118211D02*
D03*
X116911Y85318D02*
D03*
X118511D02*
D03*
X113711Y84918D02*
D03*
X115311D02*
D03*
X120611Y86718D02*
D03*
X122211D02*
D03*
X116911Y87018D02*
D03*
X118511D02*
D03*
X113711Y86618D02*
D03*
X115311D02*
D03*
X128311Y76818D02*
D03*
X129911D02*
D03*
X130411Y67018D02*
D03*
X132011D02*
D03*
X72733Y106756D02*
D03*
X71133D02*
D03*
X64351Y62840D02*
D03*
X65951D02*
D03*
X64808Y60147D02*
D03*
X66408D02*
D03*
X64351Y64313D02*
D03*
X65951D02*
D03*
X64351Y67208D02*
D03*
X65951D02*
D03*
X130111Y68618D02*
D03*
X131711D02*
D03*
X129811Y70418D02*
D03*
X131411D02*
D03*
X127411Y71918D02*
D03*
X129011D02*
D03*
X128311Y73718D02*
D03*
X129911D02*
D03*
X128311Y75218D02*
D03*
X129911D02*
D03*
X134400Y94200D02*
D03*
X132800D02*
D03*
D77*
X65253Y92837D02*
D03*
X98730Y65126D02*
D03*
X138862Y100406D02*
D03*
D78*
X126798Y76818D02*
D03*
X125224D02*
D03*
D79*
X88265Y63310D02*
D03*
Y64910D02*
D03*
X88189Y66561D02*
D03*
Y68161D02*
D03*
X85877Y68466D02*
D03*
Y70066D02*
D03*
X83725Y68925D02*
D03*
Y70525D02*
D03*
D81*
X82234Y101829D02*
D03*
X84034D02*
D03*
X125611Y74618D02*
D03*
X123811D02*
D03*
D94*
X67730Y61499D02*
D03*
Y65899D02*
D03*
X144211Y78198D02*
D03*
Y70218D02*
D03*
D95*
X143256Y103378D02*
D03*
Y61468D02*
D03*
X77216Y106553D02*
D03*
Y58293D02*
D03*
D96*
X137490Y89323D02*
D03*
X137490Y86823D02*
D03*
X137490Y91323D02*
D03*
D97*
Y93823D02*
D03*
D98*
X140200Y96893D02*
D03*
Y83753D02*
D03*
D99*
X130250Y71850D02*
D03*
Y91350D02*
D03*
X84250Y71850D02*
D03*
Y91350D02*
D03*
D100*
X133400Y98600D02*
D03*
X84400Y64600D02*
D03*
D101*
X110961Y76418D02*
D03*
X108461D02*
D03*
X105961D02*
D03*
X103461D02*
D03*
X100961D02*
D03*
D102*
X98461D02*
D03*
D103*
X67556Y86203D02*
D03*
X66036Y73553D02*
D03*
X67556Y76093D02*
D03*
X66036Y83663D02*
D03*
D104*
X70936Y74163D02*
D03*
Y85593D02*
D03*
D105*
X73986Y87753D02*
D03*
Y72003D02*
D03*
D106*
X77286Y75433D02*
D03*
D107*
X79826Y84323D02*
D03*
X77286Y83053D02*
D03*
X79826Y81783D02*
D03*
X77286Y80513D02*
D03*
X79826Y79243D02*
D03*
X77286Y77973D02*
D03*
X79826Y76703D02*
D03*
D108*
X70914Y104217D02*
D03*
D109*
X73914Y99517D02*
D03*
D110*
X67914D02*
D03*
D111*
X138176Y57023D02*
D03*
X135636D02*
D03*
X133096D02*
D03*
X130556D02*
D03*
X128016D02*
D03*
X125476D02*
D03*
X122936D02*
D03*
X120396D02*
D03*
X117856D02*
D03*
X115316D02*
D03*
X112776D02*
D03*
X110236D02*
D03*
X107696D02*
D03*
X105156D02*
D03*
X102616D02*
D03*
X100076D02*
D03*
X97536D02*
D03*
X94996D02*
D03*
X92456D02*
D03*
X89916D02*
D03*
X87376D02*
D03*
X84836D02*
D03*
X82296D02*
D03*
X138176Y59563D02*
D03*
X135636D02*
D03*
X133096D02*
D03*
X130556D02*
D03*
X128016D02*
D03*
X125476D02*
D03*
X122936D02*
D03*
X120396D02*
D03*
X117856D02*
D03*
X115316D02*
D03*
X112776D02*
D03*
X110236D02*
D03*
X107696D02*
D03*
X105156D02*
D03*
X102616D02*
D03*
X100076D02*
D03*
X97536D02*
D03*
X94996D02*
D03*
X92456D02*
D03*
X89916D02*
D03*
X87376D02*
D03*
X84836D02*
D03*
Y107823D02*
D03*
X87376D02*
D03*
X89916D02*
D03*
X92456D02*
D03*
X94996D02*
D03*
X97536D02*
D03*
X100076D02*
D03*
X102616D02*
D03*
X105156D02*
D03*
X107696D02*
D03*
X110236D02*
D03*
X112776D02*
D03*
X115316D02*
D03*
X117856D02*
D03*
X120396D02*
D03*
X122936D02*
D03*
X125476D02*
D03*
X128016D02*
D03*
X130556D02*
D03*
X133096D02*
D03*
X135636D02*
D03*
X138176D02*
D03*
X82296Y105283D02*
D03*
X84836D02*
D03*
X87376D02*
D03*
X89916D02*
D03*
X92456D02*
D03*
X94996D02*
D03*
X97536D02*
D03*
X100076D02*
D03*
X102616D02*
D03*
X105156D02*
D03*
X107696D02*
D03*
X110236D02*
D03*
X112776D02*
D03*
X115316D02*
D03*
X117856D02*
D03*
X120396D02*
D03*
X122936D02*
D03*
X125476D02*
D03*
X128016D02*
D03*
X130556D02*
D03*
X133096D02*
D03*
X135636D02*
D03*
X138176D02*
D03*
D112*
X82296Y59563D02*
D03*
Y107823D02*
D03*
D113*
X144675Y88975D02*
D03*
X144025Y89450D02*
D03*
Y88475D02*
D03*
X145325D02*
D03*
Y89450D02*
D03*
D114*
X129025Y94300D02*
D03*
X124025D02*
D03*
D115*
X77510Y63485D02*
D03*
X76860D02*
D03*
X76210D02*
D03*
Y61585D02*
D03*
X76860D02*
D03*
X77510D02*
D03*
X77480Y66360D02*
D03*
X78130D02*
D03*
X78780D02*
D03*
Y68260D02*
D03*
X78130D02*
D03*
X77480D02*
D03*
D116*
X143811Y65518D02*
D03*
Y81018D02*
D03*
D117*
X134211Y66418D02*
D03*
D118*
Y81018D02*
D03*
D119*
X133711Y72118D02*
D03*
Y71018D02*
D03*
Y73218D02*
D03*
Y74318D02*
D03*
Y75418D02*
D03*
Y76518D02*
D03*
Y77618D02*
D03*
Y78718D02*
D03*
D120*
Y79818D02*
D03*
D121*
X65877Y106553D02*
D03*
X68377D02*
D03*
X69621Y67183D02*
D03*
X72121D02*
D03*
Y64795D02*
D03*
X69621D02*
D03*
X69571Y60020D02*
D03*
X72071D02*
D03*
X72096Y62408D02*
D03*
X69596D02*
D03*
M02*
