%FSLAX43Y43*%
%MOMM*%
G71*
G01*
G75*
G04 Layer_Physical_Order=2*
G04 Layer_Color=16711680*
%ADD10C,0.254*%
%ADD11R,0.813X0.914*%
%ADD12R,1.000X0.900*%
%ADD13R,1.300X1.400*%
%ADD14O,1.200X0.250*%
%ADD15R,0.400X1.600*%
%ADD16O,0.400X1.600*%
%ADD17R,1.890X1.570*%
%ADD18R,0.914X0.813*%
%ADD19R,0.900X1.000*%
%ADD20R,0.800X0.800*%
%ADD21R,2.000X1.450*%
%ADD22R,1.200X0.250*%
%ADD23R,0.900X0.400*%
%ADD24R,4.000X2.050*%
%ADD25R,2.300X0.500*%
%ADD26R,3.500X2.050*%
%ADD27R,1.400X1.300*%
%ADD28R,2.400X3.300*%
%ADD29R,2.400X0.950*%
%ADD30R,1.700X0.600*%
%ADD31R,1.000X1.000*%
%ADD32R,0.600X1.700*%
%ADD33R,1.000X1.000*%
%ADD34C,0.200*%
%ADD35C,0.400*%
%ADD36C,0.500*%
%ADD37C,0.800*%
%ADD38C,1.000*%
%ADD39C,0.508*%
%ADD40R,1.700X2.100*%
%ADD41C,4.500*%
%ADD42R,1.420X1.420*%
%ADD43C,1.420*%
%ADD44C,1.600*%
%ADD45R,1.600X1.600*%
%ADD46O,3.340X1.800*%
%ADD47C,5.500*%
%ADD48C,1.000*%
%ADD49O,2.000X4.500*%
%ADD50R,2.000X5.000*%
%ADD51O,4.000X2.000*%
%ADD52C,1.700*%
%ADD53C,3.200*%
%ADD54C,3.000*%
%ADD55R,1.500X1.500*%
%ADD56C,1.500*%
%ADD57C,1.480*%
%ADD58R,1.480X1.480*%
%ADD59C,1.270*%
%ADD60C,0.800*%
G04:AMPARAMS|DCode=61|XSize=1mm|YSize=1.5mm|CornerRadius=0.25mm|HoleSize=0mm|Usage=FLASHONLY|Rotation=0.000|XOffset=0mm|YOffset=0mm|HoleType=Round|Shape=RoundedRectangle|*
%AMROUNDEDRECTD61*
21,1,1.000,1.000,0,0,0.0*
21,1,0.500,1.500,0,0,0.0*
1,1,0.500,0.250,-0.500*
1,1,0.500,-0.250,-0.500*
1,1,0.500,-0.250,0.500*
1,1,0.500,0.250,0.500*
%
%ADD61ROUNDEDRECTD61*%
%ADD62R,2.600X2.200*%
%ADD63R,0.400X0.650*%
%ADD64R,0.520X0.300*%
%ADD65R,2.200X1.200*%
%ADD66R,1.400X1.600*%
%ADD67R,1.400X1.200*%
%ADD68R,1.600X0.700*%
%ADD69C,0.305*%
%ADD70R,1.700X1.600*%
G36*
X81447Y92754D02*
X81583Y92650D01*
X81741Y92585D01*
X81911Y92562D01*
X82081Y92585D01*
X82239Y92650D01*
X82375Y92754D01*
X82386Y92769D01*
X82481Y92737D01*
Y91502D01*
X82053Y91075D01*
X80411D01*
X80274Y91048D01*
X80159Y90970D01*
X72159Y82970D01*
X72081Y82855D01*
X72054Y82718D01*
Y76318D01*
X72054Y76318D01*
X72054D01*
X72081Y76181D01*
X72159Y76066D01*
X74424Y73800D01*
X74373Y73714D01*
X74329Y73728D01*
X73986Y73761D01*
X73643Y73728D01*
X73313Y73628D01*
X73009Y73465D01*
X72743Y73246D01*
X72524Y72980D01*
X72361Y72676D01*
X72261Y72346D01*
X72228Y72003D01*
X72261Y71660D01*
X72361Y71330D01*
X72524Y71026D01*
X72743Y70760D01*
X72851Y70671D01*
X72817Y70577D01*
X67801D01*
X66026Y72352D01*
X66058Y72446D01*
X66323Y72481D01*
X66591Y72592D01*
X66821Y72768D01*
X66997Y72998D01*
X67108Y73266D01*
X67145Y73553D01*
X67108Y73840D01*
X66997Y74108D01*
X66821Y74338D01*
X66591Y74514D01*
X66393Y74596D01*
Y75770D01*
X66491Y75790D01*
X66595Y75538D01*
X66771Y75308D01*
X67001Y75132D01*
X67269Y75021D01*
X67556Y74984D01*
X67843Y75021D01*
X68111Y75132D01*
X68341Y75308D01*
X68517Y75538D01*
X68628Y75806D01*
X68665Y76093D01*
X68628Y76380D01*
X68517Y76648D01*
X68341Y76878D01*
X68111Y77054D01*
X67843Y77165D01*
X67556Y77202D01*
X67269Y77165D01*
X67001Y77054D01*
X66771Y76878D01*
X66595Y76648D01*
X66491Y76396D01*
X66393Y76416D01*
Y80795D01*
X68958Y83361D01*
X69036Y83476D01*
X69063Y83613D01*
X69063Y83613D01*
X69063Y83613D01*
Y83613D01*
Y85054D01*
X69162Y85069D01*
X69219Y84882D01*
X69390Y84560D01*
X69622Y84279D01*
X69903Y84047D01*
X70225Y83876D01*
X70573Y83770D01*
X70936Y83734D01*
X71299Y83770D01*
X71647Y83876D01*
X71969Y84047D01*
X72250Y84279D01*
X72482Y84560D01*
X72653Y84882D01*
X72759Y85230D01*
X72795Y85593D01*
X72759Y85956D01*
X72653Y86304D01*
X72482Y86626D01*
X72250Y86907D01*
X71969Y87139D01*
X71647Y87310D01*
X71299Y87416D01*
X70936Y87452D01*
X70573Y87416D01*
X70225Y87310D01*
X69903Y87139D01*
X69622Y86907D01*
X69390Y86626D01*
X69219Y86304D01*
X69162Y86117D01*
X69063Y86132D01*
Y87365D01*
X72259Y90561D01*
X76111D01*
X76248Y90588D01*
X76363Y90666D01*
X76363Y90666D01*
X76363Y90666D01*
X77559Y91861D01*
X80366D01*
X80447Y91754D01*
X80583Y91650D01*
X80741Y91585D01*
X80911Y91562D01*
X81081Y91585D01*
X81239Y91650D01*
X81375Y91754D01*
X81479Y91890D01*
X81544Y92048D01*
X81567Y92218D01*
X81544Y92388D01*
X81479Y92546D01*
X81375Y92682D01*
X81264Y92766D01*
X81283Y92823D01*
X81382Y92840D01*
X81447Y92754D01*
D02*
G37*
G36*
X93156Y98228D02*
Y98223D01*
X93155Y98218D01*
X93156Y98213D01*
Y97018D01*
X93176Y96920D01*
X93231Y96838D01*
X93313Y96783D01*
X93411Y96763D01*
X95111D01*
X95209Y96783D01*
X95291Y96838D01*
X95346Y96920D01*
X95366Y97018D01*
Y97704D01*
X100611D01*
Y96560D01*
X100541Y96551D01*
X100383Y96486D01*
X100247Y96382D01*
X100143Y96246D01*
X100078Y96088D01*
X100055Y95918D01*
X100078Y95748D01*
X100143Y95590D01*
X100247Y95454D01*
X100383Y95350D01*
X100541Y95285D01*
X100711Y95262D01*
X100881Y95285D01*
X101039Y95350D01*
X101175Y95454D01*
X101264Y95460D01*
X101459Y95266D01*
X101424Y95172D01*
X101411Y95174D01*
X101241Y95151D01*
X101083Y95086D01*
X100947Y94982D01*
X100843Y94846D01*
X100778Y94688D01*
X100755Y94518D01*
X100778Y94348D01*
X100843Y94190D01*
X100947Y94054D01*
X101083Y93950D01*
X101241Y93885D01*
X101411Y93862D01*
X101581Y93885D01*
X101739Y93950D01*
X101875Y94054D01*
X101979Y94190D01*
X102044Y94348D01*
X102067Y94518D01*
X102049Y94651D01*
X102159Y94761D01*
X115763D01*
X117473Y93051D01*
X117455Y92918D01*
X117478Y92748D01*
X117543Y92590D01*
X117647Y92454D01*
X117783Y92350D01*
X117941Y92285D01*
X118111Y92262D01*
X118281Y92285D01*
X118439Y92350D01*
X118575Y92454D01*
X118575Y92454D01*
X118611Y92418D01*
X119211D01*
X121811Y95018D01*
Y97304D01*
X125294D01*
X127475Y95123D01*
Y92950D01*
X127808D01*
X127846Y92858D01*
X125344Y90356D01*
X125211Y90374D01*
X125041Y90351D01*
X124883Y90286D01*
X124747Y90182D01*
X124643Y90046D01*
X124578Y89888D01*
X124555Y89718D01*
X124578Y89548D01*
X124643Y89390D01*
X124747Y89254D01*
X124883Y89150D01*
X125041Y89085D01*
X125211Y89062D01*
X125333Y89078D01*
X125377Y88989D01*
X123163Y86775D01*
X122911D01*
Y87468D01*
X121511D01*
Y86208D01*
X121311D01*
Y87468D01*
X120166D01*
X119463Y88170D01*
X119348Y88248D01*
X119211Y88275D01*
X112411D01*
X112274Y88248D01*
X112159Y88170D01*
X110363Y86375D01*
X90559D01*
X88363Y88570D01*
X88248Y88648D01*
X88111Y88675D01*
X87211D01*
X87074Y88648D01*
X86959Y88570D01*
X86359Y87970D01*
X86281Y87855D01*
X86254Y87718D01*
Y87263D01*
X86147Y87182D01*
X86043Y87046D01*
X85978Y86888D01*
X85955Y86718D01*
X85978Y86548D01*
X86043Y86390D01*
X86147Y86254D01*
X86283Y86150D01*
X86441Y86085D01*
X86611Y86062D01*
X86696Y86074D01*
X86767Y86003D01*
X86755Y85918D01*
X86778Y85748D01*
X86843Y85590D01*
X86947Y85454D01*
Y85382D01*
X86843Y85246D01*
X86803Y85148D01*
X86705Y85129D01*
X86463Y85370D01*
X86390Y85420D01*
X86379Y85446D01*
X86275Y85582D01*
X86139Y85686D01*
X85981Y85751D01*
X85811Y85774D01*
X85641Y85751D01*
X85551Y85714D01*
X85468Y85769D01*
Y87542D01*
X88463Y90538D01*
X88541Y90653D01*
X88568Y90790D01*
X88568Y90790D01*
X88568Y90790D01*
Y90790D01*
Y93770D01*
X93064Y98266D01*
X93156Y98228D01*
D02*
G37*
G36*
X148160Y88133D02*
X148065Y88101D01*
X148065Y88102D01*
X147929Y88206D01*
X147771Y88271D01*
X147601Y88294D01*
X147431Y88271D01*
X147273Y88206D01*
X147137Y88102D01*
X147033Y87966D01*
X146968Y87808D01*
X146945Y87638D01*
X146968Y87468D01*
X147033Y87310D01*
X147137Y87174D01*
X147273Y87070D01*
X147431Y87005D01*
X147444Y87003D01*
Y83986D01*
X146454Y82996D01*
X146321Y83014D01*
X146151Y82991D01*
X145993Y82926D01*
X145857Y82822D01*
X145753Y82686D01*
X145688Y82528D01*
X145665Y82358D01*
X145688Y82188D01*
X145753Y82030D01*
X145857Y81894D01*
X145993Y81790D01*
X146151Y81725D01*
X146321Y81702D01*
X146491Y81725D01*
X146649Y81790D01*
X146785Y81894D01*
X146889Y82030D01*
X146954Y82188D01*
X146977Y82358D01*
X146959Y82491D01*
X148053Y83586D01*
X148065Y83604D01*
X148161Y83575D01*
X148162Y80893D01*
X148070Y80854D01*
X147499Y81424D01*
X147351Y81524D01*
X147175Y81559D01*
X145161D01*
Y81868D01*
X142461D01*
Y81648D01*
X142369Y81609D01*
X141387Y82591D01*
X141406Y82689D01*
X141550Y82748D01*
X141790Y82933D01*
X141975Y83173D01*
X142090Y83453D01*
X142130Y83753D01*
X142090Y84053D01*
X141975Y84333D01*
X141790Y84573D01*
X141550Y84758D01*
X141270Y84873D01*
X140970Y84913D01*
X139430D01*
X139130Y84873D01*
X138850Y84758D01*
X138610Y84573D01*
X138425Y84333D01*
X138310Y84053D01*
X138270Y83753D01*
X138278Y83689D01*
X138189Y83645D01*
X136168Y85666D01*
Y90112D01*
X136141Y90249D01*
X136063Y90364D01*
X134359Y92069D01*
X134363Y92079D01*
X134418Y92161D01*
X136697D01*
X136741Y92071D01*
X136573Y91853D01*
X136467Y91597D01*
X136431Y91323D01*
X136467Y91049D01*
X136573Y90793D01*
X136741Y90574D01*
X136960Y90406D01*
X137040Y90373D01*
Y90273D01*
X136960Y90240D01*
X136741Y90072D01*
X136573Y89853D01*
X136467Y89597D01*
X136431Y89323D01*
X136467Y89049D01*
X136573Y88793D01*
X136741Y88574D01*
X136960Y88406D01*
X137216Y88300D01*
X137490Y88264D01*
X137764Y88300D01*
X138020Y88406D01*
X138239Y88574D01*
X138407Y88793D01*
X138513Y89049D01*
X138549Y89323D01*
X138513Y89597D01*
X138407Y89853D01*
X138239Y90072D01*
X138020Y90240D01*
X137940Y90273D01*
Y90373D01*
X138020Y90406D01*
X138239Y90574D01*
X138407Y90793D01*
X138513Y91049D01*
X138549Y91323D01*
X138513Y91597D01*
X138407Y91853D01*
X138239Y92071D01*
X138283Y92161D01*
X138411D01*
X138548Y92188D01*
X138663Y92266D01*
X138663Y92266D01*
X138663Y92266D01*
X140829Y94431D01*
X144713D01*
X145053Y94091D01*
X145009Y94001D01*
X144991Y94004D01*
X144821Y93981D01*
X144663Y93916D01*
X144527Y93812D01*
X144423Y93676D01*
X144358Y93518D01*
X144335Y93348D01*
X144358Y93178D01*
X144423Y93020D01*
X144527Y92884D01*
X144634Y92803D01*
Y91856D01*
X139184Y86406D01*
X139051Y86424D01*
X138881Y86401D01*
X138723Y86336D01*
X138587Y86232D01*
X138483Y86096D01*
X138418Y85938D01*
X138395Y85768D01*
X138418Y85598D01*
X138483Y85440D01*
X138587Y85304D01*
X138723Y85200D01*
X138881Y85135D01*
X139051Y85112D01*
X139221Y85135D01*
X139379Y85200D01*
X139515Y85304D01*
X139619Y85440D01*
X139684Y85598D01*
X139707Y85768D01*
X139689Y85901D01*
X145243Y91456D01*
X145321Y91571D01*
X145348Y91708D01*
X145348Y91708D01*
X145348Y91708D01*
Y91708D01*
Y92803D01*
X145455Y92884D01*
X145559Y93020D01*
X145624Y93178D01*
X145647Y93348D01*
X145644Y93366D01*
X145734Y93410D01*
X146254Y92890D01*
Y90263D01*
X146147Y90182D01*
X146043Y90046D01*
X145978Y89888D01*
X145955Y89718D01*
X145978Y89548D01*
X146043Y89390D01*
X146147Y89254D01*
X146283Y89150D01*
X146372Y89114D01*
X146391Y89016D01*
X144387Y87011D01*
X144287Y86862D01*
X144252Y86687D01*
Y86114D01*
X144183Y86086D01*
X144047Y85982D01*
X143943Y85846D01*
X143878Y85688D01*
X143855Y85518D01*
X143878Y85348D01*
X143943Y85190D01*
X144047Y85054D01*
X144183Y84950D01*
X144341Y84885D01*
X144511Y84862D01*
X144681Y84885D01*
X144839Y84950D01*
X144959Y85043D01*
X145035Y85094D01*
X145135Y85242D01*
X145170Y85418D01*
Y86497D01*
X147735Y89062D01*
X147835Y89211D01*
X147870Y89387D01*
Y92945D01*
X147835Y93121D01*
X147735Y93270D01*
X145393Y95612D01*
X145244Y95712D01*
X145068Y95747D01*
X141464D01*
X141445Y95845D01*
X141550Y95888D01*
X141790Y96073D01*
X141975Y96313D01*
X142025Y96434D01*
X148157D01*
X148160Y88133D01*
D02*
G37*
G36*
X91352Y69035D02*
X91262Y68991D01*
X91139Y69086D01*
X90981Y69151D01*
X90811Y69174D01*
X90678Y69156D01*
X90366Y69468D01*
X90250Y69545D01*
X90113Y69573D01*
X86631D01*
Y69966D01*
X85123D01*
Y69573D01*
X84475D01*
Y69625D01*
X82975D01*
Y69282D01*
X80408D01*
X80271Y69255D01*
X80155Y69177D01*
X79826Y68848D01*
X78955D01*
Y68630D01*
X77569D01*
X77525Y68720D01*
X77579Y68790D01*
X77644Y68948D01*
X77667Y69118D01*
X77644Y69288D01*
X77579Y69446D01*
X77475Y69582D01*
X77339Y69686D01*
X77181Y69751D01*
X77119Y69759D01*
X77125Y69859D01*
X79944D01*
X79947Y69854D01*
X80083Y69750D01*
X80241Y69685D01*
X80411Y69662D01*
X80581Y69685D01*
X80739Y69750D01*
X80875Y69854D01*
X80979Y69990D01*
X81044Y70148D01*
X81067Y70318D01*
X81066Y70324D01*
X81351Y70609D01*
X82161D01*
X82337Y70644D01*
X82485Y70744D01*
X82879Y71137D01*
X82971Y71098D01*
Y70625D01*
X84479D01*
Y71229D01*
X84272D01*
X84266Y71236D01*
X84469Y71320D01*
X84469D01*
D01*
D01*
D01*
X84469Y71320D01*
X84656Y71444D01*
X84780Y71631D01*
X84824Y71850D01*
X84780Y72069D01*
X84656Y72256D01*
X84494Y72363D01*
X84523Y72459D01*
X91352D01*
Y69035D01*
D02*
G37*
G36*
X136454Y81536D02*
Y80431D01*
X136379Y80365D01*
X136311Y80374D01*
X136141Y80351D01*
X135983Y80286D01*
X135847Y80182D01*
X135743Y80046D01*
X135678Y79888D01*
X135655Y79718D01*
X135678Y79548D01*
X135743Y79390D01*
X135847Y79254D01*
X135958Y79170D01*
X135926Y79075D01*
X134761D01*
Y79218D01*
Y80164D01*
X135165D01*
Y80918D01*
X134211D01*
Y81018D01*
X134111D01*
Y81872D01*
X133700D01*
X133662Y81964D01*
X133663Y81966D01*
X133741Y82081D01*
X133768Y82218D01*
Y84091D01*
X133860Y84130D01*
X136454Y81536D01*
D02*
G37*
G36*
X136389Y109496D02*
Y109496D01*
X136392Y109499D01*
X137391Y109455D01*
X138464Y109314D01*
X139521Y109080D01*
X140554Y108754D01*
X141554Y108340D01*
X142515Y107840D01*
X143428Y107258D01*
X144287Y106599D01*
X145085Y105867D01*
X145376Y105550D01*
X145374Y105537D01*
X145388D01*
X145669Y105230D01*
D01*
X145816Y105069D01*
X146476Y104210D01*
X147057Y103297D01*
X147557Y102337D01*
X147972Y101336D01*
X148297Y100304D01*
X148532Y99247D01*
X148673Y98173D01*
X148719Y97118D01*
X148714Y97092D01*
Y97010D01*
X148713Y97009D01*
X148714Y97008D01*
Y67605D01*
X148714Y67603D01*
X148674Y66682D01*
X148532Y65608D01*
X148298Y64550D01*
X147972Y63516D01*
X147557Y62515D01*
X147057Y61554D01*
X146475Y60640D01*
X145815Y59780D01*
X145083Y58981D01*
X144284Y58249D01*
X143424Y57589D01*
X142510Y57007D01*
X141549Y56506D01*
X140548Y56092D01*
X139514Y55766D01*
X138959Y55643D01*
X138934Y55739D01*
X138944Y55742D01*
X138968Y55750D01*
X139047Y55774D01*
X139069Y55786D01*
X139069Y55786D01*
X139093Y55798D01*
X139093Y55798D01*
X139093Y55798D01*
X139093Y55798D01*
X139098Y55801D01*
X139100Y55803D01*
X139100D01*
X139101Y55803D01*
X139113Y55809D01*
X139113Y55809D01*
X139264Y55890D01*
D01*
X139424Y55975D01*
X139443Y55991D01*
D01*
X139447Y55995D01*
X139461Y56006D01*
D01*
X139503Y56040D01*
X139503Y56040D01*
X139741Y56235D01*
X139741Y56235D01*
X139755Y56247D01*
X139767Y56260D01*
D01*
X139893Y56398D01*
X139897Y56401D01*
X139897Y56401D01*
X139903Y56405D01*
X139905Y56408D01*
X139906Y56409D01*
X139914Y56415D01*
X139917Y56412D01*
X139945Y56444D01*
X139945Y56444D01*
X139958Y56460D01*
Y56460D01*
X140036Y56552D01*
X140121Y56651D01*
X140121Y56651D01*
X140121Y56651D01*
X140183Y56724D01*
X140183Y56724D01*
X140196Y56739D01*
X140207Y56756D01*
X140207Y56756D01*
X140309Y56922D01*
X140421Y57106D01*
X140428Y57124D01*
X140428Y57124D01*
X140546Y57407D01*
X140585Y57503D01*
X140598Y57554D01*
X140611Y57610D01*
X140611Y57610D01*
X140634Y57704D01*
X140636Y57712D01*
Y57712D01*
X140681Y57901D01*
Y57901D01*
X140686Y57921D01*
X140687Y57941D01*
X140687Y57941D01*
X140719Y58339D01*
Y58339D01*
X140719Y58349D01*
X140719Y58360D01*
Y58360D01*
X140716Y60068D01*
X140715Y60270D01*
X140715Y60508D01*
X140715Y60508D01*
X140714Y60519D01*
X140715Y60524D01*
Y60524D01*
X140715Y60524D01*
X140715Y60535D01*
X140716Y60537D01*
X140719Y60538D01*
X140730Y60540D01*
X140734Y60542D01*
X140745Y60543D01*
X140745Y60543D01*
X140803Y60552D01*
X140812Y60555D01*
X140822Y60555D01*
X140836Y60562D01*
X140927Y60520D01*
X140931Y60505D01*
X141164Y60070D01*
X141477Y59689D01*
X141858Y59376D01*
X142293Y59143D01*
X142765Y59000D01*
X143129Y58964D01*
Y61468D01*
X143256D01*
Y61595D01*
X145760D01*
X145724Y61959D01*
X145581Y62431D01*
X145348Y62866D01*
X145035Y63247D01*
X144654Y63560D01*
X144328Y63734D01*
X144320Y63743D01*
X144340Y63786D01*
X144361Y63827D01*
X144361Y63831D01*
X144362Y63833D01*
X144382Y63910D01*
X144387Y63922D01*
X144399Y63924D01*
X145808Y63920D01*
X146770Y63918D01*
Y63911D01*
X146823Y63922D01*
X146823D01*
X146823D01*
X146824Y63922D01*
X146824D01*
X146853Y63928D01*
X146853Y63928D01*
X146853D01*
X146853Y63928D01*
X146903Y63938D01*
X146945Y63966D01*
X146945Y63966D01*
X146945Y63966D01*
X146945Y63966D01*
X146945Y63966D01*
X146987Y63994D01*
X146987Y63994D01*
X146987Y63994D01*
D01*
X146988Y63995D01*
X146996Y64000D01*
D01*
X146999Y64002D01*
X146999Y64002D01*
X147016Y64013D01*
X147018Y64011D01*
X147049Y64046D01*
X147049Y64046D01*
X147162Y64175D01*
Y64175D01*
X147162Y64175D01*
X147420Y64469D01*
X147420Y64469D01*
X147431Y64482D01*
X147467Y64536D01*
X147467Y64536D01*
X147473Y64544D01*
Y64544D01*
X147779Y65003D01*
X148057Y65565D01*
X148073Y65612D01*
X148073Y65612D01*
X148087Y65653D01*
X148087Y65653D01*
X148098Y65687D01*
X148236Y66092D01*
Y66092D01*
X148236Y66092D01*
X148253Y66142D01*
Y66142D01*
X148258Y66158D01*
X148261Y66174D01*
Y66174D01*
X148282Y66281D01*
Y66281D01*
X148298Y66360D01*
Y66360D01*
X148302Y66377D01*
X148307Y66405D01*
Y66405D01*
X148337Y66553D01*
X148340Y66571D01*
D01*
X148340Y66571D01*
D01*
X148342Y66581D01*
X148380Y66773D01*
X148381Y66789D01*
D01*
X148383Y66813D01*
Y66813D01*
Y66813D01*
Y66813D01*
X148397Y67022D01*
Y67022D01*
D01*
X148421Y67390D01*
D01*
X148421Y67398D01*
X148421Y67406D01*
D01*
X148419Y73148D01*
X148417Y80893D01*
Y80893D01*
Y80893D01*
Y80893D01*
Y80893D01*
X148416Y83575D01*
Y83575D01*
X148414Y88133D01*
Y88133D01*
X148412Y96434D01*
Y96434D01*
X148411Y97442D01*
X148411Y98347D01*
X148411Y98347D01*
Y98348D01*
X148415Y98495D01*
X148414Y98498D01*
X148415Y98502D01*
Y98694D01*
X148420D01*
X148413Y98744D01*
D01*
X148405Y98807D01*
D01*
Y98807D01*
Y98807D01*
X148391Y98911D01*
X148391D01*
X148391Y98911D01*
D01*
X148385Y98961D01*
X148378Y98977D01*
X148378Y98977D01*
X148372Y98992D01*
D01*
Y98992D01*
X148372Y98992D01*
X148294Y99179D01*
X148294Y99179D01*
X148281Y99210D01*
X148261Y99237D01*
X148261Y99237D01*
X148230Y99277D01*
X148117Y99424D01*
X147967Y99573D01*
X147281Y100248D01*
X147278Y100251D01*
X147273Y100259D01*
X147270Y100263D01*
X147270Y100263D01*
X147268Y100267D01*
X147268D01*
X147268Y100267D01*
X147268D01*
D01*
D01*
D01*
X147261Y100280D01*
X147264Y100283D01*
X147258Y100287D01*
X147258Y100287D01*
X147220Y100319D01*
X147220Y100319D01*
X146896Y100584D01*
X146896Y100584D01*
X146877Y100600D01*
X146855Y100612D01*
X146855Y100612D01*
X146458Y100824D01*
X146458Y100824D01*
X146436Y100836D01*
X146412Y100843D01*
X146412Y100843D01*
X145981Y100974D01*
X145981D01*
X145957Y100981D01*
X145932Y100984D01*
X145932D01*
X145606Y101016D01*
X145606D01*
D01*
X145525Y101024D01*
X145459Y101030D01*
X145446Y101030D01*
X145446D01*
X144592Y101025D01*
X144580Y101027D01*
X144575Y101038D01*
X144564Y101083D01*
X144557Y101098D01*
X144554Y101113D01*
X144537Y101140D01*
Y101140D01*
Y101140D01*
X144556Y101212D01*
X144593Y101253D01*
X144654Y101286D01*
X145035Y101599D01*
X145348Y101980D01*
X145581Y102415D01*
X145724Y102887D01*
X145760Y103251D01*
X143256D01*
Y103378D01*
X143129D01*
Y105882D01*
X142765Y105846D01*
X142293Y105703D01*
X141858Y105470D01*
X141477Y105157D01*
X141164Y104776D01*
X141134Y104719D01*
X141090Y104680D01*
X141020Y104661D01*
X140992Y104679D01*
X140977Y104681D01*
X140962Y104688D01*
X140919Y104699D01*
X140907Y104704D01*
X140905Y104717D01*
X140911Y107472D01*
D01*
D01*
X140911D01*
Y107472D01*
Y107472D01*
X140911D01*
D01*
D01*
Y107472D01*
D01*
X140911Y107472D01*
D01*
D01*
D01*
Y107472D01*
X140911Y107473D01*
X140911Y107475D01*
X140911Y107475D01*
X140911Y107475D01*
X140911D01*
D01*
D01*
D01*
D01*
D01*
X140911Y107493D01*
X140911Y107494D01*
X140920D01*
X140894Y107690D01*
X140893Y107695D01*
X140893D01*
X140893Y107695D01*
D01*
X140891Y107715D01*
X140889Y107728D01*
Y107728D01*
X140885Y107761D01*
X140876Y107782D01*
X140876Y107782D01*
X140873Y107790D01*
X140872Y107792D01*
Y107792D01*
X140844Y107858D01*
X140781Y108010D01*
X140761Y108037D01*
X140761Y108037D01*
X140646Y108187D01*
X140646Y108187D01*
X140638Y108197D01*
X140632Y108206D01*
D01*
X140617Y108224D01*
X140618Y108225D01*
X140250Y108539D01*
X140044Y108665D01*
X140044Y108665D01*
X139855Y108781D01*
X139855Y108781D01*
X139838Y108792D01*
X139812Y108802D01*
X139802Y108806D01*
X139802D01*
X139802Y108806D01*
X139802Y108806D01*
X139409Y108969D01*
D01*
X139391Y108977D01*
X139371Y108981D01*
X139371D01*
X139255Y109009D01*
X139255D01*
X139206Y109021D01*
X139206D01*
X138940Y109085D01*
X138940D01*
X138920Y109090D01*
X138900Y109091D01*
X138900Y109091D01*
X138689Y109108D01*
X138689D01*
D01*
X138568Y109117D01*
D01*
X138438Y109128D01*
X135455Y109127D01*
X135455D01*
X134603Y109127D01*
X81288Y109118D01*
X81277Y109130D01*
Y109130D01*
X80920Y109083D01*
X80588Y108945D01*
X80303Y108726D01*
X80305Y108724D01*
X80141Y108510D01*
X80037Y108261D01*
X80002Y107994D01*
X80011Y105967D01*
X80011Y105967D01*
X80011D01*
X80020Y105957D01*
X79981Y105565D01*
X79864Y105179D01*
X79746Y104958D01*
X78663Y103875D01*
X75710D01*
X75665Y103899D01*
X75405Y104112D01*
X75374Y104144D01*
X75374Y104145D01*
X75055Y104473D01*
X75055Y104473D01*
X75055Y104473D01*
D01*
X75052Y104476D01*
D01*
X75018Y104511D01*
X75014Y104507D01*
X75014D01*
X75012Y104509D01*
X75011Y104510D01*
X75004Y104514D01*
X75004Y104514D01*
X75001Y104518D01*
X74994Y104522D01*
D01*
X74994Y104522D01*
X74992Y104524D01*
X74992Y104524D01*
X74992Y104524D01*
X74992Y104524D01*
X74992Y104524D01*
X74747Y104823D01*
X74721Y104855D01*
X74721Y104855D01*
X74708Y104870D01*
X74699Y104888D01*
X74699Y104888D01*
X74699Y104888D01*
X74699Y104888D01*
X74632Y105012D01*
X74632Y105012D01*
X74572Y105125D01*
X74493Y105272D01*
X74493Y105272D01*
X74484Y105290D01*
X74478Y105309D01*
X74478Y105309D01*
X74478Y105309D01*
D01*
X74415Y105517D01*
X74415Y105517D01*
D01*
X74397Y105578D01*
X74352Y105726D01*
Y105726D01*
X74346Y105745D01*
X74299Y106218D01*
X74299Y106239D01*
X74299D01*
X74299D01*
Y106239D01*
D01*
D01*
X74299Y106240D01*
D01*
D01*
D01*
D01*
Y106240D01*
D01*
D01*
D01*
Y106240D01*
Y106240D01*
Y106240D01*
X74305Y107304D01*
X74311Y108377D01*
X74318D01*
X74307Y108430D01*
Y108430D01*
X74307Y108430D01*
X74307Y108431D01*
Y108431D01*
X74301Y108460D01*
X74301Y108460D01*
X74291Y108510D01*
X74263Y108552D01*
X74263Y108552D01*
X74263Y108552D01*
D01*
D01*
X74230Y108601D01*
X74230Y108601D01*
X74216Y108623D01*
X74219Y108626D01*
X74174Y108661D01*
X74174Y108661D01*
X74172Y108663D01*
X74172Y108663D01*
X74086Y108728D01*
X74086Y108728D01*
X74085Y108729D01*
X74084Y108731D01*
X74084D01*
X74084Y108731D01*
X74084Y108731D01*
X73961Y108825D01*
X73961Y108825D01*
X73934Y108845D01*
X73903Y108858D01*
X73903Y108858D01*
X73633Y108970D01*
X73633D01*
X73602Y108983D01*
X73569Y108987D01*
X73569Y108987D01*
X73464Y109001D01*
X73464D01*
X73343Y109017D01*
X73245Y109030D01*
X71939Y109026D01*
X69460Y109020D01*
X69031Y109019D01*
X68868Y109018D01*
X68868Y109018D01*
X68868D01*
X68868Y109018D01*
X68868D01*
X68868Y109018D01*
X68868D01*
X68868Y109018D01*
X68868Y109018D01*
X68868D01*
X68868Y109018D01*
X68868D01*
X68868Y109018D01*
X68867D01*
X68867Y109018D01*
X68867Y109018D01*
X68866Y109018D01*
X68866Y109018D01*
X68865Y109018D01*
X68863Y109019D01*
X68863Y109019D01*
X68845Y109019D01*
X68829Y109022D01*
X68828D01*
X68827Y109022D01*
X68825Y109023D01*
X68824Y109023D01*
X68822Y109023D01*
Y109023D01*
X68822Y109023D01*
D01*
X68819Y109023D01*
X68818Y109023D01*
X68818D01*
D01*
X68818Y109023D01*
X68815D01*
X68815D01*
Y109030D01*
X68759Y109027D01*
D01*
X68142Y108986D01*
X68142D01*
X68142D01*
X68142D01*
X68106Y108984D01*
D01*
X68106D01*
X68073Y108982D01*
X68073D01*
X68056Y108981D01*
X68040Y108977D01*
X68040D01*
X68011Y108972D01*
X68011Y108972D01*
X67332Y108837D01*
X67310Y108832D01*
X67294Y108827D01*
X67294Y108827D01*
X66605Y108593D01*
X66605Y108593D01*
X66589Y108588D01*
X66574Y108580D01*
X66574Y108580D01*
X66540Y108563D01*
X65907Y108251D01*
X65892Y108241D01*
X65865Y108223D01*
X65865Y108223D01*
X65865Y108223D01*
X65351Y107880D01*
X65351Y107880D01*
X65274Y107828D01*
X64910Y107509D01*
X64910Y107509D01*
X64761Y107379D01*
X64761Y107379D01*
D01*
X64761Y107379D01*
X64726Y107348D01*
X64702Y107327D01*
X64703Y107326D01*
X64476Y107067D01*
X64420Y107002D01*
X64375Y106952D01*
X64284Y106848D01*
X64272Y106834D01*
D01*
X64261Y106821D01*
X64251Y106807D01*
X64251Y106807D01*
X64230Y106775D01*
X64223Y106765D01*
X64223Y106765D01*
X63897Y106277D01*
X63897Y106277D01*
X63888Y106263D01*
X63880Y106248D01*
X63880Y106248D01*
X63839Y106163D01*
X63591Y105661D01*
X63585Y105645D01*
X63585Y105645D01*
X63524Y105465D01*
X63503Y105402D01*
X63489Y105362D01*
X63489Y105362D01*
X63380Y105041D01*
X63380Y105041D01*
X63375Y105025D01*
X63372Y105009D01*
Y105009D01*
X63330Y104798D01*
X63244Y104367D01*
X63200Y103697D01*
X63207Y76553D01*
Y61518D01*
X63202D01*
X63204Y61483D01*
Y61483D01*
X63208Y61429D01*
D01*
X63225Y61167D01*
D01*
Y61167D01*
Y61167D01*
X63231Y61073D01*
D01*
Y61073D01*
Y61073D01*
X63232Y61052D01*
X63239Y60950D01*
X63242Y60933D01*
Y60933D01*
X63244Y60923D01*
X63254Y60874D01*
X63259Y60849D01*
X63259Y60849D01*
X63259Y60849D01*
Y60849D01*
X63294Y60674D01*
X63294Y60674D01*
Y60674D01*
D01*
X63306Y60615D01*
X63306Y60615D01*
Y60615D01*
Y60615D01*
X63347Y60407D01*
D01*
X63350Y60391D01*
X63355Y60375D01*
Y60375D01*
X63445Y60112D01*
X63445Y60112D01*
X63445Y60112D01*
Y60112D01*
X63447Y60104D01*
X63447Y60104D01*
D01*
Y60104D01*
X63528Y59867D01*
X63528Y59867D01*
X63533Y59851D01*
X63541Y59836D01*
D01*
X63541Y59836D01*
X63702Y59508D01*
X63778Y59356D01*
X63778Y59356D01*
X63785Y59341D01*
X63794Y59327D01*
X63794Y59327D01*
X63835Y59266D01*
X63961Y59078D01*
X63988Y59037D01*
X63988Y59037D01*
X64039Y58960D01*
X64092Y58881D01*
X64092Y58881D01*
X64102Y58867D01*
X64113Y58854D01*
X64113Y58854D01*
X64277Y58667D01*
X64331Y58606D01*
X64331Y58606D01*
X64429Y58494D01*
X64477Y58439D01*
X64488Y58429D01*
X64488Y58429D01*
X64491Y58426D01*
X64491Y58426D01*
X64518Y58402D01*
X64539Y58382D01*
X64539Y58382D01*
X64567Y58357D01*
X64591Y58336D01*
X64591D01*
D01*
Y58336D01*
X64591Y58336D01*
X64601Y58327D01*
X64609Y58316D01*
X64605Y58312D01*
X64640Y58285D01*
X64640Y58285D01*
X64657Y58271D01*
X64657Y58271D01*
X64657Y58271D01*
D01*
X64667Y58264D01*
X64737Y58210D01*
X64755Y58197D01*
X64755Y58197D01*
X64776Y58181D01*
X64792Y58168D01*
X64792Y58168D01*
X64819Y58148D01*
X64850Y58135D01*
X64850Y58135D01*
X65001Y58072D01*
X65001D01*
X65001Y58072D01*
D01*
X65011Y58068D01*
X65068Y58044D01*
X65101Y58040D01*
X65101D01*
X65134Y58036D01*
D01*
X65143Y58034D01*
X65145Y58034D01*
D01*
X65213Y58025D01*
X65293Y58015D01*
X65293D01*
D01*
X65315Y58012D01*
X65315Y58012D01*
Y58012D01*
X65334Y57998D01*
D01*
X65333Y57991D01*
X65333Y57991D01*
X65335Y57984D01*
Y57970D01*
X65335Y57970D01*
X65335Y57970D01*
X65335Y57970D01*
Y57713D01*
Y57458D01*
X74711D01*
Y57458D01*
X74711Y57458D01*
X74724Y57461D01*
X74733Y57461D01*
X74753Y57468D01*
X74793Y57477D01*
D01*
X74891Y57330D01*
Y57330D01*
X74891Y57330D01*
X75124Y56895D01*
X75437Y56514D01*
X75818Y56201D01*
X76253Y55968D01*
X76725Y55825D01*
X77089Y55789D01*
Y58293D01*
X77343D01*
Y55789D01*
X77707Y55825D01*
X78179Y55968D01*
X78614Y56201D01*
X78995Y56514D01*
X79308Y56895D01*
X79541Y57330D01*
X79552Y57368D01*
X79658Y57580D01*
X79658D01*
X79715Y57574D01*
X79747Y57564D01*
X79765Y57563D01*
X79783Y57556D01*
X79784Y57556D01*
X79784Y57556D01*
X79795Y57554D01*
X79799Y57553D01*
X79799Y57553D01*
X79799Y57553D01*
X79799Y57553D01*
X79813Y57547D01*
X79813Y57536D01*
X79814Y57531D01*
X79814Y57520D01*
X79814Y57520D01*
X79814Y57347D01*
X79811Y56872D01*
X79811Y56872D01*
X79809Y56849D01*
X79803Y56842D01*
X79802D01*
X79809Y56788D01*
Y56788D01*
X79833Y56608D01*
X79833Y56608D01*
X79837Y56575D01*
X79850Y56544D01*
X79850Y56544D01*
X79859Y56522D01*
X79859Y56522D01*
X79861Y56518D01*
X79861Y56518D01*
D01*
X79861Y56518D01*
X79861Y56518D01*
X79889Y56450D01*
Y56450D01*
Y56450D01*
X79906Y56409D01*
X79913Y56391D01*
X79913Y56391D01*
X79913Y56391D01*
X79913Y56391D01*
Y56391D01*
X79928Y56357D01*
X79928Y56357D01*
X79941Y56326D01*
X79973Y56284D01*
X79998Y56250D01*
X79998D01*
X80013Y56231D01*
X80013Y56231D01*
X80049Y56185D01*
X80081Y56142D01*
X80084Y56139D01*
D01*
X80084Y56139D01*
X80084Y56139D01*
X80084Y56138D01*
X80085Y56137D01*
X80085Y56137D01*
X80105Y56112D01*
X80105Y56112D01*
X80126Y56095D01*
X80126Y56095D01*
X80196Y56037D01*
X80196Y56037D01*
X80246Y55997D01*
X80365Y55899D01*
X80455Y55851D01*
X80513Y55820D01*
X80513Y55820D01*
X80640Y55752D01*
X80640Y55752D01*
X80662Y55740D01*
X80686Y55733D01*
X80686Y55733D01*
X80706Y55727D01*
X80706D01*
X80712Y55725D01*
X80712Y55725D01*
X80712Y55725D01*
X80712Y55725D01*
X80719Y55723D01*
X80719D01*
X80983Y55643D01*
X81318Y55610D01*
X138200Y55618D01*
X138211Y55607D01*
Y55607D01*
X138441Y55630D01*
X138446Y55602D01*
X138386Y55522D01*
X137382Y55390D01*
X136299Y55342D01*
X136144Y55349D01*
Y55349D01*
X136144Y55349D01*
X136139Y55350D01*
X136139Y55350D01*
X69154D01*
X69144Y55352D01*
X69139Y55351D01*
X69135Y55354D01*
Y55354D01*
X69066Y55350D01*
X68989D01*
X68972Y55347D01*
X68300Y55384D01*
X67620Y55500D01*
X66958Y55691D01*
X66320Y55955D01*
X65717Y56288D01*
X65154Y56687D01*
X64640Y57147D01*
X64180Y57661D01*
X63781Y58224D01*
X63448Y58827D01*
X63184Y59465D01*
X62993Y60127D01*
X62877Y60807D01*
X62847Y61350D01*
X62843Y61349D01*
X62828Y61423D01*
X62843Y61496D01*
Y103520D01*
X62845Y103522D01*
X62845D01*
X62845Y103522D01*
X62875Y104072D01*
X62990Y104745D01*
X63179Y105401D01*
X63440Y106031D01*
X63770Y106628D01*
X64165Y107185D01*
X64620Y107694D01*
X65129Y108149D01*
X65685Y108544D01*
X66282Y108874D01*
X66913Y109135D01*
X67569Y109324D01*
X68242Y109438D01*
X68923Y109476D01*
X69054Y109469D01*
Y109469D01*
X69058Y109472D01*
X69063Y109471D01*
X69063Y109471D01*
X69063Y109471D01*
X136304Y109496D01*
X136347Y109505D01*
X136389Y109496D01*
D02*
G37*
G36*
X73430Y108748D02*
X73535Y108735D01*
X73806Y108623D01*
X73928Y108528D01*
X73928Y108528D01*
X73931Y108526D01*
X73931Y108526D01*
X73931Y108526D01*
X74017Y108460D01*
X74017Y108460D01*
X74018Y108459D01*
X74051Y108410D01*
X74057Y108381D01*
X74056Y108378D01*
X74045Y106242D01*
X74045Y106242D01*
X74045Y106241D01*
X74045Y106241D01*
X74045Y106241D01*
X74044Y106219D01*
X74047Y106206D01*
X74046Y106193D01*
X74092Y105720D01*
X74100Y105696D01*
X74102Y105671D01*
X74108Y105652D01*
X74108Y105652D01*
X74108Y105652D01*
X74171Y105443D01*
X74171Y105443D01*
X74234Y105235D01*
X74234Y105235D01*
Y105235D01*
X74240Y105216D01*
X74252Y105194D01*
X74259Y105170D01*
X74269Y105152D01*
D01*
X74269Y105152D01*
X74408Y104892D01*
X74474Y104768D01*
X74474Y104768D01*
X74483Y104750D01*
X74499Y104731D01*
X74501Y104727D01*
X74501Y104727D01*
X74502Y104726D01*
X74511Y104709D01*
X74524Y104693D01*
X74524Y104693D01*
X74795Y104362D01*
X74805Y104354D01*
X74812Y104344D01*
X74812Y104344D01*
X74812Y104344D01*
X74821Y104338D01*
X74824Y104334D01*
X74828Y104331D01*
X74833Y104325D01*
X74833Y104325D01*
X74837Y104323D01*
X74840Y104319D01*
X74843Y104318D01*
X74843Y104318D01*
X74849Y104313D01*
X74850Y104313D01*
X74850Y104312D01*
X74852Y104310D01*
X74855Y104309D01*
X74859Y104304D01*
X74865Y104300D01*
X74869Y104299D01*
X74872Y104296D01*
X74872D01*
Y104296D01*
X75191Y103967D01*
X75152Y103875D01*
X75052D01*
X73090Y105838D01*
Y106006D01*
X73433D01*
Y107506D01*
X72033D01*
Y106006D01*
X72376D01*
Y105690D01*
X72403Y105553D01*
X72479Y105440D01*
X72461Y105418D01*
X72408Y105365D01*
X72240Y105435D01*
X71914Y105478D01*
X69914D01*
X69588Y105435D01*
X69284Y105309D01*
X69022Y105109D01*
X68822Y104848D01*
X68696Y104544D01*
X68653Y104217D01*
X68696Y103891D01*
X68822Y103587D01*
X69022Y103326D01*
X69284Y103125D01*
X69588Y102999D01*
X69914Y102956D01*
X71914D01*
X72240Y102999D01*
X72544Y103125D01*
X72806Y103326D01*
X73006Y103587D01*
X73132Y103891D01*
X73175Y104217D01*
X73132Y104544D01*
X73058Y104721D01*
X73142Y104776D01*
X74652Y103266D01*
X74652Y103266D01*
X74652D01*
X74652Y103266D01*
X74652D01*
X74652Y103266D01*
Y103266D01*
Y103266D01*
D01*
D01*
X74652D01*
Y103266D01*
X74768Y103188D01*
X74905Y103161D01*
X78811D01*
X78948Y103188D01*
X79063Y103266D01*
X81251Y105453D01*
X81340Y105409D01*
X81337Y105383D01*
X83255D01*
X83235Y105535D01*
X83138Y105769D01*
X82984Y105971D01*
X82859Y106066D01*
X82891Y106161D01*
X84248D01*
X84280Y106066D01*
X84151Y105968D01*
X83997Y105767D01*
X83901Y105534D01*
X83868Y105283D01*
X83901Y105032D01*
X83911Y105007D01*
X81780Y102876D01*
X72748D01*
X72573Y102841D01*
X72424Y102742D01*
X70465Y100783D01*
X70366Y100634D01*
X70331Y100459D01*
X70331Y100459D01*
X70331D01*
X70331Y100459D01*
X70331D01*
Y95567D01*
X63787Y89023D01*
X63687Y88874D01*
X63652Y88698D01*
X63652Y88698D01*
X63652D01*
X63652Y88698D01*
X63652D01*
Y72418D01*
X63652Y72418D01*
X63652D01*
X63687Y72242D01*
X63787Y72094D01*
X66696Y69184D01*
Y67998D01*
X66455D01*
Y66520D01*
X66406Y66447D01*
X66371Y66272D01*
X66371Y66272D01*
X66371D01*
X66371Y66272D01*
X66371D01*
Y65201D01*
X66406Y65026D01*
X66420Y65006D01*
Y63614D01*
X66445D01*
Y62191D01*
X66445Y62191D01*
X66445D01*
X66471Y62143D01*
X66406Y62047D01*
X66371Y61872D01*
X66371Y61872D01*
X66371D01*
X66371Y61872D01*
X66371D01*
Y59448D01*
X66371Y59448D01*
X66371D01*
X66406Y59272D01*
X66506Y59123D01*
X66705Y58924D01*
Y58123D01*
X68105D01*
Y59623D01*
X67304D01*
X67289Y59638D01*
Y60780D01*
X67372Y60836D01*
X67534Y60768D01*
X67730Y60743D01*
X67926Y60768D01*
X68108Y60844D01*
X68265Y60964D01*
X68385Y61121D01*
X68461Y61303D01*
X68487Y61499D01*
X68461Y61695D01*
X68385Y61877D01*
X68265Y62034D01*
X68184Y62097D01*
X68216Y62191D01*
X69445D01*
Y62482D01*
X70640D01*
Y61875D01*
X70679Y61680D01*
X70790Y61515D01*
X70955Y61404D01*
X71150Y61365D01*
X71650D01*
X71845Y61404D01*
X72010Y61515D01*
X72121Y61680D01*
X72160Y61875D01*
Y62875D01*
X72121Y63070D01*
X72010Y63235D01*
X71845Y63346D01*
X71650Y63385D01*
X71150D01*
X71019Y63359D01*
X71009Y63365D01*
X70834Y63400D01*
X69445D01*
Y63691D01*
X69420D01*
Y63905D01*
X70779D01*
X70790Y63890D01*
X70955Y63779D01*
X71150Y63740D01*
X71650D01*
X71845Y63779D01*
X72010Y63890D01*
X72121Y64055D01*
X72160Y64250D01*
Y65250D01*
X72121Y65445D01*
X72010Y65610D01*
X71845Y65721D01*
X71650Y65760D01*
X71150D01*
X70955Y65721D01*
X70790Y65610D01*
X70679Y65445D01*
X70640Y65250D01*
Y64822D01*
X69420D01*
Y65114D01*
X68050D01*
X68031Y65212D01*
X68108Y65244D01*
X68265Y65364D01*
X68385Y65521D01*
X68461Y65703D01*
X68487Y65899D01*
X68461Y66095D01*
X68385Y66277D01*
X68285Y66408D01*
X68329Y66498D01*
X69455D01*
Y66891D01*
X70640D01*
Y66675D01*
X70679Y66480D01*
X70790Y66315D01*
X70955Y66204D01*
X71150Y66165D01*
X71650D01*
X71845Y66204D01*
X72010Y66315D01*
X72121Y66480D01*
X72160Y66675D01*
Y67675D01*
X72121Y67870D01*
X72010Y68035D01*
X71845Y68146D01*
X71650Y68185D01*
X71150D01*
X70955Y68146D01*
X70790Y68035D01*
X70679Y67870D01*
X70640Y67675D01*
Y67605D01*
X69455D01*
Y67998D01*
X68055D01*
Y66666D01*
X67972Y66611D01*
X67926Y66630D01*
X67855Y66639D01*
Y67998D01*
X67614D01*
Y68915D01*
X74893D01*
X75068Y68950D01*
X75217Y69050D01*
X76027Y69859D01*
X76897D01*
X76903Y69759D01*
X76841Y69751D01*
X76683Y69686D01*
X76547Y69582D01*
X76466Y69475D01*
X76118D01*
X75982Y69448D01*
X75866Y69370D01*
X75077Y68582D01*
X73318D01*
X73181Y68555D01*
X73066Y68477D01*
X72559Y67970D01*
X72481Y67855D01*
X72454Y67718D01*
Y64118D01*
X72454Y64118D01*
X72454D01*
X72481Y63981D01*
X72559Y63866D01*
X73159Y63266D01*
X73159D01*
X73159Y63266D01*
X73159D01*
X73159Y63266D01*
Y63266D01*
X73159Y63266D01*
Y63266D01*
X73204Y63235D01*
X73224Y63137D01*
X73179Y63070D01*
X73140Y62875D01*
Y61875D01*
X73179Y61680D01*
X73290Y61515D01*
X73455Y61404D01*
X73650Y61365D01*
X74150D01*
X74345Y61404D01*
X74437Y61465D01*
X74457Y61461D01*
X74626D01*
X74664Y61369D01*
X74358Y61062D01*
X74345Y61071D01*
X74150Y61110D01*
X73650D01*
X73455Y61071D01*
X73290Y60960D01*
X73179Y60795D01*
X73140Y60600D01*
Y59600D01*
X73179Y59405D01*
X73290Y59240D01*
X73455Y59129D01*
X73650Y59090D01*
X74150D01*
X74345Y59129D01*
X74510Y59240D01*
X74621Y59405D01*
X74660Y59600D01*
Y60355D01*
X75366Y61061D01*
X77911D01*
X78048Y61088D01*
X78163Y61166D01*
X78163Y61166D01*
X78163Y61166D01*
X78863Y61866D01*
X78941Y61981D01*
X78948Y62019D01*
X79026D01*
Y62019D01*
X79380D01*
Y62598D01*
X79580D01*
Y62019D01*
X79905D01*
X81115Y60809D01*
X81231Y60732D01*
X81367Y60705D01*
X86042D01*
X86179Y60732D01*
X86295Y60809D01*
X86295Y60809D01*
X86295Y60809D01*
X88095Y62610D01*
X89040D01*
Y63244D01*
X89130Y63289D01*
X89131Y63288D01*
X89289Y63222D01*
X89459Y63200D01*
X89628Y63222D01*
X89787Y63288D01*
X89922Y63392D01*
X90027Y63528D01*
X90092Y63686D01*
X90114Y63856D01*
X90092Y64025D01*
X90027Y64183D01*
X89922Y64319D01*
X89787Y64423D01*
X89628Y64489D01*
X89459Y64511D01*
X89289Y64489D01*
X89131Y64423D01*
X89044Y64466D01*
Y64810D01*
X88390D01*
Y64206D01*
X88558D01*
X88587Y64110D01*
X88584Y64108D01*
X88486Y64010D01*
X87540D01*
Y63064D01*
X85895Y61418D01*
X81515D01*
X81003Y61931D01*
X81041Y62023D01*
X81230D01*
Y63173D01*
X80962D01*
X80960Y63184D01*
X80882Y63300D01*
X80612Y63570D01*
X80496Y63648D01*
X80359Y63675D01*
X79292D01*
X79254Y63767D01*
X79410Y63923D01*
X80326D01*
Y63919D01*
X80680D01*
Y64498D01*
X80780D01*
Y64598D01*
X81234D01*
Y65077D01*
X81045D01*
X81007Y65169D01*
X81470Y65633D01*
X81553Y65577D01*
X81534Y65531D01*
X81424Y65071D01*
X81395Y64700D01*
X87405D01*
X87376Y65071D01*
X87266Y65531D01*
X87085Y65968D01*
X86963Y66167D01*
X87011Y66255D01*
X87490D01*
Y65912D01*
X88785D01*
X88815Y65839D01*
X88919Y65703D01*
X88919Y65703D01*
X88875Y65614D01*
X88390D01*
Y65010D01*
X89044D01*
Y65514D01*
X89128Y65569D01*
X89213Y65534D01*
X89383Y65511D01*
X89552Y65534D01*
X89710Y65599D01*
X89846Y65703D01*
X89950Y65839D01*
X90016Y65997D01*
X90038Y66167D01*
X90016Y66337D01*
X89950Y66495D01*
X89846Y66631D01*
X89710Y66735D01*
X89552Y66800D01*
X89383Y66823D01*
X89249Y66805D01*
X89190Y66864D01*
X89123Y66909D01*
X89152Y67005D01*
X89818D01*
X90142Y66681D01*
X90124Y66548D01*
X90146Y66378D01*
X90212Y66220D01*
X90316Y66084D01*
X90452Y65980D01*
X90610Y65915D01*
X90780Y65892D01*
X90949Y65915D01*
X91107Y65980D01*
X91243Y66084D01*
X91257Y66103D01*
X91352Y66071D01*
Y63185D01*
X91347Y63182D01*
X91243Y63046D01*
X91178Y62888D01*
X91155Y62718D01*
X91178Y62548D01*
X91243Y62390D01*
X91347Y62254D01*
X91483Y62150D01*
X91641Y62085D01*
X91811Y62062D01*
X91981Y62085D01*
X92139Y62150D01*
X92275Y62254D01*
X92379Y62390D01*
X92444Y62548D01*
X92467Y62718D01*
X92444Y62888D01*
X92379Y63046D01*
X92275Y63182D01*
X92270Y63185D01*
Y72728D01*
X97462Y77920D01*
X99483D01*
X99486Y77915D01*
X99622Y77811D01*
X99780Y77746D01*
X99950Y77723D01*
X100120Y77746D01*
X100278Y77811D01*
X100414Y77915D01*
X100518Y78051D01*
X100583Y78209D01*
X100606Y78379D01*
X100583Y78549D01*
X100518Y78707D01*
X100414Y78843D01*
X100307Y78924D01*
Y79237D01*
X100280Y79374D01*
X100202Y79490D01*
X100087Y79567D01*
X99950Y79594D01*
X99813Y79567D01*
X99698Y79490D01*
X99620Y79374D01*
X99593Y79237D01*
Y78924D01*
X99486Y78843D01*
X99483Y78838D01*
X97272D01*
X97096Y78803D01*
X96948Y78703D01*
X91621Y73377D01*
X84011D01*
X83835Y73342D01*
X83687Y73242D01*
X82890Y72446D01*
X82813Y72509D01*
X82835Y72542D01*
X82870Y72718D01*
Y73151D01*
X82875Y73154D01*
X82979Y73290D01*
X83044Y73448D01*
X83067Y73618D01*
X83044Y73788D01*
X82979Y73946D01*
X82882Y74071D01*
X82927Y74161D01*
X86266D01*
X86347Y74054D01*
X86483Y73950D01*
X86641Y73885D01*
X86811Y73862D01*
X86981Y73885D01*
X87139Y73950D01*
X87275Y74054D01*
X87379Y74190D01*
X87444Y74348D01*
X87467Y74518D01*
X87444Y74688D01*
X87379Y74846D01*
X87275Y74982D01*
X87139Y75086D01*
X86981Y75151D01*
X86811Y75174D01*
X86641Y75151D01*
X86483Y75086D01*
X86347Y74982D01*
X86266Y74875D01*
X82011D01*
X81874Y74848D01*
X81759Y74770D01*
X80163Y73175D01*
X76859D01*
X76539Y73495D01*
X76526Y73556D01*
X76590Y73634D01*
X78211D01*
X78211Y73634D01*
X78334Y73658D01*
X78358Y73663D01*
X78483Y73746D01*
X78483Y73746D01*
X78483Y73746D01*
X79983Y75246D01*
X79983Y75246D01*
X80066Y75371D01*
X80095Y75518D01*
Y75732D01*
X80330Y75829D01*
X80539Y75990D01*
X80700Y76199D01*
X80800Y76442D01*
X80807Y76496D01*
X80894Y76546D01*
X81041Y76485D01*
X81211Y76462D01*
X81381Y76485D01*
X81539Y76550D01*
X81675Y76654D01*
X81779Y76790D01*
X81844Y76948D01*
X81867Y77118D01*
X81849Y77251D01*
X83763Y79166D01*
X83841Y79281D01*
X83868Y79418D01*
X83868Y79418D01*
X83868Y79418D01*
Y79418D01*
Y80053D01*
X83960Y80091D01*
X84261Y79791D01*
X84254Y79773D01*
X84231Y79604D01*
X84254Y79434D01*
X84319Y79276D01*
X84423Y79140D01*
X84559Y79036D01*
X84649Y78998D01*
X84669Y78900D01*
X82679Y76911D01*
X82581Y76951D01*
X82411Y76974D01*
X82241Y76951D01*
X82083Y76886D01*
X81947Y76782D01*
X81843Y76646D01*
X81778Y76488D01*
X81755Y76318D01*
X81778Y76148D01*
X81843Y75990D01*
X81947Y75854D01*
X82083Y75750D01*
X82241Y75685D01*
X82411Y75662D01*
X82581Y75685D01*
X82739Y75750D01*
X82875Y75854D01*
X82979Y75990D01*
X83044Y76148D01*
X83062Y76284D01*
X85839Y79061D01*
X85916Y79177D01*
X85944Y79314D01*
Y79894D01*
X85916Y80030D01*
X85839Y80146D01*
X84668Y81317D01*
Y81667D01*
X84751Y81722D01*
X84841Y81685D01*
X85011Y81662D01*
X85181Y81685D01*
X85339Y81750D01*
X85475Y81854D01*
X85579Y81990D01*
X85644Y82148D01*
X85667Y82318D01*
X85644Y82488D01*
X85579Y82646D01*
X85475Y82782D01*
X85368Y82863D01*
Y83118D01*
X85341Y83255D01*
X85263Y83370D01*
X85068Y83566D01*
Y84236D01*
X85160Y84274D01*
X85761Y83673D01*
X85778Y83548D01*
X85843Y83390D01*
X85947Y83254D01*
X86083Y83150D01*
X86241Y83085D01*
X86411Y83062D01*
X86581Y83085D01*
X86683Y83127D01*
X86728Y83108D01*
X86776Y83072D01*
X86755Y82918D01*
X86778Y82748D01*
X86843Y82590D01*
X86947Y82454D01*
X87083Y82350D01*
X87241Y82285D01*
X87411Y82262D01*
X87581Y82285D01*
X87739Y82350D01*
X87875Y82454D01*
X87979Y82590D01*
X88044Y82748D01*
X88067Y82918D01*
X88049Y83051D01*
X88659Y83661D01*
X92160D01*
X92215Y83578D01*
X92178Y83488D01*
X92155Y83318D01*
X92178Y83148D01*
X92243Y82990D01*
X92347Y82854D01*
X92483Y82750D01*
X92641Y82685D01*
X92811Y82662D01*
X92944Y82680D01*
X93259Y82366D01*
X93374Y82288D01*
X93511Y82261D01*
X100011D01*
X100018Y82161D01*
X99941Y82151D01*
X99783Y82086D01*
X99647Y81982D01*
X99543Y81846D01*
X99478Y81688D01*
X99455Y81518D01*
X99473Y81385D01*
X99363Y81275D01*
X91156D01*
X91075Y81382D01*
X90939Y81486D01*
X90781Y81551D01*
X90611Y81574D01*
X90441Y81551D01*
X90283Y81486D01*
X90147Y81382D01*
X90043Y81246D01*
X89978Y81088D01*
X89955Y80918D01*
X89978Y80748D01*
X90043Y80590D01*
X90147Y80454D01*
Y80382D01*
X90043Y80246D01*
X89978Y80088D01*
X89955Y79918D01*
X89978Y79748D01*
X90043Y79590D01*
X90147Y79454D01*
X90283Y79350D01*
X90441Y79285D01*
X90611Y79262D01*
X90781Y79285D01*
X90939Y79350D01*
X91075Y79454D01*
X91156Y79561D01*
X98065D01*
X98147Y79454D01*
X98283Y79350D01*
X98441Y79285D01*
X98611Y79262D01*
X98781Y79285D01*
X98939Y79350D01*
X99075Y79454D01*
X99179Y79590D01*
X99244Y79748D01*
X99267Y79918D01*
X99244Y80088D01*
X99179Y80246D01*
X99075Y80382D01*
X98964Y80466D01*
X98996Y80561D01*
X99511D01*
X99648Y80588D01*
X99763Y80666D01*
X99763Y80666D01*
X99763Y80666D01*
X99978Y80880D01*
X100111Y80862D01*
X100281Y80885D01*
X100439Y80950D01*
X100575Y81054D01*
X100679Y81190D01*
X100744Y81348D01*
X100767Y81518D01*
X100744Y81688D01*
X100679Y81846D01*
X100575Y81982D01*
X100439Y82086D01*
X100281Y82151D01*
X100204Y82161D01*
X100211Y82261D01*
X102705D01*
X103532Y81434D01*
X103648Y81357D01*
X103784Y81330D01*
X119642D01*
X119779Y81357D01*
X119895Y81434D01*
X119895Y81434D01*
X119895Y81434D01*
X120722Y82261D01*
X121519D01*
X121557Y82169D01*
X109463Y70075D01*
X105556D01*
X105475Y70182D01*
X105339Y70286D01*
X105181Y70351D01*
X105011Y70374D01*
X104841Y70351D01*
X104683Y70286D01*
X104547Y70182D01*
X104443Y70046D01*
X104378Y69888D01*
X104355Y69718D01*
X104378Y69548D01*
X104443Y69390D01*
X104547Y69254D01*
X104683Y69150D01*
X104841Y69085D01*
X105011Y69062D01*
X105181Y69085D01*
X105339Y69150D01*
X105475Y69254D01*
X105556Y69361D01*
X109611D01*
X109748Y69388D01*
X109863Y69466D01*
X112065Y71667D01*
X112157Y71629D01*
Y69569D01*
X109544Y66956D01*
X109411Y66974D01*
X109241Y66951D01*
X109083Y66886D01*
X108947Y66782D01*
X108843Y66646D01*
X108778Y66488D01*
X108755Y66318D01*
X108778Y66148D01*
X108843Y65990D01*
X108863Y65965D01*
X108819Y65875D01*
X107411D01*
X107274Y65848D01*
X107159Y65770D01*
X106744Y65356D01*
X106611Y65374D01*
X106441Y65351D01*
X106283Y65286D01*
X106147Y65182D01*
X106043Y65046D01*
X105978Y64888D01*
X105955Y64718D01*
X105978Y64548D01*
X106043Y64390D01*
X106147Y64254D01*
X106166Y64240D01*
X106163Y64140D01*
X106059Y64070D01*
X104963Y62975D01*
X93811D01*
X93674Y62948D01*
X93559Y62870D01*
X90959Y60270D01*
X90881Y60155D01*
X90859Y60044D01*
X90760Y60034D01*
X90755Y60047D01*
X90601Y60248D01*
X90400Y60402D01*
X90167Y60498D01*
X89916Y60531D01*
X89665Y60498D01*
X89432Y60402D01*
X89231Y60248D01*
X89077Y60047D01*
X88981Y59814D01*
X88948Y59563D01*
X88981Y59312D01*
X89077Y59079D01*
X89231Y58878D01*
X89432Y58724D01*
X89665Y58628D01*
X89916Y58595D01*
X90069Y58615D01*
X90096Y58560D01*
X90044Y58475D01*
X88471D01*
X88334Y58448D01*
X88219Y58370D01*
X87754Y57906D01*
X87627Y57958D01*
X87376Y57991D01*
X87125Y57958D01*
X86892Y57862D01*
X86691Y57708D01*
X86537Y57507D01*
X86441Y57274D01*
X86408Y57023D01*
X86441Y56772D01*
X86537Y56539D01*
X86691Y56338D01*
X86892Y56184D01*
X87125Y56088D01*
X87376Y56055D01*
X87627Y56088D01*
X87860Y56184D01*
X88061Y56338D01*
X88215Y56539D01*
X88311Y56772D01*
X88344Y57023D01*
X88311Y57274D01*
X88259Y57401D01*
X88619Y57761D01*
X89159D01*
X89204Y57671D01*
X89077Y57507D01*
X88981Y57274D01*
X88948Y57023D01*
X88981Y56772D01*
X89077Y56539D01*
X89231Y56338D01*
X89432Y56184D01*
X89665Y56088D01*
X89916Y56055D01*
X90167Y56088D01*
X90400Y56184D01*
X90601Y56338D01*
X90755Y56539D01*
X90851Y56772D01*
X90884Y57023D01*
X90854Y57256D01*
X91359Y57761D01*
X91699D01*
X91744Y57671D01*
X91617Y57507D01*
X91521Y57274D01*
X91488Y57023D01*
X91521Y56772D01*
X91617Y56539D01*
X91771Y56338D01*
X91972Y56184D01*
X92205Y56088D01*
X92456Y56055D01*
X92707Y56088D01*
X92940Y56184D01*
X93141Y56338D01*
X93295Y56539D01*
X93391Y56772D01*
X93424Y57023D01*
X93391Y57274D01*
X93295Y57507D01*
X93141Y57708D01*
X92940Y57862D01*
X92845Y57901D01*
X92825Y57999D01*
X94020Y59194D01*
X94118Y59174D01*
X94157Y59079D01*
X94311Y58878D01*
X94512Y58724D01*
X94745Y58628D01*
X94996Y58595D01*
X95247Y58628D01*
X95480Y58724D01*
X95681Y58878D01*
X95835Y59079D01*
X95931Y59312D01*
X95964Y59563D01*
X95931Y59814D01*
X95835Y60047D01*
X95806Y60085D01*
X95876Y60155D01*
X95883Y60150D01*
X96041Y60085D01*
X96211Y60062D01*
X96381Y60085D01*
X96539Y60150D01*
X96675Y60254D01*
X96779Y60390D01*
X96844Y60548D01*
X96859Y60661D01*
X113311D01*
X113448Y60688D01*
X113563Y60766D01*
X117063Y64266D01*
X117141Y64381D01*
X117168Y64518D01*
X117168Y64518D01*
X117168Y64518D01*
Y64518D01*
Y70170D01*
X124441Y77443D01*
X124563D01*
Y76918D01*
X125884D01*
Y77529D01*
X125658D01*
X125619Y77622D01*
X126959Y78961D01*
X129302D01*
X130272Y77991D01*
X130278Y77948D01*
X130343Y77790D01*
X130445Y77658D01*
X130401Y77568D01*
X129211D01*
Y76068D01*
X130087D01*
X130094Y76051D01*
X130038Y75968D01*
X129211D01*
Y74468D01*
X129211D01*
D01*
Y74468D01*
X129211Y74468D01*
X129211D01*
X129211Y74468D01*
X129211D01*
Y72968D01*
X129915D01*
X129926Y72941D01*
X129879Y72853D01*
X129838Y72845D01*
X129713Y72761D01*
X129713Y72761D01*
X129620Y72668D01*
X128311D01*
Y71168D01*
X129111D01*
Y71168D01*
X129111Y71168D01*
X129111Y71168D01*
Y70762D01*
X128550D01*
X128111Y71200D01*
Y72668D01*
X127941D01*
X127902Y72760D01*
X128110Y72968D01*
X129011D01*
Y74468D01*
D01*
Y74468D01*
X129011Y74468D01*
Y74468D01*
X129011D01*
X129011D01*
Y75968D01*
X128839D01*
Y76068D01*
X129011D01*
Y77568D01*
X127611D01*
Y77175D01*
X127455D01*
Y77525D01*
X126142D01*
Y76666D01*
X126059Y76583D01*
X125981Y76467D01*
X125884Y76487D01*
Y76718D01*
X125324D01*
Y76107D01*
X125884D01*
D01*
X125884D01*
X125954Y76037D01*
Y75568D01*
X124715D01*
Y75572D01*
X123911D01*
Y74618D01*
Y73664D01*
X124715D01*
Y73668D01*
X126511D01*
Y75013D01*
X126563Y75066D01*
X126641Y75181D01*
X126668Y75318D01*
X126668Y75318D01*
X126668Y75318D01*
Y75318D01*
Y76111D01*
X127455D01*
Y76461D01*
X127611D01*
Y76068D01*
X127921D01*
Y75968D01*
X127611D01*
Y74468D01*
D01*
X127611Y74468D01*
X127611Y74468D01*
D01*
D01*
Y74468D01*
X127611D01*
D01*
Y73767D01*
X127087Y73242D01*
X126987Y73094D01*
X126952Y72918D01*
Y72668D01*
X126711D01*
Y71168D01*
X126969D01*
X126987Y71076D01*
X127087Y70927D01*
X127987Y70027D01*
X128135Y69927D01*
X128311Y69893D01*
X128487Y69927D01*
X128507Y69941D01*
X129111D01*
Y69668D01*
X129401D01*
Y68918D01*
X129411Y68866D01*
Y68567D01*
X129021Y68177D01*
X121901D01*
X121726Y68142D01*
X121577Y68042D01*
X113882Y60347D01*
X113782Y60198D01*
X113747Y60023D01*
Y59983D01*
X113649Y59964D01*
X113615Y60047D01*
X113461Y60248D01*
X113260Y60402D01*
X113027Y60498D01*
X112776Y60531D01*
X112525Y60498D01*
X112292Y60402D01*
X112091Y60248D01*
X111937Y60047D01*
X111841Y59814D01*
X111808Y59563D01*
X111841Y59312D01*
X111937Y59079D01*
X112091Y58878D01*
X112100Y58872D01*
X112068Y58777D01*
X110944D01*
X110912Y58872D01*
X110921Y58878D01*
X111075Y59079D01*
X111171Y59312D01*
X111204Y59563D01*
X111171Y59814D01*
X111075Y60047D01*
X110921Y60248D01*
X110720Y60402D01*
X110487Y60498D01*
X110236Y60531D01*
X109985Y60498D01*
X109752Y60402D01*
X109551Y60248D01*
X109397Y60047D01*
X109301Y59814D01*
X109268Y59563D01*
X109301Y59312D01*
X109397Y59079D01*
X109551Y58878D01*
X109560Y58872D01*
X109528Y58777D01*
X108404D01*
X108372Y58872D01*
X108381Y58878D01*
X108535Y59079D01*
X108631Y59312D01*
X108664Y59563D01*
X108631Y59814D01*
X108535Y60047D01*
X108381Y60248D01*
X108180Y60402D01*
X107947Y60498D01*
X107696Y60531D01*
X107445Y60498D01*
X107212Y60402D01*
X107011Y60248D01*
X106857Y60047D01*
X106761Y59814D01*
X106728Y59563D01*
X106761Y59312D01*
X106857Y59079D01*
X107011Y58878D01*
X107020Y58872D01*
X106988Y58777D01*
X105864D01*
X105832Y58872D01*
X105841Y58878D01*
X105995Y59079D01*
X106091Y59312D01*
X106124Y59563D01*
X106091Y59814D01*
X105995Y60047D01*
X105841Y60248D01*
X105640Y60402D01*
X105407Y60498D01*
X105156Y60531D01*
X104905Y60498D01*
X104672Y60402D01*
X104471Y60248D01*
X104317Y60047D01*
X104221Y59814D01*
X104188Y59563D01*
X104221Y59312D01*
X104317Y59079D01*
X104471Y58878D01*
X104480Y58872D01*
X104448Y58777D01*
X103324D01*
X103292Y58872D01*
X103301Y58878D01*
X103455Y59079D01*
X103551Y59312D01*
X103584Y59563D01*
X103551Y59814D01*
X103455Y60047D01*
X103301Y60248D01*
X103100Y60402D01*
X102867Y60498D01*
X102616Y60531D01*
X102365Y60498D01*
X102132Y60402D01*
X101931Y60248D01*
X101777Y60047D01*
X101681Y59814D01*
X101648Y59563D01*
X101681Y59312D01*
X101777Y59079D01*
X101931Y58878D01*
X101940Y58872D01*
X101930Y58842D01*
X101834Y58812D01*
X101739Y58886D01*
X101581Y58951D01*
X101411Y58974D01*
X101241Y58951D01*
X101083Y58886D01*
X100947Y58782D01*
X100843Y58646D01*
X100778Y58488D01*
X100755Y58318D01*
X100778Y58148D01*
X100843Y57990D01*
X100947Y57854D01*
X101083Y57750D01*
X101241Y57685D01*
X101411Y57662D01*
X101581Y57685D01*
X101739Y57750D01*
X101875Y57854D01*
X101878Y57859D01*
X101973D01*
X102005Y57764D01*
X101931Y57708D01*
X101777Y57507D01*
X101681Y57274D01*
X101648Y57023D01*
X101681Y56772D01*
X101777Y56539D01*
X101931Y56338D01*
X102132Y56184D01*
X102365Y56088D01*
X102616Y56055D01*
X102867Y56088D01*
X103100Y56184D01*
X103301Y56338D01*
X103455Y56539D01*
X103551Y56772D01*
X103584Y57023D01*
X103551Y57274D01*
X103455Y57507D01*
X103301Y57708D01*
X103227Y57764D01*
X103259Y57859D01*
X104513D01*
X104545Y57764D01*
X104471Y57708D01*
X104317Y57507D01*
X104221Y57274D01*
X104188Y57023D01*
X104221Y56772D01*
X104317Y56539D01*
X104471Y56338D01*
X104672Y56184D01*
X104905Y56088D01*
X105156Y56055D01*
X105407Y56088D01*
X105640Y56184D01*
X105841Y56338D01*
X105995Y56539D01*
X106091Y56772D01*
X106124Y57023D01*
X106091Y57274D01*
X105995Y57507D01*
X105841Y57708D01*
X105767Y57764D01*
X105799Y57859D01*
X107053D01*
X107085Y57764D01*
X107011Y57708D01*
X106857Y57507D01*
X106761Y57274D01*
X106728Y57023D01*
X106761Y56772D01*
X106857Y56539D01*
X107011Y56338D01*
X107212Y56184D01*
X107445Y56088D01*
X107696Y56055D01*
X107947Y56088D01*
X108180Y56184D01*
X108381Y56338D01*
X108535Y56539D01*
X108631Y56772D01*
X108664Y57023D01*
X108631Y57274D01*
X108535Y57507D01*
X108381Y57708D01*
X108307Y57764D01*
X108339Y57859D01*
X109593D01*
X109625Y57764D01*
X109551Y57708D01*
X109397Y57507D01*
X109301Y57274D01*
X109268Y57023D01*
X109301Y56772D01*
X109397Y56539D01*
X109551Y56338D01*
X109752Y56184D01*
X109985Y56088D01*
X110236Y56055D01*
X110487Y56088D01*
X110720Y56184D01*
X110921Y56338D01*
X111075Y56539D01*
X111171Y56772D01*
X111204Y57023D01*
X111171Y57274D01*
X111075Y57507D01*
X110921Y57708D01*
X110847Y57764D01*
X110879Y57859D01*
X112133D01*
X112165Y57764D01*
X112091Y57708D01*
X111937Y57507D01*
X111841Y57274D01*
X111808Y57023D01*
X111841Y56772D01*
X111937Y56539D01*
X112091Y56338D01*
X112292Y56184D01*
X112525Y56088D01*
X112776Y56055D01*
X113027Y56088D01*
X113260Y56184D01*
X113461Y56338D01*
X113615Y56539D01*
X113711Y56772D01*
X113744Y57023D01*
X113711Y57274D01*
X113615Y57507D01*
X113461Y57708D01*
X113349Y57794D01*
X113371Y57891D01*
X113387Y57894D01*
X113535Y57994D01*
X114486Y58944D01*
X114586Y58938D01*
X114631Y58878D01*
X114832Y58724D01*
X115065Y58628D01*
X115316Y58595D01*
X115567Y58628D01*
X115800Y58724D01*
X116001Y58878D01*
X116155Y59079D01*
X116251Y59312D01*
X116284Y59563D01*
X116251Y59814D01*
X116155Y60047D01*
X116001Y60248D01*
X115800Y60402D01*
X115567Y60498D01*
X115470Y60511D01*
X115438Y60606D01*
X122091Y67259D01*
X129211D01*
X129387Y67294D01*
X129535Y67394D01*
X129619Y67477D01*
X129711Y67438D01*
Y66268D01*
X130656D01*
X131859Y65066D01*
X131859Y65066D01*
X131859D01*
X131859Y65066D01*
X131859D01*
X131859Y65066D01*
Y65066D01*
Y65066D01*
D01*
D01*
X131859D01*
Y65066D01*
X131974Y64988D01*
X132111Y64961D01*
X135211D01*
X135348Y64988D01*
X135463Y65066D01*
X137078Y66680D01*
X137211Y66662D01*
X137333Y66678D01*
X137377Y66589D01*
X134863Y64075D01*
X124811D01*
X124674Y64048D01*
X124559Y63970D01*
X120942Y60354D01*
X120880Y60402D01*
X120647Y60498D01*
X120396Y60531D01*
X120145Y60498D01*
X119912Y60402D01*
X119711Y60248D01*
X119557Y60047D01*
X119461Y59814D01*
X119428Y59563D01*
X119461Y59312D01*
X119557Y59079D01*
X119711Y58878D01*
X119912Y58724D01*
X120145Y58628D01*
X120396Y58595D01*
X120647Y58628D01*
X120880Y58724D01*
X121081Y58878D01*
X121235Y59079D01*
X121331Y59312D01*
X121364Y59563D01*
X121341Y59743D01*
X121477Y59879D01*
X121569Y59841D01*
Y58701D01*
X120774Y57906D01*
X120647Y57958D01*
X120396Y57991D01*
X120145Y57958D01*
X119912Y57862D01*
X119711Y57708D01*
X119557Y57507D01*
X119461Y57274D01*
X119428Y57023D01*
X119461Y56772D01*
X119557Y56539D01*
X119711Y56338D01*
X119912Y56184D01*
X120145Y56088D01*
X120396Y56055D01*
X120647Y56088D01*
X120880Y56184D01*
X121081Y56338D01*
X121235Y56539D01*
X121331Y56772D01*
X121364Y57023D01*
X121331Y57274D01*
X121279Y57401D01*
X122178Y58301D01*
X122256Y58416D01*
X122283Y58553D01*
Y58741D01*
X122373Y58785D01*
X122452Y58724D01*
X122685Y58628D01*
X122936Y58595D01*
X123187Y58628D01*
X123420Y58724D01*
X123621Y58878D01*
X123775Y59079D01*
X123871Y59312D01*
X123904Y59563D01*
X123871Y59814D01*
X123819Y59941D01*
X123962Y60084D01*
X124054Y60046D01*
Y58646D01*
X123314Y57906D01*
X123187Y57958D01*
X122936Y57991D01*
X122685Y57958D01*
X122452Y57862D01*
X122251Y57708D01*
X122097Y57507D01*
X122001Y57274D01*
X121968Y57023D01*
X122001Y56772D01*
X122097Y56539D01*
X122251Y56338D01*
X122452Y56184D01*
X122685Y56088D01*
X122936Y56055D01*
X123187Y56088D01*
X123420Y56184D01*
X123621Y56338D01*
X123775Y56539D01*
X123871Y56772D01*
X123904Y57023D01*
X123871Y57274D01*
X123819Y57401D01*
X124663Y58246D01*
X124741Y58361D01*
X124768Y58498D01*
Y58783D01*
X124858Y58828D01*
X124992Y58724D01*
X125225Y58628D01*
X125459Y58597D01*
X125491Y58502D01*
X125224Y58235D01*
X125146Y58120D01*
X125119Y57983D01*
Y57914D01*
X124992Y57862D01*
X124791Y57708D01*
X124637Y57507D01*
X124541Y57274D01*
X124508Y57023D01*
X124541Y56772D01*
X124637Y56539D01*
X124791Y56338D01*
X124992Y56184D01*
X125225Y56088D01*
X125476Y56055D01*
X125727Y56088D01*
X125960Y56184D01*
X126161Y56338D01*
X126315Y56539D01*
X126411Y56772D01*
X126444Y57023D01*
X126411Y57274D01*
X126315Y57507D01*
X126161Y57708D01*
X125963Y57859D01*
X125957Y57959D01*
X127063Y59066D01*
X127079Y59089D01*
X127177Y59079D01*
X127331Y58878D01*
X127532Y58724D01*
X127765Y58628D01*
X128016Y58595D01*
X128267Y58628D01*
X128500Y58724D01*
X128701Y58878D01*
X128855Y59079D01*
X128951Y59312D01*
X128984Y59563D01*
X128951Y59814D01*
X128899Y59941D01*
X129919Y60961D01*
X131319D01*
X131357Y60869D01*
X130934Y60446D01*
X130807Y60498D01*
X130556Y60531D01*
X130305Y60498D01*
X130072Y60402D01*
X129871Y60248D01*
X129717Y60047D01*
X129621Y59814D01*
X129588Y59563D01*
X129621Y59312D01*
X129717Y59079D01*
X129871Y58878D01*
X130072Y58724D01*
X130305Y58628D01*
X130556Y58595D01*
X130807Y58628D01*
X130927Y58678D01*
X130983Y58595D01*
X130863Y58475D01*
X129111D01*
X128974Y58448D01*
X128859Y58370D01*
X128394Y57906D01*
X128267Y57958D01*
X128016Y57991D01*
X127765Y57958D01*
X127532Y57862D01*
X127331Y57708D01*
X127177Y57507D01*
X127081Y57274D01*
X127048Y57023D01*
X127081Y56772D01*
X127177Y56539D01*
X127331Y56338D01*
X127532Y56184D01*
X127765Y56088D01*
X128016Y56055D01*
X128267Y56088D01*
X128500Y56184D01*
X128701Y56338D01*
X128855Y56539D01*
X128951Y56772D01*
X128984Y57023D01*
X128951Y57274D01*
X128899Y57401D01*
X129259Y57761D01*
X129799D01*
X129844Y57671D01*
X129717Y57507D01*
X129621Y57274D01*
X129588Y57023D01*
X129621Y56772D01*
X129717Y56539D01*
X129871Y56338D01*
X130072Y56184D01*
X130305Y56088D01*
X130556Y56055D01*
X130807Y56088D01*
X131040Y56184D01*
X131241Y56338D01*
X131395Y56539D01*
X131491Y56772D01*
X131524Y57023D01*
X131491Y57274D01*
X131439Y57401D01*
X131799Y57761D01*
X132339D01*
X132384Y57671D01*
X132257Y57507D01*
X132161Y57274D01*
X132128Y57023D01*
X132161Y56772D01*
X132257Y56539D01*
X132411Y56338D01*
X132612Y56184D01*
X132845Y56088D01*
X133096Y56055D01*
X133347Y56088D01*
X133580Y56184D01*
X133781Y56338D01*
X133935Y56539D01*
X134031Y56772D01*
X134064Y57023D01*
X134031Y57274D01*
X133935Y57507D01*
X133808Y57671D01*
X133853Y57761D01*
X134879D01*
X134924Y57671D01*
X134797Y57507D01*
X134701Y57274D01*
X134668Y57023D01*
X134701Y56772D01*
X134797Y56539D01*
X134951Y56338D01*
X135152Y56184D01*
X135385Y56088D01*
X135636Y56055D01*
X135887Y56088D01*
X136120Y56184D01*
X136321Y56338D01*
X136475Y56539D01*
X136571Y56772D01*
X136604Y57023D01*
X136571Y57274D01*
X136475Y57507D01*
X136348Y57671D01*
X136393Y57761D01*
X137419D01*
X137464Y57671D01*
X137337Y57507D01*
X137241Y57274D01*
X137208Y57023D01*
X137241Y56772D01*
X137337Y56539D01*
X137491Y56338D01*
X137692Y56184D01*
X137925Y56088D01*
X138176Y56055D01*
X138427Y56088D01*
X138660Y56184D01*
X138861Y56338D01*
X139015Y56539D01*
X139111Y56772D01*
X139144Y57023D01*
X139111Y57274D01*
X139015Y57507D01*
X138876Y57688D01*
X138906Y57767D01*
X138918Y57782D01*
X138948Y57788D01*
X139063Y57866D01*
X139863Y58666D01*
X139941Y58781D01*
X139968Y58918D01*
X139968Y58918D01*
X139968Y58918D01*
Y58918D01*
Y60573D01*
X140075Y60654D01*
X140179Y60790D01*
X140244Y60948D01*
X140267Y61118D01*
X140244Y61288D01*
X140179Y61446D01*
X140075Y61582D01*
X139939Y61686D01*
X139781Y61751D01*
X139611Y61774D01*
X139511Y61760D01*
X139472Y61853D01*
X139475Y61854D01*
X139579Y61990D01*
X139644Y62148D01*
X139667Y62318D01*
X139644Y62488D01*
X139579Y62646D01*
X139475Y62782D01*
X139339Y62886D01*
X139181Y62951D01*
X139011Y62974D01*
X138841Y62951D01*
X138683Y62886D01*
X138600Y62994D01*
X138579Y63046D01*
X138475Y63182D01*
X138339Y63286D01*
X138181Y63351D01*
X138127Y63358D01*
X138095Y63453D01*
X138403Y63761D01*
X139466D01*
X139547Y63654D01*
X139683Y63550D01*
X139841Y63485D01*
X140011Y63462D01*
X140181Y63485D01*
X140339Y63550D01*
X140475Y63654D01*
X140579Y63790D01*
X140644Y63948D01*
X140667Y64118D01*
X140644Y64288D01*
X140579Y64446D01*
X140475Y64582D01*
X140339Y64686D01*
X140181Y64751D01*
X140011Y64774D01*
X139841Y64751D01*
X139683Y64686D01*
X139547Y64582D01*
X139466Y64475D01*
X138682D01*
X138644Y64567D01*
X140363Y66287D01*
X140441Y66403D01*
X140468Y66539D01*
Y75718D01*
X140443Y75845D01*
X140444Y75848D01*
X140466Y76018D01*
X140444Y76188D01*
X140379Y76346D01*
X140274Y76482D01*
X140139Y76586D01*
X139981Y76651D01*
X139811Y76674D01*
X139641Y76651D01*
X139483Y76586D01*
X139381Y76507D01*
X139284Y76533D01*
X139279Y76546D01*
X139174Y76682D01*
X139039Y76786D01*
X138881Y76851D01*
X138867Y76853D01*
X138835Y76948D01*
X138963Y77076D01*
X139041Y77191D01*
X139068Y77328D01*
Y77872D01*
X139174Y77954D01*
X139279Y78090D01*
X139344Y78248D01*
X139366Y78418D01*
X139344Y78588D01*
X139279Y78746D01*
X139174Y78882D01*
X139039Y78986D01*
X138948Y79023D01*
X138929Y79121D01*
X139663Y79856D01*
X139741Y79971D01*
X139768Y80108D01*
X139768Y80108D01*
X139768Y80108D01*
Y80108D01*
Y81918D01*
X139741Y82055D01*
X139663Y82170D01*
X139322Y82512D01*
X139366Y82601D01*
X139430Y82593D01*
X140087D01*
X141905Y80776D01*
X142053Y80676D01*
X142229Y80641D01*
X142461D01*
Y80168D01*
X145161D01*
Y80641D01*
X146985D01*
X148090Y79536D01*
X148162Y79488D01*
X148166Y67406D01*
X148142Y67039D01*
X148129Y66830D01*
Y66830D01*
D01*
X148127Y66806D01*
X148106Y66698D01*
Y66698D01*
X148090Y66621D01*
X148090Y66621D01*
X148081Y66575D01*
Y66575D01*
X148069Y66515D01*
Y66515D01*
X148057Y66455D01*
Y66455D01*
X148048Y66410D01*
Y66410D01*
X148033Y66331D01*
Y66331D01*
X148011Y66224D01*
X147994Y66174D01*
X147994Y66174D01*
X147845Y65735D01*
Y65735D01*
X147831Y65694D01*
X145232Y65682D01*
X145161Y65753D01*
Y66368D01*
X143310D01*
X142966Y66712D01*
X142967Y66718D01*
X142944Y66888D01*
X142879Y67046D01*
X142775Y67182D01*
X142639Y67286D01*
X142481Y67351D01*
X142311Y67374D01*
X142141Y67351D01*
X141983Y67286D01*
X141847Y67182D01*
X141743Y67046D01*
X141678Y66888D01*
X141655Y66718D01*
X141678Y66548D01*
X141743Y66390D01*
X141847Y66254D01*
X141983Y66150D01*
X142141Y66085D01*
X142311Y66062D01*
X142317Y66063D01*
X142461Y65919D01*
Y64668D01*
X145161D01*
Y64764D01*
X147214Y64774D01*
X147261Y64686D01*
X147255Y64677D01*
D01*
X147255Y64677D01*
X147229Y64637D01*
X146971Y64343D01*
X146971Y64343D01*
X146858Y64214D01*
X146855Y64212D01*
X146855Y64212D01*
X146855Y64212D01*
X146845Y64206D01*
D01*
X146803Y64178D01*
X146774Y64172D01*
X146770Y64173D01*
X146753Y64173D01*
X146753D01*
D01*
X144392Y64179D01*
X144387Y64178D01*
X144386Y64178D01*
X144372Y64175D01*
X144354Y64176D01*
X144349Y64175D01*
X144319Y64165D01*
X144289Y64159D01*
X144273Y64148D01*
X144255Y64142D01*
X144232Y64121D01*
X144206Y64104D01*
X144195Y64088D01*
X144181Y64075D01*
X144168Y64047D01*
X144150Y64021D01*
X144148Y64016D01*
X144145Y63998D01*
X144138Y63985D01*
X144138Y63984D01*
X144136Y63980D01*
X144115Y63896D01*
X144028Y63846D01*
X143746Y63932D01*
X143256Y63980D01*
X142766Y63932D01*
X142295Y63789D01*
X141860Y63557D01*
X141480Y63244D01*
X141167Y62864D01*
X140935Y62429D01*
X140792Y61958D01*
X140744Y61468D01*
X140792Y60978D01*
X140819Y60889D01*
X140766Y60804D01*
X140697Y60794D01*
X140692Y60792D01*
X140692D01*
X140678Y60790D01*
X140659Y60783D01*
X140648Y60782D01*
X140643Y60780D01*
X140640Y60778D01*
X140617Y60773D01*
X140602Y60763D01*
X140584Y60756D01*
X140561Y60735D01*
X140535Y60718D01*
X140524Y60702D01*
X140511Y60689D01*
X140497Y60661D01*
X140480Y60635D01*
X140476Y60616D01*
X140468Y60600D01*
X140467Y60577D01*
X140465Y60573D01*
X140464Y60568D01*
X140464Y60557D01*
X140461Y60537D01*
X140461Y60523D01*
X140460Y60518D01*
X140461Y60067D01*
X140465Y58359D01*
X140433Y57961D01*
X140388Y57771D01*
Y57771D01*
X140363Y57669D01*
X140363Y57669D01*
X140342Y57582D01*
X140193Y57222D01*
X139989Y56889D01*
X139927Y56817D01*
Y56817D01*
X139927Y56817D01*
X139824Y56695D01*
X139824Y56695D01*
X139764Y56626D01*
X139764Y56626D01*
X139764D01*
X139751Y56610D01*
X139747Y56607D01*
X139734Y56593D01*
X139730Y56591D01*
X139729Y56589D01*
X139721Y56584D01*
X139718Y56581D01*
X139717Y56579D01*
X139705Y56570D01*
X139579Y56432D01*
X139341Y56237D01*
X139300Y56203D01*
X139300Y56203D01*
D01*
X139282Y56188D01*
X139144Y56115D01*
X139144Y56115D01*
X138993Y56034D01*
X138993Y56034D01*
X138993Y56034D01*
X138980Y56027D01*
X138980Y56027D01*
X138980Y56027D01*
X138980Y56027D01*
X138980Y56027D01*
X138973Y56023D01*
X138973Y56023D01*
X138949Y56010D01*
X138870Y55986D01*
X138805Y55967D01*
X138805Y55967D01*
X138644Y55918D01*
X80954D01*
X80793Y55967D01*
X80793D01*
X80793Y55967D01*
X80786Y55969D01*
X80786D01*
X80780Y55971D01*
X80780Y55971D01*
X80780Y55971D01*
X80760Y55977D01*
X80634Y56044D01*
X80507Y56112D01*
X80358Y56235D01*
X80358D01*
X80288Y56292D01*
X80287Y56293D01*
X80287Y56293D01*
X80287Y56293D01*
X80286Y56294D01*
X80286Y56294D01*
X80261Y56327D01*
X80261Y56327D01*
X80261Y56327D01*
X80215Y56386D01*
X80215Y56386D01*
X80201Y56405D01*
X80201Y56405D01*
X80163Y56454D01*
X80149Y56489D01*
X80149D01*
D01*
D01*
D01*
X80124Y56548D01*
Y56548D01*
D01*
D01*
X80124D01*
X80124Y56548D01*
Y56548D01*
D01*
X80097Y56615D01*
X80097Y56615D01*
X80097D01*
X80095Y56620D01*
D01*
X80095Y56620D01*
X80086Y56641D01*
X80062Y56821D01*
X80065Y56844D01*
X80063Y56858D01*
X80066Y56871D01*
X80069Y57473D01*
D01*
X80069Y57530D01*
X80068Y57535D01*
X80068Y57535D01*
X80068Y57549D01*
X80065Y57569D01*
X80065Y57580D01*
X80064Y57585D01*
X80062Y57589D01*
X80061Y57612D01*
X80053Y57629D01*
X80049Y57647D01*
X80032Y57673D01*
X80019Y57702D01*
X80005Y57714D01*
X79995Y57730D01*
X79968Y57748D01*
X79945Y57769D01*
X79928Y57775D01*
X79912Y57786D01*
X79890Y57790D01*
X79886Y57792D01*
X79881Y57794D01*
X79870Y57796D01*
X79852Y57803D01*
X79838Y57805D01*
X79833Y57806D01*
X79821Y57808D01*
X79765Y57825D01*
X79683Y57833D01*
X79728Y58293D01*
X79680Y58783D01*
X79537Y59254D01*
X79305Y59689D01*
X78992Y60069D01*
X78612Y60382D01*
X78177Y60614D01*
X77706Y60757D01*
X77216Y60805D01*
X76726Y60757D01*
X76255Y60614D01*
X75820Y60382D01*
X75440Y60069D01*
X75127Y59689D01*
X74895Y59254D01*
X74752Y58783D01*
X74704Y58293D01*
X74752Y57803D01*
X74755Y57793D01*
X74696Y57713D01*
X65590D01*
Y57989D01*
X65589Y57996D01*
X65589D01*
X65589Y57996D01*
Y58005D01*
X65589Y58005D01*
X65589Y58005D01*
X65587Y58014D01*
X65587Y58014D01*
X65585Y58023D01*
Y58039D01*
X65584Y58045D01*
X65580Y58054D01*
X65579Y58073D01*
X65573Y58086D01*
X65569Y58102D01*
X65569Y58102D01*
X65569Y58102D01*
X65568Y58105D01*
X65550Y58132D01*
X65535Y58162D01*
X65523Y58173D01*
X65513Y58187D01*
X65485Y58206D01*
X65460Y58228D01*
X65458Y58229D01*
X65458Y58229D01*
X65458Y58229D01*
X65443Y58234D01*
X65430Y58243D01*
X65411Y58246D01*
X65404Y58251D01*
X65397Y58253D01*
X65381Y58255D01*
X65364Y58261D01*
X65364Y58261D01*
X65364Y58261D01*
X65355Y58262D01*
X65349Y58264D01*
X65326Y58267D01*
X65326D01*
D01*
X65178Y58287D01*
X65178D01*
X65167Y58288D01*
X65167D01*
X65167Y58288D01*
X65134Y58293D01*
X65128Y58295D01*
X65128Y58295D01*
D01*
X65098Y58308D01*
X65098Y58308D01*
X64947Y58370D01*
X64910Y58399D01*
X64910Y58399D01*
X64910Y58399D01*
X64866Y58433D01*
X64866Y58433D01*
X64866Y58433D01*
X64812Y58474D01*
X64812D01*
X64795Y58487D01*
X64792Y58490D01*
X64787Y58498D01*
X64779Y58504D01*
X64771Y58516D01*
X64771D01*
X64766Y58520D01*
X64762Y58525D01*
X64710Y58572D01*
X64710Y58572D01*
X64661Y58616D01*
X64661Y58616D01*
X64661Y58616D01*
X64659Y58618D01*
X64522Y58774D01*
X64522Y58774D01*
X64484Y58818D01*
X64304Y59022D01*
X64200Y59178D01*
X64200Y59178D01*
X64083Y59354D01*
X64006Y59468D01*
X63927Y59630D01*
X63927Y59630D01*
X63770Y59947D01*
X63770Y59947D01*
X63770Y59947D01*
X63769Y59949D01*
X63689Y60186D01*
X63689Y60186D01*
Y60186D01*
X63686Y60194D01*
X63686Y60194D01*
Y60194D01*
X63597Y60457D01*
X63556Y60664D01*
X63556Y60664D01*
Y60664D01*
X63544Y60724D01*
X63544Y60724D01*
Y60724D01*
X63509Y60899D01*
X63509Y60899D01*
X63502Y60935D01*
X63502Y60935D01*
Y60935D01*
X63492Y60983D01*
X63491Y61001D01*
Y61001D01*
Y61001D01*
X63485Y61090D01*
Y61090D01*
X63479Y61183D01*
Y61183D01*
Y61183D01*
X63462Y61445D01*
X63458Y61500D01*
X63462Y61518D01*
Y76553D01*
X63462Y76553D01*
X63462Y76553D01*
X63455Y103688D01*
X63497Y104333D01*
X63622Y104959D01*
X63731Y105281D01*
D01*
X63731Y105281D01*
X63766Y105383D01*
X63827Y105563D01*
X64057Y106031D01*
X64057Y106031D01*
X64109Y106135D01*
X64435Y106623D01*
X64435Y106623D01*
X64463Y106666D01*
X64498Y106705D01*
D01*
X64498Y106705D01*
X64611Y106834D01*
X64891Y107154D01*
X64929Y107187D01*
X64929Y107187D01*
X65078Y107317D01*
X65153Y107252D01*
X65152Y107250D01*
X65113Y107053D01*
Y106653D01*
X65777D01*
Y107567D01*
X65627D01*
X65503Y107542D01*
X65480Y107569D01*
X65493Y107668D01*
X66007Y108011D01*
D01*
X66035Y108030D01*
X66592Y108305D01*
D01*
X66592Y108305D01*
X66687Y108352D01*
X67376Y108586D01*
X68061Y108722D01*
X68061Y108722D01*
X68089Y108727D01*
X68123Y108730D01*
X68123D01*
X68158Y108732D01*
X68158D01*
X68158D01*
X68776Y108772D01*
X68778Y108772D01*
X68779D01*
X68779Y108772D01*
X68779Y108772D01*
X68780Y108772D01*
X68798Y108768D01*
X68818D01*
X68818Y108768D01*
X68818D01*
X68819Y108768D01*
X68819Y108768D01*
X68823Y108768D01*
X68828Y108766D01*
X68828Y108766D01*
X68832Y108767D01*
X68849Y108763D01*
X68867Y108763D01*
X68867Y108763D01*
X68868D01*
X68868Y108763D01*
X68868D01*
X68868Y108763D01*
X68868D01*
X68868Y108763D01*
X68868Y108763D01*
X68868D01*
X68868Y108763D01*
X68868D01*
X68868Y108763D01*
X69461Y108765D01*
X73229Y108775D01*
X73430Y108748D01*
D02*
G37*
G36*
X82484Y89788D02*
X82059Y89363D01*
X81981Y89247D01*
X81954Y89110D01*
Y81366D01*
X81344Y80756D01*
X81211Y80774D01*
X81041Y80751D01*
X80883Y80686D01*
X80747Y80582D01*
X80643Y80446D01*
X80578Y80288D01*
X80555Y80118D01*
X80564Y80054D01*
X80477Y80004D01*
X80330Y80116D01*
X80087Y80217D01*
X79826Y80252D01*
X79565Y80217D01*
X79322Y80116D01*
X79113Y79956D01*
X78952Y79747D01*
X78891Y79600D01*
X78704D01*
X78199Y80104D01*
X78260Y80252D01*
X78295Y80513D01*
X78260Y80774D01*
X78160Y81017D01*
X77999Y81226D01*
X77790Y81386D01*
X77547Y81487D01*
X77286Y81522D01*
X77025Y81487D01*
X76782Y81386D01*
X76573Y81226D01*
X76412Y81017D01*
X76312Y80774D01*
X76277Y80513D01*
X76312Y80252D01*
X76412Y80009D01*
X76573Y79800D01*
X76782Y79640D01*
X77025Y79539D01*
X77286Y79504D01*
X77547Y79539D01*
X77695Y79600D01*
X78304Y78991D01*
X78419Y78913D01*
X78556Y78886D01*
X78891D01*
X78952Y78739D01*
X79113Y78530D01*
X79322Y78369D01*
X79565Y78269D01*
X79826Y78234D01*
X80087Y78269D01*
X80330Y78369D01*
X80539Y78530D01*
X80641Y78663D01*
X80697D01*
X80741Y78573D01*
X80643Y78446D01*
X80578Y78288D01*
X80555Y78118D01*
X80578Y77948D01*
X80643Y77790D01*
X80747Y77654D01*
Y77582D01*
X80643Y77446D01*
X80636Y77429D01*
X80539Y77416D01*
X80330Y77576D01*
X80087Y77677D01*
X79826Y77712D01*
X79565Y77677D01*
X79322Y77576D01*
X79113Y77416D01*
X78952Y77207D01*
X78852Y76964D01*
X78817Y76703D01*
X78852Y76442D01*
X78952Y76199D01*
X79113Y75990D01*
X79322Y75829D01*
X79327Y75827D01*
Y75677D01*
X78378Y74729D01*
X78286Y74767D01*
Y76433D01*
X77295D01*
Y76718D01*
X77266Y76865D01*
X77259Y76875D01*
X77301Y76966D01*
X77547Y76999D01*
X77790Y77100D01*
X77999Y77260D01*
X78160Y77469D01*
X78260Y77712D01*
X78295Y77973D01*
X78260Y78234D01*
X78160Y78477D01*
X77999Y78686D01*
X77790Y78846D01*
X77547Y78947D01*
X77286Y78982D01*
X77025Y78947D01*
X76782Y78846D01*
X76573Y78686D01*
X76412Y78477D01*
X76312Y78234D01*
X76283Y78016D01*
X76188Y77984D01*
X76095Y78077D01*
Y83059D01*
X76196Y83159D01*
X76286Y83115D01*
X76277Y83053D01*
X76312Y82792D01*
X76412Y82549D01*
X76573Y82340D01*
X76782Y82179D01*
X77025Y82079D01*
X77286Y82044D01*
X77547Y82079D01*
X77790Y82179D01*
X77999Y82340D01*
X78160Y82549D01*
X78260Y82792D01*
X78295Y83053D01*
X78260Y83314D01*
X78160Y83557D01*
X77999Y83766D01*
X77790Y83926D01*
X77547Y84027D01*
X77286Y84062D01*
X77224Y84053D01*
X77180Y84143D01*
X80446Y87410D01*
X80543Y87390D01*
X80647Y87254D01*
X80783Y87150D01*
X80941Y87085D01*
X81111Y87062D01*
X81281Y87085D01*
X81439Y87150D01*
X81575Y87254D01*
X81679Y87390D01*
X81744Y87548D01*
X81767Y87718D01*
X81744Y87888D01*
X81679Y88046D01*
X81575Y88182D01*
X81527Y88218D01*
Y88318D01*
X81575Y88354D01*
X81679Y88490D01*
X81744Y88648D01*
X81767Y88818D01*
X81744Y88988D01*
X81679Y89146D01*
X81575Y89282D01*
X81439Y89386D01*
X81281Y89451D01*
X81111Y89474D01*
X80941Y89451D01*
X80783Y89386D01*
X80647Y89282D01*
X80543Y89146D01*
X80478Y88988D01*
X80468Y88910D01*
X80301D01*
X80301Y88910D01*
X80178Y88886D01*
X80153Y88881D01*
X80029Y88798D01*
X74931Y83700D01*
X74848Y83576D01*
X74843Y83551D01*
X74819Y83428D01*
X74819Y83428D01*
Y77526D01*
X74819Y77526D01*
X74843Y77403D01*
X74848Y77379D01*
X74931Y77254D01*
X74931Y77254D01*
X74931Y77254D01*
D01*
X74931D01*
Y77254D01*
D01*
X75627Y76559D01*
Y74597D01*
X75549Y74533D01*
X75488Y74546D01*
X73168Y76866D01*
Y82370D01*
X80665Y89867D01*
X82391D01*
X82437Y89876D01*
X82484Y89788D01*
D02*
G37*
G36*
X138536Y108864D02*
X138536D01*
X138536D01*
X138548Y108863D01*
X138548D01*
X138669Y108854D01*
X138669D01*
D01*
X138880Y108837D01*
X139147Y108773D01*
X139147D01*
X139195Y108761D01*
X139195D01*
X139312Y108733D01*
X139705Y108571D01*
X139705Y108571D01*
X139705Y108571D01*
X139721Y108564D01*
X139911Y108448D01*
X140100Y108332D01*
X140429Y108050D01*
X140444Y108031D01*
X140444Y108031D01*
Y108031D01*
X140559Y107882D01*
X140636Y107695D01*
X140641Y107661D01*
Y107661D01*
X140653Y107570D01*
X140653Y107570D01*
D01*
X140660Y107513D01*
X140656Y107494D01*
X140656Y107476D01*
X140656Y107476D01*
X140656Y107474D01*
X140656Y107473D01*
X140656Y107473D01*
X140650Y104710D01*
X140651Y104705D01*
X140651Y104704D01*
X140653Y104690D01*
X140653Y104672D01*
X140653Y104666D01*
X140664Y104637D01*
X140670Y104606D01*
X140680Y104590D01*
X140687Y104573D01*
X140708Y104549D01*
X140725Y104523D01*
X140741Y104513D01*
X140753Y104499D01*
X140782Y104485D01*
X140808Y104468D01*
X140813Y104466D01*
X140830Y104462D01*
X140843Y104456D01*
X140844Y104456D01*
X140849Y104454D01*
X140900Y104441D01*
X140941Y104350D01*
X140935Y104339D01*
X140792Y103868D01*
X140744Y103378D01*
X140792Y102888D01*
X140935Y102417D01*
X141167Y101982D01*
X141480Y101602D01*
X141860Y101289D01*
X142295Y101057D01*
X142766Y100914D01*
X143256Y100866D01*
X143746Y100914D01*
X144217Y101057D01*
X144225Y101061D01*
X144316Y101021D01*
X144330Y100969D01*
X144332Y100964D01*
X144332Y100964D01*
X144338Y100950D01*
X144342Y100932D01*
X144344Y100927D01*
X144361Y100902D01*
X144375Y100874D01*
X144389Y100861D01*
X144400Y100845D01*
X144425Y100828D01*
X144448Y100807D01*
X144467Y100801D01*
X144483Y100790D01*
X144513Y100784D01*
X144542Y100774D01*
X144548Y100773D01*
X144566Y100774D01*
X144580Y100771D01*
X144581Y100771D01*
X144586Y100771D01*
X145447Y100775D01*
X145581Y100762D01*
D01*
X145907Y100730D01*
X146338Y100599D01*
X146735Y100387D01*
X147058Y100122D01*
X147066Y100110D01*
X147075Y100101D01*
X147078Y100097D01*
X147087Y100088D01*
D01*
X147088Y100086D01*
X147088Y100086D01*
X147088Y100086D01*
X147098Y100071D01*
X147100Y100069D01*
X147100Y100069D01*
X147100Y100069D01*
X147101Y100068D01*
X147102Y100067D01*
X147102Y100067D01*
X147926Y99255D01*
X148059Y99082D01*
X148136Y98895D01*
X148139Y98878D01*
X148139Y98878D01*
X148152Y98774D01*
D01*
Y98774D01*
X148160Y98711D01*
Y98711D01*
X148162Y98702D01*
X148160Y98694D01*
Y98502D01*
X148156Y98354D01*
X148157Y98351D01*
X148156Y98348D01*
Y98347D01*
X148156Y98347D01*
X148156Y98347D01*
X148157Y97423D01*
X148092Y97358D01*
X148064Y97352D01*
X142025D01*
X141975Y97473D01*
X141790Y97713D01*
X141550Y97898D01*
X141270Y98013D01*
X140970Y98053D01*
X139430D01*
X139130Y98013D01*
X138850Y97898D01*
X138610Y97713D01*
X138425Y97473D01*
X138310Y97193D01*
X138270Y96893D01*
X138310Y96593D01*
X138425Y96313D01*
X138610Y96073D01*
X138850Y95888D01*
X138955Y95845D01*
X138936Y95747D01*
X135488D01*
X135312Y95712D01*
X135164Y95612D01*
X134501Y94950D01*
X134369D01*
X133801Y95517D01*
X133793Y95523D01*
X133818Y95620D01*
X133871Y95624D01*
X134331Y95734D01*
X134768Y95915D01*
X135171Y96162D01*
X135531Y96469D01*
X135838Y96829D01*
X136085Y97232D01*
X136266Y97669D01*
X136376Y98129D01*
X136405Y98500D01*
X130395D01*
X130424Y98129D01*
X130534Y97669D01*
X130715Y97232D01*
X130962Y96829D01*
X131269Y96469D01*
X131629Y96162D01*
X132032Y95915D01*
X132392Y95766D01*
X132373Y95668D01*
X129879D01*
X129789Y95650D01*
X128402D01*
X125870Y98181D01*
X125704Y98293D01*
X125507Y98332D01*
X121811D01*
Y98861D01*
X127111D01*
X127248Y98888D01*
X127363Y98966D01*
X127363Y98966D01*
X127363Y98966D01*
X132775Y104377D01*
X132845Y104348D01*
X133096Y104315D01*
X133347Y104348D01*
X133580Y104444D01*
X133781Y104598D01*
X133935Y104799D01*
X134031Y105032D01*
X134064Y105283D01*
X134031Y105534D01*
X133935Y105767D01*
X133781Y105968D01*
X133580Y106122D01*
X133347Y106218D01*
X133096Y106251D01*
Y106855D01*
X133347Y106888D01*
X133580Y106984D01*
X133781Y107138D01*
X133935Y107339D01*
X134031Y107572D01*
X134064Y107823D01*
X134031Y108074D01*
X133935Y108307D01*
X133781Y108508D01*
X133580Y108662D01*
X133347Y108758D01*
X133243Y108772D01*
X133249Y108872D01*
X135455Y108872D01*
X135461Y108772D01*
X135384Y108762D01*
X135150Y108665D01*
X134948Y108511D01*
X134794Y108309D01*
X134697Y108075D01*
X134677Y107923D01*
X136595D01*
X136575Y108075D01*
X136478Y108309D01*
X136324Y108511D01*
X136122Y108665D01*
X135888Y108762D01*
X135810Y108772D01*
X135817Y108872D01*
X137998Y108873D01*
X138005Y108773D01*
X137924Y108762D01*
X137690Y108665D01*
X137488Y108511D01*
X137334Y108309D01*
X137237Y108075D01*
X137217Y107923D01*
X139135D01*
X139115Y108075D01*
X139018Y108309D01*
X138864Y108511D01*
X138662Y108665D01*
X138428Y108762D01*
X138347Y108773D01*
X138354Y108873D01*
X138428Y108873D01*
X138536Y108864D01*
D02*
G37*
%LPC*%
G36*
X70936Y76022D02*
X70573Y75986D01*
X70225Y75880D01*
X69903Y75709D01*
X69622Y75477D01*
X69390Y75196D01*
X69219Y74874D01*
X69113Y74526D01*
X69077Y74163D01*
X69113Y73800D01*
X69219Y73452D01*
X69390Y73130D01*
X69622Y72849D01*
X69903Y72617D01*
X70225Y72446D01*
X70573Y72340D01*
X70936Y72304D01*
X71299Y72340D01*
X71647Y72446D01*
X71969Y72617D01*
X72250Y72849D01*
X72482Y73130D01*
X72653Y73452D01*
X72759Y73800D01*
X72795Y74163D01*
X72759Y74526D01*
X72653Y74874D01*
X72482Y75196D01*
X72250Y75477D01*
X71969Y75709D01*
X71647Y75880D01*
X71299Y75986D01*
X70936Y76022D01*
D02*
G37*
G36*
X83625Y70425D02*
X82971D01*
Y69821D01*
X83625D01*
Y70425D01*
D02*
G37*
G36*
X144211Y70974D02*
X144015Y70949D01*
X143833Y70873D01*
X143676Y70753D01*
X143556Y70596D01*
X143480Y70414D01*
X143455Y70218D01*
X143480Y70022D01*
X143556Y69840D01*
X143676Y69683D01*
X143833Y69563D01*
X144015Y69487D01*
X144211Y69462D01*
X144407Y69487D01*
X144589Y69563D01*
X144746Y69683D01*
X144866Y69840D01*
X144942Y70022D01*
X144967Y70218D01*
X144942Y70414D01*
X144866Y70596D01*
X144746Y70753D01*
X144589Y70873D01*
X144407Y70949D01*
X144211Y70974D01*
D02*
G37*
G36*
X88190Y65614D02*
X87536D01*
Y65010D01*
X88190D01*
Y65614D01*
D02*
G37*
G36*
X86631Y70770D02*
X85977D01*
Y70166D01*
X86631D01*
Y70770D01*
D02*
G37*
G36*
X85777D02*
X85123D01*
Y70166D01*
X85777D01*
Y70770D01*
D02*
G37*
G36*
X84479Y70425D02*
X83825D01*
Y69821D01*
X84479D01*
Y70425D01*
D02*
G37*
G36*
X99455Y76318D02*
X98561D01*
Y75424D01*
X99455D01*
Y76318D01*
D02*
G37*
G36*
X98361D02*
X97467D01*
Y75424D01*
X98361D01*
Y76318D01*
D02*
G37*
G36*
X110961Y77417D02*
X110703Y77383D01*
X110462Y77283D01*
X110255Y77124D01*
X110096Y76917D01*
X109996Y76676D01*
X109962Y76418D01*
X109996Y76160D01*
X110096Y75919D01*
X110255Y75712D01*
X110462Y75553D01*
X110703Y75453D01*
X110961Y75419D01*
X111219Y75453D01*
X111460Y75553D01*
X111667Y75712D01*
X111826Y75919D01*
X111926Y76160D01*
X111960Y76418D01*
X111926Y76676D01*
X111826Y76917D01*
X111667Y77124D01*
X111460Y77283D01*
X111219Y77383D01*
X110961Y77417D01*
D02*
G37*
G36*
X99455Y77412D02*
X98561D01*
Y76518D01*
X99455D01*
Y77412D01*
D02*
G37*
G36*
X98361D02*
X97467D01*
Y76518D01*
X98361D01*
Y77412D01*
D02*
G37*
G36*
X125124Y76718D02*
X124563D01*
Y76107D01*
X125124D01*
Y76718D01*
D02*
G37*
G36*
X100961Y77417D02*
X100703Y77383D01*
X100462Y77283D01*
X100255Y77124D01*
X100096Y76917D01*
X99996Y76676D01*
X99962Y76418D01*
X99996Y76160D01*
X100096Y75919D01*
X100255Y75712D01*
X100462Y75553D01*
X100703Y75453D01*
X100961Y75419D01*
X101219Y75453D01*
X101460Y75553D01*
X101667Y75712D01*
X101826Y75919D01*
X101926Y76160D01*
X101960Y76418D01*
X101926Y76676D01*
X101826Y76917D01*
X101667Y77124D01*
X101460Y77283D01*
X101219Y77383D01*
X100961Y77417D01*
D02*
G37*
G36*
X123711Y75572D02*
X122907D01*
Y74718D01*
X123711D01*
Y75572D01*
D02*
G37*
G36*
Y74518D02*
X122907D01*
Y73664D01*
X123711D01*
Y74518D01*
D02*
G37*
G36*
X108461Y77417D02*
X108203Y77383D01*
X107962Y77283D01*
X107755Y77124D01*
X107596Y76917D01*
X107496Y76676D01*
X107462Y76418D01*
X107496Y76160D01*
X107596Y75919D01*
X107755Y75712D01*
X107962Y75553D01*
X108203Y75453D01*
X108461Y75419D01*
X108719Y75453D01*
X108960Y75553D01*
X109167Y75712D01*
X109326Y75919D01*
X109426Y76160D01*
X109460Y76418D01*
X109426Y76676D01*
X109326Y76917D01*
X109167Y77124D01*
X108960Y77283D01*
X108719Y77383D01*
X108461Y77417D01*
D02*
G37*
G36*
X105961D02*
X105703Y77383D01*
X105462Y77283D01*
X105255Y77124D01*
X105096Y76917D01*
X104996Y76676D01*
X104962Y76418D01*
X104996Y76160D01*
X105096Y75919D01*
X105255Y75712D01*
X105462Y75553D01*
X105703Y75453D01*
X105961Y75419D01*
X106219Y75453D01*
X106460Y75553D01*
X106667Y75712D01*
X106826Y75919D01*
X106926Y76160D01*
X106960Y76418D01*
X106926Y76676D01*
X106826Y76917D01*
X106667Y77124D01*
X106460Y77283D01*
X106219Y77383D01*
X105961Y77417D01*
D02*
G37*
G36*
X103461D02*
X103203Y77383D01*
X102962Y77283D01*
X102755Y77124D01*
X102596Y76917D01*
X102496Y76676D01*
X102462Y76418D01*
X102496Y76160D01*
X102596Y75919D01*
X102755Y75712D01*
X102962Y75553D01*
X103203Y75453D01*
X103461Y75419D01*
X103719Y75453D01*
X103960Y75553D01*
X104167Y75712D01*
X104326Y75919D01*
X104426Y76160D01*
X104460Y76418D01*
X104426Y76676D01*
X104326Y76917D01*
X104167Y77124D01*
X103960Y77283D01*
X103719Y77383D01*
X103461Y77417D01*
D02*
G37*
G36*
X82196Y57982D02*
X82044Y57962D01*
X81810Y57865D01*
X81608Y57711D01*
X81454Y57509D01*
X81357Y57275D01*
X81337Y57123D01*
X82196D01*
Y57982D01*
D02*
G37*
G36*
X83255Y56923D02*
X82396D01*
Y56064D01*
X82548Y56084D01*
X82782Y56181D01*
X82984Y56335D01*
X83138Y56537D01*
X83235Y56771D01*
X83255Y56923D01*
D02*
G37*
G36*
X82196D02*
X81337D01*
X81357Y56771D01*
X81454Y56537D01*
X81608Y56335D01*
X81810Y56181D01*
X82044Y56084D01*
X82196Y56064D01*
Y56923D01*
D02*
G37*
G36*
X87376Y60531D02*
X87125Y60498D01*
X86892Y60402D01*
X86691Y60248D01*
X86537Y60047D01*
X86441Y59814D01*
X86408Y59563D01*
X86441Y59312D01*
X86537Y59079D01*
X86691Y58878D01*
X86892Y58724D01*
X87125Y58628D01*
X87376Y58595D01*
X87627Y58628D01*
X87860Y58724D01*
X88061Y58878D01*
X88215Y59079D01*
X88311Y59312D01*
X88344Y59563D01*
X88311Y59814D01*
X88215Y60047D01*
X88061Y60248D01*
X87860Y60402D01*
X87627Y60498D01*
X87376Y60531D01*
D02*
G37*
G36*
X84836D02*
X84585Y60498D01*
X84352Y60402D01*
X84151Y60248D01*
X83997Y60047D01*
X83901Y59814D01*
X83868Y59563D01*
X83901Y59312D01*
X83997Y59079D01*
X84151Y58878D01*
X84352Y58724D01*
X84585Y58628D01*
X84836Y58595D01*
X85087Y58628D01*
X85320Y58724D01*
X85521Y58878D01*
X85675Y59079D01*
X85771Y59312D01*
X85804Y59563D01*
X85771Y59814D01*
X85675Y60047D01*
X85521Y60248D01*
X85320Y60402D01*
X85087Y60498D01*
X84836Y60531D01*
D02*
G37*
G36*
X82396Y57982D02*
Y57123D01*
X83255D01*
X83235Y57275D01*
X83138Y57509D01*
X82984Y57711D01*
X82782Y57865D01*
X82548Y57962D01*
X82396Y57982D01*
D02*
G37*
G36*
X97536Y57991D02*
X97285Y57958D01*
X97052Y57862D01*
X96851Y57708D01*
X96697Y57507D01*
X96601Y57274D01*
X96568Y57023D01*
X96601Y56772D01*
X96697Y56539D01*
X96851Y56338D01*
X97052Y56184D01*
X97285Y56088D01*
X97536Y56055D01*
X97787Y56088D01*
X98020Y56184D01*
X98221Y56338D01*
X98375Y56539D01*
X98471Y56772D01*
X98504Y57023D01*
X98471Y57274D01*
X98375Y57507D01*
X98221Y57708D01*
X98020Y57862D01*
X97787Y57958D01*
X97536Y57991D01*
D02*
G37*
G36*
X94996D02*
X94745Y57958D01*
X94512Y57862D01*
X94311Y57708D01*
X94157Y57507D01*
X94061Y57274D01*
X94028Y57023D01*
X94061Y56772D01*
X94157Y56539D01*
X94311Y56338D01*
X94512Y56184D01*
X94745Y56088D01*
X94996Y56055D01*
X95247Y56088D01*
X95480Y56184D01*
X95681Y56338D01*
X95835Y56539D01*
X95931Y56772D01*
X95964Y57023D01*
X95931Y57274D01*
X95835Y57507D01*
X95681Y57708D01*
X95480Y57862D01*
X95247Y57958D01*
X94996Y57991D01*
D02*
G37*
G36*
X84836D02*
X84585Y57958D01*
X84352Y57862D01*
X84151Y57708D01*
X83997Y57507D01*
X83901Y57274D01*
X83868Y57023D01*
X83901Y56772D01*
X83997Y56539D01*
X84151Y56338D01*
X84352Y56184D01*
X84585Y56088D01*
X84836Y56055D01*
X85087Y56088D01*
X85320Y56184D01*
X85521Y56338D01*
X85675Y56539D01*
X85771Y56772D01*
X85804Y57023D01*
X85771Y57274D01*
X85675Y57507D01*
X85521Y57708D01*
X85320Y57862D01*
X85087Y57958D01*
X84836Y57991D01*
D02*
G37*
G36*
X117856D02*
X117605Y57958D01*
X117372Y57862D01*
X117171Y57708D01*
X117017Y57507D01*
X116921Y57274D01*
X116888Y57023D01*
X116921Y56772D01*
X117017Y56539D01*
X117171Y56338D01*
X117372Y56184D01*
X117605Y56088D01*
X117856Y56055D01*
X118107Y56088D01*
X118340Y56184D01*
X118541Y56338D01*
X118695Y56539D01*
X118791Y56772D01*
X118824Y57023D01*
X118791Y57274D01*
X118695Y57507D01*
X118541Y57708D01*
X118340Y57862D01*
X118107Y57958D01*
X117856Y57991D01*
D02*
G37*
G36*
X115316D02*
X115065Y57958D01*
X114832Y57862D01*
X114631Y57708D01*
X114477Y57507D01*
X114381Y57274D01*
X114348Y57023D01*
X114381Y56772D01*
X114477Y56539D01*
X114631Y56338D01*
X114832Y56184D01*
X115065Y56088D01*
X115316Y56055D01*
X115567Y56088D01*
X115800Y56184D01*
X116001Y56338D01*
X116155Y56539D01*
X116251Y56772D01*
X116284Y57023D01*
X116251Y57274D01*
X116155Y57507D01*
X116001Y57708D01*
X115800Y57862D01*
X115567Y57958D01*
X115316Y57991D01*
D02*
G37*
G36*
X100076D02*
X99825Y57958D01*
X99592Y57862D01*
X99391Y57708D01*
X99237Y57507D01*
X99141Y57274D01*
X99108Y57023D01*
X99141Y56772D01*
X99237Y56539D01*
X99391Y56338D01*
X99592Y56184D01*
X99825Y56088D01*
X100076Y56055D01*
X100327Y56088D01*
X100560Y56184D01*
X100761Y56338D01*
X100915Y56539D01*
X101011Y56772D01*
X101044Y57023D01*
X101011Y57274D01*
X100915Y57507D01*
X100761Y57708D01*
X100560Y57862D01*
X100327Y57958D01*
X100076Y57991D01*
D02*
G37*
G36*
X97536Y60531D02*
X97285Y60498D01*
X97052Y60402D01*
X96851Y60248D01*
X96697Y60047D01*
X96601Y59814D01*
X96568Y59563D01*
X96601Y59312D01*
X96697Y59079D01*
X96851Y58878D01*
X97052Y58724D01*
X97285Y58628D01*
X97536Y58595D01*
X97787Y58628D01*
X98020Y58724D01*
X98221Y58878D01*
X98375Y59079D01*
X98471Y59312D01*
X98504Y59563D01*
X98471Y59814D01*
X98375Y60047D01*
X98221Y60248D01*
X98020Y60402D01*
X97787Y60498D01*
X97536Y60531D01*
D02*
G37*
G36*
X84300Y64500D02*
X81395D01*
X81424Y64129D01*
X81534Y63669D01*
X81715Y63232D01*
X81962Y62829D01*
X82269Y62469D01*
X82629Y62162D01*
X83032Y61915D01*
X83469Y61734D01*
X83929Y61624D01*
X84300Y61595D01*
Y64500D01*
D02*
G37*
G36*
X83260Y60527D02*
X82396D01*
Y59663D01*
X83260D01*
Y60527D01*
D02*
G37*
G36*
X82196D02*
X81332D01*
Y59663D01*
X82196D01*
Y60527D01*
D02*
G37*
G36*
X88190Y64810D02*
X87536D01*
Y64206D01*
X88190D01*
Y64810D01*
D02*
G37*
G36*
X81234Y64398D02*
X80880D01*
Y63919D01*
X81234D01*
Y64398D01*
D02*
G37*
G36*
X87405Y64500D02*
X84500D01*
Y61595D01*
X84871Y61624D01*
X85331Y61734D01*
X85768Y61915D01*
X86171Y62162D01*
X86531Y62469D01*
X86838Y62829D01*
X87085Y63232D01*
X87266Y63669D01*
X87376Y64129D01*
X87405Y64500D01*
D02*
G37*
G36*
X82196Y59463D02*
X81332D01*
Y58599D01*
X82196D01*
Y59463D01*
D02*
G37*
G36*
X117856Y60531D02*
X117605Y60498D01*
X117372Y60402D01*
X117171Y60248D01*
X117017Y60047D01*
X116921Y59814D01*
X116888Y59563D01*
X116921Y59312D01*
X117017Y59079D01*
X117171Y58878D01*
X117372Y58724D01*
X117605Y58628D01*
X117856Y58595D01*
X118107Y58628D01*
X118340Y58724D01*
X118541Y58878D01*
X118695Y59079D01*
X118791Y59312D01*
X118824Y59563D01*
X118791Y59814D01*
X118695Y60047D01*
X118541Y60248D01*
X118340Y60402D01*
X118107Y60498D01*
X117856Y60531D01*
D02*
G37*
G36*
X100076D02*
X99825Y60498D01*
X99592Y60402D01*
X99391Y60248D01*
X99237Y60047D01*
X99141Y59814D01*
X99108Y59563D01*
X99141Y59312D01*
X99237Y59079D01*
X99391Y58878D01*
X99592Y58724D01*
X99825Y58628D01*
X100076Y58595D01*
X100327Y58628D01*
X100560Y58724D01*
X100761Y58878D01*
X100915Y59079D01*
X101011Y59312D01*
X101044Y59563D01*
X101011Y59814D01*
X100915Y60047D01*
X100761Y60248D01*
X100560Y60402D01*
X100327Y60498D01*
X100076Y60531D01*
D02*
G37*
G36*
X71650Y61110D02*
X71150D01*
X70955Y61071D01*
X70790Y60960D01*
X70679Y60795D01*
X70640Y60600D01*
Y59845D01*
X70620Y59825D01*
X69600D01*
X69463Y59798D01*
X69348Y59720D01*
X69250Y59623D01*
X68305D01*
Y58123D01*
X69705D01*
Y59068D01*
X69748Y59111D01*
X70768D01*
X70904Y59138D01*
X70923Y59150D01*
X70955Y59129D01*
X71150Y59090D01*
X71650D01*
X71845Y59129D01*
X72010Y59240D01*
X72121Y59405D01*
X72160Y59600D01*
Y60600D01*
X72121Y60795D01*
X72010Y60960D01*
X71845Y61071D01*
X71650Y61110D01*
D02*
G37*
G36*
X145760Y61341D02*
X143383D01*
Y58964D01*
X143747Y59000D01*
X144219Y59143D01*
X144654Y59376D01*
X145035Y59689D01*
X145348Y60070D01*
X145581Y60505D01*
X145724Y60977D01*
X145760Y61341D01*
D02*
G37*
G36*
X83260Y59463D02*
X82396D01*
Y58599D01*
X83260D01*
Y59463D01*
D02*
G37*
G36*
X139135Y105183D02*
X138276D01*
Y104324D01*
X138428Y104344D01*
X138662Y104441D01*
X138864Y104595D01*
X139018Y104797D01*
X139115Y105031D01*
X139135Y105183D01*
D02*
G37*
G36*
X138076D02*
X137217D01*
X137237Y105031D01*
X137334Y104797D01*
X137488Y104595D01*
X137690Y104441D01*
X137924Y104344D01*
X138076Y104324D01*
Y105183D01*
D02*
G37*
G36*
X135536Y106242D02*
X135384Y106222D01*
X135150Y106125D01*
X134948Y105971D01*
X134794Y105769D01*
X134697Y105535D01*
X134677Y105383D01*
X135536D01*
Y106242D01*
D02*
G37*
G36*
X138076D02*
X137924Y106222D01*
X137690Y106125D01*
X137488Y105971D01*
X137334Y105769D01*
X137237Y105535D01*
X137217Y105383D01*
X138076D01*
Y106242D01*
D02*
G37*
G36*
X135736D02*
Y105383D01*
X136595D01*
X136575Y105535D01*
X136478Y105769D01*
X136324Y105971D01*
X136122Y106125D01*
X135888Y106222D01*
X135736Y106242D01*
D02*
G37*
G36*
X136595Y105183D02*
X135736D01*
Y104324D01*
X135888Y104344D01*
X136122Y104441D01*
X136324Y104595D01*
X136478Y104797D01*
X136575Y105031D01*
X136595Y105183D01*
D02*
G37*
G36*
X79720Y106426D02*
X77343D01*
Y104049D01*
X77707Y104085D01*
X78179Y104228D01*
X78614Y104461D01*
X78995Y104774D01*
X79308Y105155D01*
X79541Y105590D01*
X79684Y106062D01*
X79720Y106426D01*
D02*
G37*
G36*
X77089D02*
X74712D01*
X74748Y106062D01*
X74891Y105590D01*
X75124Y105155D01*
X75437Y104774D01*
X75818Y104461D01*
X76253Y104228D01*
X76725Y104085D01*
X77089Y104049D01*
Y106426D01*
D02*
G37*
G36*
X82196Y105183D02*
X81337D01*
X81357Y105031D01*
X81454Y104797D01*
X81608Y104595D01*
X81810Y104441D01*
X82044Y104344D01*
X82196Y104324D01*
Y105183D01*
D02*
G37*
G36*
X135536D02*
X134677D01*
X134697Y105031D01*
X134794Y104797D01*
X134948Y104595D01*
X135150Y104441D01*
X135384Y104344D01*
X135536Y104324D01*
Y105183D01*
D02*
G37*
G36*
X83255D02*
X82396D01*
Y104324D01*
X82548Y104344D01*
X82782Y104441D01*
X82984Y104595D01*
X83138Y104797D01*
X83235Y105031D01*
X83255Y105183D01*
D02*
G37*
G36*
X135536Y107723D02*
X134677D01*
X134697Y107571D01*
X134794Y107337D01*
X134948Y107135D01*
X135150Y106981D01*
X135384Y106884D01*
X135536Y106864D01*
Y107723D01*
D02*
G37*
G36*
X77343Y109057D02*
Y106680D01*
X79720D01*
X79684Y107044D01*
X79541Y107516D01*
X79308Y107951D01*
X78995Y108332D01*
X78614Y108645D01*
X78179Y108878D01*
X77707Y109021D01*
X77343Y109057D01*
D02*
G37*
G36*
X136595Y107723D02*
X135736D01*
Y106864D01*
X135888Y106884D01*
X136122Y106981D01*
X136324Y107135D01*
X136478Y107337D01*
X136575Y107571D01*
X136595Y107723D01*
D02*
G37*
G36*
X139135D02*
X138276D01*
Y106864D01*
X138428Y106884D01*
X138662Y106981D01*
X138864Y107135D01*
X139018Y107337D01*
X139115Y107571D01*
X139135Y107723D01*
D02*
G37*
G36*
X138076D02*
X137217D01*
X137237Y107571D01*
X137334Y107337D01*
X137488Y107135D01*
X137690Y106981D01*
X137924Y106884D01*
X138076Y106864D01*
Y107723D01*
D02*
G37*
G36*
X77089Y109057D02*
X76725Y109021D01*
X76253Y108878D01*
X75818Y108645D01*
X75437Y108332D01*
X75124Y107951D01*
X74891Y107516D01*
X74748Y107044D01*
X74712Y106680D01*
X77089D01*
Y109057D01*
D02*
G37*
G36*
X65777Y106453D02*
X65113D01*
Y106053D01*
X65152Y105856D01*
X65263Y105690D01*
X65430Y105578D01*
X65627Y105539D01*
X65777D01*
Y106453D01*
D02*
G37*
G36*
X138276Y106242D02*
Y105383D01*
X139135D01*
X139115Y105535D01*
X139018Y105769D01*
X138864Y105971D01*
X138662Y106125D01*
X138428Y106222D01*
X138276Y106242D01*
D02*
G37*
G36*
X66641Y106453D02*
X65977D01*
Y105539D01*
X66127D01*
X66323Y105578D01*
X66490Y105690D01*
X66602Y105856D01*
X66641Y106053D01*
Y106453D01*
D02*
G37*
G36*
X66127Y107567D02*
X65977D01*
Y106653D01*
X66641D01*
Y107053D01*
X66602Y107250D01*
X66490Y107416D01*
X66323Y107528D01*
X66127Y107567D01*
D02*
G37*
G36*
X68627Y107563D02*
X68127D01*
X67932Y107524D01*
X67766Y107413D01*
X67656Y107248D01*
X67617Y107053D01*
Y106053D01*
X67656Y105858D01*
X67766Y105693D01*
X67932Y105582D01*
X68127Y105543D01*
X68627D01*
X68822Y105582D01*
X68987Y105693D01*
X69098Y105858D01*
X69137Y106053D01*
Y106399D01*
X70433D01*
Y106006D01*
X71833D01*
Y107506D01*
X70433D01*
Y107113D01*
X69125D01*
X69098Y107248D01*
X68987Y107413D01*
X68822Y107524D01*
X68627Y107563D01*
D02*
G37*
G36*
X143383Y105882D02*
Y103505D01*
X145760D01*
X145724Y103869D01*
X145581Y104341D01*
X145348Y104776D01*
X145071Y105114D01*
D01*
X145035Y105157D01*
X144857Y105304D01*
D01*
X144654Y105470D01*
X144219Y105703D01*
X143747Y105846D01*
X143383Y105882D01*
D02*
G37*
G36*
X137390Y86723D02*
X136440D01*
X136463Y86548D01*
X136569Y86291D01*
X136738Y86071D01*
X136958Y85902D01*
X137215Y85796D01*
X137390Y85773D01*
Y86723D01*
D02*
G37*
G36*
X79926Y85323D02*
Y84423D01*
X80826D01*
X80804Y84585D01*
X80703Y84829D01*
X80542Y85039D01*
X80332Y85200D01*
X80088Y85301D01*
X79926Y85323D01*
D02*
G37*
G36*
X138540Y86723D02*
X137590D01*
Y85773D01*
X137765Y85796D01*
X138022Y85902D01*
X138242Y86071D01*
X138411Y86291D01*
X138517Y86548D01*
X138540Y86723D01*
D02*
G37*
G36*
X137390Y87873D02*
X137215Y87850D01*
X136958Y87744D01*
X136738Y87575D01*
X136569Y87355D01*
X136463Y87098D01*
X136440Y86923D01*
X137390D01*
Y87873D01*
D02*
G37*
G36*
X73986Y89511D02*
X73643Y89478D01*
X73313Y89378D01*
X73009Y89215D01*
X72743Y88996D01*
X72524Y88730D01*
X72361Y88426D01*
X72261Y88096D01*
X72228Y87753D01*
X72261Y87410D01*
X72361Y87080D01*
X72524Y86776D01*
X72743Y86510D01*
X73009Y86291D01*
X73313Y86128D01*
X73643Y86028D01*
X73986Y85995D01*
X74329Y86028D01*
X74659Y86128D01*
X74963Y86291D01*
X75229Y86510D01*
X75448Y86776D01*
X75611Y87080D01*
X75711Y87410D01*
X75744Y87753D01*
X75711Y88096D01*
X75611Y88426D01*
X75448Y88730D01*
X75229Y88996D01*
X74963Y89215D01*
X74659Y89378D01*
X74329Y89478D01*
X73986Y89511D01*
D02*
G37*
G36*
X79726Y85323D02*
X79564Y85301D01*
X79320Y85200D01*
X79110Y85039D01*
X78949Y84829D01*
X78848Y84585D01*
X78826Y84423D01*
X79726D01*
Y85323D01*
D02*
G37*
G36*
X79826Y82792D02*
X79565Y82757D01*
X79322Y82656D01*
X79113Y82496D01*
X78952Y82287D01*
X78852Y82044D01*
X78817Y81783D01*
X78852Y81522D01*
X78952Y81279D01*
X79113Y81070D01*
X79322Y80910D01*
X79565Y80809D01*
X79826Y80774D01*
X80087Y80809D01*
X80330Y80910D01*
X80539Y81070D01*
X80700Y81279D01*
X80800Y81522D01*
X80835Y81783D01*
X80800Y82044D01*
X80700Y82287D01*
X80539Y82496D01*
X80330Y82656D01*
X80087Y82757D01*
X79826Y82792D01*
D02*
G37*
G36*
X144211Y78954D02*
X144015Y78929D01*
X143833Y78853D01*
X143676Y78733D01*
X143556Y78576D01*
X143480Y78394D01*
X143455Y78198D01*
X143480Y78002D01*
X143556Y77820D01*
X143676Y77663D01*
X143833Y77543D01*
X144015Y77467D01*
X144211Y77442D01*
X144407Y77467D01*
X144589Y77543D01*
X144746Y77663D01*
X144866Y77820D01*
X144942Y78002D01*
X144967Y78198D01*
X144942Y78394D01*
X144866Y78576D01*
X144746Y78733D01*
X144589Y78853D01*
X144407Y78929D01*
X144211Y78954D01*
D02*
G37*
G36*
X135165Y81872D02*
X134311D01*
Y81118D01*
X135165D01*
Y81872D01*
D02*
G37*
G36*
X80826Y84223D02*
X79926D01*
Y83324D01*
X80088Y83345D01*
X80332Y83446D01*
X80542Y83607D01*
X80703Y83817D01*
X80804Y84061D01*
X80826Y84223D01*
D02*
G37*
G36*
X79726D02*
X78826D01*
X78848Y84061D01*
X78949Y83817D01*
X79110Y83607D01*
X79320Y83446D01*
X79564Y83345D01*
X79726Y83324D01*
Y84223D01*
D02*
G37*
G36*
X133300Y101605D02*
X132929Y101576D01*
X132469Y101466D01*
X132032Y101285D01*
X131629Y101038D01*
X131269Y100731D01*
X130962Y100371D01*
X130715Y99968D01*
X130534Y99531D01*
X130424Y99071D01*
X130395Y98700D01*
X133300D01*
Y101605D01*
D02*
G37*
G36*
X69179Y99417D02*
X68014D01*
Y97016D01*
X68241Y97045D01*
X68546Y97172D01*
X68808Y97373D01*
X69009Y97635D01*
X69136Y97940D01*
X69179Y98267D01*
Y99417D01*
D02*
G37*
G36*
X133500Y101605D02*
Y98700D01*
X136405D01*
X136376Y99071D01*
X136266Y99531D01*
X136085Y99968D01*
X135838Y100371D01*
X135531Y100731D01*
X135171Y101038D01*
X134768Y101285D01*
X134331Y101466D01*
X133871Y101576D01*
X133500Y101605D01*
D02*
G37*
G36*
X68014Y102019D02*
Y99617D01*
X69179D01*
Y100767D01*
X69136Y101095D01*
X69009Y101400D01*
X68808Y101662D01*
X68546Y101863D01*
X68241Y101989D01*
X68014Y102019D01*
D02*
G37*
G36*
X67814D02*
X67587Y101989D01*
X67282Y101863D01*
X67020Y101662D01*
X66819Y101400D01*
X66692Y101095D01*
X66649Y100767D01*
Y99617D01*
X67814D01*
Y102019D01*
D02*
G37*
G36*
Y99417D02*
X66649D01*
Y98267D01*
X66692Y97940D01*
X66819Y97635D01*
X67020Y97373D01*
X67282Y97172D01*
X67587Y97045D01*
X67814Y97016D01*
Y99417D01*
D02*
G37*
G36*
X123925Y94200D02*
X122471D01*
Y92946D01*
X123925D01*
Y94200D01*
D02*
G37*
G36*
X137590Y87873D02*
Y86923D01*
X138540D01*
X138517Y87098D01*
X138411Y87355D01*
X138242Y87575D01*
X138022Y87744D01*
X137765Y87850D01*
X137590Y87873D01*
D02*
G37*
G36*
X125579Y94200D02*
X124125D01*
Y92946D01*
X125579D01*
Y94200D01*
D02*
G37*
G36*
Y95654D02*
X124125D01*
Y94400D01*
X125579D01*
Y95654D01*
D02*
G37*
G36*
X123925D02*
X122471D01*
Y94400D01*
X123925D01*
Y95654D01*
D02*
G37*
%LPD*%
D10*
X78211Y64718D02*
Y65118D01*
X77418Y63925D02*
X78211Y64718D01*
X76850Y63925D02*
X77418D01*
X77211Y64718D02*
Y65118D01*
X76918Y64425D02*
X77211Y64718D01*
X76850Y64425D02*
X76918D01*
X133199Y78718D02*
X133711D01*
X132584Y78103D02*
X133199Y78718D01*
X132584Y77891D02*
Y78103D01*
X129911Y75218D02*
X132584Y77891D01*
X133199Y79818D02*
X133711D01*
X131638Y78257D02*
X133199Y79818D01*
X130639Y76818D02*
X131638Y77817D01*
X129911Y76818D02*
X130639D01*
X131638Y77817D02*
Y78257D01*
X133183Y77618D02*
X133711D01*
X131484Y75919D02*
X133183Y77618D01*
X131484Y75291D02*
Y75919D01*
X129911Y73718D02*
X131484Y75291D01*
X129985Y72490D02*
X130111D01*
X132616Y74995D01*
X133288D01*
X133711Y75418D01*
X129414Y71918D02*
X129985Y72490D01*
X129011Y71918D02*
X129414D01*
X76911Y75718D02*
Y76718D01*
X76511Y74018D02*
X78211D01*
X76011Y74518D02*
X76511Y74018D01*
X76011Y74518D02*
Y76718D01*
X78211Y74018D02*
X79711Y75518D01*
Y76418D01*
X75203Y77526D02*
X76011Y76718D01*
X75203Y77526D02*
Y83428D01*
X80301Y88526D01*
X75711Y83218D02*
X80511Y88018D01*
X75711Y77918D02*
Y83218D01*
X80511Y88018D02*
X80811D01*
X81111Y87718D01*
X80301Y88526D02*
X80819D01*
X81111Y88818D01*
X75711Y77918D02*
X76911Y76718D01*
X80945Y87884D02*
X81111Y87718D01*
X80911Y88618D02*
X81111Y88818D01*
X131411Y70418D02*
Y71340D01*
X132038Y71967D01*
Y72445D01*
X132811Y73218D01*
X133711D01*
D11*
X126798Y76818D02*
D03*
X125224D02*
D03*
D12*
X88240Y66612D02*
D03*
Y68212D02*
D03*
X88290Y63310D02*
D03*
Y64910D02*
D03*
X85877Y68466D02*
D03*
Y70066D02*
D03*
X83725Y68925D02*
D03*
Y70525D02*
D03*
D13*
X125611Y74618D02*
D03*
X123811D02*
D03*
D19*
X116611Y83618D02*
D03*
X118211D02*
D03*
X116911Y85318D02*
D03*
X118511D02*
D03*
X113711Y84918D02*
D03*
X115311D02*
D03*
X120611Y86718D02*
D03*
X122211D02*
D03*
X116911Y87018D02*
D03*
X118511D02*
D03*
X113711Y86618D02*
D03*
X115311D02*
D03*
X128311Y76818D02*
D03*
X129911D02*
D03*
X130411Y67018D02*
D03*
X132011D02*
D03*
X72733Y106756D02*
D03*
X71133D02*
D03*
X67405Y58873D02*
D03*
X69005D02*
D03*
X67145Y62941D02*
D03*
X68745D02*
D03*
X67120Y64364D02*
D03*
X68720D02*
D03*
X67155Y67248D02*
D03*
X68755D02*
D03*
X130111Y68618D02*
D03*
X131711D02*
D03*
X129811Y70418D02*
D03*
X131411D02*
D03*
X127411Y71918D02*
D03*
X129011D02*
D03*
X128311Y73718D02*
D03*
X129911D02*
D03*
X128311Y75218D02*
D03*
X129911D02*
D03*
X134400Y94200D02*
D03*
X132800D02*
D03*
D34*
X84311Y81169D02*
Y88021D01*
Y81169D02*
X85587Y79894D01*
Y79314D02*
Y79894D01*
X82591Y76318D02*
X85587Y79314D01*
X82411Y76318D02*
X82591D01*
X84887Y79604D02*
Y79669D01*
X83911Y80645D02*
X84887Y79669D01*
X68377Y106553D02*
X68580Y106756D01*
X71133D01*
X72733Y105690D02*
Y106756D01*
Y105690D02*
X74905Y103518D01*
X119778Y85451D02*
X123476D01*
X119011Y86218D02*
X119778Y85451D01*
X115311Y86218D02*
X119011D01*
X139811Y76018D02*
X140111Y75718D01*
Y66539D02*
Y75718D01*
X139211Y74718D02*
X139711Y74218D01*
Y66705D02*
Y74218D01*
X137111Y75262D02*
Y75818D01*
X137944Y74995D02*
Y75451D01*
Y74995D02*
X138921Y74018D01*
X137111Y75262D02*
X138755Y73618D01*
X138811D02*
X138911Y73518D01*
X138755Y73618D02*
X138811D01*
X138977Y74018D02*
X139311Y73684D01*
X138921Y74018D02*
X138977D01*
X138911Y67036D02*
Y73518D01*
X138361Y67068D02*
Y73318D01*
X136611Y75068D02*
X138361Y73318D01*
X136611Y75068D02*
Y76018D01*
X137111Y75818D02*
X138211Y76918D01*
X138301D01*
X138711Y77328D01*
X137944Y75451D02*
X138711Y76218D01*
X139311Y66871D02*
Y73684D01*
X138711Y77328D02*
Y78418D01*
X138711Y78418D02*
X138711Y78418D01*
X138011Y77418D02*
Y77618D01*
X136611Y76018D02*
X138011Y77418D01*
X135011Y63718D02*
X138361Y67068D01*
X138011Y78708D02*
X139411Y80108D01*
X138011Y78608D02*
Y78708D01*
X137721Y78318D02*
X138011Y78608D01*
X137721Y78318D02*
X137721D01*
X137311Y77908D02*
X137721Y78318D01*
X137311Y77518D02*
Y77908D01*
X135011Y75218D02*
X137311Y77518D01*
X137611Y78874D02*
X139011Y80274D01*
X137611Y78773D02*
Y78874D01*
X137555Y78718D02*
X137611Y78773D01*
X137555Y78718D02*
X137555D01*
X136911Y78074D02*
X137555Y78718D01*
X136911Y77986D02*
Y78074D01*
X134342Y75418D02*
X136911Y77986D01*
X137211Y79039D02*
X138611Y80439D01*
X137211Y78939D02*
Y79039D01*
X136511Y78239D02*
X137211Y78939D01*
X136511Y78152D02*
Y78239D01*
X135977Y77618D02*
X136511Y78152D01*
X137311Y79705D02*
Y80428D01*
X136811Y79205D02*
X137311Y79705D01*
X136811Y79105D02*
Y79205D01*
X136424Y78718D02*
X136811Y79105D01*
X133711Y78718D02*
X136424D01*
X136811Y80218D02*
Y81684D01*
X136311Y79718D02*
X136811Y80218D01*
X135011Y73818D02*
Y75218D01*
X139411Y80108D02*
Y81918D01*
X133711Y73218D02*
X134411D01*
X135011Y73818D01*
X133711Y75418D02*
X134342D01*
X139011Y80274D02*
Y81746D01*
X133711Y77618D02*
X135977D01*
X138611Y80439D02*
Y81581D01*
X137911Y80818D02*
Y81715D01*
X134211Y84849D02*
X137211Y81849D01*
Y80528D02*
Y81849D01*
X134211Y84849D02*
Y89449D01*
X137211Y80528D02*
X137311Y80428D01*
X135011Y85181D02*
X138611Y81581D01*
X135411Y85346D02*
X139011Y81746D01*
X135811Y85518D02*
X139411Y81918D01*
X136111Y71718D02*
X137611D01*
X135411Y71018D02*
X136111Y71718D01*
X133711Y71018D02*
X135411D01*
X136111Y72818D02*
X137611D01*
X135411Y72118D02*
X136111Y72818D01*
X133711Y72118D02*
X135411D01*
X130911Y78118D02*
Y78411D01*
Y77979D02*
Y78411D01*
X130850Y77918D02*
X130911Y77979D01*
X129450Y79318D02*
X130850Y77918D01*
X130411Y79718D02*
X131011Y79118D01*
X132211Y75918D02*
X132811Y76518D01*
X132211Y75618D02*
Y75918D01*
X147801Y83838D02*
Y87638D01*
X132111Y65318D02*
X135211D01*
X137211Y67318D01*
X133811Y84684D02*
X136811Y81684D01*
X132811Y76518D02*
X133711D01*
X135690Y62118D02*
X140111Y66539D01*
X135193Y63318D02*
X138911Y67036D01*
X135358Y62918D02*
X139311Y66871D01*
X135524Y62518D02*
X139711Y66705D01*
X126311Y76331D02*
X126798Y76818D01*
X126311Y75318D02*
Y76331D01*
X125611Y74618D02*
X126311Y75318D01*
X125293Y77800D02*
X126811Y79318D01*
X124293Y77800D02*
X125293D01*
X126811Y79318D02*
X129450D01*
X125011Y78218D02*
X126511Y79718D01*
X124145Y78218D02*
X125011D01*
X124845Y78618D02*
X126345Y80118D01*
X123980Y78618D02*
X124845D01*
X124680Y79018D02*
X126780Y81118D01*
X123814Y79018D02*
X124680D01*
X124514Y79418D02*
X127214Y82118D01*
X123648Y79418D02*
X124514D01*
X124348Y79818D02*
X127648Y83118D01*
X123483Y79818D02*
X124348D01*
X124183Y80218D02*
X128083Y84118D01*
X123317Y80218D02*
X124183D01*
X124017Y80618D02*
X128517Y85118D01*
X123151Y80618D02*
X124017D01*
X123851Y81018D02*
X128751Y85918D01*
X122986Y81018D02*
X123851D01*
X123686Y81418D02*
X128886Y86618D01*
X122820Y81418D02*
X123686D01*
X123520Y81818D02*
X128720Y87018D01*
X122654Y81818D02*
X123520D01*
X123354Y82218D02*
X129854Y88718D01*
X122111Y82218D02*
X123354D01*
X123111Y82618D02*
X129611Y89118D01*
X123786Y84018D02*
X129286Y89518D01*
X118411Y84018D02*
X123786D01*
X123621Y84418D02*
X129121Y89918D01*
X123655Y85018D02*
X128955Y90318D01*
X118411Y85018D02*
X123655D01*
X123476Y85451D02*
X128742Y90718D01*
X123310Y85851D02*
X129421Y91963D01*
X120078Y85851D02*
X123310D01*
X123311Y86418D02*
X129255Y92363D01*
X122111Y86418D02*
X123311D01*
X126511Y79718D02*
X130411D01*
X119311Y86618D02*
X120078Y85851D01*
X126345Y80118D02*
X131011D01*
X129854Y88718D02*
X132611D01*
X128720Y87018D02*
X132082D01*
X128886Y86618D02*
X131873D01*
X128751Y85918D02*
X131611D01*
X128517Y85118D02*
X131011D01*
X128083Y84118D02*
X131011D01*
X127648Y83118D02*
X131011D01*
X127214Y82118D02*
X131011D01*
X126780Y81118D02*
X131011D01*
X126798Y76818D02*
X128311D01*
X133411Y82218D02*
Y89118D01*
X132082Y87018D02*
X132811Y86289D01*
Y82768D02*
Y86289D01*
X133811Y84684D02*
Y89284D01*
X132411Y85328D02*
Y86080D01*
X132011Y84928D02*
X132411Y85328D01*
X129286Y89518D02*
X131855D01*
X132155Y89818D01*
X133277D01*
X133811Y89284D01*
X113211Y84418D02*
X113711Y84918D01*
X112514Y71678D02*
X122654Y81818D01*
X112514Y69421D02*
Y71678D01*
X112938Y71536D02*
X122820Y81418D01*
X112938Y68855D02*
Y71536D01*
X113362Y71395D02*
X122986Y81018D01*
X113362Y68469D02*
Y71395D01*
X113787Y71254D02*
X123151Y80618D01*
X113787Y68294D02*
Y71254D01*
X114211Y71112D02*
X123317Y80218D01*
X114211Y67718D02*
Y71112D01*
X116411Y70484D02*
X124145Y78218D01*
X116011Y70649D02*
X123980Y78618D01*
X115611Y70815D02*
X123814Y79018D01*
X115187Y70956D02*
X123648Y79418D01*
X114762Y71098D02*
X123483Y79818D01*
X109611Y69718D02*
X122111Y82218D01*
X133011Y80018D02*
Y81818D01*
X133411Y82218D01*
X128742Y90718D02*
X131358D01*
X128955Y90318D02*
X131524D01*
X129121Y89918D02*
X131690D01*
X133442Y90218D02*
X134211Y89449D01*
X131990Y90218D02*
X133442D01*
X131690Y89918D02*
X131990Y90218D01*
X131524Y90318D02*
X131824Y90618D01*
X133608D01*
X134611Y89615D01*
X131358Y90718D02*
X131658Y91018D01*
X133774D01*
X135011Y89781D01*
X133939Y91418D02*
X135411Y89946D01*
X133439Y91418D02*
X133939D01*
X132895Y91963D02*
X133439Y91418D01*
X129421Y91963D02*
X132895D01*
X134105Y91818D02*
X135811Y90112D01*
X133605Y91818D02*
X134105D01*
X133061Y92363D02*
X133605Y91818D01*
X129255Y92363D02*
X133061D01*
X135411Y85346D02*
Y89946D01*
X135011Y85181D02*
Y89781D01*
X134611Y85015D02*
Y89615D01*
X135811Y85518D02*
Y90112D01*
X134611Y85015D02*
X137911Y81715D01*
X118211Y86618D02*
X119311D01*
X119211Y87918D02*
X120311Y86818D01*
X112411Y87918D02*
X119211D01*
X110511Y86018D02*
X112411Y87918D01*
X113137Y85718D02*
X116511D01*
X112911Y86218D02*
X113811D01*
X111911Y85218D02*
X112911Y86218D01*
X116611Y85318D02*
Y85618D01*
X116511Y85718D02*
X116611Y85618D01*
X112237Y84818D02*
X113137Y85718D01*
X90411Y86018D02*
X110511D01*
X87511Y84818D02*
X112237D01*
X88111Y85218D02*
X111911D01*
X87901Y84418D02*
X113211D01*
X79311Y66467D02*
Y67218D01*
X79211Y67318D02*
X79311Y67218D01*
X78905Y65924D02*
X79111Y65718D01*
X77701Y67818D02*
X78905Y66614D01*
Y65924D02*
Y66614D01*
X79311Y66467D02*
X79405Y66373D01*
X79111Y65718D02*
X80349D01*
X83238Y93744D02*
X93811Y104318D01*
X83238Y91070D02*
Y93744D01*
X93811Y104318D02*
Y106478D01*
X82838Y94344D02*
X92456Y103963D01*
Y105283D01*
X82838Y91355D02*
Y94344D01*
X85111Y84828D02*
X86221Y83718D01*
X86411D01*
X85111Y84828D02*
Y85408D01*
X85111Y85408D01*
Y87690D01*
X80517Y90224D02*
X82391D01*
X72811Y82518D02*
X80517Y90224D01*
X72811Y76718D02*
Y82518D01*
X76145Y67818D02*
X77701D01*
X75839Y68273D02*
X79405D01*
X75254Y67688D02*
X75839Y68273D01*
X73900Y65573D02*
X76145Y67818D01*
X73318Y68225D02*
X75225D01*
X72811Y67718D02*
X73318Y68225D01*
X75225D02*
X76118Y69118D01*
X74413Y67688D02*
X75254D01*
X73900Y67175D02*
X74413Y67688D01*
X76118Y69118D02*
X77011D01*
X144991Y91708D02*
Y93348D01*
X139051Y85768D02*
X144991Y91708D01*
X146611Y89718D02*
Y93038D01*
X144861Y94788D02*
X146611Y93038D01*
X140681Y94788D02*
X144861D01*
X138411Y92518D02*
X140681Y94788D01*
X146321Y82358D02*
X147801Y83838D01*
X82391Y90224D02*
X83238Y91070D01*
X82201Y90718D02*
X82838Y91355D01*
X80411Y90718D02*
X82201D01*
X72411Y82718D02*
X80411Y90718D01*
X77411Y92218D02*
X80911D01*
X76111Y90918D02*
X77411Y92218D01*
X72111Y90918D02*
X76111D01*
X77711Y93218D02*
X81911D01*
X76411Y91918D02*
X77711Y93218D01*
X72545Y91918D02*
X76411D01*
X83637Y90437D02*
Y93373D01*
X82311Y89110D02*
X83637Y90437D01*
Y93373D02*
X91983Y101718D01*
X82711Y88684D02*
X85611Y91584D01*
X83111Y88518D02*
X86011Y91418D01*
X83511Y88353D02*
X86411Y91253D01*
X83911Y88187D02*
X86811Y91087D01*
X84311Y88021D02*
X87211Y90921D01*
X84711Y87856D02*
X87611Y90756D01*
X85111Y87690D02*
X88211Y90790D01*
X88111Y88318D02*
X90411Y86018D01*
X87211Y88318D02*
X88111D01*
X86611Y87718D02*
X87211Y88318D01*
X87418Y87525D02*
X89325Y85618D01*
X86611Y86718D02*
Y87718D01*
X88211Y90790D02*
Y93918D01*
X93211Y98918D01*
X84711Y83418D02*
Y87856D01*
X87611Y90756D02*
Y93918D01*
X87211Y90921D02*
Y94118D01*
X83911Y80645D02*
Y88187D01*
X86811Y91087D02*
Y94284D01*
X83511Y79418D02*
Y88353D01*
X86411Y91253D02*
Y94449D01*
X83111Y80018D02*
Y88518D01*
X86011Y91418D02*
Y94615D01*
X82711Y80618D02*
Y88684D01*
X85611Y91584D02*
Y94781D01*
X87611Y93918D02*
X93011Y99318D01*
X87211Y94118D02*
X92811Y99718D01*
X86811Y94284D02*
X92645Y100118D01*
X86411Y94449D02*
X92480Y100518D01*
X86011Y94615D02*
X92314Y100918D01*
X85611Y94781D02*
X92148Y101318D01*
X81211Y79118D02*
X82711Y80618D01*
X81211Y78118D02*
X83111Y80018D01*
X81211Y77118D02*
X83511Y79418D01*
X82311Y81218D02*
Y89110D01*
X81211Y80118D02*
X82311Y81218D01*
X68306Y87679D02*
X72545Y91918D01*
X68306Y86953D02*
Y87679D01*
X67556Y86203D02*
X68306Y86953D01*
X68706Y87513D02*
X72111Y90918D01*
X68706Y83613D02*
Y87513D01*
X74457Y61818D02*
X77101D01*
X73900Y62375D02*
X74457Y61818D01*
X77101D02*
X78011Y62728D01*
Y63029D01*
X77911Y61418D02*
X78611Y62118D01*
X75218Y61418D02*
X77911D01*
X73900Y60100D02*
X75218Y61418D01*
X76011Y67118D02*
X76511D01*
X75111Y66218D02*
X76011Y67118D01*
X73900Y64750D02*
Y65573D01*
X75111Y64118D02*
Y66218D01*
Y64118D02*
X75550Y63679D01*
Y63651D02*
Y63679D01*
Y63651D02*
X75726Y63475D01*
X76060D01*
X76110Y63425D01*
X76711Y72818D02*
X80311D01*
X72411Y76318D02*
X76311Y72418D01*
X72811Y76718D02*
X76711Y72818D01*
X116811Y70318D02*
X124293Y77800D01*
X96511Y61018D02*
X113311D01*
X96211Y60718D02*
X96511Y61018D01*
X113311D02*
X116811Y64518D01*
X113101Y61418D02*
X116411Y64728D01*
X95423Y61418D02*
X113101D01*
X110711Y61818D02*
X115611Y66718D01*
X94711Y61818D02*
X110711D01*
X110345Y62218D02*
X115187Y67059D01*
X94121Y62218D02*
X110345D01*
X105111Y62618D02*
X106311Y63818D01*
X93811Y62618D02*
X105111D01*
X110111Y62818D02*
X114762Y67469D01*
X108311Y62818D02*
X110111D01*
X108011Y63118D02*
X108311Y62818D01*
X109711Y63218D02*
X114211Y67718D01*
X109121Y63218D02*
X109711D01*
X108521Y63818D02*
X109121Y63218D01*
X115611Y66718D02*
Y70815D01*
X115187Y67059D02*
Y70956D01*
X114762Y67469D02*
Y71098D01*
X106611Y63118D02*
X108011D01*
X91211Y60018D02*
X93811Y62618D01*
X106311Y63818D02*
X108521D01*
X91211Y59118D02*
Y60018D01*
X92411Y60508D02*
X94121Y62218D01*
X93611Y60718D02*
X94711Y61818D01*
X133611Y92518D02*
X138411D01*
X84711Y83418D02*
X85011Y83118D01*
Y82318D02*
Y83118D01*
X66036Y73553D02*
Y80943D01*
X68706Y83613D01*
X99511Y80918D02*
X100111Y81518D01*
X117311Y95518D02*
X118911Y93918D01*
X118111Y95918D02*
X119911Y94118D01*
X118701Y96318D02*
X119901Y95118D01*
X103611Y96318D02*
X118701D01*
X119311Y96718D02*
X120911Y95118D01*
X120111Y97118D02*
X120911Y96318D01*
X105711Y97118D02*
X120111D01*
X104611Y96718D02*
X119311D01*
X102811Y97118D02*
X103611Y96318D01*
X102611Y95918D02*
X118111D01*
X102211Y96318D02*
X102611Y95918D01*
X115911Y95118D02*
X118111Y92918D01*
X99950Y78379D02*
Y79237D01*
X106784Y99618D02*
X126911D01*
X106618Y99218D02*
X127111D01*
X119011Y104518D02*
Y106438D01*
X93211Y98918D02*
X100804D01*
X93011Y99318D02*
X100638D01*
X92811Y99718D02*
X100373D01*
X92645Y100118D02*
X100207D01*
X92480Y100518D02*
X100041D01*
X92314Y100918D02*
X99875D01*
X92148Y101318D02*
X99710D01*
X91983Y101718D02*
X99544D01*
X104829Y102118D02*
X108611D01*
X104664Y102518D02*
X108411D01*
X104498Y102918D02*
X108142D01*
X104332Y103318D02*
X107977D01*
X104167Y103718D02*
X107811D01*
X105011Y101518D02*
X113211D01*
X103311Y103428D02*
Y103718D01*
X126911Y99618D02*
X131811Y104518D01*
X127111Y99218D02*
X133111Y105218D01*
X120711Y96318D02*
X120911Y96118D01*
X128255Y92762D02*
X133367D01*
X133611Y92518D01*
X133111Y89418D02*
X133411Y89118D01*
X132321Y89418D02*
X133111D01*
X132021Y89118D02*
X132321Y89418D01*
X138811Y61943D02*
Y62318D01*
X136461Y58518D02*
X137166Y59223D01*
X131411Y58518D02*
X136461D01*
X137166Y59223D02*
Y60298D01*
X138811Y61943D01*
X129611Y89118D02*
X132021D01*
X132011Y83718D02*
Y84928D01*
X105011Y69718D02*
X109611D01*
X92439Y58118D02*
X93986Y59665D01*
X91211Y58118D02*
X92439D01*
X90211Y58118D02*
X91211Y59118D01*
X92411Y59318D02*
Y60508D01*
X90211Y57118D02*
X91211Y58118D01*
X88471Y58118D02*
X90211D01*
X87376Y57023D02*
X88471Y58118D01*
X72811Y64118D02*
Y67718D01*
Y64118D02*
X73411Y63518D01*
X74811D01*
X138255Y64118D02*
X140011D01*
X81811Y106518D02*
X87376D01*
X78811Y103518D02*
X81811Y106518D01*
X74905Y103518D02*
X78811D01*
X138811Y58118D02*
X139611Y58918D01*
X72411Y76318D02*
Y82718D01*
X92456Y107823D02*
X93801Y106478D01*
X116811Y64518D02*
Y70318D01*
X116411Y64728D02*
Y70484D01*
X116011Y65318D02*
Y70649D01*
X76811Y62718D02*
Y63386D01*
X76850Y63425D01*
X76011Y64524D02*
Y66118D01*
Y64524D02*
X76110Y64425D01*
X77286Y80513D02*
X78556Y79243D01*
X79826D01*
X85811Y85118D02*
X86211D01*
X103311Y103718D02*
X103811Y104218D01*
X105811D01*
X107977Y103318D02*
X108577Y103918D01*
X110611D01*
X108611Y102118D02*
X109011Y102518D01*
X108411D02*
X109011Y103118D01*
X108142Y102918D02*
X108742Y103518D01*
X107811Y103718D02*
X109011Y104918D01*
Y105718D01*
X105811Y104218D02*
X106511Y104918D01*
Y105718D01*
X107511Y106718D01*
X109131D01*
X110236Y107823D01*
X106491Y106618D02*
X107696Y107823D01*
X104711Y106618D02*
X106491D01*
X103911Y105818D02*
X104711Y106618D01*
X103911Y105018D02*
Y105818D01*
X102611Y103718D02*
X103911Y105018D01*
X131811Y106538D02*
X133096Y107823D01*
X131811Y104518D02*
Y106538D01*
X109011Y102518D02*
X113811D01*
X109011Y103118D02*
X113611D01*
X118411Y103918D02*
X119011Y104518D01*
X115211Y103918D02*
X118411D01*
X113811Y102518D02*
X115211Y103918D01*
X113611Y103118D02*
X115316Y104823D01*
X113011Y103518D02*
X113811Y104318D01*
X116821Y106318D02*
X117856Y105283D01*
X114611Y106318D02*
X116821D01*
X119011Y106438D02*
X120396Y107823D01*
X112783Y106718D02*
X116751D01*
X111411Y105346D02*
X112783Y106718D01*
X111411Y104718D02*
Y105346D01*
X116751Y106718D02*
X117856Y107823D01*
X113811Y105518D02*
X114611Y106318D01*
X113811Y104318D02*
Y105518D01*
X108742Y103518D02*
X113011D01*
X111471Y106518D02*
X112776Y107823D01*
X109811Y106518D02*
X111471D01*
X110611Y103918D02*
X111411Y104718D01*
X109011Y105718D02*
X109811Y106518D01*
X90611Y79918D02*
X98611D01*
X90611Y80918D02*
X99511D01*
X122921Y107808D02*
X124211Y106518D01*
X126611D01*
X109411Y63918D02*
X113787Y68294D01*
X109611Y64718D02*
X113362Y68469D01*
X108611Y64718D02*
X109611D01*
X109601Y65518D02*
X112938Y68855D01*
X107411Y65518D02*
X109601D01*
X109411Y66318D02*
X112514Y69421D01*
X93986Y59981D02*
X95423Y61418D01*
X93986Y59665D02*
Y59981D01*
X106611Y64718D02*
X107411Y65518D01*
X131011Y58118D02*
X131411Y58518D01*
X129111Y58118D02*
X131011D01*
X128016Y57023D02*
X129111Y58118D01*
X139611Y58918D02*
Y61118D01*
X131651Y58118D02*
X138811D01*
X130556Y57023D02*
X131651Y58118D01*
X124411Y58498D02*
Y60318D01*
X125476Y57983D02*
X126811Y59318D01*
X125476Y57023D02*
Y57983D01*
X120396Y59563D02*
X120656D01*
X121926Y58553D02*
Y60033D01*
X120396Y57023D02*
X121926Y58553D01*
X122936Y57023D02*
X124411Y58498D01*
X125211Y89718D02*
X128255Y92762D01*
X87411Y84918D02*
X87511Y84818D01*
X136411Y60718D02*
X137211Y61518D01*
X137611Y62318D02*
X138011Y62718D01*
X112811Y62118D02*
X116011Y65318D01*
X68755Y67248D02*
X71327D01*
X71400Y67175D01*
X69005Y58873D02*
X69600Y59468D01*
X70768D01*
X71400Y60100D01*
X78611Y62118D02*
Y62918D01*
X79011Y63318D01*
X80630Y62748D02*
Y63047D01*
X79011Y63318D02*
X80359D01*
X80630Y63047D01*
Y62748D02*
X80780Y62598D01*
X78011Y63029D02*
X79480Y64498D01*
X80555Y65924D02*
Y66223D01*
X80349Y65718D02*
X80555Y65924D01*
Y66223D02*
X80705Y66373D01*
X87411Y85918D02*
X88111Y85218D01*
X87411Y82918D02*
X88511Y84018D01*
X86211Y85118D02*
X87111Y84218D01*
X87701D01*
X87901Y84418D01*
X75811Y62518D02*
X76811D01*
X74811Y63518D02*
X75811Y62518D01*
X130556Y59563D02*
X131711Y60718D01*
X136411D01*
X126811Y59318D02*
Y59786D01*
X137021Y62318D02*
X137611D01*
X120656Y59563D02*
X124811Y63718D01*
X121926Y60033D02*
X125211Y63318D01*
X122936Y59563D02*
X126291Y62918D01*
X124411Y60318D02*
X126611Y62518D01*
X125476Y59563D02*
X128031Y62118D01*
X126811Y59786D02*
X128743Y61718D01*
X128016Y59563D02*
X129771Y61318D01*
X136021D01*
X137021Y62318D01*
X128743Y61718D02*
X135855D01*
X138255Y64118D01*
X128031Y62118D02*
X135690D01*
X126611Y62518D02*
X135524D01*
X126291Y62918D02*
X135358D01*
X125211Y63318D02*
X135193D01*
X124811Y63718D02*
X135011D01*
X132461Y82418D02*
X132811Y82768D01*
X131873Y86618D02*
X132411Y86080D01*
X82011Y74518D02*
X86811D01*
X80311Y72818D02*
X82011Y74518D01*
X76311Y72418D02*
X80911D01*
X81511Y73018D01*
X131711Y68618D02*
Y69344D01*
X132611Y71492D02*
X132787Y71668D01*
X133261D01*
X133711Y72118D01*
X131711Y69344D02*
X132611Y70244D01*
Y71492D01*
X129744Y70351D02*
X129811Y70418D01*
X130411Y67018D02*
X132111Y65318D01*
X132011Y67018D02*
Y67544D01*
X133711Y69244D01*
Y71018D01*
X97511Y102518D02*
X98011Y103018D01*
X99544Y101718D02*
X100444Y102618D01*
X99710Y101318D02*
X100610Y102218D01*
X99875Y100918D02*
X100775Y101818D01*
X100041Y100518D02*
X100941Y101418D01*
X100207Y100118D02*
X101107Y101018D01*
X100373Y99718D02*
X101273Y100618D01*
X106184Y100218D02*
X106784Y99618D01*
X100638Y99318D02*
X101538Y100218D01*
X106018Y99818D02*
X106618Y99218D01*
X100804Y98918D02*
X101704Y99818D01*
X98011Y103018D02*
X102901D01*
X103311Y103428D01*
X100444Y102618D02*
X103067D01*
X104167Y103718D01*
X100610Y102218D02*
X103232D01*
X104332Y103318D01*
X100775Y101818D02*
X103398D01*
X104498Y102918D01*
X100941Y101418D02*
X103564D01*
X104664Y102518D01*
X101107Y101018D02*
X103729D01*
X104829Y102118D01*
X101273Y100618D02*
X104111D01*
X105011Y101518D01*
X101538Y100218D02*
X106184D01*
X101704Y99818D02*
X106018D01*
X101311Y95918D02*
X101711Y95518D01*
X100711Y95918D02*
X101311D01*
X101411Y94518D02*
X102011Y95118D01*
X115911D01*
X101711Y95518D02*
X117311D01*
X104011Y97018D02*
Y97318D01*
X104611Y96718D01*
X104811Y98018D02*
X105711Y97118D01*
X104311Y98018D02*
X104811D01*
X112611Y87418D02*
X116511D01*
X89325Y85618D02*
X110811D01*
X112611Y87418D01*
X88511Y84018D02*
X99599D01*
X92811Y83318D02*
X93511Y82618D01*
X99599Y84018D02*
X100279Y83337D01*
X105308D01*
X115672Y83617D02*
X116610D01*
X116611Y83618D01*
X93511Y82618D02*
X102853D01*
X120574D02*
X123111D01*
X102853D02*
X103784Y81686D01*
X119642D01*
X120574Y82618D01*
X114213Y83820D02*
X115311Y84918D01*
X116891Y82144D02*
X117461Y82714D01*
Y84242D01*
X117637Y84418D01*
X123621D01*
X112624Y83820D02*
X114213D01*
X112522Y82144D02*
X116891D01*
X112268Y82398D02*
X112522Y82144D01*
X112268Y82398D02*
Y83464D01*
X112624Y83820D01*
X80055Y68273D02*
Y68572D01*
X80408Y68925D01*
X83725D01*
X85587Y68175D02*
X85877Y68466D01*
X80055Y66373D02*
Y66672D01*
X80667Y67285D01*
X83725Y68925D02*
X84016Y69216D01*
X90113D02*
X90811Y68518D01*
X84016Y69216D02*
X90113D01*
X82983Y67650D02*
X85893D01*
X80130Y64498D02*
Y64797D01*
X82983Y67650D01*
X80130Y62299D02*
Y62598D01*
X88240Y66612D02*
X88938D01*
X89383Y66167D01*
X88836Y63856D02*
X89459D01*
X88290Y63310D02*
X88836Y63856D01*
X85893Y67650D02*
X86931Y66612D01*
X88240D01*
X89966Y67362D02*
X90780Y66548D01*
X86982Y67362D02*
X89966D01*
X85877Y68466D02*
X86982Y67362D01*
X84710Y64910D02*
X88290D01*
X84400Y64600D02*
X84710Y64910D01*
X84298Y64498D02*
X84400Y64600D01*
X80780Y64498D02*
X84298D01*
X87338Y68212D02*
X88240D01*
X87198Y68351D02*
X87338Y68212D01*
X80667Y67285D02*
X81864D01*
X82755Y68175D01*
X85587D01*
X80705Y68273D02*
X81409D01*
X81559Y68123D01*
X76564Y94344D02*
X82838D01*
X76556Y94336D02*
X76564Y94344D01*
X80130Y62299D02*
X81367Y61062D01*
X86042D01*
X88290Y63310D01*
X133299Y67818D02*
X135890Y70409D01*
X137566D01*
D35*
X66830Y59448D02*
X67405Y58873D01*
X66830Y59448D02*
Y61872D01*
X67145Y62187D01*
Y62941D01*
X67120Y62967D02*
X67145Y62941D01*
X67120Y62967D02*
Y64364D01*
Y64912D01*
X66830Y65201D02*
X67120Y64912D01*
X66830Y65201D02*
Y66272D01*
X67155Y66597D01*
Y67248D01*
X70834Y62941D02*
X71400Y62375D01*
X68745Y62941D02*
X70834D01*
X71014Y64364D02*
X71400Y64750D01*
X68720Y64364D02*
X71014D01*
X73880Y99483D02*
X73914Y99517D01*
X73880Y94787D02*
Y99483D01*
X81970Y102417D02*
X84836Y105283D01*
X72748Y102417D02*
X81970D01*
X144511Y85518D02*
X144611D01*
X144711Y85418D01*
Y86687D01*
X147411Y89387D01*
X129211Y67718D02*
X130111Y68618D01*
X127411Y71251D02*
Y72918D01*
X128380Y73887D01*
X143511Y65518D02*
X143811D01*
X142311Y66718D02*
X143511Y65518D01*
X137111Y69318D02*
X137511D01*
X134211Y66418D02*
X137111Y69318D01*
X127411Y71251D02*
X128311Y70351D01*
X128380Y73887D02*
Y76448D01*
X128455Y76523D01*
X64111Y72418D02*
X67155Y69374D01*
X64711Y85618D02*
X73880Y94787D01*
X64711Y73018D02*
Y85618D01*
Y73018D02*
X67611Y70118D01*
X73184D01*
X74893Y69374D02*
X75837Y70318D01*
X67155Y69374D02*
X74893D01*
X74773Y70103D02*
X76388Y71718D01*
X73199Y70103D02*
X74773D01*
X75837Y70318D02*
X80211D01*
X73184Y70118D02*
X73199Y70103D01*
X147411Y89387D02*
Y92945D01*
X145068Y95288D02*
X147411Y92945D01*
X135488Y95288D02*
X145068D01*
X134400Y94200D02*
X135488Y95288D01*
X140200Y96893D02*
X148539D01*
X144011Y65218D02*
X148082Y65237D01*
X147175Y81100D02*
X148415Y79860D01*
X114206Y59313D02*
Y60023D01*
X142419Y81100D02*
X143075D01*
X82161Y71068D02*
X84011Y72918D01*
X81161Y71068D02*
X82161D01*
X80411Y70318D02*
X81161Y71068D01*
X76388Y71718D02*
X81411D01*
X84011Y72918D02*
X91811D01*
X120396Y101703D02*
Y105283D01*
X119011Y100318D02*
X120396Y101703D01*
X91811Y62718D02*
Y72918D01*
X101411Y58318D02*
X113211D01*
X114206Y59313D01*
X97272Y78379D02*
X99950D01*
X91811Y72918D02*
X97272Y78379D01*
X67155Y67248D02*
Y69374D01*
X143075Y81100D02*
X147175D01*
X142229D02*
X143075D01*
X139576Y83753D02*
X142229Y81100D01*
X74211Y56318D02*
X75241D01*
X77216Y58293D01*
X79711Y55798D01*
Y55718D02*
Y55798D01*
X81411Y71718D02*
X82411Y72718D01*
Y73618D01*
X64111Y72418D02*
Y88698D01*
X70790Y95377D01*
Y100459D01*
X72748Y102417D01*
X121901Y67718D02*
X129211D01*
X114206Y60023D02*
X121901Y67718D01*
D37*
X87376Y106518D02*
Y107823D01*
Y105283D02*
Y106518D01*
X89916Y105283D02*
Y107823D01*
X86004Y103911D02*
X88544D01*
X89916Y105283D01*
D38*
X86004Y103911D02*
X87376Y105283D01*
X81610Y99517D02*
X86004Y103911D01*
X73914Y99517D02*
X81610D01*
D39*
X132800Y94200D02*
X132808D01*
X133790Y93218D01*
X136011D01*
X136616Y93823D01*
X137490D01*
X134392Y94200D02*
X134400D01*
X133438Y95154D02*
X134392Y94200D01*
X129879Y95154D02*
X133438D01*
X129025Y94300D02*
X129879Y95154D01*
X94611Y98218D02*
X101811D01*
X102465Y98872D01*
X106181D01*
X107235Y97818D01*
X125507D01*
X129025Y94300D01*
D41*
X143256Y103378D02*
D03*
Y61468D02*
D03*
X77216Y106553D02*
D03*
Y58293D02*
D03*
D42*
X82296Y59563D02*
D03*
Y107823D02*
D03*
D43*
X84836Y59563D02*
D03*
X87376D02*
D03*
X89916D02*
D03*
X92456D02*
D03*
X94996D02*
D03*
X97536D02*
D03*
X100076D02*
D03*
X102616D02*
D03*
X105156D02*
D03*
X107696D02*
D03*
X110236D02*
D03*
X112776D02*
D03*
X115316D02*
D03*
X117856D02*
D03*
X120396D02*
D03*
X122936D02*
D03*
X125476D02*
D03*
X128016D02*
D03*
X130556D02*
D03*
X133096D02*
D03*
X135636D02*
D03*
X138176D02*
D03*
X82296Y57023D02*
D03*
X84836D02*
D03*
X87376D02*
D03*
X89916D02*
D03*
X92456D02*
D03*
X94996D02*
D03*
X97536D02*
D03*
X100076D02*
D03*
X102616D02*
D03*
X105156D02*
D03*
X107696D02*
D03*
X110236D02*
D03*
X112776D02*
D03*
X115316D02*
D03*
X117856D02*
D03*
X120396D02*
D03*
X122936D02*
D03*
X125476D02*
D03*
X128016D02*
D03*
X130556D02*
D03*
X133096D02*
D03*
X135636D02*
D03*
X138176D02*
D03*
X84836Y107823D02*
D03*
X87376D02*
D03*
X89916D02*
D03*
X92456D02*
D03*
X94996D02*
D03*
X97536D02*
D03*
X100076D02*
D03*
X102616D02*
D03*
X105156D02*
D03*
X107696D02*
D03*
X110236D02*
D03*
X112776D02*
D03*
X115316D02*
D03*
X117856D02*
D03*
X120396D02*
D03*
X122936D02*
D03*
X125476D02*
D03*
X128016D02*
D03*
X130556D02*
D03*
X133096D02*
D03*
X135636D02*
D03*
X138176D02*
D03*
X82296Y105283D02*
D03*
X84836D02*
D03*
X87376D02*
D03*
X89916D02*
D03*
X92456D02*
D03*
X94996D02*
D03*
X97536D02*
D03*
X100076D02*
D03*
X102616D02*
D03*
X105156D02*
D03*
X107696D02*
D03*
X110236D02*
D03*
X112776D02*
D03*
X115316D02*
D03*
X117856D02*
D03*
X120396D02*
D03*
X122936D02*
D03*
X125476D02*
D03*
X128016D02*
D03*
X130556D02*
D03*
X133096D02*
D03*
X135636D02*
D03*
X138176D02*
D03*
D44*
X137490Y89323D02*
D03*
X137490Y86823D02*
D03*
X137490Y91323D02*
D03*
D45*
Y93823D02*
D03*
D46*
X140200Y96893D02*
D03*
Y83753D02*
D03*
D47*
X133400Y98600D02*
D03*
X84400Y64600D02*
D03*
D48*
X67730Y61499D02*
D03*
Y65899D02*
D03*
X144211Y78198D02*
D03*
Y70218D02*
D03*
D49*
X67914Y99517D02*
D03*
D50*
X73914D02*
D03*
D51*
X70914Y104217D02*
D03*
D52*
X67556Y86203D02*
D03*
X66036Y73553D02*
D03*
X67556Y76093D02*
D03*
X66036Y83663D02*
D03*
D53*
X70936Y74163D02*
D03*
Y85593D02*
D03*
D54*
X73986Y87753D02*
D03*
Y72003D02*
D03*
D55*
X77286Y75433D02*
D03*
D56*
X79826Y84323D02*
D03*
X77286Y83053D02*
D03*
X79826Y81783D02*
D03*
X77286Y80513D02*
D03*
X79826Y79243D02*
D03*
X77286Y77973D02*
D03*
X79826Y76703D02*
D03*
D57*
X110961Y76418D02*
D03*
X108461D02*
D03*
X105961D02*
D03*
X103461D02*
D03*
X100961D02*
D03*
D58*
X98461D02*
D03*
D59*
X91516Y94564D02*
D03*
D60*
X84887Y79604D02*
D03*
X78211Y65118D02*
D03*
X77211D02*
D03*
X145111Y89236D02*
D03*
X144211Y88618D02*
D03*
X144511Y85518D02*
D03*
X139211Y74718D02*
D03*
X138711Y76218D02*
D03*
X139811Y76018D02*
D03*
X136311Y79718D02*
D03*
X138011Y77618D02*
D03*
X138711Y78418D02*
D03*
X137911Y80818D02*
D03*
X137611Y72818D02*
D03*
Y71718D02*
D03*
X130911Y78118D02*
D03*
X131011Y79118D02*
D03*
X132211Y75618D02*
D03*
X136005Y81118D02*
D03*
X137511Y69318D02*
D03*
X142311Y66718D02*
D03*
X144811Y73918D02*
D03*
X147601Y87638D02*
D03*
X144991Y93348D02*
D03*
X139051Y85768D02*
D03*
X146321Y82358D02*
D03*
X145921Y84778D02*
D03*
X87418Y87525D02*
D03*
X78911Y90218D02*
D03*
X75411Y90018D02*
D03*
X69611Y71118D02*
D03*
X67611Y73118D02*
D03*
X67818Y79223D02*
D03*
X76511Y67118D02*
D03*
X79211Y67318D02*
D03*
X98811Y56418D02*
D03*
X96211D02*
D03*
X93711D02*
D03*
X101311Y60318D02*
D03*
X95611Y75018D02*
D03*
X108711Y79018D02*
D03*
X95611Y72618D02*
D03*
X93611D02*
D03*
X75011Y76618D02*
D03*
X147011Y71818D02*
D03*
Y73918D02*
D03*
X126611Y92818D02*
D03*
X115711Y93818D02*
D03*
X102611Y66418D02*
D03*
Y67718D02*
D03*
X109611Y68118D02*
D03*
X86211Y58318D02*
D03*
X96311D02*
D03*
X124011Y96518D02*
D03*
X143611Y92918D02*
D03*
X142611D02*
D03*
X127611Y78500D02*
D03*
X127011Y68718D02*
D03*
X123517Y72307D02*
D03*
X116611Y58318D02*
D03*
X117611Y61118D02*
D03*
X125011Y64518D02*
D03*
X127811D02*
D03*
X130611D02*
D03*
X140311Y62618D02*
D03*
X144811Y71818D02*
D03*
X147711Y82318D02*
D03*
X144611Y82718D02*
D03*
X142611D02*
D03*
Y91918D02*
D03*
X135311Y91718D02*
D03*
X90711Y87818D02*
D03*
X87511Y89100D02*
D03*
X92711Y97118D02*
D03*
X95111Y92918D02*
D03*
X93011Y87018D02*
D03*
X86211Y82218D02*
D03*
X70028Y60782D02*
D03*
X70079Y66319D02*
D03*
X88211Y70718D02*
D03*
X82411Y73618D02*
D03*
X99950Y78379D02*
D03*
X119911Y94118D02*
D03*
X120911Y95118D02*
D03*
X119901Y95118D02*
D03*
X118111Y92918D02*
D03*
X118911Y93918D02*
D03*
X120911Y96118D02*
D03*
X93811Y98218D02*
D03*
X94611D02*
D03*
X102811Y97118D02*
D03*
X132611Y88718D02*
D03*
X131939Y83619D02*
D03*
X131011Y82118D02*
D03*
X132461Y82418D02*
D03*
X131011Y83118D02*
D03*
X131536Y85918D02*
D03*
X130886Y85143D02*
D03*
X131011Y84118D02*
D03*
Y80118D02*
D03*
Y81118D02*
D03*
X105011Y69718D02*
D03*
X91811Y62718D02*
D03*
X101411Y58318D02*
D03*
X93611Y60718D02*
D03*
X80411Y70318D02*
D03*
X140011Y64118D02*
D03*
X139011Y62318D02*
D03*
X76811Y62518D02*
D03*
X76011Y66118D02*
D03*
X86811Y74518D02*
D03*
X81111Y87718D02*
D03*
Y88818D02*
D03*
X97511Y102518D02*
D03*
X101411Y94518D02*
D03*
X87411Y84918D02*
D03*
X86411Y83718D02*
D03*
X113211Y101518D02*
D03*
X82411Y76318D02*
D03*
X81211Y77118D02*
D03*
Y78118D02*
D03*
Y79118D02*
D03*
Y80118D02*
D03*
X98611Y79918D02*
D03*
X100111Y81518D02*
D03*
X90611Y80918D02*
D03*
Y79918D02*
D03*
X126611Y106518D02*
D03*
X89383Y66167D02*
D03*
X90811Y68518D02*
D03*
X96211Y60718D02*
D03*
X106611Y64718D02*
D03*
Y63118D02*
D03*
X109411Y66318D02*
D03*
X108611Y64718D02*
D03*
X109411Y63918D02*
D03*
X112811Y62118D02*
D03*
X139611Y61118D02*
D03*
X80911Y92218D02*
D03*
X81911Y93218D02*
D03*
X125211Y89718D02*
D03*
X146611D02*
D03*
X92811Y83318D02*
D03*
X137211Y61518D02*
D03*
X86611Y86718D02*
D03*
X85011Y82318D02*
D03*
X85811Y85118D02*
D03*
X87411Y82918D02*
D03*
X87411Y85918D02*
D03*
X77011Y69118D02*
D03*
X119011Y100318D02*
D03*
X138011Y62718D02*
D03*
X137211Y67318D02*
D03*
X81511Y73018D02*
D03*
X102611Y103718D02*
D03*
X104011Y97018D02*
D03*
X100711Y95918D02*
D03*
X102211Y96318D02*
D03*
X104311Y98018D02*
D03*
X105308Y83337D02*
D03*
X115672Y83617D02*
D03*
X90780Y66548D02*
D03*
X89459Y63856D02*
D03*
X87198Y68351D02*
D03*
X81559Y68123D02*
D03*
X76556Y94336D02*
D03*
X137566Y70409D02*
D03*
X133299Y67818D02*
D03*
D61*
X65877Y106553D02*
D03*
X68377D02*
D03*
X73900Y60100D02*
D03*
X71400D02*
D03*
X73900Y62375D02*
D03*
X71400D02*
D03*
X73900Y64750D02*
D03*
X71400D02*
D03*
X73900Y67175D02*
D03*
X71400D02*
D03*
D62*
X129025Y94300D02*
D03*
X124025D02*
D03*
D63*
X79480Y62598D02*
D03*
X80130D02*
D03*
X80780D02*
D03*
Y64498D02*
D03*
X80130D02*
D03*
X79480D02*
D03*
X79405Y66373D02*
D03*
X80055D02*
D03*
X80705D02*
D03*
Y68273D02*
D03*
X80055D02*
D03*
X79405D02*
D03*
D64*
X76850Y63425D02*
D03*
X76110D02*
D03*
Y63925D02*
D03*
Y64425D02*
D03*
X76850Y63925D02*
D03*
Y64425D02*
D03*
D65*
X143811Y65518D02*
D03*
Y81018D02*
D03*
D66*
X134211Y66418D02*
D03*
D67*
Y81018D02*
D03*
D68*
X133711Y72118D02*
D03*
Y71018D02*
D03*
Y73218D02*
D03*
Y74318D02*
D03*
Y75418D02*
D03*
Y76518D02*
D03*
Y77618D02*
D03*
Y78718D02*
D03*
Y79818D02*
D03*
D69*
X133011Y74318D02*
X133711D01*
X131511Y72818D02*
X133011Y74318D01*
X131511Y72118D02*
Y72818D01*
X129811Y70418D02*
X131511Y72118D01*
X128311Y70351D02*
X129744D01*
X129811Y68918D02*
X130111Y68618D01*
X130411Y68318D01*
Y67018D02*
Y68318D01*
X129811Y68918D02*
Y70418D01*
D70*
X94261Y97818D02*
D03*
M02*
